G04*
G04 #@! TF.GenerationSoftware,Altium Limited,Altium Designer,25.5.2 (35)*
G04*
G04 Layer_Color=16711935*
%FSLAX44Y44*%
%MOMM*%
G71*
G04*
G04 #@! TF.SameCoordinates,15FE918A-F286-447B-A6B9-73AEC13AD3D3*
G04*
G04*
G04 #@! TF.FilePolarity,Positive*
G04*
G01*
G75*
%ADD10C,0.2000*%
%ADD15C,0.1270*%
%ADD18C,0.0762*%
%ADD122C,0.1000*%
%ADD123C,0.0254*%
%ADD124R,1.2500X0.2690*%
%ADD125R,0.6187X2.9200*%
%ADD126R,2.9200X0.6187*%
%ADD127R,0.2690X1.2500*%
D10*
X154670Y297190D02*
G03*
X154670Y297190I-1000J0D01*
G01*
X181340D02*
G03*
X181340Y297190I-1000J0D01*
G01*
D15*
X157670Y276190D02*
Y288190D01*
X149670Y276190D02*
X157670D01*
X149670D02*
Y288190D01*
X157670D01*
X201120Y532700D02*
Y582700D01*
X714120D01*
Y532700D02*
Y582700D01*
X201120Y532700D02*
X714120D01*
X151960Y155580D02*
X201960D01*
X151960D02*
Y205580D01*
X201960D01*
Y155580D02*
Y205580D01*
X184340Y276190D02*
Y288190D01*
X176340Y276190D02*
X184340D01*
X176340D02*
Y288190D01*
X184340D01*
D18*
X362933Y259115D02*
X371397Y250651D01*
X362933D02*
X371397Y259115D01*
X362933Y254883D02*
X371397D01*
X367165Y250651D02*
Y259115D01*
D122*
X360140Y368370D02*
X449040D01*
X360140Y472370D02*
X449040D01*
Y368370D02*
Y472370D01*
X360140Y368370D02*
Y472370D01*
X760540Y186310D02*
X768540D01*
X760540Y202310D02*
X768540D01*
X760540Y186310D02*
Y202310D01*
X768540Y186310D02*
Y202310D01*
X704750Y657610D02*
Y677610D01*
X692250Y657610D02*
Y677610D01*
X704750D01*
X692250Y657610D02*
X704750D01*
X149720Y304170D02*
Y333370D01*
X195720Y304170D02*
Y333370D01*
X149720D02*
X195720D01*
X149720Y304170D02*
X195720D01*
X703080Y222060D02*
Y230060D01*
X719080Y222060D02*
Y230060D01*
X703080D02*
X719080D01*
X703080Y222060D02*
X719080D01*
X662832Y358954D02*
X670832D01*
X662832Y374954D02*
X670832D01*
X662832Y358954D02*
Y374954D01*
X670832Y358954D02*
Y374954D01*
X642512Y358954D02*
X650512D01*
X642512Y374954D02*
X650512D01*
X642512Y358954D02*
Y374954D01*
X650512Y358954D02*
Y374954D01*
X273506Y227222D02*
Y235222D01*
X257506Y227222D02*
Y235222D01*
Y227222D02*
X273506D01*
X257506Y235222D02*
X273506D01*
X286830Y231400D02*
X294830D01*
X286830Y215400D02*
X294830D01*
Y231400D01*
X286830Y215400D02*
Y231400D01*
X305798Y231596D02*
X313798D01*
X305798Y215596D02*
X313798D01*
Y231596D01*
X305798Y215596D02*
Y231596D01*
X306570Y147130D02*
Y155130D01*
X290570Y147130D02*
Y155130D01*
Y147130D02*
X306570D01*
X290570Y155130D02*
X306570D01*
X258624Y186418D02*
Y194418D01*
X274624Y186418D02*
Y194418D01*
X258624D02*
X274624D01*
X258624Y186418D02*
X274624D01*
X237218Y190956D02*
X245218D01*
X237218Y174956D02*
X245218D01*
Y190956D01*
X237218Y174956D02*
Y190956D01*
X202190Y247460D02*
Y255460D01*
X186190Y247460D02*
Y255460D01*
Y247460D02*
X202190D01*
X186190Y255460D02*
X202190D01*
X202386Y227222D02*
Y235222D01*
X186386Y227222D02*
Y235222D01*
Y227222D02*
X202386D01*
X186386Y235222D02*
X202386D01*
X103130Y352870D02*
Y360870D01*
X87130Y352870D02*
Y360870D01*
Y352870D02*
X103130D01*
X87130Y360870D02*
X103130D01*
X96780Y45530D02*
Y53530D01*
X80780Y45530D02*
Y53530D01*
Y45530D02*
X96780D01*
X80780Y53530D02*
X96780D01*
X614224Y92438D02*
Y100438D01*
X630224Y92438D02*
Y100438D01*
X614224D02*
X630224D01*
X614224Y92438D02*
X630224D01*
X710744D02*
Y100438D01*
X726744Y92438D02*
Y100438D01*
X710744D02*
X726744D01*
X710744Y92438D02*
X726744D01*
X605334Y221978D02*
Y229978D01*
X621334Y221978D02*
Y229978D01*
X605334D02*
X621334D01*
X605334Y221978D02*
X621334D01*
X629290Y473850D02*
X658490D01*
X629290Y427850D02*
X658490D01*
Y473850D01*
X629290Y427850D02*
Y473850D01*
X147480Y257710D02*
X167480D01*
X147480Y245210D02*
X167480D01*
X147480D02*
Y257710D01*
X167480Y245210D02*
Y257710D01*
X636430Y392530D02*
X656430D01*
X636430Y405030D02*
X656430D01*
Y392530D02*
Y405030D01*
X636430Y392530D02*
Y405030D01*
X276760Y656750D02*
Y676750D01*
X264260Y656750D02*
Y676750D01*
X276760D01*
X264260Y656750D02*
X276760D01*
X487580Y653800D02*
Y673800D01*
X475080Y653800D02*
Y673800D01*
X487580D01*
X475080Y653800D02*
X487580D01*
X623380Y359030D02*
Y375030D01*
X631380Y359030D02*
Y375030D01*
X623380Y359030D02*
X631380D01*
X623380Y375030D02*
X631380D01*
X290570Y174180D02*
X306570D01*
X290570Y166180D02*
X306570D01*
X290570D02*
Y174180D01*
X306570Y166180D02*
Y174180D01*
X515240Y59880D02*
X531240D01*
X515240Y51880D02*
X531240D01*
X515240D02*
Y59880D01*
X531240Y51880D02*
Y59880D01*
X155398Y225575D02*
X171398D01*
X155398Y233575D02*
X171398D01*
Y225575D02*
Y233575D01*
X155398Y225575D02*
Y233575D01*
X87250Y341820D02*
X103250D01*
X87250Y333820D02*
X103250D01*
X87250D02*
Y341820D01*
X103250Y333820D02*
Y341820D01*
X81020Y71310D02*
X97020D01*
X81020Y63310D02*
X97020D01*
X81020D02*
Y71310D01*
X97020Y63310D02*
Y71310D01*
X233870Y130550D02*
Y146550D01*
X225870Y130550D02*
Y146550D01*
X233870D01*
X225870Y130550D02*
X233870D01*
X87250Y270320D02*
X103250D01*
X87250Y278320D02*
X103250D01*
Y270320D02*
Y278320D01*
X87250Y270320D02*
Y278320D01*
X176340Y114040D02*
Y130040D01*
X184340Y114040D02*
Y130040D01*
X176340Y114040D02*
X184340D01*
X176340Y130040D02*
X184340D01*
X213170Y97410D02*
Y113410D01*
X221170Y97410D02*
Y113410D01*
X213170Y97410D02*
X221170D01*
X213170Y113410D02*
X221170D01*
X85980Y128080D02*
X101980D01*
X85980Y136080D02*
X101980D01*
Y128080D02*
Y136080D01*
X85980Y128080D02*
Y136080D01*
X147130Y115190D02*
Y131190D01*
X155130Y115190D02*
Y131190D01*
X147130Y115190D02*
X155130D01*
X147130Y131190D02*
X155130D01*
X572390Y92520D02*
X588390D01*
X572390Y100520D02*
X588390D01*
Y92520D02*
Y100520D01*
X572390Y92520D02*
Y100520D01*
X670060Y92520D02*
X686060D01*
X670060Y100520D02*
X686060D01*
Y92520D02*
Y100520D01*
X670060Y92520D02*
Y100520D01*
X571240Y222060D02*
X587240D01*
X571240Y230060D02*
X587240D01*
Y222060D02*
Y230060D01*
X571240Y222060D02*
Y230060D01*
X668910Y222060D02*
X684910D01*
X668910Y230060D02*
X684910D01*
Y222060D02*
Y230060D01*
X668910Y222060D02*
Y230060D01*
X193930Y629730D02*
X209930D01*
X193930Y637730D02*
X209930D01*
Y629730D02*
Y637730D01*
X193930Y629730D02*
Y637730D01*
X274510Y728600D02*
Y744600D01*
X266510Y728600D02*
Y744600D01*
X274510D01*
X266510Y728600D02*
X274510D01*
X266510Y695700D02*
Y711700D01*
X274510Y695700D02*
Y711700D01*
X266510Y695700D02*
X274510D01*
X266510Y711700D02*
X274510D01*
X412370Y632270D02*
X428370D01*
X412370Y640270D02*
X428370D01*
Y632270D02*
Y640270D01*
X412370Y632270D02*
Y640270D01*
X482790Y732410D02*
Y748410D01*
X474790Y732410D02*
Y748410D01*
X482790D01*
X474790Y732410D02*
X482790D01*
X474790Y694310D02*
Y710310D01*
X482790Y694310D02*
Y710310D01*
X474790Y694310D02*
X482790D01*
X474790Y710310D02*
X482790D01*
X627190Y618110D02*
Y634110D01*
X635190Y618110D02*
Y634110D01*
X627190Y618110D02*
X635190D01*
X627190Y634110D02*
X635190D01*
X702500Y728600D02*
Y744600D01*
X694500Y728600D02*
Y744600D01*
X702500D01*
X694500Y728600D02*
X702500D01*
Y696850D02*
Y712850D01*
X694500Y696850D02*
Y712850D01*
X702500D01*
X694500Y696850D02*
X702500D01*
X764160Y307530D02*
X780160D01*
X764160Y299530D02*
X780160D01*
X764160D02*
Y307530D01*
X780160Y299530D02*
Y307530D01*
X764160Y327850D02*
X780160D01*
X764160Y319850D02*
X780160D01*
X764160D02*
Y327850D01*
X780160Y319850D02*
Y327850D01*
X197930Y112650D02*
X205930D01*
X197930Y128650D02*
X205930D01*
X197930Y112650D02*
Y128650D01*
X205930Y112650D02*
Y128650D01*
X777050Y186430D02*
X785050D01*
X777050Y202430D02*
X785050D01*
X777050Y186430D02*
Y202430D01*
X785050Y186430D02*
Y202430D01*
D123*
X349722Y74777D02*
Y329793D01*
X529808D01*
Y74777D02*
Y329793D01*
X349722Y74777D02*
X529808D01*
D124*
X698500Y658955D02*
D03*
X270510Y658095D02*
D03*
X481330Y655145D02*
D03*
D125*
X192626Y318770D02*
D03*
D126*
X643890Y430944D02*
D03*
D127*
X166135Y251460D02*
D03*
X637775Y398780D02*
D03*
M02*
