M48
;Layer_Color=9474304
;FILE_FORMAT=4:4
METRIC,LZ
;TYPE=PLATED
T01F00S00C0.3000
T02F00S00C0.4000
T03F00S00C0.7874
T04F00S00C0.8128
T05F00S00C0.9000
T06F00S00C1.0000
T07F00S00C1.0200
T08F00S00C1.1000
T09F00S00C1.1430
T11F00S00C2.7500
T12F00S00C3.0000
;TYPE=NON_PLATED
T13F00S00C1.0000
%
T01
X0012954Y0005461
X0021717Y0008255
X0023749Y0007366
X0029718Y0011303
X00316176Y00112891
X0031623Y0009906
X0039116Y001143
X0039497Y0006453
X0048514Y0005753
X0049657Y0004153
Y0001016
X0056769Y0001791
Y000635
X0054356Y0005588
X0060071Y0009652
X0065151Y0009779
X00651808Y001143
X0065151Y0007493
X006985Y0009525
X0075057Y0009398
X0088646Y000889
X0091186Y0009525
Y0001916
X0094488Y0001016
X0096647Y0011176
X0099568Y0011684
X0085471Y0022098
X0084201Y0023114
X0083439Y0024003
X0079629Y0020574
X0076454Y0021463
X0072898Y0020574
X0073622Y0023495
X0068453Y0021182
X00635Y0021463
X00634249Y0019482
X0057023Y0021336
X005461Y002032
X00546114Y0024836
X0055626Y002413
X00542808Y0026924
X0056261Y0028448
X00567702Y00165026
X0056769Y001524
X0058293Y001444
X0054991Y0012827
X0075438Y0017399
X0075222Y0030226
X0076327Y0033401
X0049276Y00256357
X004699Y00264357
X0042418Y002286
X003937Y0021717
Y002032
X00381Y0012827
X00330415Y00120077
X0032258Y0013462
X0033147Y0014605
X0023241Y0016383
X002159Y001651
X0022352Y0017653
X0025273Y002032
X0024511Y0023114
X0019685Y0029464
X0016637Y0027096
X0016891Y0013208
X0019177Y0013843
X0021717Y0012391
X0028194Y0033731
X002921Y0035433
X0032464Y0033655
X0029083Y0040894
Y0048952
X0011684Y0032004
X0012954Y003048
X0007112Y0032004
X000635Y0026416
X0011176Y002286
X0012446Y0021844
Y002032
X0011684Y0013208
X00127Y0012319
X000635Y0013208
X002286Y0063246
X002921Y0067437
X0045085Y0063627
X0050546Y006731
X0061087Y0061722
T02
X00508Y002032
Y0021717
X0047752Y0035306
T03
X0056515Y0012954
Y0018034
X0062865
X0066294
Y0012954
X0062865
X0072644
Y0018034
X0072517Y0025654
Y0030734
X0066167
X0062865
Y0025654
X0066167
X0056515
Y0030734
X0044196Y0065786
X0041656
Y0073406
X0044196
X0023114Y0073279
X0020574
Y0065659
X0023114
X0063119Y0065405
X0065659
Y0073025
X0063119
T04
X0015113Y0067437
Y0069977
Y0072517
X003683
Y0069977
Y0067437
X0058293Y0066929
Y0069469
Y0072009
T05
X0056769Y0004826
X0059309
X0061849
X0064389
X0095235Y0017272
X0097775
X010033
X0102855
X0105405
X0107945
X0110485
X0113025
X0115565
X0118105
X0120645
X0123185
X0092695
X0090155
X0004191Y0052705
Y0055245
Y00582928
Y00608327
Y0063754
Y0066294
T06
X010541Y0005207
X011049
X011303
X011557
X011811
X012065
X00074022Y00180692
Y00224692
X0008763Y006985
Y007239
X0030734
Y006985
X0051943Y0069723
Y0072263
T07
X0067945Y0003683
X0070485
X0073025
X0075565
X0078105
X0083566Y0004699
X0086106
X0088646
X0091186
X012446Y0005207
X0127
X012954
X0052112Y00545
Y005704
X0049572
Y00545
X0047032
Y005704
X0044492
Y00545
X0041952
Y005704
X0039412
Y00545
X0036872
X0034332
Y005704
X0031792
X0029252
Y00545
X0026712
X0024172
Y005704
X0021632
Y00545
X0026712Y005704
X0031792Y00545
X0036872Y005704
X0054652
Y00545
X0057192
X0059732
X0062272
X0064812
X0067352
Y005704
X0069892
Y00545
X0064812Y005704
X0062272
X0059732
X0057192
T08
X0057698Y0100203
X0062698
X0052698
X004175
X003675
X003175
X0019605
X0014605
X0009605
T09
X0008763Y0079248
X0014859Y0076708
X0020955Y0079248
X0030861
X0036957Y0076708
X0043053Y0079248
X005207Y0079121
X0058166Y0076581
X0064262Y0079121
Y0091313
X005207
X0043053Y009144
X0030861
X0020955
X0008763
T11
X0016762Y000677
X0074762
X0016762Y005577
X0074762
T12
X0131005Y0101497
X008213Y0101572
T13
X009779Y0005207
X010033
X010287
X010795
M30
