G04*
G04 #@! TF.GenerationSoftware,Altium Limited,Altium Designer,25.5.2 (35)*
G04*
G04 Layer_Physical_Order=1*
G04 Layer_Color=255*
%FSLAX44Y44*%
%MOMM*%
G71*
G04*
G04 #@! TF.SameCoordinates,15FE918A-F286-447B-A6B9-73AEC13AD3D3*
G04*
G04*
G04 #@! TF.FilePolarity,Positive*
G04*
G01*
G75*
%ADD10C,0.2000*%
%ADD12C,0.2500*%
%ADD20R,2.5000X2.0000*%
%ADD21R,2.2500X0.5000*%
%ADD22R,0.4000X0.4800*%
%ADD23R,1.6000X4.0000*%
%ADD24R,4.0000X2.0000*%
%ADD25R,3.2500X1.1000*%
%ADD26R,9.1000X10.1000*%
%ADD27R,0.8500X1.2000*%
%ADD28R,1.1000X2.1500*%
%ADD29R,1.1000X2.1500*%
%ADD30R,3.5000X2.1500*%
%ADD31R,0.9500X1.0000*%
G04:AMPARAMS|DCode=32|XSize=0.26mm|YSize=0.97mm|CornerRadius=0.065mm|HoleSize=0mm|Usage=FLASHONLY|Rotation=90.000|XOffset=0mm|YOffset=0mm|HoleType=Round|Shape=RoundedRectangle|*
%AMROUNDEDRECTD32*
21,1,0.2600,0.8400,0,0,90.0*
21,1,0.1300,0.9700,0,0,90.0*
1,1,0.1300,0.4200,0.0650*
1,1,0.1300,0.4200,-0.0650*
1,1,0.1300,-0.4200,-0.0650*
1,1,0.1300,-0.4200,0.0650*
%
%ADD32ROUNDEDRECTD32*%
G04:AMPARAMS|DCode=33|XSize=0.26mm|YSize=0.97mm|CornerRadius=0.065mm|HoleSize=0mm|Usage=FLASHONLY|Rotation=180.000|XOffset=0mm|YOffset=0mm|HoleType=Round|Shape=RoundedRectangle|*
%AMROUNDEDRECTD33*
21,1,0.2600,0.8400,0,0,180.0*
21,1,0.1300,0.9700,0,0,180.0*
1,1,0.1300,-0.0650,0.4200*
1,1,0.1300,0.0650,0.4200*
1,1,0.1300,0.0650,-0.4200*
1,1,0.1300,-0.0650,-0.4200*
%
%ADD33ROUNDEDRECTD33*%
%ADD35R,0.8000X1.2000*%
%ADD36R,1.4986X0.8890*%
%ADD37R,0.8890X1.4986*%
%ADD38R,1.0414X1.0414*%
%ADD39R,1.3000X1.2000*%
%ADD40R,2.5000X1.7000*%
%ADD41R,10.0000X6.0000*%
%ADD42R,0.8890X0.9500*%
%ADD43R,0.9500X0.8890*%
%ADD44R,1.7000X2.5000*%
%ADD45R,1.2000X1.3000*%
%ADD46R,1.0000X0.9500*%
%ADD91R,3.1500X3.1500*%
%ADD92C,0.4000*%
%ADD93C,1.0000*%
%ADD94C,0.8000*%
%ADD95C,0.5000*%
%ADD96C,0.3000*%
%ADD97O,2.5400X1.6764*%
%ADD98C,1.5000*%
%ADD99C,1.5240*%
%ADD100R,1.5000X1.5000*%
%ADD101C,1.9050*%
%ADD102C,1.5300*%
%ADD103R,1.5300X1.5300*%
%ADD104C,3.0480*%
%ADD105C,1.5200*%
%ADD106R,1.5200X1.5200*%
%ADD107R,2.5400X4.0640*%
%ADD108R,4.0640X2.5400*%
%ADD109R,1.5000X1.5000*%
%ADD110R,1.5240X1.5240*%
%ADD111R,1.8000X1.8000*%
%ADD112C,1.7780*%
%ADD113R,1.7780X1.7780*%
%ADD114C,2.7500*%
%ADD115C,0.6000*%
%ADD116C,1.2000*%
G36*
X1358891Y2549D02*
X753271D01*
X753215Y4526D01*
X754893Y4859D01*
X756264Y5776D01*
X941769D01*
X941878Y5667D01*
X943826Y4860D01*
X945934D01*
X947882Y5667D01*
X949373Y7158D01*
X950180Y9106D01*
Y11214D01*
X949373Y13162D01*
X947882Y14653D01*
X945934Y15460D01*
X943826D01*
X941878Y14653D01*
X941769Y14544D01*
X918758D01*
X917689Y16544D01*
X917794Y16702D01*
X918283Y19160D01*
X917794Y21618D01*
X917689Y21776D01*
X918758Y23776D01*
X1127957D01*
X1129635Y24109D01*
X1131057Y25060D01*
X1133400Y27403D01*
X1134351Y28825D01*
X1134684Y30503D01*
Y41680D01*
X1137171Y43116D01*
X1139254Y45199D01*
X1140727Y47751D01*
X1141490Y50597D01*
Y53543D01*
X1140727Y56389D01*
X1139254Y58941D01*
X1137171Y61024D01*
X1134619Y62497D01*
X1131773Y63260D01*
X1128827D01*
X1125981Y62497D01*
X1123429Y61024D01*
X1121346Y58941D01*
X1119873Y56389D01*
X1119110Y53543D01*
Y50597D01*
X1119873Y47751D01*
X1121346Y45199D01*
X1123429Y43116D01*
X1125916Y41680D01*
Y32544D01*
X843606D01*
X840944Y35206D01*
Y38609D01*
X841739Y39068D01*
X843582Y40911D01*
X844885Y43169D01*
X845560Y45687D01*
Y48293D01*
X844885Y50811D01*
X843582Y53069D01*
X841739Y54912D01*
X840044Y55890D01*
Y71120D01*
X839710Y72798D01*
X838760Y74220D01*
X837282Y75698D01*
X838048Y77546D01*
X853514D01*
X856676Y74384D01*
Y55890D01*
X854981Y54912D01*
X853138Y53069D01*
X851835Y50811D01*
X851160Y48293D01*
Y45687D01*
X851835Y43169D01*
X853138Y40911D01*
X854981Y39068D01*
X857239Y37765D01*
X859757Y37090D01*
X862363D01*
X864881Y37765D01*
X867139Y39068D01*
X868982Y40911D01*
X870285Y43169D01*
X870960Y45687D01*
Y48293D01*
X870285Y50811D01*
X868982Y53069D01*
X867139Y54912D01*
X865444Y55890D01*
Y76200D01*
X866549Y77546D01*
X880426D01*
X881469Y76849D01*
X883146Y76516D01*
X889774D01*
X889924Y76546D01*
X1151316D01*
Y62460D01*
X1148829Y61024D01*
X1146746Y58941D01*
X1145273Y56389D01*
X1144510Y53543D01*
Y50597D01*
X1145273Y47751D01*
X1146746Y45199D01*
X1148829Y43116D01*
X1151381Y41643D01*
X1154227Y40880D01*
X1157173D01*
X1160019Y41643D01*
X1162571Y43116D01*
X1164654Y45199D01*
X1166127Y47751D01*
X1166890Y50597D01*
Y53543D01*
X1166127Y56389D01*
X1164654Y58941D01*
X1162571Y61024D01*
X1160084Y62460D01*
Y78587D01*
X1159751Y80265D01*
X1158800Y81687D01*
X1156457Y84030D01*
X1155035Y84980D01*
X1153357Y85314D01*
X893136D01*
X891800Y87314D01*
X891930Y87630D01*
X880808D01*
X879929Y86314D01*
X786026D01*
X785434Y86906D01*
Y179630D01*
X788100D01*
Y182546D01*
X793947D01*
X795625Y182880D01*
X797047Y183830D01*
X799390Y186173D01*
X800340Y187595D01*
X800674Y189273D01*
Y202629D01*
X800783Y202738D01*
X801590Y204686D01*
Y206794D01*
X800783Y208742D01*
X799292Y210233D01*
X797344Y211040D01*
X795236D01*
X793288Y210233D01*
X791797Y208742D01*
X790990Y206794D01*
Y204686D01*
X791797Y202738D01*
X791906Y202629D01*
Y191314D01*
X789514D01*
X788100Y192728D01*
X788100Y194230D01*
X788100Y196230D01*
Y209230D01*
X774000D01*
Y208293D01*
X771590D01*
Y209110D01*
X770963D01*
Y214630D01*
X770474Y217088D01*
X769082Y219172D01*
X766998Y220564D01*
X764540Y221053D01*
X762082Y220564D01*
X759998Y219172D01*
X758605Y217088D01*
X758117Y214630D01*
Y209110D01*
X757490D01*
Y196110D01*
X757490Y194510D01*
X757490Y192510D01*
Y185710D01*
X751663Y179883D01*
X750712Y178460D01*
X750553Y177658D01*
X749887Y176992D01*
X749080Y175044D01*
Y172936D01*
X749887Y170988D01*
X751378Y169497D01*
X753326Y168690D01*
X755434D01*
X757382Y169497D01*
X758156Y170270D01*
X760156Y169442D01*
Y80691D01*
X758156Y79862D01*
X757851Y80167D01*
X755222Y81923D01*
X752302Y83133D01*
X749201Y83750D01*
X748837D01*
X748072Y85598D01*
X751154Y88680D01*
X751624D01*
X753572Y89487D01*
X755063Y90978D01*
X755870Y92926D01*
Y95034D01*
X755063Y96982D01*
X753572Y98473D01*
X751624Y99280D01*
X749516D01*
X747568Y98473D01*
X746077Y96982D01*
X745385Y95311D01*
X740708Y90634D01*
X733229D01*
Y95168D01*
X726244D01*
Y97708D01*
X733229D01*
Y103728D01*
X730172D01*
X729406Y105576D01*
X729540Y105710D01*
X730490Y107132D01*
X730824Y108810D01*
Y118473D01*
X731004Y118521D01*
X733701Y120078D01*
X735902Y122279D01*
X737459Y124976D01*
X738265Y127983D01*
Y131097D01*
X737459Y134104D01*
X735902Y136801D01*
X733701Y139002D01*
X731004Y140559D01*
X727997Y141365D01*
X724883D01*
X721876Y140559D01*
X719179Y139002D01*
X716978Y136801D01*
X715421Y134104D01*
X715373Y133924D01*
X674007D01*
X673959Y134104D01*
X672402Y136801D01*
X670201Y139002D01*
X667504Y140559D01*
X664497Y141365D01*
X661383D01*
X658376Y140559D01*
X655679Y139002D01*
X653478Y136801D01*
X651921Y134104D01*
X651461Y132388D01*
X651097Y132316D01*
X649675Y131365D01*
X648410Y130100D01*
X647459Y128678D01*
X647126Y127000D01*
Y116845D01*
X646508Y115354D01*
Y113246D01*
X647315Y111298D01*
X648806Y109807D01*
X650754Y109000D01*
X652862D01*
X654810Y109807D01*
X656301Y111298D01*
X657108Y113246D01*
Y115354D01*
X656301Y117302D01*
X657533Y118899D01*
X657626Y118954D01*
X658376Y118521D01*
X661383Y117715D01*
X664497D01*
X666176Y116094D01*
Y103570D01*
X663260D01*
Y90634D01*
X653937D01*
X653540Y92634D01*
X654648Y93093D01*
X656207Y94652D01*
X656980Y96520D01*
X646040D01*
X646813Y94652D01*
X648372Y93093D01*
X649480Y92634D01*
X649083Y90634D01*
X636709D01*
Y95168D01*
X629724D01*
Y97708D01*
X636709D01*
Y103728D01*
X632527D01*
X631949Y105728D01*
X632701Y106854D01*
X633034Y108532D01*
Y118473D01*
X633214Y118521D01*
X635911Y120078D01*
X638112Y122279D01*
X639669Y124976D01*
X640475Y127983D01*
Y131097D01*
X639669Y134104D01*
X638112Y136801D01*
X635911Y139002D01*
X633214Y140559D01*
X630207Y141365D01*
X627093D01*
X624086Y140559D01*
X621389Y139002D01*
X619188Y136801D01*
X617631Y134104D01*
X617583Y133924D01*
X576217D01*
X576169Y134104D01*
X574612Y136801D01*
X573397Y138016D01*
X574226Y140016D01*
X579819D01*
X579928Y139907D01*
X581876Y139100D01*
X583984D01*
X585932Y139907D01*
X587423Y141398D01*
X588230Y143346D01*
Y145454D01*
X587423Y147402D01*
X585932Y148893D01*
X583984Y149700D01*
X581876D01*
X579928Y148893D01*
X579819Y148784D01*
X574094D01*
X572757Y150784D01*
X572990Y151346D01*
Y153454D01*
X572183Y155402D01*
X570692Y156893D01*
X568744Y157700D01*
X566636D01*
X566465Y157629D01*
X566264Y157669D01*
X537058D01*
Y161025D01*
X564208D01*
X564700Y160533D01*
X566648Y159726D01*
X568756D01*
X570704Y160533D01*
X572195Y162024D01*
X573002Y163972D01*
Y166080D01*
X572195Y168028D01*
X572108Y168116D01*
X572437Y170616D01*
X572558Y170686D01*
X574804Y172932D01*
X576393Y175683D01*
X577215Y178752D01*
Y179070D01*
X553085D01*
Y178752D01*
X553907Y175683D01*
X555496Y172932D01*
X556634Y171793D01*
X555806Y169793D01*
X537058D01*
Y187001D01*
X550795D01*
X552473Y187334D01*
X553246Y187851D01*
X554744Y186447D01*
X553907Y184997D01*
X553085Y181928D01*
Y181610D01*
X577215D01*
Y181928D01*
X576393Y184997D01*
X574804Y187748D01*
X574072Y188481D01*
X574900Y190481D01*
X618900D01*
X619728Y188481D01*
X618996Y187748D01*
X617407Y184997D01*
X616585Y181928D01*
Y181610D01*
X640715D01*
Y181928D01*
X639893Y184997D01*
X638304Y187748D01*
X636998Y189054D01*
X637252Y190327D01*
X638743Y191818D01*
X639549Y193766D01*
Y195874D01*
X638743Y197822D01*
X637252Y199313D01*
X635304Y200120D01*
X633195D01*
X631247Y199313D01*
X631183Y199249D01*
X554275D01*
X552597Y198916D01*
X551175Y197965D01*
X549785Y199389D01*
X550593Y200198D01*
X551400Y202146D01*
Y204254D01*
X550593Y206202D01*
X550484Y206311D01*
Y227142D01*
X550150Y228820D01*
X549200Y230242D01*
X546857Y232585D01*
X545435Y233535D01*
X543757Y233869D01*
X537058D01*
Y235975D01*
X554778D01*
X555107Y236041D01*
X555206Y236000D01*
X557314D01*
X558766Y236601D01*
X560264Y235924D01*
X560766Y235482D01*
Y232400D01*
X561100Y230722D01*
X562050Y229300D01*
X564440Y226910D01*
Y219010D01*
X564440D01*
X565092Y217010D01*
X564296Y215818D01*
X563807Y213360D01*
X564296Y210902D01*
X565688Y208818D01*
X567772Y207425D01*
X570230Y206937D01*
X633730D01*
X636188Y207425D01*
X638272Y208818D01*
X639542Y210088D01*
X640935Y212172D01*
X641423Y214630D01*
X640935Y217088D01*
X639542Y219172D01*
X637458Y220564D01*
X635000Y221053D01*
X632542Y220564D01*
X631373Y219783D01*
X627819D01*
Y224708D01*
X620834D01*
Y227248D01*
X627819D01*
Y231698D01*
X629210Y232628D01*
X631750Y235168D01*
X632701Y236590D01*
X633034Y238268D01*
Y245473D01*
X633214Y245521D01*
X635911Y247078D01*
X638112Y249279D01*
X639669Y251976D01*
X640475Y254983D01*
Y258097D01*
X639669Y261104D01*
X638112Y263801D01*
X635911Y266002D01*
X633214Y267559D01*
X630207Y268365D01*
X627093D01*
X624086Y267559D01*
X621389Y266002D01*
X619188Y263801D01*
X617631Y261104D01*
X617583Y260924D01*
X576217D01*
X576169Y261104D01*
X574612Y263801D01*
X572411Y266002D01*
X569714Y267559D01*
X566707Y268365D01*
X563593D01*
X560586Y267559D01*
X557889Y266002D01*
X555688Y263801D01*
X554131Y261104D01*
X553325Y258097D01*
Y258045D01*
X551381D01*
X549704Y257711D01*
X548281Y256761D01*
X545180Y253659D01*
X545060D01*
X543112Y252853D01*
X541621Y251362D01*
X540814Y249414D01*
Y247305D01*
X541046Y246744D01*
X539710Y244744D01*
X537058D01*
Y247900D01*
X537298D01*
Y253615D01*
X527265D01*
X517232D01*
Y247900D01*
X517472D01*
Y235440D01*
Y221419D01*
X511246D01*
X511002Y221663D01*
X509054Y222470D01*
X506946D01*
X504998Y221663D01*
X503507Y220172D01*
X502700Y218224D01*
Y216116D01*
X503507Y214168D01*
X504998Y212677D01*
X506946Y211870D01*
X509054D01*
X510939Y212651D01*
X517472D01*
Y208584D01*
X509541D01*
X509075Y208491D01*
X509054Y208500D01*
X506946D01*
X504998Y207693D01*
X503507Y206202D01*
X502700Y204254D01*
Y202146D01*
X503507Y200198D01*
X504998Y198707D01*
X506946Y197900D01*
X509054D01*
X511002Y198707D01*
X512111Y199816D01*
X517472D01*
Y184640D01*
Y171940D01*
Y159240D01*
Y146540D01*
Y131384D01*
X497144D01*
Y253246D01*
X497253Y253355D01*
X498060Y255303D01*
Y257411D01*
X497253Y259359D01*
X495762Y260850D01*
X493814Y261657D01*
X491706D01*
X489758Y260850D01*
X488267Y259359D01*
X487460Y257411D01*
Y255303D01*
X488267Y253355D01*
X488376Y253246D01*
Y129343D01*
X488709Y127665D01*
X489660Y126243D01*
X492003Y123900D01*
X493425Y122949D01*
X495103Y122616D01*
X517472D01*
Y117414D01*
X481876D01*
X474284Y125006D01*
Y261246D01*
X474393Y261355D01*
X475200Y263303D01*
Y265411D01*
X474951Y266012D01*
X476287Y268012D01*
X529808D01*
X530705Y268190D01*
X531466Y268699D01*
X531975Y269460D01*
X532153Y270357D01*
Y329793D01*
X531975Y330690D01*
X531466Y331451D01*
X530705Y331960D01*
X529808Y332138D01*
X349722D01*
X348825Y331960D01*
X348064Y331451D01*
X347556Y330690D01*
X347377Y329793D01*
Y270357D01*
X347556Y269460D01*
X348064Y268699D01*
X348825Y268190D01*
X349722Y268012D01*
X463512D01*
X464849Y266012D01*
X464600Y265411D01*
Y263303D01*
X465407Y261355D01*
X465516Y261246D01*
Y123190D01*
X465849Y121512D01*
X466800Y120090D01*
X476960Y109930D01*
X478382Y108980D01*
X480060Y108646D01*
X517472D01*
Y95740D01*
Y90263D01*
X515624Y89497D01*
X504059Y101062D01*
X501976Y102455D01*
X499518Y102943D01*
X412477D01*
X411553Y103867D01*
Y158488D01*
X416445D01*
Y166235D01*
X418985D01*
Y158488D01*
X431695D01*
Y166235D01*
X434235D01*
Y158488D01*
X446945D01*
Y166235D01*
X448215D01*
Y167505D01*
X455962D01*
Y173738D01*
Y180215D01*
X448215D01*
Y182755D01*
X455962D01*
Y188988D01*
Y195465D01*
X448215D01*
Y196735D01*
X446945D01*
Y204482D01*
X434235D01*
Y196735D01*
X431695D01*
Y204482D01*
X418985D01*
Y196735D01*
X416445D01*
Y204482D01*
X411553D01*
Y222368D01*
X423989D01*
X426447Y222857D01*
X428531Y224249D01*
X429923Y226333D01*
X430412Y228791D01*
X429923Y231249D01*
X428531Y233333D01*
X426447Y234726D01*
X423989Y235215D01*
X411553D01*
Y237614D01*
X411064Y240072D01*
X409672Y242156D01*
X404986Y246842D01*
X402902Y248235D01*
X400444Y248723D01*
X362298D01*
Y253615D01*
X342232D01*
Y248608D01*
X314081D01*
X311622Y248120D01*
X309538Y246727D01*
X306006Y243195D01*
X304614Y241111D01*
X304125Y238653D01*
Y237841D01*
X302748D01*
Y237422D01*
X297880D01*
Y237645D01*
X283780D01*
Y237484D01*
X279751D01*
Y238272D01*
X279452D01*
Y245510D01*
X280850D01*
Y271610D01*
X279473D01*
Y307510D01*
X292850D01*
Y333610D01*
X288569D01*
X287232Y335610D01*
X287410Y336040D01*
X276470D01*
X276648Y335610D01*
X275311Y333610D01*
X253250D01*
Y307510D01*
X266627D01*
Y271610D01*
X265250D01*
Y245510D01*
X266605D01*
Y239445D01*
X264991Y238512D01*
X259276D01*
Y231222D01*
X256736D01*
Y238512D01*
X251021D01*
Y235892D01*
X249021Y235063D01*
X248248Y235837D01*
X246380Y236610D01*
Y231140D01*
Y225670D01*
X248248Y226443D01*
X249021Y227217D01*
X251021Y226388D01*
Y223932D01*
X258160D01*
X258926Y222084D01*
X256625Y219783D01*
X245905D01*
X243447Y219294D01*
X241363Y217902D01*
X236676Y213216D01*
X235284Y211132D01*
X234795Y208674D01*
Y197201D01*
X234168D01*
Y193945D01*
X208676D01*
X207868Y194930D01*
Y196230D01*
X207639Y197381D01*
X206987Y198357D01*
X206011Y199009D01*
X204860Y199238D01*
X197489D01*
X196199Y199819D01*
X195618Y201110D01*
Y206730D01*
X204265Y215377D01*
X204266Y215377D01*
X204995Y216469D01*
X205251Y217756D01*
Y224172D01*
X208631D01*
Y228430D01*
X208999Y229316D01*
X209249Y231222D01*
Y248606D01*
X213486Y252844D01*
X214657Y254368D01*
X215392Y256144D01*
X215643Y258050D01*
Y306680D01*
X215392Y308586D01*
X214657Y310361D01*
X213486Y311886D01*
X213486Y311887D01*
X207520Y317853D01*
Y329570D01*
X200083D01*
Y335090D01*
X206880Y341887D01*
X276069D01*
X277011Y339887D01*
X276470Y338580D01*
X287410D01*
X287163Y339178D01*
X288238Y341131D01*
X289633Y341304D01*
X298707Y332230D01*
Y273673D01*
X298550D01*
X296644Y273422D01*
X294869Y272687D01*
X293466Y271610D01*
X288250D01*
Y245510D01*
X303850D01*
Y259118D01*
X304461Y259198D01*
X306237Y259933D01*
X307762Y261104D01*
X311276Y264618D01*
X312446Y266143D01*
X313182Y267919D01*
X313433Y269825D01*
Y335280D01*
X313182Y337186D01*
X312814Y338074D01*
X312446Y338961D01*
X311699Y339935D01*
X311276Y340486D01*
X311276Y340486D01*
X299463Y352300D01*
Y354330D01*
Y393190D01*
X302280Y396007D01*
X304877D01*
X305850Y394410D01*
X305850Y393669D01*
Y387640D01*
X324640D01*
X343430D01*
Y393669D01*
X343430Y394410D01*
X343190Y396311D01*
Y410429D01*
X343430Y412330D01*
X343430Y413071D01*
Y419100D01*
X324640D01*
X305850D01*
Y413071D01*
X305850Y412330D01*
X304877Y410733D01*
X299450D01*
X296036Y414146D01*
X294512Y415317D01*
X292736Y416052D01*
X290830Y416303D01*
X288924Y416052D01*
X287148Y415317D01*
X285624Y414146D01*
X284454Y412621D01*
X283718Y410846D01*
X283467Y408940D01*
X283718Y407034D01*
X284454Y405258D01*
X285624Y403734D01*
X287402Y401955D01*
X286894Y401446D01*
X285723Y399921D01*
X285293Y398881D01*
X284988Y398146D01*
X284737Y396240D01*
Y356613D01*
X203830D01*
X201924Y356362D01*
X201189Y356057D01*
X200149Y355626D01*
X198624Y354456D01*
X187514Y343346D01*
X186343Y341822D01*
X185913Y340781D01*
X185608Y340046D01*
X185357Y338140D01*
Y329570D01*
X177920D01*
Y307970D01*
X196577D01*
X200917Y303630D01*
Y300681D01*
X198917Y299520D01*
X197904Y299940D01*
X195796D01*
X193848Y299133D01*
X192357Y297642D01*
X191550Y295694D01*
Y293586D01*
X192357Y291638D01*
X192466Y291529D01*
Y281216D01*
X191224Y279974D01*
X184640D01*
Y280290D01*
X176040D01*
Y276014D01*
X175956Y275590D01*
X176040Y275166D01*
Y270890D01*
X184640D01*
Y271206D01*
X193040D01*
X194718Y271539D01*
X196140Y272490D01*
X198917Y275267D01*
X200917Y274438D01*
Y261100D01*
X198327Y258510D01*
X195576D01*
X193675Y258750D01*
X193044Y258750D01*
X187960D01*
Y251460D01*
Y244170D01*
X192523D01*
X193675Y244170D01*
X194523Y242521D01*
Y240242D01*
X193871Y238512D01*
X192523Y238512D01*
X188156D01*
Y231222D01*
Y223932D01*
X193241D01*
X193871Y223932D01*
X195772Y224172D01*
X198522D01*
Y219150D01*
X190748Y211376D01*
X190159Y211259D01*
X189460Y210792D01*
X188761Y211259D01*
X187610Y211488D01*
X186310D01*
X185159Y211259D01*
X184460Y210792D01*
X183761Y211259D01*
X182610Y211488D01*
X181310D01*
X180159Y211259D01*
X179460Y210792D01*
X178761Y211259D01*
X177610Y211488D01*
X176310D01*
X175245Y212362D01*
Y222525D01*
X178198D01*
Y223215D01*
X179901Y223932D01*
X180198Y223932D01*
X185616D01*
Y231222D01*
Y238512D01*
X179901D01*
Y237342D01*
X178198Y236625D01*
X177901Y236625D01*
X165198D01*
X163598Y236625D01*
X161036Y236625D01*
X160595Y238625D01*
X164630Y242660D01*
X175530D01*
Y260260D01*
X158930D01*
Y250349D01*
X158270Y249855D01*
X156270Y250858D01*
Y260500D01*
X149000D01*
Y251460D01*
Y242420D01*
X150036D01*
X151572Y240420D01*
X151514Y240128D01*
Y236625D01*
X148598D01*
Y222525D01*
X161598D01*
X163198Y222525D01*
X165198Y222525D01*
X168516D01*
Y212231D01*
X167610Y211488D01*
X166310D01*
X165159Y211259D01*
X164460Y210792D01*
X163761Y211259D01*
X162610Y211488D01*
X161310D01*
X160159Y211259D01*
X159183Y210607D01*
X158531Y209631D01*
X158302Y208480D01*
Y201110D01*
X157721Y199819D01*
X156431Y199238D01*
X149060D01*
X147909Y199009D01*
X146933Y198357D01*
X146281Y197381D01*
X146052Y196230D01*
Y194930D01*
X146281Y193779D01*
X146748Y193080D01*
X146281Y192381D01*
X146052Y191230D01*
Y189930D01*
X146281Y188779D01*
X146748Y188080D01*
X146281Y187381D01*
X146052Y186230D01*
Y184930D01*
X146281Y183779D01*
X146748Y183080D01*
X146281Y182381D01*
X146052Y181230D01*
Y179930D01*
X146281Y178779D01*
X146748Y178080D01*
X146281Y177381D01*
X146052Y176230D01*
Y174930D01*
X146281Y173779D01*
X146748Y173080D01*
X146281Y172381D01*
X146052Y171230D01*
Y169930D01*
X146281Y168779D01*
X146748Y168080D01*
X146281Y167381D01*
X146052Y166230D01*
Y164930D01*
X146281Y163779D01*
X146933Y162803D01*
X147909Y162151D01*
X149060Y161922D01*
X156431D01*
X157721Y161341D01*
X158302Y160051D01*
Y152680D01*
X158531Y151529D01*
X159183Y150553D01*
X160159Y149901D01*
X161310Y149672D01*
X161486D01*
X162347Y147715D01*
X161624Y146875D01*
X154940D01*
X154940Y146875D01*
X153652Y146618D01*
X152561Y145889D01*
X148751Y142079D01*
X148021Y140988D01*
X147765Y139700D01*
X146890Y137990D01*
X144080D01*
Y124990D01*
X144080Y123390D01*
X144080Y121390D01*
Y108524D01*
X132080D01*
X130402Y108190D01*
X128980Y107240D01*
X126440Y104700D01*
X125490Y103278D01*
X125156Y101600D01*
Y57721D01*
X125047Y57612D01*
X124240Y55664D01*
Y53556D01*
X125047Y51608D01*
X126538Y50117D01*
X128486Y49310D01*
X130594D01*
X132542Y50117D01*
X134033Y51608D01*
X134840Y53556D01*
Y55664D01*
X134033Y57612D01*
X133924Y57721D01*
Y99756D01*
X148590D01*
X150268Y100090D01*
X151690Y101040D01*
X154230Y103580D01*
X155181Y105002D01*
X155514Y106680D01*
Y108390D01*
X158180D01*
Y121390D01*
X158180Y122990D01*
X158180Y124990D01*
Y137990D01*
X158180D01*
X158175Y139990D01*
X158279Y140145D01*
X163830D01*
X163830Y140145D01*
X165496Y138611D01*
X165545Y138465D01*
Y136211D01*
X164417Y135082D01*
X163610Y133134D01*
Y131026D01*
X164417Y129078D01*
X165908Y127587D01*
X167856Y126780D01*
X169964D01*
X171290Y127329D01*
X173290Y126352D01*
X173290Y122240D01*
X173290Y120240D01*
Y107240D01*
X175956D01*
Y84893D01*
X176211Y83611D01*
X176073Y83375D01*
X175346Y82631D01*
X174612Y82176D01*
X172302Y83133D01*
X169201Y83750D01*
X166039D01*
X162938Y83133D01*
X160018Y81923D01*
X157389Y80167D01*
X155153Y77931D01*
X153397Y75303D01*
X152187Y72382D01*
X151570Y69281D01*
Y66119D01*
X152187Y63018D01*
X153397Y60097D01*
X155153Y57469D01*
X157389Y55233D01*
X160018Y53477D01*
X162938Y52267D01*
X166039Y51650D01*
X169201D01*
X172302Y52267D01*
X175222Y53477D01*
X177851Y55233D01*
X180087Y57469D01*
X181843Y60097D01*
X183053Y63018D01*
X183670Y66119D01*
Y69281D01*
X183053Y72382D01*
X181843Y75303D01*
X181080Y76445D01*
X182282Y78246D01*
X182683Y78166D01*
X214059D01*
X214168Y78057D01*
X216116Y77250D01*
X218224D01*
X220172Y78057D01*
X221663Y79548D01*
X222470Y81496D01*
Y83604D01*
X221663Y85552D01*
X220172Y87043D01*
X218224Y87850D01*
X216116D01*
X214168Y87043D01*
X214059Y86934D01*
X184724D01*
Y107240D01*
X187390D01*
Y120240D01*
X187390Y121840D01*
X187390Y123840D01*
Y132508D01*
X187744Y132874D01*
X189390Y133679D01*
X190716Y133130D01*
X192824D01*
X192880Y133153D01*
X194880Y131817D01*
Y120850D01*
X194880D01*
Y120450D01*
X194880D01*
Y105850D01*
X208385D01*
X209206Y105547D01*
X210120Y104322D01*
X210120Y103610D01*
Y90610D01*
X224220D01*
Y93526D01*
X229204D01*
X233106Y89624D01*
Y76771D01*
X232997Y76662D01*
X232190Y74714D01*
Y72606D01*
X232997Y70658D01*
X234488Y69167D01*
X236436Y68360D01*
X238544D01*
X240492Y69167D01*
X241983Y70658D01*
X242790Y72606D01*
Y74714D01*
X241983Y76662D01*
X241874Y76771D01*
Y91440D01*
X241541Y93118D01*
X240590Y94540D01*
X234120Y101010D01*
X232698Y101960D01*
X231020Y102294D01*
X225634D01*
X224220Y103708D01*
X224220Y105210D01*
X224220Y107171D01*
X225634Y108586D01*
X294129D01*
X294178Y108537D01*
X296126Y107730D01*
X298234D01*
X299686Y108331D01*
X301184Y107654D01*
X301686Y107212D01*
Y37404D01*
X112334D01*
Y64770D01*
X112001Y66448D01*
X111050Y67870D01*
X109775Y69145D01*
X108510Y70410D01*
X107088Y71361D01*
X105410Y71694D01*
X104252Y72539D01*
X103820Y74360D01*
D01*
X103019Y76029D01*
Y92320D01*
X89919D01*
Y75905D01*
X89516Y75339D01*
X88482Y74360D01*
X87220Y74360D01*
X74220D01*
Y60260D01*
X77016D01*
Y56580D01*
X74535D01*
Y53914D01*
X49480D01*
Y58390D01*
X36880D01*
Y41790D01*
X49480D01*
Y45146D01*
X74535D01*
Y42480D01*
X87395D01*
X89295Y42240D01*
X89926Y42240D01*
X95010D01*
Y49530D01*
X97550D01*
Y42240D01*
X103265Y42240D01*
X103566Y40365D01*
Y35363D01*
X103899Y33685D01*
X104850Y32263D01*
X107193Y29920D01*
X108615Y28970D01*
X110293Y28636D01*
X303727D01*
X305405Y28970D01*
X306827Y29920D01*
X309170Y32263D01*
X310121Y33685D01*
X310356Y34867D01*
X312356Y34670D01*
Y32237D01*
X312651Y30755D01*
X313490Y29498D01*
X319318Y23670D01*
X320575Y22831D01*
X322057Y22536D01*
X560798D01*
X561867Y20536D01*
X561755Y20368D01*
X561267Y17910D01*
X561755Y15452D01*
X561861Y15294D01*
X560792Y13294D01*
X538484D01*
X537113Y14210D01*
X535435Y14544D01*
X499681D01*
X499572Y14653D01*
X497624Y15460D01*
X495516D01*
X493568Y14653D01*
X492077Y13162D01*
X491270Y11214D01*
Y9106D01*
X492077Y7158D01*
X493568Y5667D01*
X495516Y4860D01*
X497624D01*
X499572Y5667D01*
X499681Y5776D01*
X533636D01*
X535007Y4859D01*
X536685Y4526D01*
X536629Y2549D01*
X2549D01*
X2549Y1050281D01*
X1358891Y1050281D01*
Y2549D01*
D02*
G37*
G36*
X283540Y222885D02*
X283540Y222254D01*
Y217170D01*
X290830D01*
Y214630D01*
X283540D01*
Y208915D01*
X291271D01*
X291877Y206915D01*
X291214Y206472D01*
X286528Y201786D01*
X285135Y199702D01*
X284647Y197244D01*
Y177230D01*
X283770D01*
Y163130D01*
X298370D01*
Y163130D01*
X298770D01*
Y163130D01*
X301686D01*
Y159594D01*
X300600Y158508D01*
X299686Y158214D01*
X298055Y158420D01*
X297424Y158420D01*
X292340D01*
Y151130D01*
Y143840D01*
X297424D01*
X298055Y143840D01*
X299686Y144046D01*
X300600Y143752D01*
X301686Y142666D01*
Y118848D01*
X301184Y118406D01*
X299686Y117729D01*
X298234Y118330D01*
X296126D01*
X294178Y117523D01*
X294009Y117354D01*
X224220D01*
Y120210D01*
X225394Y121205D01*
X227939Y123750D01*
X236920D01*
Y138350D01*
X236920D01*
Y138750D01*
X236920D01*
Y153350D01*
X234254D01*
Y158857D01*
X235412Y159337D01*
X236903Y160828D01*
X237710Y162776D01*
Y164884D01*
X237053Y166471D01*
X237594Y167784D01*
X238092Y168471D01*
X239948D01*
Y174186D01*
X233928D01*
X233928Y169440D01*
X233464Y169130D01*
X233327Y169130D01*
X231356D01*
X229408Y168323D01*
X227917Y166832D01*
X227110Y164884D01*
Y164189D01*
X226770Y163849D01*
X225819Y162427D01*
X225486Y160749D01*
Y153350D01*
X222820D01*
Y149415D01*
X217294D01*
X207449Y159259D01*
X206358Y159988D01*
X205874Y160085D01*
Y162124D01*
X206011Y162151D01*
X206987Y162803D01*
X207639Y163779D01*
X207868Y164930D01*
Y166230D01*
X207639Y167381D01*
X207172Y168080D01*
X207639Y168779D01*
X207868Y169930D01*
Y171230D01*
X207639Y172381D01*
X207316Y172864D01*
X207865Y173685D01*
X207989Y174310D01*
X200660D01*
Y176850D01*
X208621D01*
X208724Y176975D01*
X211966D01*
X212535Y176406D01*
Y169231D01*
X211407Y168102D01*
X210600Y166154D01*
Y164046D01*
X211407Y162098D01*
X212898Y160607D01*
X214846Y159800D01*
X216954D01*
X218902Y160607D01*
X220393Y162098D01*
X221200Y164046D01*
Y166154D01*
X220393Y168102D01*
X219640Y168856D01*
X219812Y170567D01*
X221603Y171588D01*
X222466Y171230D01*
X224574D01*
X226522Y172037D01*
X228013Y173528D01*
X228820Y175476D01*
Y177584D01*
X228013Y179532D01*
X226885Y180661D01*
Y182880D01*
X226628Y184168D01*
X225928Y185215D01*
X226090Y186089D01*
X226556Y187215D01*
X234168D01*
Y183711D01*
X234168D01*
X233928Y182441D01*
X233928D01*
Y176726D01*
X248508D01*
Y182441D01*
X248508D01*
X248297Y183563D01*
X248331Y184036D01*
X248628Y185562D01*
X252379D01*
Y183368D01*
X265238D01*
X267139Y183128D01*
X267769Y183128D01*
X272854D01*
Y190418D01*
Y197708D01*
X267769D01*
X267139Y197708D01*
X265238Y197468D01*
X257661D01*
X256833Y199468D01*
X257427Y200062D01*
X258200Y201930D01*
X252730D01*
Y204470D01*
X258200D01*
X258007Y204937D01*
X259286Y206937D01*
X261744Y207425D01*
X263828Y208818D01*
X275603Y220593D01*
X276996Y222677D01*
X277293Y224172D01*
X279751D01*
Y224637D01*
X282942D01*
X283540Y222885D01*
D02*
G37*
G36*
X550533Y83150D02*
X551955Y82199D01*
X553633Y81866D01*
X648551D01*
X648949Y79866D01*
X648372Y79627D01*
X646813Y78068D01*
X646040Y76200D01*
X656980D01*
X656207Y78068D01*
X654648Y79627D01*
X654071Y79866D01*
X654469Y81866D01*
X736662D01*
X737088Y79866D01*
X735153Y77931D01*
X733397Y75303D01*
X732187Y72382D01*
X731570Y69281D01*
Y66119D01*
X732187Y63018D01*
X733397Y60097D01*
X735153Y57469D01*
X737389Y55233D01*
X740017Y53477D01*
X742938Y52267D01*
X746039Y51650D01*
X749201D01*
X752302Y52267D01*
X755222Y53477D01*
X757851Y55233D01*
X760087Y57469D01*
X761843Y60097D01*
X763053Y63018D01*
X763670Y66119D01*
Y69281D01*
X763347Y70904D01*
X765190Y71890D01*
X765250Y71830D01*
X766672Y70880D01*
X768350Y70546D01*
X830034D01*
X831276Y69304D01*
Y55890D01*
X829581Y54912D01*
X827738Y53069D01*
X826435Y50811D01*
X825760Y48293D01*
Y45687D01*
X826435Y43169D01*
X827738Y40911D01*
X829581Y39068D01*
X831839Y37765D01*
X832176Y37674D01*
Y33390D01*
X832510Y31712D01*
X833460Y30290D01*
X836319Y27431D01*
X835553Y25583D01*
X792392D01*
X790950Y26930D01*
Y46730D01*
X771150D01*
Y26930D01*
X769708Y25583D01*
X760257D01*
X760019Y26199D01*
X759914Y27583D01*
X761876Y28716D01*
X763764Y30604D01*
X765099Y32916D01*
X765790Y35495D01*
Y35560D01*
X755650D01*
Y36830D01*
D01*
Y35560D01*
X745510D01*
Y35495D01*
X746201Y32916D01*
X747536Y30604D01*
X749424Y28716D01*
X751386Y27583D01*
X751281Y26199D01*
X751043Y25583D01*
X734255D01*
X733992Y27583D01*
X734071Y27605D01*
X736329Y28908D01*
X738172Y30751D01*
X739475Y33009D01*
X740150Y35527D01*
Y38133D01*
X739475Y40651D01*
X738172Y42909D01*
X736329Y44752D01*
X734071Y46055D01*
X731553Y46730D01*
X728947D01*
X726429Y46055D01*
X724171Y44752D01*
X722328Y42909D01*
X721025Y40651D01*
X720350Y38133D01*
Y35527D01*
X721025Y33009D01*
X722328Y30751D01*
X724171Y28908D01*
X726429Y27605D01*
X726508Y27583D01*
X726245Y25583D01*
X708855D01*
X708592Y27583D01*
X708671Y27605D01*
X710929Y28908D01*
X712772Y30751D01*
X714075Y33009D01*
X714750Y35527D01*
Y38133D01*
X714075Y40651D01*
X712772Y42909D01*
X710929Y44752D01*
X708671Y46055D01*
X706153Y46730D01*
X703547D01*
X701029Y46055D01*
X698771Y44752D01*
X696928Y42909D01*
X695625Y40651D01*
X694950Y38133D01*
Y35527D01*
X695625Y33009D01*
X696928Y30751D01*
X698771Y28908D01*
X701029Y27605D01*
X701108Y27583D01*
X700845Y25583D01*
X684056D01*
X683819Y26199D01*
X683714Y27583D01*
X685676Y28716D01*
X687564Y30604D01*
X688899Y32916D01*
X689590Y35495D01*
Y35560D01*
X679450D01*
X669310D01*
Y35495D01*
X670001Y32916D01*
X671336Y30604D01*
X673224Y28716D01*
X675186Y27583D01*
X675081Y26199D01*
X674844Y25583D01*
X673470D01*
X671012Y25094D01*
X669873Y24333D01*
X619898D01*
X619133Y26181D01*
X621230Y28278D01*
X622070Y29535D01*
X622364Y31017D01*
Y39181D01*
X624507Y40418D01*
X626332Y42243D01*
X627622Y44477D01*
X628290Y46970D01*
Y49550D01*
X627622Y52043D01*
X626332Y54277D01*
X624507Y56102D01*
X622273Y57392D01*
X619780Y58060D01*
X617200D01*
X614707Y57392D01*
X612473Y56102D01*
X610648Y54277D01*
X609358Y52043D01*
X608690Y49550D01*
Y46970D01*
X609358Y44477D01*
X610648Y42243D01*
X612473Y40418D01*
X614616Y39181D01*
Y32622D01*
X612278Y30284D01*
X583928D01*
X583162Y32132D01*
X589978Y38948D01*
X591800Y38460D01*
X594380D01*
X596873Y39128D01*
X599107Y40418D01*
X600932Y42243D01*
X602222Y44477D01*
X602890Y46970D01*
Y49550D01*
X602222Y52043D01*
X600932Y54277D01*
X599107Y56102D01*
X596873Y57392D01*
X594380Y58060D01*
X591800D01*
X589307Y57392D01*
X587073Y56102D01*
X585248Y54277D01*
X583958Y52043D01*
X583290Y49550D01*
Y46970D01*
X583778Y45148D01*
X579338Y40708D01*
X577490Y41473D01*
Y58060D01*
X574113D01*
Y63500D01*
X573624Y65958D01*
X572232Y68042D01*
X570148Y69434D01*
X567690Y69923D01*
X565232Y69434D01*
X563148Y68042D01*
X561755Y65958D01*
X561267Y63500D01*
Y58060D01*
X557890D01*
Y48333D01*
X539834D01*
X538040Y48830D01*
Y51496D01*
X540449D01*
X540558Y51387D01*
X542506Y50580D01*
X544614D01*
X546562Y51387D01*
X548053Y52878D01*
X548860Y54826D01*
Y56934D01*
X548053Y58882D01*
X546562Y60373D01*
X544614Y61180D01*
X542506D01*
X540558Y60373D01*
X540449Y60264D01*
X538040D01*
Y62930D01*
X537833D01*
X537068Y64778D01*
X545390Y73100D01*
X546340Y74522D01*
X546674Y76200D01*
Y84180D01*
X548674Y85009D01*
X550533Y83150D01*
D02*
G37*
%LPC*%
G36*
X823004Y1033020D02*
X819596D01*
X816254Y1032355D01*
X813105Y1031051D01*
X810272Y1029158D01*
X807862Y1026748D01*
X805969Y1023915D01*
X804665Y1020766D01*
X804000Y1017424D01*
Y1014016D01*
X804665Y1010674D01*
X805969Y1007525D01*
X807862Y1004692D01*
X810272Y1002282D01*
X813105Y1000389D01*
X816254Y999085D01*
X819596Y998420D01*
X823004D01*
X826346Y999085D01*
X829495Y1000389D01*
X832328Y1002282D01*
X834738Y1004692D01*
X836631Y1007525D01*
X837935Y1010674D01*
X838600Y1014016D01*
Y1017424D01*
X837935Y1020766D01*
X836631Y1023915D01*
X834738Y1026748D01*
X832328Y1029158D01*
X829495Y1031051D01*
X826346Y1032355D01*
X823004Y1033020D01*
D02*
G37*
G36*
X1311754Y1032270D02*
X1308346D01*
X1305004Y1031605D01*
X1301855Y1030301D01*
X1299022Y1028408D01*
X1296612Y1025998D01*
X1294719Y1023165D01*
X1293415Y1020016D01*
X1292750Y1016674D01*
Y1013266D01*
X1293415Y1009924D01*
X1294719Y1006775D01*
X1296612Y1003942D01*
X1299022Y1001532D01*
X1301855Y999639D01*
X1305004Y998335D01*
X1308346Y997670D01*
X1311754D01*
X1315096Y998335D01*
X1318245Y999639D01*
X1321078Y1001532D01*
X1323488Y1003942D01*
X1325381Y1006775D01*
X1326685Y1009924D01*
X1327350Y1013266D01*
Y1016674D01*
X1326685Y1020016D01*
X1325381Y1023165D01*
X1323488Y1025998D01*
X1321078Y1028408D01*
X1318245Y1030301D01*
X1315096Y1031605D01*
X1311754Y1032270D01*
D02*
G37*
G36*
X628286Y1011950D02*
X625674D01*
X623151Y1011274D01*
X620889Y1009968D01*
X619042Y1008121D01*
X617736Y1005859D01*
X617060Y1003336D01*
Y1000724D01*
X617736Y998201D01*
X619042Y995939D01*
X620889Y994092D01*
X623151Y992786D01*
X625674Y992110D01*
X628286D01*
X630809Y992786D01*
X633071Y994092D01*
X634918Y995939D01*
X636224Y998201D01*
X636900Y1000724D01*
Y1003336D01*
X636224Y1005859D01*
X634918Y1008121D01*
X633071Y1009968D01*
X630809Y1011274D01*
X628286Y1011950D01*
D02*
G37*
G36*
X578286D02*
X575674D01*
X573151Y1011274D01*
X570889Y1009968D01*
X569042Y1008121D01*
X567736Y1005859D01*
X567060Y1003336D01*
Y1000724D01*
X567736Y998201D01*
X569042Y995939D01*
X570889Y994092D01*
X573151Y992786D01*
X575674Y992110D01*
X578286D01*
X580809Y992786D01*
X583071Y994092D01*
X584918Y995939D01*
X586224Y998201D01*
X586900Y1000724D01*
Y1003336D01*
X586224Y1005859D01*
X584918Y1008121D01*
X583071Y1009968D01*
X580809Y1011274D01*
X578286Y1011950D01*
D02*
G37*
G36*
X528286D02*
X525674D01*
X523151Y1011274D01*
X520889Y1009968D01*
X519042Y1008121D01*
X517736Y1005859D01*
X517060Y1003336D01*
Y1000724D01*
X517736Y998201D01*
X519042Y995939D01*
X520889Y994092D01*
X523151Y992786D01*
X525674Y992110D01*
X528286D01*
X530809Y992786D01*
X533071Y994092D01*
X534918Y995939D01*
X536224Y998201D01*
X536900Y1000724D01*
Y1003336D01*
X536224Y1005859D01*
X534918Y1008121D01*
X533071Y1009968D01*
X530809Y1011274D01*
X528286Y1011950D01*
D02*
G37*
G36*
X418806D02*
X416194D01*
X413671Y1011274D01*
X411409Y1009968D01*
X409562Y1008121D01*
X408256Y1005859D01*
X407580Y1003336D01*
Y1000724D01*
X408256Y998201D01*
X409562Y995939D01*
X411409Y994092D01*
X413671Y992786D01*
X416194Y992110D01*
X418806D01*
X421329Y992786D01*
X423591Y994092D01*
X425438Y995939D01*
X426744Y998201D01*
X427420Y1000724D01*
Y1003336D01*
X426744Y1005859D01*
X425438Y1008121D01*
X423591Y1009968D01*
X421329Y1011274D01*
X418806Y1011950D01*
D02*
G37*
G36*
X368806D02*
X366194D01*
X363671Y1011274D01*
X361409Y1009968D01*
X359562Y1008121D01*
X358256Y1005859D01*
X357580Y1003336D01*
Y1000724D01*
X358256Y998201D01*
X359562Y995939D01*
X361409Y994092D01*
X363671Y992786D01*
X366194Y992110D01*
X368806D01*
X371329Y992786D01*
X373591Y994092D01*
X375438Y995939D01*
X376744Y998201D01*
X377420Y1000724D01*
Y1003336D01*
X376744Y1005859D01*
X375438Y1008121D01*
X373591Y1009968D01*
X371329Y1011274D01*
X368806Y1011950D01*
D02*
G37*
G36*
X318806D02*
X316194D01*
X313671Y1011274D01*
X311409Y1009968D01*
X309562Y1008121D01*
X308256Y1005859D01*
X307580Y1003336D01*
Y1000724D01*
X308256Y998201D01*
X309562Y995939D01*
X311409Y994092D01*
X313671Y992786D01*
X316194Y992110D01*
X318806D01*
X321329Y992786D01*
X323591Y994092D01*
X325438Y995939D01*
X326744Y998201D01*
X327420Y1000724D01*
Y1003336D01*
X326744Y1005859D01*
X325438Y1008121D01*
X323591Y1009968D01*
X321329Y1011274D01*
X318806Y1011950D01*
D02*
G37*
G36*
X197356D02*
X194744D01*
X192221Y1011274D01*
X189959Y1009968D01*
X188112Y1008121D01*
X186806Y1005859D01*
X186130Y1003336D01*
Y1000724D01*
X186806Y998201D01*
X188112Y995939D01*
X189959Y994092D01*
X192221Y992786D01*
X194744Y992110D01*
X197356D01*
X199879Y992786D01*
X202141Y994092D01*
X203988Y995939D01*
X205294Y998201D01*
X205970Y1000724D01*
Y1003336D01*
X205294Y1005859D01*
X203988Y1008121D01*
X202141Y1009968D01*
X199879Y1011274D01*
X197356Y1011950D01*
D02*
G37*
G36*
X147356D02*
X144744D01*
X142221Y1011274D01*
X139959Y1009968D01*
X138112Y1008121D01*
X136806Y1005859D01*
X136130Y1003336D01*
Y1000724D01*
X136806Y998201D01*
X138112Y995939D01*
X139959Y994092D01*
X142221Y992786D01*
X144744Y992110D01*
X147356D01*
X149879Y992786D01*
X152141Y994092D01*
X153988Y995939D01*
X155294Y998201D01*
X155970Y1000724D01*
Y1003336D01*
X155294Y1005859D01*
X153988Y1008121D01*
X152141Y1009968D01*
X149879Y1011274D01*
X147356Y1011950D01*
D02*
G37*
G36*
X97356D02*
X94744D01*
X92221Y1011274D01*
X89959Y1009968D01*
X88112Y1008121D01*
X86806Y1005859D01*
X86130Y1003336D01*
Y1000724D01*
X86806Y998201D01*
X88112Y995939D01*
X89959Y994092D01*
X92221Y992786D01*
X94744Y992110D01*
X97356D01*
X99879Y992786D01*
X102141Y994092D01*
X103988Y995939D01*
X105294Y998201D01*
X105970Y1000724D01*
Y1003336D01*
X105294Y1005859D01*
X103988Y1008121D01*
X102141Y1009968D01*
X99879Y1011274D01*
X97356Y1011950D01*
D02*
G37*
G36*
X432257Y931940D02*
X428802D01*
X425414Y931266D01*
X422222Y929944D01*
X419349Y928024D01*
X416906Y925581D01*
X414986Y922708D01*
X413664Y919516D01*
X412990Y916127D01*
Y912673D01*
X413664Y909284D01*
X414986Y906092D01*
X416906Y903219D01*
X419349Y900776D01*
X422222Y898856D01*
X425414Y897534D01*
X428802Y896860D01*
X432257D01*
X435646Y897534D01*
X438838Y898856D01*
X441711Y900776D01*
X444154Y903219D01*
X446074Y906092D01*
X447396Y909284D01*
X448070Y912673D01*
Y916127D01*
X447396Y919516D01*
X446074Y922708D01*
X444154Y925581D01*
X441711Y928024D01*
X438838Y929944D01*
X435646Y931266D01*
X432257Y931940D01*
D02*
G37*
G36*
X310338D02*
X306882D01*
X303494Y931266D01*
X300302Y929944D01*
X297429Y928024D01*
X294986Y925581D01*
X293066Y922708D01*
X291744Y919516D01*
X291070Y916127D01*
Y912673D01*
X291744Y909284D01*
X293066Y906092D01*
X294986Y903219D01*
X297429Y900776D01*
X300302Y898856D01*
X303494Y897534D01*
X306882Y896860D01*
X310338D01*
X313726Y897534D01*
X316918Y898856D01*
X319791Y900776D01*
X322234Y903219D01*
X324154Y906092D01*
X325476Y909284D01*
X326150Y912673D01*
Y916127D01*
X325476Y919516D01*
X324154Y922708D01*
X322234Y925581D01*
X319791Y928024D01*
X316918Y929944D01*
X313726Y931266D01*
X310338Y931940D01*
D02*
G37*
G36*
X211278D02*
X207822D01*
X204434Y931266D01*
X201242Y929944D01*
X198369Y928024D01*
X195926Y925581D01*
X194006Y922708D01*
X192684Y919516D01*
X192010Y916127D01*
Y912673D01*
X192684Y909284D01*
X194006Y906092D01*
X195926Y903219D01*
X198369Y900776D01*
X201242Y898856D01*
X204434Y897534D01*
X207822Y896860D01*
X211278D01*
X214666Y897534D01*
X217858Y898856D01*
X220731Y900776D01*
X223174Y903219D01*
X225094Y906092D01*
X226416Y909284D01*
X227090Y912673D01*
Y916127D01*
X226416Y919516D01*
X225094Y922708D01*
X223174Y925581D01*
X220731Y928024D01*
X217858Y929944D01*
X214666Y931266D01*
X211278Y931940D01*
D02*
G37*
G36*
X89358D02*
X85903D01*
X82514Y931266D01*
X79322Y929944D01*
X76449Y928024D01*
X74006Y925581D01*
X72086Y922708D01*
X70764Y919516D01*
X70090Y916127D01*
Y912673D01*
X70764Y909284D01*
X72086Y906092D01*
X74006Y903219D01*
X76449Y900776D01*
X79322Y898856D01*
X82514Y897534D01*
X85903Y896860D01*
X89358D01*
X92746Y897534D01*
X95938Y898856D01*
X98811Y900776D01*
X101254Y903219D01*
X103174Y906092D01*
X104496Y909284D01*
X105170Y912673D01*
Y916127D01*
X104496Y919516D01*
X103174Y922708D01*
X101254Y925581D01*
X98811Y928024D01*
X95938Y929944D01*
X92746Y931266D01*
X89358Y931940D01*
D02*
G37*
G36*
X644348Y930670D02*
X640892D01*
X637504Y929996D01*
X634312Y928674D01*
X631439Y926754D01*
X628996Y924311D01*
X627076Y921438D01*
X625754Y918246D01*
X625080Y914857D01*
Y911403D01*
X625754Y908014D01*
X627076Y904822D01*
X628996Y901949D01*
X631439Y899506D01*
X634312Y897586D01*
X637504Y896264D01*
X640892Y895590D01*
X644348D01*
X647736Y896264D01*
X650928Y897586D01*
X653801Y899506D01*
X656244Y901949D01*
X658164Y904822D01*
X659486Y908014D01*
X660160Y911403D01*
Y914857D01*
X659486Y918246D01*
X658164Y921438D01*
X656244Y924311D01*
X653801Y926754D01*
X650928Y928674D01*
X647736Y929996D01*
X644348Y930670D01*
D02*
G37*
G36*
X522427D02*
X518973D01*
X515584Y929996D01*
X512392Y928674D01*
X509519Y926754D01*
X507076Y924311D01*
X505156Y921438D01*
X503834Y918246D01*
X503160Y914857D01*
Y911403D01*
X503834Y908014D01*
X505156Y904822D01*
X507076Y901949D01*
X509519Y899506D01*
X512392Y897586D01*
X515584Y896264D01*
X518973Y895590D01*
X522427D01*
X525816Y896264D01*
X529008Y897586D01*
X531881Y899506D01*
X534324Y901949D01*
X536244Y904822D01*
X537566Y908014D01*
X538240Y911403D01*
Y914857D01*
X537566Y918246D01*
X536244Y921438D01*
X534324Y924311D01*
X531881Y926754D01*
X529008Y928674D01*
X525816Y929996D01*
X522427Y930670D01*
D02*
G37*
G36*
X432257Y810020D02*
X428802D01*
X425414Y809346D01*
X422222Y808024D01*
X419349Y806104D01*
X416906Y803661D01*
X414986Y800788D01*
X413664Y797596D01*
X412990Y794208D01*
Y790752D01*
X413664Y787364D01*
X414986Y784172D01*
X416906Y781299D01*
X419349Y778856D01*
X422222Y776936D01*
X425414Y775614D01*
X426146Y775469D01*
Y772734D01*
X396240D01*
X394562Y772401D01*
X393140Y771450D01*
X389330Y767640D01*
X389110Y767311D01*
X387110Y767918D01*
Y768808D01*
X386436Y772196D01*
X385114Y775388D01*
X383194Y778261D01*
X380751Y780704D01*
X377878Y782624D01*
X374686Y783946D01*
X371297Y784620D01*
X367842D01*
X364454Y783946D01*
X361262Y782624D01*
X358389Y780704D01*
X355946Y778261D01*
X354026Y775388D01*
X352704Y772196D01*
X352030Y768808D01*
Y765352D01*
X352704Y761964D01*
X354026Y758772D01*
X355946Y755899D01*
X358389Y753456D01*
X361262Y751536D01*
X364454Y750214D01*
X367842Y749540D01*
X371297D01*
X374686Y750214D01*
X377878Y751536D01*
X380751Y753456D01*
X383194Y755899D01*
X385114Y758772D01*
X386046Y761022D01*
X388046Y760624D01*
Y741680D01*
X386145Y740984D01*
X369570D01*
X367892Y740650D01*
X366470Y739700D01*
X363930Y737160D01*
X363034Y735819D01*
X361193Y735577D01*
X358595Y734501D01*
X356363Y732788D01*
X354651Y730557D01*
X354236Y729554D01*
X318640D01*
Y735200D01*
X296040D01*
Y712600D01*
X318640D01*
Y720786D01*
X354236D01*
X354651Y719783D01*
X356363Y717551D01*
X358595Y715839D01*
X361193Y714763D01*
X363982Y714396D01*
X372618D01*
X375406Y714763D01*
X376383Y713030D01*
X373749Y710395D01*
X372618Y710544D01*
X363982D01*
X361193Y710177D01*
X358595Y709101D01*
X356363Y707389D01*
X354651Y705157D01*
X353575Y702559D01*
X353208Y699770D01*
X353575Y696981D01*
X354651Y694383D01*
X356363Y692151D01*
X358595Y690439D01*
X361193Y689363D01*
X363982Y688996D01*
X372618D01*
X375407Y689363D01*
X378005Y690439D01*
X380237Y692151D01*
X381949Y694383D01*
X383025Y696981D01*
X383392Y699770D01*
X383025Y702559D01*
X382616Y703546D01*
X383952Y705546D01*
X470352D01*
X471651Y703546D01*
X471500Y702350D01*
X471500Y700609D01*
Y696080D01*
X486080D01*
Y699934D01*
X488080Y700613D01*
X488824Y699644D01*
X496444Y692024D01*
X497968Y690854D01*
X499009Y690423D01*
X499744Y690118D01*
X501650Y689867D01*
X508130D01*
Y685930D01*
X512067D01*
Y676852D01*
X510526Y676357D01*
X510067Y676328D01*
X508598Y677797D01*
X506730Y678570D01*
Y673100D01*
Y667630D01*
X508598Y668403D01*
X510067Y669872D01*
X510526Y669843D01*
X512067Y669348D01*
Y622318D01*
X510522Y620773D01*
X314703D01*
Y687200D01*
X318640D01*
Y709800D01*
X296040D01*
Y705863D01*
X291843D01*
Y781810D01*
X292265Y782232D01*
X294363D01*
X294986Y781299D01*
X297429Y778856D01*
X300302Y776936D01*
X303494Y775614D01*
X306882Y774940D01*
X310338D01*
X313726Y775614D01*
X316918Y776936D01*
X319791Y778856D01*
X322234Y781299D01*
X324154Y784172D01*
X325476Y787364D01*
X326150Y790752D01*
Y794208D01*
X325476Y797596D01*
X324154Y800788D01*
X322234Y803661D01*
X319791Y806104D01*
X316918Y808024D01*
X313726Y809346D01*
X310338Y810020D01*
X306882D01*
X303494Y809346D01*
X300302Y808024D01*
X297429Y806104D01*
X294986Y803661D01*
X293066Y800788D01*
X291744Y797596D01*
X291617Y796958D01*
X289215D01*
X287309Y796707D01*
X286269Y796276D01*
X285533Y795971D01*
X284008Y794801D01*
X279274Y790066D01*
X278104Y788541D01*
X277673Y787501D01*
X277368Y786766D01*
X277117Y784860D01*
Y751400D01*
X263460D01*
Y749114D01*
X249309D01*
X247436Y748742D01*
X245848Y747681D01*
X242919Y744752D01*
X241859Y743164D01*
X241486Y741291D01*
Y738710D01*
X239486Y738174D01*
X239078Y738881D01*
X237231Y740728D01*
X234969Y742034D01*
X232446Y742710D01*
X229834D01*
X227311Y742034D01*
X225049Y740728D01*
X223202Y738881D01*
X221896Y736619D01*
X221220Y734096D01*
Y731484D01*
X221896Y728961D01*
X223202Y726699D01*
X225049Y724852D01*
X227311Y723546D01*
X229834Y722870D01*
X232446D01*
X234969Y723546D01*
X237231Y724852D01*
X239005Y726626D01*
X243451D01*
X245324Y726999D01*
X246912Y728059D01*
X247768Y728916D01*
X248682Y728450D01*
X249417Y727737D01*
X249106Y726171D01*
Y708271D01*
Y704726D01*
X249044Y704664D01*
X164983D01*
X164779Y705157D01*
X163067Y707389D01*
X160835Y709101D01*
X158237Y710177D01*
X155448Y710544D01*
X146812D01*
X144023Y710177D01*
X141425Y709101D01*
X139193Y707389D01*
X137481Y705157D01*
X136405Y702559D01*
X136038Y699770D01*
X136405Y696981D01*
X137481Y694383D01*
X139193Y692151D01*
X141425Y690439D01*
X144023Y689363D01*
X146812Y688996D01*
X155448D01*
X158237Y689363D01*
X160835Y690439D01*
X163067Y692151D01*
X164779Y694383D01*
X164983Y694876D01*
X251071D01*
X252944Y695248D01*
X254532Y696309D01*
X257461Y699238D01*
X258521Y700826D01*
X258894Y702699D01*
Y706244D01*
X259241Y706591D01*
X259683Y706678D01*
X261026Y707576D01*
X263460D01*
Y705640D01*
X263220Y703740D01*
X263220Y703740D01*
X263220Y703740D01*
Y697470D01*
X270510D01*
Y696200D01*
X271780D01*
Y688660D01*
X277800D01*
Y695821D01*
X277824Y695842D01*
X279800Y696577D01*
X283084Y693294D01*
X284608Y692123D01*
X285649Y691693D01*
X286384Y691388D01*
X288290Y691137D01*
X296040D01*
Y687200D01*
X299977D01*
Y620773D01*
X94993D01*
Y662940D01*
Y687200D01*
X98930D01*
Y709800D01*
X76330D01*
Y705863D01*
X70863D01*
Y782549D01*
X72863Y783009D01*
X74006Y781299D01*
X76449Y778856D01*
X79322Y776936D01*
X82514Y775614D01*
X85903Y774940D01*
X89358D01*
X92746Y775614D01*
X95938Y776936D01*
X98811Y778856D01*
X101254Y781299D01*
X103174Y784172D01*
X104496Y787364D01*
X105170Y790752D01*
Y794208D01*
X104496Y797596D01*
X103174Y800788D01*
X101254Y803661D01*
X98811Y806104D01*
X95938Y808024D01*
X92746Y809346D01*
X89358Y810020D01*
X85903D01*
X82514Y809346D01*
X79322Y808024D01*
X76449Y806104D01*
X74006Y803661D01*
X72086Y800788D01*
X71005Y798178D01*
X67015D01*
X65109Y797927D01*
X63333Y797191D01*
X61808Y796021D01*
X58294Y792506D01*
X57123Y790982D01*
X56388Y789206D01*
X56137Y787300D01*
Y704850D01*
X56304Y703580D01*
X56137Y702310D01*
X56388Y700404D01*
X57123Y698628D01*
X58294Y697104D01*
X62104Y693294D01*
X63629Y692123D01*
X64669Y691693D01*
X65404Y691388D01*
X67310Y691137D01*
X76330D01*
Y687200D01*
X80267D01*
Y670303D01*
X51710D01*
Y672740D01*
X32110D01*
Y653140D01*
X51710D01*
Y655577D01*
X80267D01*
Y624583D01*
X76200D01*
X74294Y624332D01*
X73559Y624027D01*
X72519Y623596D01*
X70994Y622426D01*
X64258Y615690D01*
X51710D01*
Y618127D01*
X32110D01*
Y598527D01*
X51710D01*
Y600965D01*
X67308D01*
X69213Y601215D01*
X69949Y601520D01*
X70989Y601951D01*
X72514Y603121D01*
X78267Y608874D01*
X80267Y608046D01*
Y530565D01*
X80518Y528659D01*
X80823Y527924D01*
X81253Y526883D01*
X82424Y525358D01*
X85938Y521844D01*
X87463Y520673D01*
X89239Y519938D01*
X91145Y519687D01*
X281922D01*
X283467Y518142D01*
Y489520D01*
X283718Y487614D01*
X284454Y485839D01*
X283387Y483943D01*
X77591D01*
X71193Y490341D01*
Y547370D01*
X70704Y549828D01*
X69312Y551912D01*
X64232Y556992D01*
X62148Y558385D01*
X59690Y558873D01*
X51710D01*
Y562250D01*
X32110D01*
Y542650D01*
X51710D01*
Y546027D01*
X57029D01*
X58347Y544709D01*
Y487680D01*
X58836Y485222D01*
X60228Y483138D01*
X70388Y472978D01*
X72472Y471586D01*
X74930Y471097D01*
X79684D01*
X81280Y470121D01*
X81280Y469097D01*
Y448531D01*
X111760D01*
Y469097D01*
X111760Y470121D01*
X113356Y471097D01*
X143524D01*
X145020Y469881D01*
Y424641D01*
X175020D01*
Y448237D01*
X183860D01*
Y442360D01*
X228460D01*
Y466960D01*
X213643D01*
Y471097D01*
X298829D01*
X305854Y464072D01*
X306090Y462170D01*
X306090D01*
Y447170D01*
X306090Y445170D01*
X306090Y444570D01*
Y430311D01*
X305850Y428410D01*
X305850Y427669D01*
Y421640D01*
X324640D01*
X343430D01*
Y427669D01*
X343430Y428410D01*
X343190Y430311D01*
Y432986D01*
X348214D01*
X348676Y432524D01*
Y366717D01*
X349010Y365039D01*
X349960Y363617D01*
X352303Y361273D01*
X353725Y360323D01*
X355403Y359989D01*
X471274D01*
X471834Y359061D01*
X472101Y357989D01*
X471143Y356741D01*
X470408Y354966D01*
X470157Y353060D01*
X470408Y351154D01*
X471143Y349379D01*
X472314Y347854D01*
X473839Y346684D01*
X475614Y345948D01*
X477520Y345697D01*
X491260D01*
Y344890D01*
X595860D01*
Y352167D01*
X645931D01*
X646512Y352091D01*
X717410D01*
Y337860D01*
X738010D01*
Y382460D01*
X717410D01*
Y366817D01*
X675852D01*
X674122Y367469D01*
X674122Y368817D01*
Y373184D01*
X666832D01*
X659542D01*
Y368817D01*
X659542Y367469D01*
X657812Y366817D01*
X655532D01*
X653802Y367469D01*
X653802Y368817D01*
Y373184D01*
X646512D01*
X639222D01*
Y368893D01*
X639222Y367469D01*
X637460Y366893D01*
X636290D01*
X634430Y367230D01*
X634430Y368893D01*
Y381830D01*
X634430Y381830D01*
X634941Y381934D01*
X635408Y382029D01*
X636830Y382980D01*
X639370Y385520D01*
X640321Y386942D01*
X640654Y388620D01*
Y389980D01*
X644980D01*
Y407580D01*
X628380D01*
Y390197D01*
X628045Y390131D01*
X626623Y389180D01*
X624280Y386837D01*
X623330Y385415D01*
X622996Y383737D01*
Y381830D01*
X620330D01*
X620330Y367230D01*
X618470Y366893D01*
X595860D01*
Y409490D01*
X491260D01*
Y360423D01*
X480255D01*
X479426Y362423D01*
X480620Y363617D01*
X481571Y365039D01*
X481904Y366717D01*
Y480756D01*
X492260D01*
Y450890D01*
X596860D01*
Y480756D01*
X611566D01*
Y433070D01*
X611899Y431392D01*
X612850Y429970D01*
X616660Y426160D01*
X618082Y425210D01*
X619760Y424876D01*
X633090D01*
Y416050D01*
X654690D01*
Y445650D01*
X633090D01*
Y433644D01*
X621576D01*
X620334Y434886D01*
Y482797D01*
X620000Y484475D01*
X619050Y485897D01*
X616707Y488240D01*
X615285Y489190D01*
X613607Y489524D01*
X596860D01*
Y515490D01*
X492260D01*
Y489524D01*
X480060D01*
X478382Y489190D01*
X476960Y488240D01*
X474420Y485700D01*
X473470Y484278D01*
X473136Y482600D01*
Y368758D01*
X469680D01*
Y419100D01*
X421640D01*
X373600D01*
Y368758D01*
X357444D01*
Y434340D01*
X357110Y436018D01*
X356160Y437440D01*
X353130Y440470D01*
X351708Y441421D01*
X350030Y441754D01*
X344604D01*
X343190Y443168D01*
X343190Y446570D01*
X343190Y447170D01*
Y462170D01*
X319703D01*
Y465730D01*
X319214Y468188D01*
X317822Y470272D01*
X306032Y482062D01*
X303948Y483455D01*
X301490Y483943D01*
X298273D01*
X297206Y485839D01*
X297942Y487614D01*
X298193Y489520D01*
Y521192D01*
X297942Y523098D01*
X297206Y524874D01*
X296036Y526399D01*
X290179Y532256D01*
X288654Y533427D01*
X286878Y534162D01*
X284972Y534413D01*
X272683D01*
X272147Y536413D01*
X273229Y537038D01*
X275082Y538891D01*
X276392Y541159D01*
X277070Y543690D01*
Y546310D01*
X276392Y548841D01*
X275082Y551109D01*
X273229Y552962D01*
X270961Y554272D01*
X268430Y554950D01*
X265810D01*
X263279Y554272D01*
X261011Y552962D01*
X259158Y551109D01*
X257848Y548841D01*
X257170Y546310D01*
Y543690D01*
X257848Y541159D01*
X259158Y538891D01*
X261011Y537038D01*
X262093Y536413D01*
X261557Y534413D01*
X247283D01*
X246747Y536413D01*
X247829Y537038D01*
X249682Y538891D01*
X250992Y541159D01*
X251670Y543690D01*
Y546310D01*
X250992Y548841D01*
X249682Y551109D01*
X247829Y552962D01*
X245560Y554272D01*
X243030Y554950D01*
X240410D01*
X237879Y554272D01*
X235611Y552962D01*
X233758Y551109D01*
X232448Y548841D01*
X231770Y546310D01*
Y543690D01*
X232448Y541159D01*
X233758Y538891D01*
X235611Y537038D01*
X236693Y536413D01*
X236157Y534413D01*
X228006D01*
X226270Y535050D01*
X226270Y536413D01*
Y554950D01*
X206370D01*
Y536413D01*
X206370Y535050D01*
X204634Y534413D01*
X94993D01*
Y606047D01*
X294409D01*
X295003Y604047D01*
X294080Y603430D01*
X289420Y598770D01*
X288470Y597348D01*
X288136Y595670D01*
Y579358D01*
X286411Y578362D01*
X284558Y576509D01*
X283248Y574241D01*
X282570Y571710D01*
Y569090D01*
X283248Y566559D01*
X284558Y564291D01*
X286411Y562438D01*
X288679Y561128D01*
X291210Y560450D01*
X293830D01*
X296360Y561128D01*
X298629Y562438D01*
X300482Y564291D01*
X301792Y566559D01*
X302470Y569090D01*
Y571710D01*
X301792Y574241D01*
X300482Y576509D01*
X298629Y578362D01*
X296904Y579358D01*
Y593854D01*
X298996Y595946D01*
X316382D01*
X317148Y594098D01*
X314820Y591770D01*
X313869Y590348D01*
X313536Y588670D01*
Y579358D01*
X311811Y578362D01*
X309958Y576509D01*
X308648Y574241D01*
X307970Y571710D01*
Y569090D01*
X308648Y566559D01*
X309958Y564291D01*
X311811Y562438D01*
X314079Y561128D01*
X316610Y560450D01*
X319230D01*
X321760Y561128D01*
X324029Y562438D01*
X325882Y564291D01*
X327192Y566559D01*
X327870Y569090D01*
Y571710D01*
X327192Y574241D01*
X325882Y576509D01*
X324029Y578362D01*
X322304Y579358D01*
Y586854D01*
X324396Y588946D01*
X784286D01*
Y330984D01*
X782410D01*
X781986Y330900D01*
X773960D01*
X772360Y330900D01*
X769881Y330900D01*
X768547Y332900D01*
X768570Y332956D01*
Y335064D01*
X767763Y337012D01*
X766272Y338503D01*
X764324Y339310D01*
X762216D01*
X760268Y338503D01*
X758777Y337012D01*
X757970Y335064D01*
Y332956D01*
X757993Y332900D01*
X757360Y330900D01*
X757360D01*
Y316800D01*
X770360D01*
X771960Y316800D01*
X773960Y316800D01*
X786960D01*
Y322342D01*
X788005Y322550D01*
X789427Y323500D01*
X789906Y323979D01*
X791906Y323150D01*
Y309184D01*
X786960D01*
Y310580D01*
X773960D01*
X772360Y310580D01*
X770360Y310580D01*
X757360D01*
Y307914D01*
X754031D01*
X752353Y307581D01*
X752323Y307560D01*
X751166D01*
X749218Y306753D01*
X747727Y305262D01*
X746920Y303314D01*
Y301206D01*
X747727Y299258D01*
X749218Y297767D01*
X751166Y296960D01*
X753274D01*
X755222Y297767D01*
X755360Y297905D01*
X757360Y297076D01*
Y296480D01*
X770360D01*
X771960Y296480D01*
X773960Y296480D01*
X786960D01*
Y300416D01*
X793947D01*
X795625Y300749D01*
X797047Y301700D01*
X799390Y304043D01*
X800340Y305465D01*
X800674Y307143D01*
Y597987D01*
X800340Y599665D01*
X799390Y601087D01*
X797047Y603430D01*
X795625Y604380D01*
X793947Y604714D01*
X516881D01*
X516483Y606714D01*
X517254Y607034D01*
X518778Y608204D01*
X524636Y614062D01*
X525807Y615586D01*
X526237Y616627D01*
X526542Y617362D01*
X526793Y619268D01*
Y685930D01*
X530730D01*
Y708530D01*
X508130D01*
Y704593D01*
X504700D01*
X501393Y707900D01*
Y783847D01*
X504765D01*
X505156Y782902D01*
X507076Y780029D01*
X509519Y777586D01*
X512392Y775666D01*
X515584Y774344D01*
X518973Y773670D01*
X522427D01*
X525816Y774344D01*
X529008Y775666D01*
X531881Y777586D01*
X534324Y780029D01*
X536244Y782902D01*
X537566Y786094D01*
X538240Y789482D01*
Y792937D01*
X537566Y796326D01*
X536244Y799518D01*
X534324Y802391D01*
X531881Y804834D01*
X529008Y806754D01*
X525816Y808076D01*
X522427Y808750D01*
X518973D01*
X515584Y808076D01*
X512392Y806754D01*
X509519Y804834D01*
X507076Y802391D01*
X505156Y799518D01*
X504765Y798573D01*
X497840D01*
X495934Y798322D01*
X495199Y798017D01*
X494159Y797587D01*
X492634Y796416D01*
X488824Y792606D01*
X487654Y791081D01*
X487223Y790041D01*
X486918Y789306D01*
X486667Y787400D01*
Y756867D01*
X485840Y755210D01*
X484667Y755210D01*
X471740D01*
Y749754D01*
X458273D01*
X456595Y749420D01*
X455173Y748470D01*
X452830Y746127D01*
X451880Y744705D01*
X451546Y743027D01*
Y741216D01*
X451006Y740867D01*
X449546Y740503D01*
X448051Y741998D01*
X445789Y743304D01*
X443266Y743980D01*
X440654D01*
X438131Y743304D01*
X435869Y741998D01*
X434022Y740151D01*
X432716Y737889D01*
X432040Y735366D01*
Y732754D01*
X432716Y730231D01*
X434022Y727969D01*
X435869Y726122D01*
X438131Y724816D01*
X440654Y724140D01*
X443266D01*
X445789Y724816D01*
X448051Y726122D01*
X449898Y727969D01*
X450883Y729676D01*
X453390D01*
X455068Y730010D01*
X456490Y730960D01*
X459030Y733500D01*
X459981Y734922D01*
X460314Y736600D01*
Y740986D01*
X470061D01*
X471740Y740210D01*
X471740Y738610D01*
Y725610D01*
X474406D01*
Y717110D01*
X471740D01*
Y714314D01*
X379483D01*
X379240Y714266D01*
X378392Y716136D01*
X380237Y717551D01*
X381949Y719783D01*
X383025Y722381D01*
X383392Y725170D01*
X383025Y727959D01*
X382090Y730216D01*
X382903Y732216D01*
X389890D01*
X391568Y732550D01*
X392990Y733500D01*
X395530Y736040D01*
X396480Y737462D01*
X396814Y739140D01*
X396562Y740410D01*
X396814Y741680D01*
Y762724D01*
X398056Y763966D01*
X428187D01*
X429865Y764299D01*
X431287Y765250D01*
X433630Y767593D01*
X434580Y769015D01*
X434914Y770693D01*
Y775469D01*
X435646Y775614D01*
X438838Y776936D01*
X441711Y778856D01*
X444154Y781299D01*
X446074Y784172D01*
X447396Y787364D01*
X448070Y790752D01*
Y794208D01*
X447396Y797596D01*
X446074Y800788D01*
X444154Y803661D01*
X441711Y806104D01*
X438838Y808024D01*
X435646Y809346D01*
X432257Y810020D01*
D02*
G37*
G36*
X150317Y784620D02*
X146862D01*
X143474Y783946D01*
X140282Y782624D01*
X137409Y780704D01*
X134966Y778261D01*
X133046Y775388D01*
X131724Y772196D01*
X131050Y768808D01*
Y765352D01*
X131724Y761964D01*
X133046Y758772D01*
X134966Y755899D01*
X137409Y753456D01*
X140282Y751536D01*
X143474Y750214D01*
X146862Y749540D01*
X150317D01*
X153706Y750214D01*
X156898Y751536D01*
X159771Y753456D01*
X162214Y755899D01*
X164134Y758772D01*
X165456Y761964D01*
X166130Y765352D01*
Y768808D01*
X165456Y772196D01*
X164134Y775388D01*
X162214Y778261D01*
X159771Y780704D01*
X156898Y782624D01*
X153706Y783946D01*
X150317Y784620D01*
D02*
G37*
G36*
X583387Y783350D02*
X579933D01*
X576544Y782676D01*
X573352Y781354D01*
X570479Y779434D01*
X568036Y776991D01*
X566116Y774118D01*
X564794Y770926D01*
X564120Y767538D01*
Y764082D01*
X564794Y760694D01*
X566116Y757502D01*
X568036Y754629D01*
X570479Y752186D01*
X573352Y750266D01*
X576544Y748944D01*
X579933Y748270D01*
X583387D01*
X586776Y748944D01*
X589968Y750266D01*
X592841Y752186D01*
X595284Y754629D01*
X597204Y757502D01*
X598526Y760694D01*
X599200Y764082D01*
Y767538D01*
X598526Y770926D01*
X597204Y774118D01*
X595284Y776991D01*
X592841Y779434D01*
X589968Y781354D01*
X586776Y782676D01*
X583387Y783350D01*
D02*
G37*
G36*
X705550Y751400D02*
X691450D01*
Y748484D01*
X686950D01*
X685272Y748150D01*
X683850Y747200D01*
X681430Y744780D01*
X680480Y743358D01*
X680146Y741680D01*
Y734634D01*
X665513D01*
X664528Y736341D01*
X662681Y738188D01*
X660419Y739494D01*
X657896Y740170D01*
X655284D01*
X652761Y739494D01*
X650499Y738188D01*
X648652Y736341D01*
X647346Y734079D01*
X646670Y731556D01*
Y728944D01*
X647346Y726421D01*
X648652Y724159D01*
X650499Y722312D01*
X652761Y721006D01*
X655284Y720330D01*
X657896D01*
X660419Y721006D01*
X662681Y722312D01*
X664528Y724159D01*
X665513Y725866D01*
X682187D01*
X683865Y726199D01*
X685287Y727150D01*
X687630Y729493D01*
X688580Y730915D01*
X688914Y732593D01*
Y738009D01*
X690914Y738837D01*
X691450Y738301D01*
X691450Y736800D01*
X691450Y734800D01*
Y721890D01*
X691450Y721800D01*
X691233Y719890D01*
X691210D01*
Y713620D01*
X698500D01*
X705790D01*
Y719890D01*
X705767D01*
X705550Y721800D01*
X705550Y721890D01*
Y734800D01*
X705550Y736400D01*
X705550Y738400D01*
Y751400D01*
D02*
G37*
G36*
X211278Y810020D02*
X207822D01*
X204434Y809346D01*
X201242Y808024D01*
X198369Y806104D01*
X195926Y803661D01*
X194006Y800788D01*
X192684Y797596D01*
X192010Y794208D01*
Y790752D01*
X192684Y787364D01*
X194006Y784172D01*
X195926Y781299D01*
X198369Y778856D01*
X201242Y776936D01*
X204434Y775614D01*
X205166Y775469D01*
Y757466D01*
X203910Y756210D01*
X203910Y756210D01*
X202654Y754954D01*
X172720D01*
X171042Y754621D01*
X169620Y753670D01*
X165810Y749860D01*
X164860Y748438D01*
X164526Y746760D01*
Y738444D01*
X153473D01*
X151795Y738111D01*
X150373Y737160D01*
X149561Y735944D01*
X146812D01*
X144023Y735577D01*
X141425Y734501D01*
X139193Y732788D01*
X137481Y730557D01*
X137066Y729554D01*
X98930D01*
Y735200D01*
X76330D01*
Y712600D01*
X98930D01*
Y720786D01*
X137066D01*
X137481Y719783D01*
X139193Y717551D01*
X141425Y715839D01*
X144023Y714763D01*
X146812Y714396D01*
X155448D01*
X158237Y714763D01*
X160835Y715839D01*
X163067Y717551D01*
X164779Y719783D01*
X165855Y722381D01*
X166222Y725170D01*
X165892Y727676D01*
X166011Y728171D01*
X167237Y729848D01*
X168048Y730010D01*
X169470Y730960D01*
X172010Y733500D01*
X172960Y734922D01*
X173294Y736600D01*
Y744944D01*
X174536Y746186D01*
X204470D01*
X206148Y746519D01*
X207570Y747470D01*
X210110Y750010D01*
X210110Y750010D01*
X212650Y752550D01*
X213601Y753972D01*
X213934Y755650D01*
Y775469D01*
X214666Y775614D01*
X217858Y776936D01*
X220731Y778856D01*
X223174Y781299D01*
X225094Y784172D01*
X226416Y787364D01*
X227090Y790752D01*
Y794208D01*
X226416Y797596D01*
X225094Y800788D01*
X223174Y803661D01*
X220731Y806104D01*
X217858Y808024D01*
X214666Y809346D01*
X211278Y810020D01*
D02*
G37*
G36*
X417866Y743980D02*
X415254D01*
X412731Y743304D01*
X410469Y741998D01*
X408622Y740151D01*
X407316Y737889D01*
X406640Y735366D01*
Y732754D01*
X407316Y730231D01*
X408622Y727969D01*
X410469Y726122D01*
X412731Y724816D01*
X415254Y724140D01*
X417866D01*
X420389Y724816D01*
X422651Y726122D01*
X424498Y727969D01*
X425804Y730231D01*
X426480Y732754D01*
Y735366D01*
X425804Y737889D01*
X424498Y740151D01*
X422651Y741998D01*
X420389Y743304D01*
X417866Y743980D01*
D02*
G37*
G36*
X207046Y742710D02*
X204434D01*
X201911Y742034D01*
X199649Y740728D01*
X197802Y738881D01*
X196496Y736619D01*
X195820Y734096D01*
Y731484D01*
X196496Y728961D01*
X197802Y726699D01*
X199649Y724852D01*
X201911Y723546D01*
X204434Y722870D01*
X207046D01*
X209569Y723546D01*
X211831Y724852D01*
X213678Y726699D01*
X214984Y728961D01*
X215660Y731484D01*
Y734096D01*
X214984Y736619D01*
X213678Y738881D01*
X211831Y740728D01*
X209569Y742034D01*
X207046Y742710D01*
D02*
G37*
G36*
X644348Y808750D02*
X640892D01*
X637504Y808076D01*
X634312Y806754D01*
X631439Y804834D01*
X628996Y802391D01*
X627076Y799518D01*
X625754Y796326D01*
X625080Y792937D01*
Y789482D01*
X625754Y786094D01*
X627076Y782902D01*
X628996Y780029D01*
X631439Y777586D01*
X634312Y775666D01*
X637504Y774344D01*
X638236Y774199D01*
Y751116D01*
X635724Y748604D01*
X601783D01*
X600105Y748270D01*
X598683Y747320D01*
X596340Y744977D01*
X595390Y743555D01*
X595056Y741877D01*
Y730084D01*
X593056Y729098D01*
X592635Y729421D01*
X590037Y730497D01*
X587248Y730864D01*
X578612D01*
X575823Y730497D01*
X573547Y729554D01*
X530730D01*
Y733930D01*
X508130D01*
Y711330D01*
X530730D01*
Y720786D01*
X567228D01*
X567838Y720090D01*
X568205Y717301D01*
X569281Y714703D01*
X570993Y712471D01*
X573225Y710759D01*
X575823Y709683D01*
X578612Y709316D01*
X587248D01*
X590037Y709683D01*
X592635Y710759D01*
X594866Y712471D01*
X596579Y714703D01*
X597655Y717301D01*
X597975Y719730D01*
X598578Y719849D01*
X600000Y720800D01*
X602540Y723340D01*
X603490Y724762D01*
X603824Y726440D01*
Y739836D01*
X624034D01*
X624383Y739296D01*
X624747Y737836D01*
X623252Y736341D01*
X621946Y734079D01*
X621270Y731556D01*
Y728944D01*
X621946Y726421D01*
X623252Y724159D01*
X625099Y722312D01*
X627361Y721006D01*
X629884Y720330D01*
X632496D01*
X635019Y721006D01*
X637281Y722312D01*
X639128Y724159D01*
X640434Y726421D01*
X641110Y728944D01*
Y731556D01*
X640434Y734079D01*
X639128Y736341D01*
X637606Y737863D01*
X637591Y738319D01*
X637768Y739131D01*
X638200Y739967D01*
X639218Y740170D01*
X640640Y741120D01*
X645720Y746200D01*
X646671Y747622D01*
X647004Y749300D01*
Y774199D01*
X647736Y774344D01*
X650928Y775666D01*
X653801Y777586D01*
X656244Y780029D01*
X658164Y782902D01*
X659486Y786094D01*
X660160Y789482D01*
Y792937D01*
X659486Y796326D01*
X658164Y799518D01*
X656244Y802391D01*
X653801Y804834D01*
X650928Y806754D01*
X647736Y808076D01*
X644348Y808750D01*
D02*
G37*
G36*
X705790Y711080D02*
X698500D01*
X691210D01*
Y706551D01*
X691210Y704810D01*
X690886Y702944D01*
X594038D01*
X592635Y704021D01*
X590037Y705097D01*
X587248Y705464D01*
X578612D01*
X575823Y705097D01*
X573225Y704021D01*
X570993Y702309D01*
X569281Y700077D01*
X568205Y697479D01*
X567838Y694690D01*
X568205Y691901D01*
X569281Y689303D01*
X570993Y687072D01*
X573225Y685359D01*
X575823Y684283D01*
X578612Y683916D01*
X587248D01*
X590037Y684283D01*
X592635Y685359D01*
X594866Y687072D01*
X596579Y689303D01*
X597655Y691901D01*
X597954Y694176D01*
X691450D01*
Y690050D01*
X705550D01*
Y702909D01*
X705790Y704810D01*
X705790Y706551D01*
Y711080D01*
D02*
G37*
G36*
X269240Y694930D02*
X263220D01*
Y688660D01*
X269240D01*
Y694930D01*
D02*
G37*
G36*
X486080Y693540D02*
X480060D01*
Y687270D01*
X486080D01*
Y693540D01*
D02*
G37*
G36*
X477520D02*
X471500D01*
Y687270D01*
X477520D01*
Y693540D01*
D02*
G37*
G36*
X707540Y685900D02*
X699770D01*
Y678630D01*
X707540D01*
Y685900D01*
D02*
G37*
G36*
X697230D02*
X689460D01*
Y678630D01*
X697230D01*
Y685900D01*
D02*
G37*
G36*
X279550Y685040D02*
X271780D01*
Y677770D01*
X279550D01*
Y685040D01*
D02*
G37*
G36*
X269240D02*
X261470D01*
Y677770D01*
X269240D01*
Y685040D01*
D02*
G37*
G36*
X372618Y685386D02*
X369570D01*
Y675640D01*
X383467D01*
X383259Y677221D01*
X382158Y679878D01*
X380408Y682160D01*
X378126Y683910D01*
X375469Y685011D01*
X372618Y685386D01*
D02*
G37*
G36*
X155448D02*
X152400D01*
Y675640D01*
X166297D01*
X166089Y677221D01*
X164988Y679878D01*
X163238Y682160D01*
X160956Y683910D01*
X158299Y685011D01*
X155448Y685386D01*
D02*
G37*
G36*
X293370Y679840D02*
Y675640D01*
X297570D01*
X296797Y677508D01*
X295238Y679067D01*
X293370Y679840D01*
D02*
G37*
G36*
X290830D02*
X288962Y679067D01*
X287403Y677508D01*
X286630Y675640D01*
X290830D01*
Y679840D01*
D02*
G37*
G36*
X367030Y685386D02*
X363982D01*
X361131Y685011D01*
X358474Y683910D01*
X356192Y682160D01*
X354442Y679878D01*
X353341Y677221D01*
X353133Y675640D01*
X367030D01*
Y685386D01*
D02*
G37*
G36*
X149860D02*
X146812D01*
X143961Y685011D01*
X141304Y683910D01*
X139022Y682160D01*
X137272Y679878D01*
X136171Y677221D01*
X135963Y675640D01*
X149860D01*
Y685386D01*
D02*
G37*
G36*
X490370Y682090D02*
X482600D01*
Y674820D01*
X490370D01*
Y682090D01*
D02*
G37*
G36*
X480060D02*
X472290D01*
Y674820D01*
X480060D01*
Y682090D01*
D02*
G37*
G36*
X504190Y678570D02*
X502322Y677797D01*
X500763Y676238D01*
X499990Y674370D01*
X504190D01*
Y678570D01*
D02*
G37*
G36*
X587248Y680306D02*
X584200D01*
Y670560D01*
X598097D01*
X597889Y672141D01*
X596788Y674798D01*
X595038Y677080D01*
X592756Y678830D01*
X590099Y679931D01*
X587248Y680306D01*
D02*
G37*
G36*
X581660D02*
X578612D01*
X575761Y679931D01*
X573104Y678830D01*
X570822Y677080D01*
X569072Y674798D01*
X567971Y672141D01*
X567763Y670560D01*
X581660D01*
Y680306D01*
D02*
G37*
G36*
X297570Y673100D02*
X293370D01*
Y668900D01*
X295238Y669673D01*
X296797Y671232D01*
X297570Y673100D01*
D02*
G37*
G36*
X290830D02*
X286630D01*
X287403Y671232D01*
X288962Y669673D01*
X290830Y668900D01*
Y673100D01*
D02*
G37*
G36*
X707540Y676090D02*
X699770D01*
Y668820D01*
X707540D01*
Y676090D01*
D02*
G37*
G36*
X697230D02*
X689460D01*
Y668820D01*
X697230D01*
Y676090D01*
D02*
G37*
G36*
X279550Y675230D02*
X271780D01*
Y667960D01*
X279550D01*
Y675230D01*
D02*
G37*
G36*
X269240D02*
X261470D01*
Y667960D01*
X269240D01*
Y675230D01*
D02*
G37*
G36*
X504190Y671830D02*
X499990D01*
X500763Y669962D01*
X502322Y668403D01*
X504190Y667630D01*
Y671830D01*
D02*
G37*
G36*
X490370Y672280D02*
X482600D01*
Y665010D01*
X490370D01*
Y672280D01*
D02*
G37*
G36*
X480060D02*
X472290D01*
Y665010D01*
X480060D01*
Y672280D01*
D02*
G37*
G36*
X383467Y673100D02*
X369570D01*
Y663354D01*
X372618D01*
X375469Y663729D01*
X378126Y664830D01*
X380408Y666580D01*
X382158Y668862D01*
X383259Y671519D01*
X383467Y673100D01*
D02*
G37*
G36*
X367030D02*
X353133D01*
X353341Y671519D01*
X354442Y668862D01*
X356192Y666580D01*
X358474Y664830D01*
X361131Y663729D01*
X363982Y663354D01*
X367030D01*
Y673100D01*
D02*
G37*
G36*
X166297D02*
X152400D01*
Y663354D01*
X155448D01*
X158299Y663729D01*
X160956Y664830D01*
X163238Y666580D01*
X164988Y668862D01*
X166089Y671519D01*
X166297Y673100D01*
D02*
G37*
G36*
X149860D02*
X135963D01*
X136171Y671519D01*
X137272Y668862D01*
X139022Y666580D01*
X141304Y664830D01*
X143961Y663729D01*
X146812Y663354D01*
X149860D01*
Y673100D01*
D02*
G37*
G36*
X707300Y666160D02*
X689700D01*
Y658434D01*
X665513D01*
X664528Y660141D01*
X662681Y661988D01*
X660419Y663294D01*
X657896Y663970D01*
X655284D01*
X652761Y663294D01*
X650499Y661988D01*
X648652Y660141D01*
X647346Y657879D01*
X646670Y655356D01*
Y652744D01*
X647346Y650221D01*
X648652Y647959D01*
X650499Y646112D01*
X652761Y644806D01*
X655284Y644130D01*
X657896D01*
X660419Y644806D01*
X662681Y646112D01*
X664528Y647959D01*
X665513Y649666D01*
X689700D01*
Y649560D01*
X707300D01*
Y666160D01*
D02*
G37*
G36*
X598097Y668020D02*
X584200D01*
Y658274D01*
X587248D01*
X590099Y658649D01*
X592756Y659750D01*
X595038Y661500D01*
X596788Y663782D01*
X597889Y666439D01*
X598097Y668020D01*
D02*
G37*
G36*
X581660D02*
X567763D01*
X567971Y666439D01*
X569072Y663782D01*
X570822Y661500D01*
X573104Y659750D01*
X575761Y658649D01*
X578612Y658274D01*
X581660D01*
Y668020D01*
D02*
G37*
G36*
X279310Y665300D02*
X261710D01*
Y648700D01*
X279310D01*
Y665300D01*
D02*
G37*
G36*
X232446Y666510D02*
X229834D01*
X227311Y665834D01*
X225049Y664528D01*
X223202Y662681D01*
X221896Y660419D01*
X221220Y657896D01*
Y655284D01*
X221896Y652761D01*
X223202Y650499D01*
X225049Y648652D01*
X227311Y647346D01*
X229834Y646670D01*
X232446D01*
X234969Y647346D01*
X237231Y648652D01*
X239078Y650499D01*
X240384Y652761D01*
X241060Y655284D01*
Y657896D01*
X240384Y660419D01*
X239078Y662681D01*
X237231Y664528D01*
X234969Y665834D01*
X232446Y666510D01*
D02*
G37*
G36*
X443266Y667780D02*
X440654D01*
X438131Y667104D01*
X435869Y665798D01*
X434022Y663951D01*
X432716Y661689D01*
X432040Y659166D01*
Y656554D01*
X432716Y654031D01*
X434022Y651769D01*
X435869Y649922D01*
X438131Y648616D01*
X440654Y647940D01*
X443266D01*
X445789Y648616D01*
X448051Y649922D01*
X449898Y651769D01*
X450883Y653476D01*
X472530D01*
Y645750D01*
X490130D01*
Y662350D01*
X472530D01*
Y662244D01*
X450883D01*
X449898Y663951D01*
X448051Y665798D01*
X445789Y667104D01*
X443266Y667780D01*
D02*
G37*
G36*
X43232Y647580D02*
X43180D01*
Y638810D01*
X51950D01*
Y638862D01*
X51266Y641415D01*
X49944Y643705D01*
X48075Y645574D01*
X45785Y646896D01*
X43232Y647580D01*
D02*
G37*
G36*
X40640D02*
X40588D01*
X38035Y646896D01*
X35745Y645574D01*
X33876Y643705D01*
X32554Y641415D01*
X31870Y638862D01*
Y638810D01*
X40640D01*
Y647580D01*
D02*
G37*
G36*
X426480Y667780D02*
X406640D01*
Y647940D01*
X412176D01*
Y643320D01*
X405570D01*
Y629220D01*
X418570D01*
X420170Y629220D01*
Y629220D01*
X420570D01*
Y629220D01*
X435170D01*
Y631886D01*
X447739D01*
X447848Y631777D01*
X449796Y630970D01*
X451904D01*
X453852Y631777D01*
X455343Y633268D01*
X456150Y635216D01*
Y637324D01*
X455343Y639272D01*
X453852Y640763D01*
X451904Y641570D01*
X449796D01*
X447848Y640763D01*
X447739Y640654D01*
X435170D01*
Y643320D01*
X420944D01*
Y647940D01*
X426480D01*
Y667780D01*
D02*
G37*
G36*
X51950Y636270D02*
X43180D01*
Y627500D01*
X43232D01*
X45785Y628184D01*
X48075Y629506D01*
X49944Y631375D01*
X51266Y633665D01*
X51950Y636218D01*
Y636270D01*
D02*
G37*
G36*
X40640D02*
X31870D01*
Y636218D01*
X32554Y633665D01*
X33876Y631375D01*
X35745Y629506D01*
X38035Y628184D01*
X40588Y627500D01*
X40640D01*
Y636270D01*
D02*
G37*
G36*
X215660Y666510D02*
X195820D01*
Y652870D01*
X191330Y648380D01*
X190380Y646958D01*
X190046Y645280D01*
Y640780D01*
X187130D01*
Y626680D01*
X200130D01*
X201730Y626680D01*
X203730Y626680D01*
X216730D01*
Y628458D01*
X225106D01*
X225598Y627967D01*
X227546Y627160D01*
X229654D01*
X231602Y627967D01*
X233093Y629458D01*
X233900Y631406D01*
Y633514D01*
X233093Y635462D01*
X231602Y636953D01*
X229654Y637760D01*
X227546D01*
X226259Y637227D01*
X216730D01*
Y640780D01*
X203730D01*
X202130Y640780D01*
X200229Y640780D01*
X199331Y641678D01*
Y643980D01*
X202020Y646670D01*
X215660D01*
Y666510D01*
D02*
G37*
G36*
X641110Y663970D02*
X621270D01*
Y644130D01*
X626806D01*
Y640910D01*
X624140D01*
Y627910D01*
X624140Y626310D01*
X624140Y624310D01*
Y621987D01*
X613211D01*
X611924Y622520D01*
X609816D01*
X607868Y621713D01*
X606377Y620222D01*
X605570Y618274D01*
Y616166D01*
X606377Y614218D01*
X607868Y612727D01*
X609816Y611920D01*
X611924D01*
X613872Y612727D01*
X614364Y613218D01*
X624140D01*
Y611310D01*
X638240D01*
Y624310D01*
X638240Y625910D01*
X638240Y627910D01*
Y640910D01*
X635574D01*
Y644130D01*
X641110D01*
Y663970D01*
D02*
G37*
G36*
X43232Y592967D02*
X43180D01*
Y584198D01*
X51950D01*
Y584249D01*
X51266Y586803D01*
X49944Y589092D01*
X48075Y590961D01*
X45785Y592283D01*
X43232Y592967D01*
D02*
G37*
G36*
X40640D02*
X40588D01*
X38035Y592283D01*
X35745Y590961D01*
X33876Y589092D01*
X32554Y586803D01*
X31870Y584249D01*
Y584198D01*
X40640D01*
Y592967D01*
D02*
G37*
G36*
X51950Y581657D02*
X43180D01*
Y572887D01*
X43232D01*
X45785Y573572D01*
X48075Y574893D01*
X49944Y576763D01*
X51266Y579052D01*
X51950Y581606D01*
Y581657D01*
D02*
G37*
G36*
X40640D02*
X31870D01*
Y581606D01*
X32554Y579052D01*
X33876Y576763D01*
X35745Y574893D01*
X38035Y573572D01*
X40588Y572887D01*
X40640D01*
Y581657D01*
D02*
G37*
G36*
X624062Y580590D02*
X623990D01*
Y571670D01*
X632910D01*
Y571742D01*
X632216Y574333D01*
X630874Y576657D01*
X628977Y578554D01*
X626653Y579896D01*
X624062Y580590D01*
D02*
G37*
G36*
X621450D02*
X621378D01*
X618787Y579896D01*
X616463Y578554D01*
X614566Y576657D01*
X613224Y574333D01*
X612530Y571742D01*
Y571670D01*
X621450D01*
Y580590D01*
D02*
G37*
G36*
X573261D02*
X573190D01*
Y571670D01*
X582110D01*
Y571742D01*
X581416Y574333D01*
X580074Y576657D01*
X578177Y578554D01*
X575853Y579896D01*
X573261Y580590D01*
D02*
G37*
G36*
X570650D02*
X570578D01*
X567987Y579896D01*
X565663Y578554D01*
X563766Y576657D01*
X562424Y574333D01*
X561730Y571742D01*
Y571670D01*
X570650D01*
Y580590D01*
D02*
G37*
G36*
X446261D02*
X446190D01*
Y571670D01*
X455110D01*
Y571742D01*
X454416Y574333D01*
X453074Y576657D01*
X451177Y578554D01*
X448853Y579896D01*
X446261Y580590D01*
D02*
G37*
G36*
X443650D02*
X443578D01*
X440987Y579896D01*
X438663Y578554D01*
X436766Y576657D01*
X435424Y574333D01*
X434730Y571742D01*
Y571670D01*
X443650D01*
Y580590D01*
D02*
G37*
G36*
X370061D02*
X369990D01*
Y571670D01*
X378910D01*
Y571742D01*
X378216Y574333D01*
X376874Y576657D01*
X374977Y578554D01*
X372653Y579896D01*
X370061Y580590D01*
D02*
G37*
G36*
X367450D02*
X367378D01*
X364787Y579896D01*
X362463Y578554D01*
X360566Y576657D01*
X359224Y574333D01*
X358530Y571742D01*
Y571670D01*
X367450D01*
Y580590D01*
D02*
G37*
G36*
X268461D02*
X268390D01*
Y571670D01*
X277310D01*
Y571742D01*
X276616Y574333D01*
X275274Y576657D01*
X273377Y578554D01*
X271053Y579896D01*
X268461Y580590D01*
D02*
G37*
G36*
X265850D02*
X265778D01*
X263187Y579896D01*
X260863Y578554D01*
X258966Y576657D01*
X257624Y574333D01*
X256930Y571742D01*
Y571670D01*
X265850D01*
Y580590D01*
D02*
G37*
G36*
X700230Y580350D02*
X697610D01*
X695079Y579672D01*
X692811Y578362D01*
X690958Y576509D01*
X689648Y574241D01*
X688970Y571710D01*
Y569090D01*
X689648Y566559D01*
X690958Y564291D01*
X692811Y562438D01*
X695079Y561128D01*
X697610Y560450D01*
X700230D01*
X702760Y561128D01*
X705029Y562438D01*
X706882Y564291D01*
X708192Y566559D01*
X708870Y569090D01*
Y571710D01*
X708192Y574241D01*
X706882Y576509D01*
X705029Y578362D01*
X702760Y579672D01*
X700230Y580350D01*
D02*
G37*
G36*
X674830D02*
X672210D01*
X669679Y579672D01*
X667411Y578362D01*
X665558Y576509D01*
X664248Y574241D01*
X663570Y571710D01*
Y569090D01*
X664248Y566559D01*
X665558Y564291D01*
X667411Y562438D01*
X669679Y561128D01*
X672210Y560450D01*
X674830D01*
X677361Y561128D01*
X679629Y562438D01*
X681482Y564291D01*
X682792Y566559D01*
X683470Y569090D01*
Y571710D01*
X682792Y574241D01*
X681482Y576509D01*
X679629Y578362D01*
X677361Y579672D01*
X674830Y580350D01*
D02*
G37*
G36*
X649430D02*
X646810D01*
X644279Y579672D01*
X642011Y578362D01*
X640158Y576509D01*
X638848Y574241D01*
X638170Y571710D01*
Y569090D01*
X638848Y566559D01*
X640158Y564291D01*
X642011Y562438D01*
X644279Y561128D01*
X646810Y560450D01*
X649430D01*
X651961Y561128D01*
X654229Y562438D01*
X656082Y564291D01*
X657392Y566559D01*
X658070Y569090D01*
Y571710D01*
X657392Y574241D01*
X656082Y576509D01*
X654229Y578362D01*
X651961Y579672D01*
X649430Y580350D01*
D02*
G37*
G36*
X598630D02*
X596010D01*
X593479Y579672D01*
X591211Y578362D01*
X589358Y576509D01*
X588048Y574241D01*
X587370Y571710D01*
Y569090D01*
X588048Y566559D01*
X589358Y564291D01*
X591211Y562438D01*
X593479Y561128D01*
X596010Y560450D01*
X598630D01*
X601161Y561128D01*
X603429Y562438D01*
X605282Y564291D01*
X606592Y566559D01*
X607270Y569090D01*
Y571710D01*
X606592Y574241D01*
X605282Y576509D01*
X603429Y578362D01*
X601161Y579672D01*
X598630Y580350D01*
D02*
G37*
G36*
X547830D02*
X545210D01*
X542679Y579672D01*
X540411Y578362D01*
X538558Y576509D01*
X537248Y574241D01*
X536570Y571710D01*
Y569090D01*
X537248Y566559D01*
X538558Y564291D01*
X540411Y562438D01*
X542679Y561128D01*
X545210Y560450D01*
X547830D01*
X550360Y561128D01*
X552629Y562438D01*
X554482Y564291D01*
X555792Y566559D01*
X556470Y569090D01*
Y571710D01*
X555792Y574241D01*
X554482Y576509D01*
X552629Y578362D01*
X550360Y579672D01*
X547830Y580350D01*
D02*
G37*
G36*
X522430D02*
X519810D01*
X517279Y579672D01*
X515011Y578362D01*
X513158Y576509D01*
X511848Y574241D01*
X511170Y571710D01*
Y569090D01*
X511848Y566559D01*
X513158Y564291D01*
X515011Y562438D01*
X517279Y561128D01*
X519810Y560450D01*
X522430D01*
X524961Y561128D01*
X527229Y562438D01*
X529082Y564291D01*
X530392Y566559D01*
X531070Y569090D01*
Y571710D01*
X530392Y574241D01*
X529082Y576509D01*
X527229Y578362D01*
X524961Y579672D01*
X522430Y580350D01*
D02*
G37*
G36*
X497030D02*
X494410D01*
X491879Y579672D01*
X489611Y578362D01*
X487758Y576509D01*
X486448Y574241D01*
X485770Y571710D01*
Y569090D01*
X486448Y566559D01*
X487758Y564291D01*
X489611Y562438D01*
X491879Y561128D01*
X494410Y560450D01*
X497030D01*
X499561Y561128D01*
X501829Y562438D01*
X503682Y564291D01*
X504992Y566559D01*
X505670Y569090D01*
Y571710D01*
X504992Y574241D01*
X503682Y576509D01*
X501829Y578362D01*
X499561Y579672D01*
X497030Y580350D01*
D02*
G37*
G36*
X471630D02*
X469010D01*
X466479Y579672D01*
X464211Y578362D01*
X462358Y576509D01*
X461048Y574241D01*
X460370Y571710D01*
Y569090D01*
X461048Y566559D01*
X462358Y564291D01*
X464211Y562438D01*
X466479Y561128D01*
X469010Y560450D01*
X471630D01*
X474160Y561128D01*
X476429Y562438D01*
X478282Y564291D01*
X479592Y566559D01*
X480270Y569090D01*
Y571710D01*
X479592Y574241D01*
X478282Y576509D01*
X476429Y578362D01*
X474160Y579672D01*
X471630Y580350D01*
D02*
G37*
G36*
X420830D02*
X418210D01*
X415679Y579672D01*
X413411Y578362D01*
X411558Y576509D01*
X410248Y574241D01*
X409570Y571710D01*
Y569090D01*
X410248Y566559D01*
X411558Y564291D01*
X413411Y562438D01*
X415679Y561128D01*
X418210Y560450D01*
X420830D01*
X423360Y561128D01*
X425629Y562438D01*
X427482Y564291D01*
X428792Y566559D01*
X429470Y569090D01*
Y571710D01*
X428792Y574241D01*
X427482Y576509D01*
X425629Y578362D01*
X423360Y579672D01*
X420830Y580350D01*
D02*
G37*
G36*
X395430D02*
X392810D01*
X390279Y579672D01*
X388011Y578362D01*
X386158Y576509D01*
X384848Y574241D01*
X384170Y571710D01*
Y569090D01*
X384848Y566559D01*
X386158Y564291D01*
X388011Y562438D01*
X390279Y561128D01*
X392810Y560450D01*
X395430D01*
X397961Y561128D01*
X400229Y562438D01*
X402082Y564291D01*
X403392Y566559D01*
X404070Y569090D01*
Y571710D01*
X403392Y574241D01*
X402082Y576509D01*
X400229Y578362D01*
X397961Y579672D01*
X395430Y580350D01*
D02*
G37*
G36*
X344630D02*
X342010D01*
X339479Y579672D01*
X337211Y578362D01*
X335358Y576509D01*
X334048Y574241D01*
X333370Y571710D01*
Y569090D01*
X334048Y566559D01*
X335358Y564291D01*
X337211Y562438D01*
X339479Y561128D01*
X342010Y560450D01*
X344630D01*
X347160Y561128D01*
X349429Y562438D01*
X351282Y564291D01*
X352592Y566559D01*
X353270Y569090D01*
Y571710D01*
X352592Y574241D01*
X351282Y576509D01*
X349429Y578362D01*
X347160Y579672D01*
X344630Y580350D01*
D02*
G37*
G36*
X243030D02*
X240410D01*
X237879Y579672D01*
X235611Y578362D01*
X233758Y576509D01*
X232448Y574241D01*
X231770Y571710D01*
Y569090D01*
X232448Y566559D01*
X233758Y564291D01*
X235611Y562438D01*
X237879Y561128D01*
X240410Y560450D01*
X243030D01*
X245560Y561128D01*
X247829Y562438D01*
X249682Y564291D01*
X250992Y566559D01*
X251670Y569090D01*
Y571710D01*
X250992Y574241D01*
X249682Y576509D01*
X247829Y578362D01*
X245560Y579672D01*
X243030Y580350D01*
D02*
G37*
G36*
X217630D02*
X215010D01*
X212479Y579672D01*
X210211Y578362D01*
X208358Y576509D01*
X207048Y574241D01*
X206370Y571710D01*
Y569090D01*
X207048Y566559D01*
X208358Y564291D01*
X210211Y562438D01*
X212479Y561128D01*
X215010Y560450D01*
X217630D01*
X220161Y561128D01*
X222429Y562438D01*
X224282Y564291D01*
X225592Y566559D01*
X226270Y569090D01*
Y571710D01*
X225592Y574241D01*
X224282Y576509D01*
X222429Y578362D01*
X220161Y579672D01*
X217630Y580350D01*
D02*
G37*
G36*
X632910Y569130D02*
X623990D01*
Y560210D01*
X624062D01*
X626653Y560904D01*
X628977Y562246D01*
X630874Y564143D01*
X632216Y566467D01*
X632910Y569058D01*
Y569130D01*
D02*
G37*
G36*
X621450D02*
X612530D01*
Y569058D01*
X613224Y566467D01*
X614566Y564143D01*
X616463Y562246D01*
X618787Y560904D01*
X621378Y560210D01*
X621450D01*
Y569130D01*
D02*
G37*
G36*
X582110D02*
X573190D01*
Y560210D01*
X573261D01*
X575853Y560904D01*
X578177Y562246D01*
X580074Y564143D01*
X581416Y566467D01*
X582110Y569058D01*
Y569130D01*
D02*
G37*
G36*
X570650D02*
X561730D01*
Y569058D01*
X562424Y566467D01*
X563766Y564143D01*
X565663Y562246D01*
X567987Y560904D01*
X570578Y560210D01*
X570650D01*
Y569130D01*
D02*
G37*
G36*
X455110D02*
X446190D01*
Y560210D01*
X446261D01*
X448853Y560904D01*
X451177Y562246D01*
X453074Y564143D01*
X454416Y566467D01*
X455110Y569058D01*
Y569130D01*
D02*
G37*
G36*
X443650D02*
X434730D01*
Y569058D01*
X435424Y566467D01*
X436766Y564143D01*
X438663Y562246D01*
X440987Y560904D01*
X443578Y560210D01*
X443650D01*
Y569130D01*
D02*
G37*
G36*
X378910D02*
X369990D01*
Y560210D01*
X370061D01*
X372653Y560904D01*
X374977Y562246D01*
X376874Y564143D01*
X378216Y566467D01*
X378910Y569058D01*
Y569130D01*
D02*
G37*
G36*
X367450D02*
X358530D01*
Y569058D01*
X359224Y566467D01*
X360566Y564143D01*
X362463Y562246D01*
X364787Y560904D01*
X367378Y560210D01*
X367450D01*
Y569130D01*
D02*
G37*
G36*
X277310D02*
X268390D01*
Y560210D01*
X268461D01*
X271053Y560904D01*
X273377Y562246D01*
X275274Y564143D01*
X276616Y566467D01*
X277310Y569058D01*
Y569130D01*
D02*
G37*
G36*
X265850D02*
X256930D01*
Y569058D01*
X257624Y566467D01*
X258966Y564143D01*
X260863Y562246D01*
X263187Y560904D01*
X265778Y560210D01*
X265850D01*
Y569130D01*
D02*
G37*
G36*
X700262Y555190D02*
X700190D01*
Y546270D01*
X709110D01*
Y546342D01*
X708416Y548933D01*
X707074Y551257D01*
X705177Y553154D01*
X702853Y554496D01*
X700262Y555190D01*
D02*
G37*
G36*
X697650D02*
X697578D01*
X694987Y554496D01*
X692663Y553154D01*
X690766Y551257D01*
X689424Y548933D01*
X688730Y546342D01*
Y546270D01*
X697650D01*
Y555190D01*
D02*
G37*
G36*
X522462D02*
X522390D01*
Y546270D01*
X531310D01*
Y546342D01*
X530616Y548933D01*
X529274Y551257D01*
X527377Y553154D01*
X525053Y554496D01*
X522462Y555190D01*
D02*
G37*
G36*
X519850D02*
X519778D01*
X517187Y554496D01*
X514863Y553154D01*
X512966Y551257D01*
X511624Y548933D01*
X510930Y546342D01*
Y546270D01*
X519850D01*
Y555190D01*
D02*
G37*
G36*
X319261D02*
X319190D01*
Y546270D01*
X328110D01*
Y546342D01*
X327416Y548933D01*
X326074Y551257D01*
X324177Y553154D01*
X321853Y554496D01*
X319261Y555190D01*
D02*
G37*
G36*
X316650D02*
X316578D01*
X313987Y554496D01*
X311663Y553154D01*
X309766Y551257D01*
X308424Y548933D01*
X307730Y546342D01*
Y546270D01*
X316650D01*
Y555190D01*
D02*
G37*
G36*
X749201Y573750D02*
X746039D01*
X742938Y573133D01*
X740017Y571923D01*
X737389Y570167D01*
X735153Y567931D01*
X733397Y565303D01*
X732187Y562382D01*
X731570Y559281D01*
Y556119D01*
X732187Y553018D01*
X733397Y550098D01*
X735153Y547469D01*
X737389Y545233D01*
X740017Y543477D01*
X742938Y542267D01*
X746039Y541650D01*
X749201D01*
X752302Y542267D01*
X755222Y543477D01*
X757851Y545233D01*
X760087Y547469D01*
X761843Y550098D01*
X763053Y553018D01*
X763670Y556119D01*
Y559281D01*
X763053Y562382D01*
X761843Y565303D01*
X760087Y567931D01*
X757851Y570167D01*
X755222Y571923D01*
X752302Y573133D01*
X749201Y573750D01*
D02*
G37*
G36*
X169201D02*
X166039D01*
X162938Y573133D01*
X160018Y571923D01*
X157389Y570167D01*
X155153Y567931D01*
X153397Y565303D01*
X152187Y562382D01*
X151570Y559281D01*
Y556119D01*
X152187Y553018D01*
X153397Y550098D01*
X155153Y547469D01*
X157389Y545233D01*
X160018Y543477D01*
X162938Y542267D01*
X166039Y541650D01*
X169201D01*
X172302Y542267D01*
X175222Y543477D01*
X177851Y545233D01*
X180087Y547469D01*
X181843Y550098D01*
X183053Y553018D01*
X183670Y556119D01*
Y559281D01*
X183053Y562382D01*
X181843Y565303D01*
X180087Y567931D01*
X177851Y570167D01*
X175222Y571923D01*
X172302Y573133D01*
X169201Y573750D01*
D02*
G37*
G36*
X674830Y554950D02*
X672210D01*
X669679Y554272D01*
X667411Y552962D01*
X665558Y551109D01*
X664248Y548841D01*
X663570Y546310D01*
Y543690D01*
X664248Y541159D01*
X665558Y538891D01*
X667411Y537038D01*
X669679Y535728D01*
X672210Y535050D01*
X674830D01*
X677361Y535728D01*
X679629Y537038D01*
X681482Y538891D01*
X682792Y541159D01*
X683470Y543690D01*
Y546310D01*
X682792Y548841D01*
X681482Y551109D01*
X679629Y552962D01*
X677361Y554272D01*
X674830Y554950D01*
D02*
G37*
G36*
X649430D02*
X646810D01*
X644279Y554272D01*
X642011Y552962D01*
X640158Y551109D01*
X638848Y548841D01*
X638170Y546310D01*
Y543690D01*
X638848Y541159D01*
X640158Y538891D01*
X642011Y537038D01*
X644279Y535728D01*
X646810Y535050D01*
X649430D01*
X651961Y535728D01*
X654229Y537038D01*
X656082Y538891D01*
X657392Y541159D01*
X658070Y543690D01*
Y546310D01*
X657392Y548841D01*
X656082Y551109D01*
X654229Y552962D01*
X651961Y554272D01*
X649430Y554950D01*
D02*
G37*
G36*
X624030D02*
X621410D01*
X618879Y554272D01*
X616611Y552962D01*
X614758Y551109D01*
X613448Y548841D01*
X612770Y546310D01*
Y543690D01*
X613448Y541159D01*
X614758Y538891D01*
X616611Y537038D01*
X618879Y535728D01*
X621410Y535050D01*
X624030D01*
X626561Y535728D01*
X628829Y537038D01*
X630682Y538891D01*
X631992Y541159D01*
X632670Y543690D01*
Y546310D01*
X631992Y548841D01*
X630682Y551109D01*
X628829Y552962D01*
X626561Y554272D01*
X624030Y554950D01*
D02*
G37*
G36*
X598630D02*
X596010D01*
X593479Y554272D01*
X591211Y552962D01*
X589358Y551109D01*
X588048Y548841D01*
X587370Y546310D01*
Y543690D01*
X588048Y541159D01*
X589358Y538891D01*
X591211Y537038D01*
X593479Y535728D01*
X596010Y535050D01*
X598630D01*
X601161Y535728D01*
X603429Y537038D01*
X605282Y538891D01*
X606592Y541159D01*
X607270Y543690D01*
Y546310D01*
X606592Y548841D01*
X605282Y551109D01*
X603429Y552962D01*
X601161Y554272D01*
X598630Y554950D01*
D02*
G37*
G36*
X573230D02*
X570610D01*
X568079Y554272D01*
X565811Y552962D01*
X563958Y551109D01*
X562648Y548841D01*
X561970Y546310D01*
Y543690D01*
X562648Y541159D01*
X563958Y538891D01*
X565811Y537038D01*
X568079Y535728D01*
X570610Y535050D01*
X573230D01*
X575760Y535728D01*
X578029Y537038D01*
X579882Y538891D01*
X581192Y541159D01*
X581870Y543690D01*
Y546310D01*
X581192Y548841D01*
X579882Y551109D01*
X578029Y552962D01*
X575760Y554272D01*
X573230Y554950D01*
D02*
G37*
G36*
X547830D02*
X545210D01*
X542679Y554272D01*
X540411Y552962D01*
X538558Y551109D01*
X537248Y548841D01*
X536570Y546310D01*
Y543690D01*
X537248Y541159D01*
X538558Y538891D01*
X540411Y537038D01*
X542679Y535728D01*
X545210Y535050D01*
X547830D01*
X550360Y535728D01*
X552629Y537038D01*
X554482Y538891D01*
X555792Y541159D01*
X556470Y543690D01*
Y546310D01*
X555792Y548841D01*
X554482Y551109D01*
X552629Y552962D01*
X550360Y554272D01*
X547830Y554950D01*
D02*
G37*
G36*
X497030D02*
X494410D01*
X491879Y554272D01*
X489611Y552962D01*
X487758Y551109D01*
X486448Y548841D01*
X485770Y546310D01*
Y543690D01*
X486448Y541159D01*
X487758Y538891D01*
X489611Y537038D01*
X491879Y535728D01*
X494410Y535050D01*
X497030D01*
X499561Y535728D01*
X501829Y537038D01*
X503682Y538891D01*
X504992Y541159D01*
X505670Y543690D01*
Y546310D01*
X504992Y548841D01*
X503682Y551109D01*
X501829Y552962D01*
X499561Y554272D01*
X497030Y554950D01*
D02*
G37*
G36*
X471630D02*
X469010D01*
X466479Y554272D01*
X464211Y552962D01*
X462358Y551109D01*
X461048Y548841D01*
X460370Y546310D01*
Y543690D01*
X461048Y541159D01*
X462358Y538891D01*
X464211Y537038D01*
X466479Y535728D01*
X469010Y535050D01*
X471630D01*
X474160Y535728D01*
X476429Y537038D01*
X478282Y538891D01*
X479592Y541159D01*
X480270Y543690D01*
Y546310D01*
X479592Y548841D01*
X478282Y551109D01*
X476429Y552962D01*
X474160Y554272D01*
X471630Y554950D01*
D02*
G37*
G36*
X446230D02*
X443610D01*
X441079Y554272D01*
X438811Y552962D01*
X436958Y551109D01*
X435648Y548841D01*
X434970Y546310D01*
Y543690D01*
X435648Y541159D01*
X436958Y538891D01*
X438811Y537038D01*
X441079Y535728D01*
X443610Y535050D01*
X446230D01*
X448760Y535728D01*
X451029Y537038D01*
X452882Y538891D01*
X454192Y541159D01*
X454870Y543690D01*
Y546310D01*
X454192Y548841D01*
X452882Y551109D01*
X451029Y552962D01*
X448760Y554272D01*
X446230Y554950D01*
D02*
G37*
G36*
X420830D02*
X418210D01*
X415679Y554272D01*
X413411Y552962D01*
X411558Y551109D01*
X410248Y548841D01*
X409570Y546310D01*
Y543690D01*
X410248Y541159D01*
X411558Y538891D01*
X413411Y537038D01*
X415679Y535728D01*
X418210Y535050D01*
X420830D01*
X423360Y535728D01*
X425629Y537038D01*
X427482Y538891D01*
X428792Y541159D01*
X429470Y543690D01*
Y546310D01*
X428792Y548841D01*
X427482Y551109D01*
X425629Y552962D01*
X423360Y554272D01*
X420830Y554950D01*
D02*
G37*
G36*
X395430D02*
X392810D01*
X390279Y554272D01*
X388011Y552962D01*
X386158Y551109D01*
X384848Y548841D01*
X384170Y546310D01*
Y543690D01*
X384848Y541159D01*
X386158Y538891D01*
X388011Y537038D01*
X390279Y535728D01*
X392810Y535050D01*
X395430D01*
X397961Y535728D01*
X400229Y537038D01*
X402082Y538891D01*
X403392Y541159D01*
X404070Y543690D01*
Y546310D01*
X403392Y548841D01*
X402082Y551109D01*
X400229Y552962D01*
X397961Y554272D01*
X395430Y554950D01*
D02*
G37*
G36*
X370030D02*
X367410D01*
X364879Y554272D01*
X362611Y552962D01*
X360758Y551109D01*
X359448Y548841D01*
X358770Y546310D01*
Y543690D01*
X359448Y541159D01*
X360758Y538891D01*
X362611Y537038D01*
X364879Y535728D01*
X367410Y535050D01*
X370030D01*
X372561Y535728D01*
X374829Y537038D01*
X376682Y538891D01*
X377992Y541159D01*
X378670Y543690D01*
Y546310D01*
X377992Y548841D01*
X376682Y551109D01*
X374829Y552962D01*
X372561Y554272D01*
X370030Y554950D01*
D02*
G37*
G36*
X344630D02*
X342010D01*
X339479Y554272D01*
X337211Y552962D01*
X335358Y551109D01*
X334048Y548841D01*
X333370Y546310D01*
Y543690D01*
X334048Y541159D01*
X335358Y538891D01*
X337211Y537038D01*
X339479Y535728D01*
X342010Y535050D01*
X344630D01*
X347160Y535728D01*
X349429Y537038D01*
X351282Y538891D01*
X352592Y541159D01*
X353270Y543690D01*
Y546310D01*
X352592Y548841D01*
X351282Y551109D01*
X349429Y552962D01*
X347160Y554272D01*
X344630Y554950D01*
D02*
G37*
G36*
X293830D02*
X291210D01*
X288679Y554272D01*
X286411Y552962D01*
X284558Y551109D01*
X283248Y548841D01*
X282570Y546310D01*
Y543690D01*
X283248Y541159D01*
X284558Y538891D01*
X286411Y537038D01*
X288679Y535728D01*
X291210Y535050D01*
X293830D01*
X296360Y535728D01*
X298629Y537038D01*
X300482Y538891D01*
X301792Y541159D01*
X302470Y543690D01*
Y546310D01*
X301792Y548841D01*
X300482Y551109D01*
X298629Y552962D01*
X296360Y554272D01*
X293830Y554950D01*
D02*
G37*
G36*
X709110Y543730D02*
X700190D01*
Y534810D01*
X700262D01*
X702853Y535504D01*
X705177Y536846D01*
X707074Y538743D01*
X708416Y541067D01*
X709110Y543658D01*
Y543730D01*
D02*
G37*
G36*
X697650D02*
X688730D01*
Y543658D01*
X689424Y541067D01*
X690766Y538743D01*
X692663Y536846D01*
X694987Y535504D01*
X697578Y534810D01*
X697650D01*
Y543730D01*
D02*
G37*
G36*
X531310D02*
X522390D01*
Y534810D01*
X522462D01*
X525053Y535504D01*
X527377Y536846D01*
X529274Y538743D01*
X530616Y541067D01*
X531310Y543658D01*
Y543730D01*
D02*
G37*
G36*
X519850D02*
X510930D01*
Y543658D01*
X511624Y541067D01*
X512966Y538743D01*
X514863Y536846D01*
X517187Y535504D01*
X519778Y534810D01*
X519850D01*
Y543730D01*
D02*
G37*
G36*
X328110D02*
X319190D01*
Y534810D01*
X319261D01*
X321853Y535504D01*
X324177Y536846D01*
X326074Y538743D01*
X327416Y541067D01*
X328110Y543658D01*
Y543730D01*
D02*
G37*
G36*
X316650D02*
X307730D01*
Y543658D01*
X308424Y541067D01*
X309766Y538743D01*
X311663Y536846D01*
X313987Y535504D01*
X316578Y534810D01*
X316650D01*
Y543730D01*
D02*
G37*
G36*
X43232Y537090D02*
X43180D01*
Y528320D01*
X51950D01*
Y528372D01*
X51266Y530925D01*
X49944Y533215D01*
X48075Y535084D01*
X45785Y536406D01*
X43232Y537090D01*
D02*
G37*
G36*
X40640D02*
X40588D01*
X38035Y536406D01*
X35745Y535084D01*
X33876Y533215D01*
X32554Y530925D01*
X31870Y528372D01*
Y528320D01*
X40640D01*
Y537090D01*
D02*
G37*
G36*
X51950Y525780D02*
X43180D01*
Y517010D01*
X43232D01*
X45785Y517694D01*
X48075Y519016D01*
X49944Y520885D01*
X51266Y523175D01*
X51950Y525728D01*
Y525780D01*
D02*
G37*
G36*
X40640D02*
X31870D01*
Y525728D01*
X32554Y523175D01*
X33876Y520885D01*
X35745Y519016D01*
X38035Y517694D01*
X40588Y517010D01*
X40640D01*
Y525780D01*
D02*
G37*
G36*
X654930Y485890D02*
X645160D01*
Y472120D01*
X654930D01*
Y485890D01*
D02*
G37*
G36*
X642620D02*
X632850D01*
Y472120D01*
X642620D01*
Y485890D01*
D02*
G37*
G36*
X286700Y467200D02*
X265430D01*
Y455930D01*
X286700D01*
Y467200D01*
D02*
G37*
G36*
X262890D02*
X241620D01*
Y455930D01*
X262890D01*
Y467200D01*
D02*
G37*
G36*
X654930Y469580D02*
X645160D01*
Y455810D01*
X654930D01*
Y469580D01*
D02*
G37*
G36*
X642620D02*
X632850D01*
Y455810D01*
X642620D01*
Y469580D01*
D02*
G37*
G36*
X286700Y453390D02*
X265430D01*
Y442120D01*
X286700D01*
Y453390D01*
D02*
G37*
G36*
X262890D02*
X241620D01*
Y442120D01*
X262890D01*
Y453390D01*
D02*
G37*
G36*
X111760Y445991D02*
X97790D01*
Y424401D01*
X111760D01*
Y445991D01*
D02*
G37*
G36*
X95250D02*
X81280D01*
Y424401D01*
X95250D01*
Y445991D01*
D02*
G37*
G36*
X738250Y444700D02*
X728980D01*
Y423430D01*
X738250D01*
Y444700D01*
D02*
G37*
G36*
X726440D02*
X717170D01*
Y423430D01*
X726440D01*
Y444700D01*
D02*
G37*
G36*
X469680Y473410D02*
X422910D01*
Y421640D01*
X469680D01*
Y473410D01*
D02*
G37*
G36*
X420370D02*
X373600D01*
Y421640D01*
X420370D01*
Y473410D01*
D02*
G37*
G36*
X664720Y407820D02*
X657450D01*
Y400050D01*
X664720D01*
Y407820D01*
D02*
G37*
G36*
X654910D02*
X647640D01*
Y400050D01*
X654910D01*
Y407820D01*
D02*
G37*
G36*
X738250Y420890D02*
X728980D01*
Y399620D01*
X738250D01*
Y420890D01*
D02*
G37*
G36*
X726440D02*
X717170D01*
Y399620D01*
X726440D01*
Y420890D01*
D02*
G37*
G36*
X157480Y411701D02*
X135890D01*
Y397731D01*
X157480D01*
Y411701D01*
D02*
G37*
G36*
X133350D02*
X111760D01*
Y397731D01*
X133350D01*
Y411701D01*
D02*
G37*
G36*
X664720Y397510D02*
X657450D01*
Y389740D01*
X664720D01*
Y397510D01*
D02*
G37*
G36*
X654910D02*
X647640D01*
Y389740D01*
X654910D01*
Y397510D01*
D02*
G37*
G36*
X157480Y395191D02*
X135890D01*
Y381221D01*
X157480D01*
Y395191D01*
D02*
G37*
G36*
X133350D02*
X111760D01*
Y381221D01*
X133350D01*
Y395191D01*
D02*
G37*
G36*
X343430Y385100D02*
X325910D01*
Y378330D01*
X343430D01*
Y385100D01*
D02*
G37*
G36*
X323370D02*
X305850D01*
Y378330D01*
X323370D01*
Y385100D01*
D02*
G37*
G36*
X674122Y381439D02*
X668102D01*
Y375724D01*
X674122D01*
Y381439D01*
D02*
G37*
G36*
X653802D02*
X647782D01*
Y375724D01*
X653802D01*
Y381439D01*
D02*
G37*
G36*
X665562D02*
X659542D01*
Y375724D01*
X665562D01*
Y381439D01*
D02*
G37*
G36*
X645242D02*
X639222D01*
Y375724D01*
X645242D01*
Y381439D01*
D02*
G37*
G36*
X103900Y364160D02*
Y358140D01*
X109615D01*
Y364160D01*
X103900D01*
D02*
G37*
G36*
X109615Y355600D02*
X103900D01*
Y349580D01*
X109615D01*
Y355600D01*
D02*
G37*
G36*
X48210Y365320D02*
X35610D01*
Y348720D01*
X48210D01*
Y352486D01*
X80885D01*
Y349820D01*
X83306D01*
Y344870D01*
X80450D01*
Y330770D01*
X94411Y330770D01*
X95374Y328904D01*
X94690Y328220D01*
X93788Y326870D01*
X90021D01*
Y324424D01*
X74231D01*
X74122Y324533D01*
X72174Y325340D01*
X70066D01*
X68118Y324533D01*
X66627Y323042D01*
X65820Y321094D01*
Y318986D01*
X66627Y317038D01*
X68118Y315547D01*
X70066Y314740D01*
X72174D01*
X74122Y315547D01*
X74231Y315656D01*
X90021D01*
Y310270D01*
X103121D01*
Y324251D01*
X105970Y327100D01*
X106920Y328522D01*
X107254Y330200D01*
Y330770D01*
X110050D01*
Y344870D01*
X97050D01*
X95450Y344870D01*
X93489Y344870D01*
X92074Y346284D01*
Y348406D01*
X92978Y349310D01*
X94074Y349778D01*
X95645Y349580D01*
X96276Y349580D01*
X101360D01*
Y356870D01*
Y364160D01*
X96276D01*
X95645Y364160D01*
X93744Y363920D01*
X80885D01*
Y361254D01*
X48210D01*
Y365320D01*
D02*
G37*
G36*
X325910Y342020D02*
Y337820D01*
X330110D01*
X329337Y339688D01*
X327778Y341247D01*
X325910Y342020D01*
D02*
G37*
G36*
X323370D02*
X321502Y341247D01*
X319943Y339688D01*
X319170Y337820D01*
X323370D01*
Y342020D01*
D02*
G37*
G36*
X330110Y335280D02*
X325910D01*
Y331080D01*
X327778Y331853D01*
X329337Y333412D01*
X330110Y335280D01*
D02*
G37*
G36*
X323370D02*
X319170D01*
X319943Y333412D01*
X321502Y331853D01*
X323370Y331080D01*
Y335280D01*
D02*
G37*
G36*
X167520Y329570D02*
X137920D01*
Y323154D01*
X121221D01*
X119842Y324533D01*
X117894Y325340D01*
X115786D01*
X113838Y324533D01*
X112347Y323042D01*
X111540Y321094D01*
Y318986D01*
X112347Y317038D01*
X113838Y315547D01*
X115786Y314740D01*
X116943D01*
X116973Y314720D01*
X118651Y314386D01*
X137920D01*
Y307970D01*
X167520D01*
Y329570D01*
D02*
G37*
G36*
X726758Y319405D02*
X726440D01*
Y308610D01*
X737235D01*
Y308928D01*
X736413Y311997D01*
X734824Y314748D01*
X732578Y316994D01*
X729827Y318583D01*
X726758Y319405D01*
D02*
G37*
G36*
X723900D02*
X723582D01*
X720513Y318583D01*
X717762Y316994D01*
X715516Y314748D01*
X713927Y311997D01*
X713105Y308928D01*
Y308610D01*
X723900D01*
Y319405D01*
D02*
G37*
G36*
X663258D02*
X662940D01*
Y308610D01*
X673735D01*
Y308928D01*
X672913Y311997D01*
X671324Y314748D01*
X669078Y316994D01*
X666327Y318583D01*
X663258Y319405D01*
D02*
G37*
G36*
X660400D02*
X660082D01*
X657013Y318583D01*
X654262Y316994D01*
X652016Y314748D01*
X650427Y311997D01*
X649605Y308928D01*
Y308610D01*
X660400D01*
Y319405D01*
D02*
G37*
G36*
X630238D02*
X629920D01*
Y308610D01*
X640715D01*
Y308928D01*
X639893Y311997D01*
X638304Y314748D01*
X636058Y316994D01*
X633307Y318583D01*
X630238Y319405D01*
D02*
G37*
G36*
X627380D02*
X627062D01*
X623993Y318583D01*
X621242Y316994D01*
X618996Y314748D01*
X617407Y311997D01*
X616585Y308928D01*
Y308610D01*
X627380D01*
Y319405D01*
D02*
G37*
G36*
X566738D02*
X566420D01*
Y308610D01*
X577215D01*
Y308928D01*
X576393Y311997D01*
X574804Y314748D01*
X572558Y316994D01*
X569807Y318583D01*
X566738Y319405D01*
D02*
G37*
G36*
X563880D02*
X563562D01*
X560493Y318583D01*
X557742Y316994D01*
X555496Y314748D01*
X553907Y311997D01*
X553085Y308928D01*
Y308610D01*
X563880D01*
Y319405D01*
D02*
G37*
G36*
X130594Y310100D02*
X128486D01*
X126538Y309293D01*
X125047Y307802D01*
X124240Y305854D01*
Y305700D01*
X116294Y297754D01*
X112925D01*
Y301870D01*
X99825D01*
Y285270D01*
X112925D01*
Y288986D01*
X118110D01*
X119788Y289319D01*
X121210Y290270D01*
X130440Y299500D01*
X130594D01*
X132542Y300307D01*
X134033Y301798D01*
X134840Y303746D01*
Y305854D01*
X134033Y307802D01*
X132542Y309293D01*
X130594Y310100D01*
D02*
G37*
G36*
X737235Y306070D02*
X726440D01*
Y295275D01*
X726758D01*
X729827Y296097D01*
X732578Y297686D01*
X734824Y299932D01*
X736413Y302683D01*
X737235Y305752D01*
Y306070D01*
D02*
G37*
G36*
X723900D02*
X713105D01*
Y305752D01*
X713927Y302683D01*
X715516Y299932D01*
X717762Y297686D01*
X720513Y296097D01*
X723582Y295275D01*
X723900D01*
Y306070D01*
D02*
G37*
G36*
X673735D02*
X662940D01*
Y295275D01*
X663258D01*
X666327Y296097D01*
X669078Y297686D01*
X671324Y299932D01*
X672913Y302683D01*
X673735Y305752D01*
Y306070D01*
D02*
G37*
G36*
X660400D02*
X649605D01*
Y305752D01*
X650427Y302683D01*
X652016Y299932D01*
X654262Y297686D01*
X657013Y296097D01*
X660082Y295275D01*
X660400D01*
Y306070D01*
D02*
G37*
G36*
X640715D02*
X629920D01*
Y295275D01*
X630238D01*
X633307Y296097D01*
X636058Y297686D01*
X638304Y299932D01*
X639893Y302683D01*
X640715Y305752D01*
Y306070D01*
D02*
G37*
G36*
X627380D02*
X616585D01*
Y305752D01*
X617407Y302683D01*
X618996Y299932D01*
X621242Y297686D01*
X623993Y296097D01*
X627062Y295275D01*
X627380D01*
Y306070D01*
D02*
G37*
G36*
X577215D02*
X566420D01*
Y295275D01*
X566738D01*
X569807Y296097D01*
X572558Y297686D01*
X574804Y299932D01*
X576393Y302683D01*
X577215Y305752D01*
Y306070D01*
D02*
G37*
G36*
X563880D02*
X553085D01*
Y305752D01*
X553907Y302683D01*
X555496Y299932D01*
X557742Y297686D01*
X560493Y296097D01*
X563562Y295275D01*
X563880D01*
Y306070D01*
D02*
G37*
G36*
X184880Y293730D02*
X181610D01*
Y290060D01*
X184880D01*
Y293730D01*
D02*
G37*
G36*
X158210D02*
X154940D01*
Y290060D01*
X158210D01*
Y293730D01*
D02*
G37*
G36*
X179070D02*
X175800D01*
Y290060D01*
X179070D01*
Y293730D01*
D02*
G37*
G36*
X152400D02*
X149130D01*
Y290060D01*
X152400D01*
Y293730D01*
D02*
G37*
G36*
X48450Y295560D02*
X43180D01*
Y288290D01*
X48450D01*
Y295560D01*
D02*
G37*
G36*
X40640D02*
X35370D01*
Y288290D01*
X40640D01*
Y295560D01*
D02*
G37*
G36*
X184880Y287520D02*
X181610D01*
Y283850D01*
X184880D01*
Y287520D01*
D02*
G37*
G36*
X179070D02*
X175800D01*
Y283850D01*
X179070D01*
Y287520D01*
D02*
G37*
G36*
X158210D02*
X154940D01*
Y283850D01*
X158210D01*
Y287520D01*
D02*
G37*
G36*
X152400D02*
X149130D01*
Y283850D01*
X152400D01*
Y287520D01*
D02*
G37*
G36*
X563664Y289780D02*
X561556D01*
X559608Y288973D01*
X559499Y288864D01*
X545151D01*
X543473Y288531D01*
X542051Y287580D01*
X539708Y285237D01*
X538758Y283815D01*
X538424Y282137D01*
Y272351D01*
X538315Y272242D01*
X537508Y270294D01*
Y268186D01*
X538315Y266238D01*
X539806Y264747D01*
X541754Y263940D01*
X543862D01*
X545810Y264747D01*
X547301Y266238D01*
X548108Y268186D01*
Y270294D01*
X547301Y272242D01*
X547192Y272351D01*
Y280096D01*
X559499D01*
X559608Y279987D01*
X561556Y279180D01*
X563664D01*
X565612Y279987D01*
X567103Y281478D01*
X567910Y283426D01*
Y285534D01*
X567103Y287482D01*
X565612Y288973D01*
X563664Y289780D01*
D02*
G37*
G36*
X48450Y285750D02*
X43180D01*
Y278480D01*
X48450D01*
Y285750D01*
D02*
G37*
G36*
X40640D02*
X35370D01*
Y278480D01*
X40640D01*
Y285750D01*
D02*
G37*
G36*
X93672Y301924D02*
X80572D01*
Y285324D01*
X83052D01*
Y281370D01*
X80450D01*
Y268544D01*
X66611D01*
X66502Y268653D01*
X64554Y269460D01*
X62446D01*
X60498Y268653D01*
X59007Y267162D01*
X58200Y265214D01*
Y263106D01*
X58769Y261731D01*
X57277Y260274D01*
X55574Y260274D01*
X55574Y260274D01*
X55543Y260274D01*
X43688D01*
Y249004D01*
X57458D01*
Y258349D01*
X57458Y258356D01*
X57458Y258356D01*
X57458Y260069D01*
X59152Y261013D01*
X60498Y259667D01*
X62446Y258860D01*
X64554D01*
X66502Y259667D01*
X66611Y259776D01*
X84782D01*
Y248962D01*
X99822D01*
X114862D01*
Y260232D01*
X105431D01*
X104602Y262232D01*
X105970Y263600D01*
X106920Y265022D01*
X107254Y266700D01*
Y267270D01*
X110050D01*
Y281370D01*
X95450D01*
Y281370D01*
X95050D01*
Y281370D01*
X91820D01*
Y285324D01*
X93672D01*
Y301924D01*
D02*
G37*
G36*
X157970Y280290D02*
X149370D01*
Y276014D01*
X149286Y275590D01*
X149370Y275166D01*
Y270890D01*
X157970D01*
Y270890D01*
X159914Y270755D01*
X161070Y269906D01*
X161877Y267958D01*
X163368Y266467D01*
X165316Y265660D01*
X167424D01*
X169372Y266467D01*
X170863Y267958D01*
X171670Y269906D01*
Y272014D01*
X170863Y273962D01*
X169372Y275453D01*
X167424Y276260D01*
X167200D01*
X164770Y278690D01*
X163348Y279641D01*
X161670Y279974D01*
X157970D01*
Y280290D01*
D02*
G37*
G36*
X726727Y268365D02*
X723613D01*
X720606Y267559D01*
X717909Y266002D01*
X715708Y263801D01*
X714151Y261104D01*
X714103Y260924D01*
X672737D01*
X672689Y261104D01*
X671132Y263801D01*
X668931Y266002D01*
X666234Y267559D01*
X663227Y268365D01*
X660113D01*
X657106Y267559D01*
X654409Y266002D01*
X652208Y263801D01*
X650651Y261104D01*
X649845Y258097D01*
Y254983D01*
X650651Y251976D01*
X652208Y249279D01*
X654409Y247078D01*
X657106Y245521D01*
X657286Y245473D01*
Y228600D01*
X657619Y226922D01*
X658570Y225500D01*
X661110Y222960D01*
X662110Y222292D01*
Y219010D01*
X675110D01*
X676710Y219010D01*
X677987Y217539D01*
Y210940D01*
X678476Y208482D01*
X679868Y206398D01*
X679940Y206350D01*
X679988Y206278D01*
X682072Y204886D01*
X684530Y204397D01*
X721633D01*
X723645Y202384D01*
X724438Y201198D01*
X726522Y199806D01*
X728980Y199317D01*
X731438Y199806D01*
X733522Y201198D01*
X734914Y203282D01*
X735403Y205740D01*
Y206134D01*
X734914Y208592D01*
X733522Y210676D01*
X728836Y215362D01*
X726752Y216754D01*
X725925Y216919D01*
X725565Y218770D01*
X725565Y219030D01*
Y224790D01*
X718580D01*
Y227330D01*
X725565D01*
Y232468D01*
X725927Y232710D01*
X728270Y235053D01*
X728819Y235874D01*
X728943Y236061D01*
X730911Y235550D01*
X730920Y235487D01*
X730920Y235243D01*
Y233896D01*
X731727Y231948D01*
X733218Y230457D01*
X735166Y229650D01*
X737274D01*
X739222Y230457D01*
X740713Y231948D01*
X741520Y233896D01*
Y236004D01*
X740984Y237298D01*
Y249328D01*
X740650Y251006D01*
X739700Y252428D01*
X737357Y254771D01*
X736995Y255013D01*
Y258097D01*
X736189Y261104D01*
X734632Y263801D01*
X732431Y266002D01*
X729734Y267559D01*
X726727Y268365D01*
D02*
G37*
G36*
X258090Y271850D02*
X251320D01*
Y259830D01*
X258090D01*
Y271850D01*
D02*
G37*
G36*
X248780D02*
X242010D01*
Y259830D01*
X248780D01*
Y271850D01*
D02*
G37*
G36*
X537298Y261870D02*
X528535D01*
Y256155D01*
X537298D01*
Y261870D01*
D02*
G37*
G36*
X525995D02*
X517232D01*
Y256155D01*
X525995D01*
Y261870D01*
D02*
G37*
G36*
X362298D02*
X353535D01*
Y256155D01*
X362298D01*
Y261870D01*
D02*
G37*
G36*
X350995D02*
X342232D01*
Y256155D01*
X350995D01*
Y261870D01*
D02*
G37*
G36*
X185420Y258750D02*
X179705D01*
Y252730D01*
X185420D01*
Y258750D01*
D02*
G37*
G36*
X146460Y260500D02*
X139190D01*
Y252730D01*
X146460D01*
Y260500D01*
D02*
G37*
G36*
X41148Y260274D02*
X27378D01*
Y249004D01*
X41148D01*
Y260274D01*
D02*
G37*
G36*
X258090Y257290D02*
X251320D01*
Y245270D01*
X258090D01*
Y257290D01*
D02*
G37*
G36*
X248780D02*
X242010D01*
Y245270D01*
X248780D01*
Y257290D01*
D02*
G37*
G36*
X185420Y250190D02*
X179705D01*
Y244170D01*
X185420D01*
Y250190D01*
D02*
G37*
G36*
X146460D02*
X139190D01*
Y242420D01*
X146460D01*
Y250190D01*
D02*
G37*
G36*
X57458Y246464D02*
X43688D01*
Y235194D01*
X57458D01*
Y246464D01*
D02*
G37*
G36*
X41148D02*
X27378D01*
Y235194D01*
X41148D01*
Y246464D01*
D02*
G37*
G36*
X98552Y246422D02*
X84782D01*
Y235152D01*
X98552D01*
Y246422D01*
D02*
G37*
G36*
X243840Y236610D02*
X241972Y235837D01*
X240413Y234278D01*
X239640Y232410D01*
X243840D01*
Y236610D01*
D02*
G37*
G36*
Y229870D02*
X239640D01*
X240413Y228002D01*
X241972Y226443D01*
X243840Y225670D01*
Y229870D01*
D02*
G37*
G36*
X75115Y232992D02*
X72929D01*
X70818Y232426D01*
X68926Y231334D01*
X67380Y229788D01*
X66288Y227896D01*
X65722Y225785D01*
Y223599D01*
X66288Y221488D01*
X67380Y219596D01*
X68926Y218050D01*
X70818Y216958D01*
X72929Y216392D01*
X75115D01*
X77226Y216958D01*
X79118Y218050D01*
X80664Y219596D01*
X81756Y221488D01*
X82322Y223599D01*
Y225785D01*
X81756Y227896D01*
X80664Y229788D01*
X79118Y231334D01*
X77226Y232426D01*
X75115Y232992D01*
D02*
G37*
G36*
X455962Y204482D02*
X449485D01*
Y198005D01*
X455962D01*
Y204482D01*
D02*
G37*
G36*
X114862Y246422D02*
X101092D01*
Y235152D01*
X106086D01*
X107032Y233152D01*
X106894Y232984D01*
X106680D01*
X105002Y232651D01*
X103580Y231700D01*
X99577Y227697D01*
X98626Y226275D01*
X98293Y224597D01*
Y223240D01*
X89320D01*
Y213640D01*
X89447D01*
Y205766D01*
X89574D01*
Y197892D01*
X89701D01*
Y191984D01*
X89588D01*
Y188214D01*
X103378D01*
X117168D01*
Y191984D01*
X116801D01*
Y198562D01*
X121808D01*
X123406Y197900D01*
X125514D01*
X127462Y198707D01*
X128953Y200198D01*
X129760Y202146D01*
Y204254D01*
X128953Y206202D01*
X127462Y207693D01*
X125514Y208500D01*
X123549D01*
X123216Y208884D01*
X122517Y210297D01*
X125360Y213140D01*
X125514D01*
X127462Y213947D01*
X128953Y215438D01*
X129760Y217386D01*
Y219494D01*
X128953Y221442D01*
X127462Y222933D01*
X125514Y223740D01*
X123406D01*
X121458Y222933D01*
X119967Y221442D01*
X119160Y219494D01*
X118420Y219213D01*
X116420Y220454D01*
Y223240D01*
X116420D01*
X115895Y225240D01*
X116253Y225598D01*
X117060Y227546D01*
Y229654D01*
X116253Y231602D01*
X114762Y233093D01*
X114620Y233152D01*
X114862Y235152D01*
X114862D01*
Y246422D01*
D02*
G37*
G36*
X117168Y185674D02*
X104648D01*
Y181904D01*
X117168D01*
Y185674D01*
D02*
G37*
G36*
X102108D02*
X89588D01*
Y181904D01*
X102108D01*
Y185674D01*
D02*
G37*
G36*
X728028Y192405D02*
X727710D01*
Y181610D01*
X738505D01*
Y181928D01*
X737683Y184997D01*
X736094Y187748D01*
X733848Y189994D01*
X731097Y191583D01*
X728028Y192405D01*
D02*
G37*
G36*
X725170D02*
X724852D01*
X721783Y191583D01*
X719032Y189994D01*
X716786Y187748D01*
X715197Y184997D01*
X714375Y181928D01*
Y181610D01*
X725170D01*
Y192405D01*
D02*
G37*
G36*
X664528D02*
X664210D01*
Y181610D01*
X675005D01*
Y181928D01*
X674183Y184997D01*
X672594Y187748D01*
X670348Y189994D01*
X667597Y191583D01*
X664528Y192405D01*
D02*
G37*
G36*
X661670D02*
X661352D01*
X658283Y191583D01*
X655532Y189994D01*
X653286Y187748D01*
X651697Y184997D01*
X650875Y181928D01*
Y181610D01*
X661670D01*
Y192405D01*
D02*
G37*
G36*
X928272Y182760D02*
X928220D01*
Y173990D01*
X936990D01*
Y174042D01*
X936306Y176595D01*
X934984Y178885D01*
X933115Y180754D01*
X930825Y182076D01*
X928272Y182760D01*
D02*
G37*
G36*
X925680D02*
X925628D01*
X923075Y182076D01*
X920785Y180754D01*
X918916Y178885D01*
X917594Y176595D01*
X916910Y174042D01*
Y173990D01*
X925680D01*
Y182760D01*
D02*
G37*
G36*
X75115Y188992D02*
X72929D01*
X70818Y188426D01*
X68926Y187334D01*
X67380Y185788D01*
X66288Y183896D01*
X65722Y181785D01*
Y179599D01*
X66288Y177488D01*
X67380Y175596D01*
X68926Y174050D01*
X70818Y172958D01*
X72929Y172392D01*
X75115D01*
X77226Y172958D01*
X79118Y174050D01*
X80664Y175596D01*
X81756Y177488D01*
X82322Y179599D01*
Y181785D01*
X81756Y183896D01*
X80664Y185788D01*
X79118Y187334D01*
X77226Y188426D01*
X75115Y188992D01*
D02*
G37*
G36*
X738505Y179070D02*
X727710D01*
Y168275D01*
X728028D01*
X731097Y169097D01*
X733848Y170686D01*
X736094Y172932D01*
X737683Y175683D01*
X738505Y178752D01*
Y179070D01*
D02*
G37*
G36*
X725170D02*
X714375D01*
Y178752D01*
X715197Y175683D01*
X716786Y172932D01*
X719032Y170686D01*
X721783Y169097D01*
X724852Y168275D01*
X725170D01*
Y179070D01*
D02*
G37*
G36*
X675005D02*
X664210D01*
Y168275D01*
X664528D01*
X667597Y169097D01*
X670348Y170686D01*
X672594Y172932D01*
X674183Y175683D01*
X675005Y178752D01*
Y179070D01*
D02*
G37*
G36*
X661670D02*
X650875D01*
Y178752D01*
X651697Y175683D01*
X653286Y172932D01*
X655532Y170686D01*
X658283Y169097D01*
X661352Y168275D01*
X661670D01*
Y179070D01*
D02*
G37*
G36*
X640715D02*
X629920D01*
Y168275D01*
X630238D01*
X633307Y169097D01*
X636058Y170686D01*
X638304Y172932D01*
X639893Y175683D01*
X640715Y178752D01*
Y179070D01*
D02*
G37*
G36*
X627380D02*
X616585D01*
Y178752D01*
X617407Y175683D01*
X618996Y172932D01*
X621242Y170686D01*
X623993Y169097D01*
X627062Y168275D01*
X627380D01*
Y179070D01*
D02*
G37*
G36*
X1233140Y182520D02*
X1230560D01*
X1228067Y181852D01*
X1225833Y180562D01*
X1224008Y178737D01*
X1222718Y176503D01*
X1222050Y174010D01*
Y171430D01*
X1222718Y168937D01*
X1224008Y166703D01*
X1225833Y164878D01*
X1228067Y163588D01*
X1230560Y162920D01*
X1233140D01*
X1235633Y163588D01*
X1237867Y164878D01*
X1239692Y166703D01*
X1240982Y168937D01*
X1241650Y171430D01*
Y174010D01*
X1240982Y176503D01*
X1239692Y178737D01*
X1237867Y180562D01*
X1235633Y181852D01*
X1233140Y182520D01*
D02*
G37*
G36*
X1207740D02*
X1205160D01*
X1202667Y181852D01*
X1200433Y180562D01*
X1198608Y178737D01*
X1197318Y176503D01*
X1196650Y174010D01*
Y171430D01*
X1197318Y168937D01*
X1198608Y166703D01*
X1200433Y164878D01*
X1202667Y163588D01*
X1205160Y162920D01*
X1207740D01*
X1210233Y163588D01*
X1212467Y164878D01*
X1214292Y166703D01*
X1215582Y168937D01*
X1216250Y171430D01*
Y174010D01*
X1215582Y176503D01*
X1214292Y178737D01*
X1212467Y180562D01*
X1210233Y181852D01*
X1207740Y182520D01*
D02*
G37*
G36*
X1182340D02*
X1179760D01*
X1177267Y181852D01*
X1175033Y180562D01*
X1173208Y178737D01*
X1171918Y176503D01*
X1171250Y174010D01*
Y171430D01*
X1171918Y168937D01*
X1173208Y166703D01*
X1175033Y164878D01*
X1177267Y163588D01*
X1179760Y162920D01*
X1182340D01*
X1184833Y163588D01*
X1187067Y164878D01*
X1188892Y166703D01*
X1190182Y168937D01*
X1190850Y171430D01*
Y174010D01*
X1190182Y176503D01*
X1188892Y178737D01*
X1187067Y180562D01*
X1184833Y181852D01*
X1182340Y182520D01*
D02*
G37*
G36*
X1156940D02*
X1154360D01*
X1151867Y181852D01*
X1149633Y180562D01*
X1147808Y178737D01*
X1146518Y176503D01*
X1145850Y174010D01*
Y171430D01*
X1146518Y168937D01*
X1147808Y166703D01*
X1149633Y164878D01*
X1151867Y163588D01*
X1154360Y162920D01*
X1156940D01*
X1159433Y163588D01*
X1161667Y164878D01*
X1163492Y166703D01*
X1164782Y168937D01*
X1165450Y171430D01*
Y174010D01*
X1164782Y176503D01*
X1163492Y178737D01*
X1161667Y180562D01*
X1159433Y181852D01*
X1156940Y182520D01*
D02*
G37*
G36*
X1131540D02*
X1128960D01*
X1126467Y181852D01*
X1124233Y180562D01*
X1122408Y178737D01*
X1121118Y176503D01*
X1120450Y174010D01*
Y171430D01*
X1121118Y168937D01*
X1122408Y166703D01*
X1124233Y164878D01*
X1126467Y163588D01*
X1128960Y162920D01*
X1131540D01*
X1134033Y163588D01*
X1136267Y164878D01*
X1138092Y166703D01*
X1139382Y168937D01*
X1140050Y171430D01*
Y174010D01*
X1139382Y176503D01*
X1138092Y178737D01*
X1136267Y180562D01*
X1134033Y181852D01*
X1131540Y182520D01*
D02*
G37*
G36*
X835444Y245330D02*
X833336D01*
X831388Y244523D01*
X829897Y243032D01*
X829090Y241084D01*
Y238976D01*
X829897Y237028D01*
X831388Y235537D01*
X833336Y234730D01*
X835444D01*
X835627Y234806D01*
X837158Y233275D01*
X836710Y232194D01*
Y230086D01*
X837517Y228138D01*
X839008Y226647D01*
X840956Y225840D01*
X843064D01*
X845012Y226647D01*
X845121Y226756D01*
X850162D01*
X850990Y224756D01*
X850217Y223982D01*
X849410Y222034D01*
Y219926D01*
X850217Y217978D01*
X851708Y216487D01*
X853656Y215680D01*
X855764D01*
X857712Y216487D01*
X857821Y216596D01*
X947966D01*
Y181505D01*
X946333Y180562D01*
X944508Y178737D01*
X943218Y176503D01*
X942550Y174010D01*
Y171430D01*
X943218Y168937D01*
X944508Y166703D01*
X946333Y164878D01*
X948567Y163588D01*
X951060Y162920D01*
X953640D01*
X956133Y163588D01*
X958367Y164878D01*
X960192Y166703D01*
X961482Y168937D01*
X962150Y171430D01*
Y174010D01*
X961482Y176503D01*
X960192Y178737D01*
X958367Y180562D01*
X956734Y181505D01*
Y218417D01*
X956401Y220095D01*
X955450Y221517D01*
X952887Y224080D01*
X951876Y224756D01*
X952262Y226756D01*
X1045934D01*
X1049666Y223024D01*
Y181505D01*
X1048033Y180562D01*
X1046208Y178737D01*
X1044918Y176503D01*
X1044250Y174010D01*
Y171430D01*
X1044918Y168937D01*
X1046208Y166703D01*
X1048033Y164878D01*
X1050267Y163588D01*
X1052760Y162920D01*
X1055340D01*
X1057833Y163588D01*
X1060067Y164878D01*
X1061892Y166703D01*
X1063182Y168937D01*
X1063850Y171430D01*
Y174010D01*
X1063182Y176503D01*
X1061892Y178737D01*
X1060067Y180562D01*
X1058434Y181505D01*
Y224840D01*
X1058101Y226518D01*
X1057150Y227940D01*
X1051444Y233646D01*
X1052273Y235646D01*
X1099274D01*
X1100516Y234404D01*
Y181534D01*
X1098833Y180562D01*
X1097008Y178737D01*
X1095718Y176503D01*
X1095050Y174010D01*
Y171430D01*
X1095718Y168937D01*
X1097008Y166703D01*
X1098833Y164878D01*
X1101067Y163588D01*
X1103560Y162920D01*
X1106140D01*
X1108633Y163588D01*
X1110867Y164878D01*
X1112692Y166703D01*
X1113982Y168937D01*
X1114650Y171430D01*
Y174010D01*
X1113982Y176503D01*
X1112692Y178737D01*
X1110867Y180562D01*
X1109284Y181476D01*
Y236220D01*
X1108951Y237898D01*
X1108000Y239320D01*
X1104190Y243130D01*
X1102768Y244081D01*
X1101090Y244414D01*
X837501D01*
X837392Y244523D01*
X835444Y245330D01*
D02*
G37*
G36*
X1029840Y182520D02*
X1027260D01*
X1024767Y181852D01*
X1022533Y180562D01*
X1020708Y178737D01*
X1019418Y176503D01*
X1018750Y174010D01*
Y171430D01*
X1019418Y168937D01*
X1020708Y166703D01*
X1022533Y164878D01*
X1024767Y163588D01*
X1027260Y162920D01*
X1029840D01*
X1032333Y163588D01*
X1034567Y164878D01*
X1036392Y166703D01*
X1037682Y168937D01*
X1038350Y171430D01*
Y174010D01*
X1037682Y176503D01*
X1036392Y178737D01*
X1034567Y180562D01*
X1032333Y181852D01*
X1029840Y182520D01*
D02*
G37*
G36*
X936990Y171450D02*
X928220D01*
Y162680D01*
X928272D01*
X930825Y163364D01*
X933115Y164686D01*
X934984Y166555D01*
X936306Y168845D01*
X936990Y171398D01*
Y171450D01*
D02*
G37*
G36*
X925680D02*
X916910D01*
Y171398D01*
X917594Y168845D01*
X918916Y166555D01*
X920785Y164686D01*
X923075Y163364D01*
X925628Y162680D01*
X925680D01*
Y171450D01*
D02*
G37*
G36*
X57458Y170274D02*
X43688D01*
Y159004D01*
X57458D01*
Y170274D01*
D02*
G37*
G36*
X41148D02*
X27378D01*
Y159004D01*
X41148D01*
Y170274D01*
D02*
G37*
G36*
X114862Y170232D02*
X101092D01*
Y158962D01*
X114862D01*
Y170232D01*
D02*
G37*
G36*
X98552D02*
X84782D01*
Y158962D01*
X98552D01*
Y170232D01*
D02*
G37*
G36*
X455962Y164965D02*
X449485D01*
Y158488D01*
X455962D01*
Y164965D01*
D02*
G37*
G36*
X57458Y156464D02*
X43688D01*
Y145194D01*
X57458D01*
Y156464D01*
D02*
G37*
G36*
X41148D02*
X27378D01*
Y145194D01*
X41148D01*
Y156464D01*
D02*
G37*
G36*
X114862Y156422D02*
X101092D01*
Y145152D01*
X114862D01*
Y156422D01*
D02*
G37*
G36*
X98552D02*
X84782D01*
Y145152D01*
X98552D01*
Y156422D01*
D02*
G37*
G36*
X94180Y139130D02*
X92180Y139130D01*
X79180D01*
Y136464D01*
X66611D01*
X66502Y136573D01*
X64554Y137380D01*
X62446D01*
X60498Y136573D01*
X59007Y135082D01*
X58200Y133134D01*
Y131026D01*
X59007Y129078D01*
X60498Y127587D01*
X62446Y126780D01*
X64554D01*
X66502Y127587D01*
X66611Y127696D01*
X79180D01*
Y125030D01*
X82188D01*
Y117320D01*
X80115D01*
Y100720D01*
X93215D01*
Y117320D01*
X90957D01*
Y123616D01*
X92371Y125030D01*
X93780D01*
X95780Y125030D01*
X102455D01*
X103226Y123030D01*
X102629Y122137D01*
X102296Y120459D01*
Y117266D01*
X99368D01*
Y100666D01*
X112468D01*
Y117266D01*
X113579Y118806D01*
X123889D01*
X123998Y118697D01*
X125946Y117890D01*
X128054D01*
X130002Y118697D01*
X131493Y120188D01*
X132300Y122136D01*
Y124244D01*
X131493Y126192D01*
X130002Y127683D01*
X128054Y128490D01*
X125946D01*
X123998Y127683D01*
X122649Y128071D01*
X121725Y130025D01*
X122140Y131026D01*
Y133134D01*
X121333Y135082D01*
X119842Y136573D01*
X117894Y137380D01*
X115786D01*
X113838Y136573D01*
X113729Y136464D01*
X108780D01*
Y139130D01*
X95780D01*
X94180Y139130D01*
D02*
G37*
G36*
X49720Y128630D02*
X44450D01*
Y121360D01*
X49720D01*
Y128630D01*
D02*
G37*
G36*
X41910D02*
X36640D01*
Y121360D01*
X41910D01*
Y128630D01*
D02*
G37*
G36*
X979040Y182520D02*
X976460D01*
X973967Y181852D01*
X971733Y180562D01*
X969908Y178737D01*
X968618Y176503D01*
X967950Y174010D01*
Y171430D01*
X968618Y168937D01*
X969908Y166703D01*
X971733Y164878D01*
X973366Y163935D01*
Y118506D01*
X971412Y116552D01*
X969472Y116253D01*
X967524Y117060D01*
X965416D01*
X963468Y116253D01*
X961977Y114762D01*
X961170Y112814D01*
Y110706D01*
X961977Y108758D01*
X963468Y107267D01*
X965416Y106460D01*
X967524D01*
X969472Y107267D01*
X969581Y107376D01*
X972820D01*
X974498Y107710D01*
X975920Y108660D01*
X980850Y113590D01*
X981801Y115012D01*
X982134Y116690D01*
Y163935D01*
X983767Y164878D01*
X985592Y166703D01*
X986882Y168937D01*
X987550Y171430D01*
Y174010D01*
X986882Y176503D01*
X985592Y178737D01*
X983767Y180562D01*
X981533Y181852D01*
X979040Y182520D01*
D02*
G37*
G36*
X49720Y118820D02*
X44450D01*
Y111550D01*
X49720D01*
Y118820D01*
D02*
G37*
G36*
X41910D02*
X36640D01*
Y111550D01*
X41910D01*
Y118820D01*
D02*
G37*
G36*
X1004590Y182520D02*
X1002010D01*
X999517Y181852D01*
X997283Y180562D01*
X995458Y178737D01*
X994168Y176503D01*
X993500Y174010D01*
Y171430D01*
X994168Y168937D01*
X995458Y166703D01*
X997283Y164878D01*
X998916Y163935D01*
Y126276D01*
X994780Y122140D01*
X994626D01*
X992678Y121333D01*
X991187Y119842D01*
X990380Y117894D01*
Y115786D01*
X991187Y113838D01*
X992678Y112347D01*
X994626Y111540D01*
X996734D01*
X998682Y112347D01*
X1000173Y113838D01*
X1000980Y115786D01*
Y115940D01*
X1006400Y121360D01*
X1007350Y122782D01*
X1007684Y124460D01*
Y163935D01*
X1009317Y164878D01*
X1011142Y166703D01*
X1012432Y168937D01*
X1013100Y171430D01*
Y174010D01*
X1012432Y176503D01*
X1011142Y178737D01*
X1009317Y180562D01*
X1007083Y181852D01*
X1004590Y182520D01*
D02*
G37*
G36*
X1080740D02*
X1078160D01*
X1075667Y181852D01*
X1073433Y180562D01*
X1071608Y178737D01*
X1070318Y176503D01*
X1069650Y174010D01*
Y171430D01*
X1070318Y168937D01*
X1071608Y166703D01*
X1073027Y165284D01*
Y101673D01*
X908897D01*
X907973Y102597D01*
Y162920D01*
X911350D01*
Y182520D01*
X891750D01*
Y162920D01*
X895127D01*
Y99936D01*
X895615Y97478D01*
X897008Y95394D01*
X901694Y90708D01*
X903778Y89316D01*
X906236Y88827D01*
X1200077D01*
Y63260D01*
X1195310D01*
Y40880D01*
X1217690D01*
Y63260D01*
X1212923D01*
Y88827D01*
X1288053D01*
X1288977Y87903D01*
Y61970D01*
X1285500D01*
Y42170D01*
X1305300D01*
Y61970D01*
X1301823D01*
Y90564D01*
X1301335Y93022D01*
X1299942Y95106D01*
X1295256Y99792D01*
X1293172Y101185D01*
X1290714Y101673D01*
X1085873D01*
Y165284D01*
X1087292Y166703D01*
X1088582Y168937D01*
X1089250Y171430D01*
Y174010D01*
X1088582Y176503D01*
X1087292Y178737D01*
X1085467Y180562D01*
X1083233Y181852D01*
X1080740Y182520D01*
D02*
G37*
G36*
X652780Y103260D02*
Y99060D01*
X656980D01*
X656207Y100928D01*
X654648Y102487D01*
X652780Y103260D01*
D02*
G37*
G36*
X650240D02*
X648372Y102487D01*
X646813Y100928D01*
X646040Y99060D01*
X650240D01*
Y103260D01*
D02*
G37*
G36*
X887730Y94370D02*
Y90170D01*
X891930D01*
X891157Y92038D01*
X889598Y93597D01*
X887730Y94370D01*
D02*
G37*
G36*
X885190D02*
X883322Y93597D01*
X881763Y92038D01*
X880990Y90170D01*
X885190D01*
Y94370D01*
D02*
G37*
G36*
X1271335Y62210D02*
X1271270D01*
Y53340D01*
X1280140D01*
Y53405D01*
X1279449Y55984D01*
X1278114Y58296D01*
X1276226Y60184D01*
X1273914Y61519D01*
X1271335Y62210D01*
D02*
G37*
G36*
X1182605Y63500D02*
X1182370D01*
Y53340D01*
X1192530D01*
Y53575D01*
X1191751Y56482D01*
X1190246Y59088D01*
X1188118Y61216D01*
X1185512Y62721D01*
X1182605Y63500D01*
D02*
G37*
G36*
X1106405D02*
X1106170D01*
Y53340D01*
X1116330D01*
Y53575D01*
X1115551Y56482D01*
X1114046Y59088D01*
X1111918Y61216D01*
X1109312Y62721D01*
X1106405Y63500D01*
D02*
G37*
G36*
X1179830D02*
X1179595D01*
X1176688Y62721D01*
X1174082Y61216D01*
X1171954Y59088D01*
X1170449Y56482D01*
X1169670Y53575D01*
Y53340D01*
X1179830D01*
Y63500D01*
D02*
G37*
G36*
X1103630D02*
X1103395D01*
X1100488Y62721D01*
X1097882Y61216D01*
X1095754Y59088D01*
X1094249Y56482D01*
X1093470Y53575D01*
Y53340D01*
X1103630D01*
Y63500D01*
D02*
G37*
G36*
X1268730Y62210D02*
X1268665D01*
X1266086Y61519D01*
X1263774Y60184D01*
X1261886Y58296D01*
X1260551Y55984D01*
X1259860Y53405D01*
Y53340D01*
X1268730D01*
Y62210D01*
D02*
G37*
G36*
X887795Y57130D02*
X887730D01*
Y48260D01*
X896600D01*
Y48325D01*
X895909Y50904D01*
X894574Y53216D01*
X892686Y55104D01*
X890374Y56439D01*
X887795Y57130D01*
D02*
G37*
G36*
X885190D02*
X885125D01*
X882546Y56439D01*
X880234Y55104D01*
X878346Y53216D01*
X877011Y50904D01*
X876320Y48325D01*
Y48260D01*
X885190D01*
Y57130D01*
D02*
G37*
G36*
X1245903Y61970D02*
X1243297D01*
X1240779Y61295D01*
X1238521Y59992D01*
X1236678Y58149D01*
X1235375Y55891D01*
X1234700Y53373D01*
Y50767D01*
X1235375Y48249D01*
X1236678Y45991D01*
X1238521Y44148D01*
X1240779Y42845D01*
X1243297Y42170D01*
X1245903D01*
X1248421Y42845D01*
X1250679Y44148D01*
X1252522Y45991D01*
X1253825Y48249D01*
X1254500Y50767D01*
Y53373D01*
X1253825Y55891D01*
X1252522Y58149D01*
X1250679Y59992D01*
X1248421Y61295D01*
X1245903Y61970D01*
D02*
G37*
G36*
X1280140Y50800D02*
X1271270D01*
Y41930D01*
X1271335D01*
X1273914Y42621D01*
X1276226Y43956D01*
X1278114Y45844D01*
X1279449Y48156D01*
X1280140Y50735D01*
Y50800D01*
D02*
G37*
G36*
X1268730D02*
X1259860D01*
Y50735D01*
X1260551Y48156D01*
X1261886Y45844D01*
X1263774Y43956D01*
X1266086Y42621D01*
X1268665Y41930D01*
X1268730D01*
Y50800D01*
D02*
G37*
G36*
X1080973Y63260D02*
X1078027D01*
X1075181Y62497D01*
X1072629Y61024D01*
X1070546Y58941D01*
X1069073Y56389D01*
X1068310Y53543D01*
Y50597D01*
X1069073Y47751D01*
X1070546Y45199D01*
X1072629Y43116D01*
X1075181Y41643D01*
X1078027Y40880D01*
X1080973D01*
X1083819Y41643D01*
X1086371Y43116D01*
X1088454Y45199D01*
X1089927Y47751D01*
X1090690Y50597D01*
Y53543D01*
X1089927Y56389D01*
X1088454Y58941D01*
X1086371Y61024D01*
X1083819Y62497D01*
X1080973Y63260D01*
D02*
G37*
G36*
X1055573D02*
X1052627D01*
X1049781Y62497D01*
X1047229Y61024D01*
X1045146Y58941D01*
X1043673Y56389D01*
X1042910Y53543D01*
Y50597D01*
X1043673Y47751D01*
X1045146Y45199D01*
X1047229Y43116D01*
X1049781Y41643D01*
X1052627Y40880D01*
X1055573D01*
X1058419Y41643D01*
X1060971Y43116D01*
X1063054Y45199D01*
X1064527Y47751D01*
X1065290Y50597D01*
Y53543D01*
X1064527Y56389D01*
X1063054Y58941D01*
X1060971Y61024D01*
X1058419Y62497D01*
X1055573Y63260D01*
D02*
G37*
G36*
X1030173D02*
X1027227D01*
X1024381Y62497D01*
X1021829Y61024D01*
X1019746Y58941D01*
X1018273Y56389D01*
X1017510Y53543D01*
Y50597D01*
X1018273Y47751D01*
X1019746Y45199D01*
X1021829Y43116D01*
X1024381Y41643D01*
X1027227Y40880D01*
X1030173D01*
X1033019Y41643D01*
X1035571Y43116D01*
X1037654Y45199D01*
X1039127Y47751D01*
X1039890Y50597D01*
Y53543D01*
X1039127Y56389D01*
X1037654Y58941D01*
X1035571Y61024D01*
X1033019Y62497D01*
X1030173Y63260D01*
D02*
G37*
G36*
X1004773D02*
X1001827D01*
X998981Y62497D01*
X996429Y61024D01*
X994346Y58941D01*
X992873Y56389D01*
X992110Y53543D01*
Y50597D01*
X992873Y47751D01*
X994346Y45199D01*
X996429Y43116D01*
X998981Y41643D01*
X1001827Y40880D01*
X1004773D01*
X1007619Y41643D01*
X1010171Y43116D01*
X1012254Y45199D01*
X1013727Y47751D01*
X1014490Y50597D01*
Y53543D01*
X1013727Y56389D01*
X1012254Y58941D01*
X1010171Y61024D01*
X1007619Y62497D01*
X1004773Y63260D01*
D02*
G37*
G36*
X979373D02*
X976427D01*
X973581Y62497D01*
X971029Y61024D01*
X968946Y58941D01*
X967473Y56389D01*
X966710Y53543D01*
Y50597D01*
X967473Y47751D01*
X968946Y45199D01*
X971029Y43116D01*
X973581Y41643D01*
X976427Y40880D01*
X979373D01*
X982219Y41643D01*
X984771Y43116D01*
X986854Y45199D01*
X988327Y47751D01*
X989090Y50597D01*
Y53543D01*
X988327Y56389D01*
X986854Y58941D01*
X984771Y61024D01*
X982219Y62497D01*
X979373Y63260D01*
D02*
G37*
G36*
X1192530Y50800D02*
X1182370D01*
Y40640D01*
X1182605D01*
X1185512Y41419D01*
X1188118Y42924D01*
X1190246Y45052D01*
X1191751Y47658D01*
X1192530Y50565D01*
Y50800D01*
D02*
G37*
G36*
X1179830D02*
X1169670D01*
Y50565D01*
X1170449Y47658D01*
X1171954Y45052D01*
X1174082Y42924D01*
X1176688Y41419D01*
X1179595Y40640D01*
X1179830D01*
Y50800D01*
D02*
G37*
G36*
X1116330D02*
X1106170D01*
Y40640D01*
X1106405D01*
X1109312Y41419D01*
X1111918Y42924D01*
X1114046Y45052D01*
X1115551Y47658D01*
X1116330Y50565D01*
Y50800D01*
D02*
G37*
G36*
X1103630D02*
X1093470D01*
Y50565D01*
X1094249Y47658D01*
X1095754Y45052D01*
X1097882Y42924D01*
X1100488Y41419D01*
X1103395Y40640D01*
X1103630D01*
Y50800D01*
D02*
G37*
G36*
X921760Y56890D02*
X901960D01*
Y37090D01*
X921760D01*
Y56890D01*
D02*
G37*
G36*
X896600Y45720D02*
X887730D01*
Y36850D01*
X887795D01*
X890374Y37541D01*
X892686Y38876D01*
X894574Y40764D01*
X895909Y43076D01*
X896600Y45655D01*
Y45720D01*
D02*
G37*
G36*
X885190D02*
X876320D01*
Y45655D01*
X877011Y43076D01*
X878346Y40764D01*
X880234Y38876D01*
X882546Y37541D01*
X885125Y36850D01*
X885190D01*
Y45720D01*
D02*
G37*
G36*
X275394Y197708D02*
Y191688D01*
X281109D01*
Y197708D01*
X275394D01*
D02*
G37*
G36*
X281109Y189148D02*
X275394D01*
Y183128D01*
X281109D01*
Y189148D01*
D02*
G37*
G36*
X248508Y174186D02*
X242488D01*
Y168471D01*
X248508D01*
Y174186D01*
D02*
G37*
G36*
X289800Y158420D02*
X284085D01*
Y152400D01*
X289800D01*
Y158420D01*
D02*
G37*
G36*
Y149860D02*
X284085D01*
Y143840D01*
X289800D01*
Y149860D01*
D02*
G37*
G36*
X656980Y73660D02*
X652780D01*
Y69460D01*
X654648Y70233D01*
X656207Y71792D01*
X656980Y73660D01*
D02*
G37*
G36*
X650240D02*
X646040D01*
X646813Y71792D01*
X648372Y70233D01*
X650240Y69460D01*
Y73660D01*
D02*
G37*
G36*
X645212Y58300D02*
X645160D01*
Y49530D01*
X653930D01*
Y49582D01*
X653246Y52135D01*
X651924Y54425D01*
X650055Y56294D01*
X647765Y57616D01*
X645212Y58300D01*
D02*
G37*
G36*
X642620D02*
X642568D01*
X640015Y57616D01*
X637725Y56294D01*
X635856Y54425D01*
X634534Y52135D01*
X633850Y49582D01*
Y49530D01*
X642620D01*
Y58300D01*
D02*
G37*
G36*
X653930Y46990D02*
X645160D01*
Y38220D01*
X645212D01*
X647765Y38904D01*
X650055Y40226D01*
X651924Y42095D01*
X653246Y44385D01*
X653930Y46938D01*
Y46990D01*
D02*
G37*
G36*
X642620D02*
X633850D01*
Y46938D01*
X634534Y44385D01*
X635856Y42095D01*
X637725Y40226D01*
X640015Y38904D01*
X642568Y38220D01*
X642620D01*
Y46990D01*
D02*
G37*
G36*
X756985Y46970D02*
X756920D01*
Y38100D01*
X765790D01*
Y38165D01*
X765099Y40744D01*
X763764Y43056D01*
X761876Y44944D01*
X759564Y46279D01*
X756985Y46970D01*
D02*
G37*
G36*
X680785D02*
X680720D01*
Y38100D01*
X689590D01*
Y38165D01*
X688899Y40744D01*
X687564Y43056D01*
X685676Y44944D01*
X683364Y46279D01*
X680785Y46970D01*
D02*
G37*
G36*
X754380D02*
X754315D01*
X751736Y46279D01*
X749424Y44944D01*
X747536Y43056D01*
X746201Y40744D01*
X745510Y38165D01*
Y38100D01*
X754380D01*
Y46970D01*
D02*
G37*
G36*
X678180D02*
X678115D01*
X675536Y46279D01*
X673224Y44944D01*
X671336Y43056D01*
X670001Y40744D01*
X669310Y38165D01*
Y38100D01*
X678180D01*
Y46970D01*
D02*
G37*
%LPD*%
D10*
X176960Y180580D02*
X181960Y175580D01*
X200660D01*
X215900Y165100D02*
Y177800D01*
X200900Y180340D02*
X213360D01*
X215900Y177800D01*
X200660Y180580D02*
X200900Y180340D01*
X223520Y176530D02*
Y182880D01*
X200660Y185580D02*
X220820D01*
X223520Y182880D01*
X200660Y190580D02*
Y195580D01*
Y190580D02*
X241095D01*
X241218Y190456D01*
X201886Y217756D02*
Y231222D01*
X191960Y207830D02*
X201886Y217756D01*
X191960Y204280D02*
Y207830D01*
X171880Y204360D02*
X171960Y204280D01*
X171880Y204360D02*
Y228496D01*
X170850Y229527D02*
X171880Y228496D01*
X191960Y156880D02*
X205070D01*
X215900Y146050D01*
X229870D01*
X181960Y149510D02*
Y156880D01*
Y149510D02*
X185420Y146050D01*
X199390D01*
X201930Y143510D01*
Y128150D02*
Y143510D01*
X176960Y143080D02*
Y156880D01*
Y143080D02*
X180340Y139700D01*
Y129540D02*
Y139700D01*
X171960Y144644D02*
Y156880D01*
X168910Y132080D02*
Y141594D01*
X163830Y143510D02*
X166960Y146640D01*
X168910Y141594D02*
X171960Y144644D01*
X166960Y146640D02*
Y156880D01*
X154940Y143510D02*
X163830D01*
X151130Y139700D02*
X154940Y143510D01*
X151130Y130690D02*
Y139700D01*
D12*
X238482Y172720D02*
X241218Y175456D01*
X229424Y131496D02*
X229870Y131050D01*
X217316Y123764D02*
X222834D01*
X229870Y130800D01*
X217170Y123910D02*
X217316Y123764D01*
X229870Y130800D02*
Y131050D01*
D20*
X42418Y157734D02*
D03*
X99822Y157692D02*
D03*
X42418Y247734D02*
D03*
X99822Y247692D02*
D03*
D21*
X103378Y186944D02*
D03*
X103251Y194818D02*
D03*
X103124Y202692D02*
D03*
X102997Y210566D02*
D03*
X102870Y218440D02*
D03*
D22*
X153670Y288790D02*
D03*
Y275590D02*
D03*
X180340D02*
D03*
Y288790D02*
D03*
D23*
X727710Y360160D02*
D03*
Y422160D02*
D03*
D24*
X206160Y454660D02*
D03*
X264160D02*
D03*
D25*
X324640Y403370D02*
D03*
Y437370D02*
D03*
Y454370D02*
D03*
Y386370D02*
D03*
Y420370D02*
D03*
D26*
X421640D02*
D03*
D27*
X87122Y293624D02*
D03*
X106375Y293570D02*
D03*
X96571Y318570D02*
D03*
X105918Y108966D02*
D03*
X86665Y109020D02*
D03*
X96469Y84020D02*
D03*
D28*
X296050Y258560D02*
D03*
X250050D02*
D03*
D29*
X273050D02*
D03*
D30*
X273050Y320560D02*
D03*
D31*
X764540Y186810D02*
D03*
Y201810D02*
D03*
X627380Y374530D02*
D03*
Y359530D02*
D03*
X229870Y131050D02*
D03*
Y146050D02*
D03*
X180340Y129540D02*
D03*
Y114540D02*
D03*
X217170Y112910D02*
D03*
Y97910D02*
D03*
X151130Y130690D02*
D03*
Y115690D02*
D03*
X270510Y744100D02*
D03*
Y729100D02*
D03*
Y711200D02*
D03*
Y696200D02*
D03*
X478790Y747910D02*
D03*
Y732910D02*
D03*
Y709810D02*
D03*
Y694810D02*
D03*
X631190Y633610D02*
D03*
Y618610D02*
D03*
X698500Y744100D02*
D03*
Y729100D02*
D03*
Y697350D02*
D03*
Y712350D02*
D03*
X201930Y113150D02*
D03*
Y128150D02*
D03*
X781050Y201930D02*
D03*
Y186930D02*
D03*
D32*
X200660Y165580D02*
D03*
Y170580D02*
D03*
X153260Y195580D02*
D03*
Y190580D02*
D03*
Y185580D02*
D03*
Y180580D02*
D03*
Y175580D02*
D03*
Y170580D02*
D03*
Y165580D02*
D03*
X200660Y190580D02*
D03*
Y195580D02*
D03*
Y185580D02*
D03*
Y175580D02*
D03*
Y180580D02*
D03*
D33*
X186960Y204280D02*
D03*
X181960D02*
D03*
X176960D02*
D03*
X171960D02*
D03*
X166960D02*
D03*
X161960D02*
D03*
Y156880D02*
D03*
X166960D02*
D03*
X171960D02*
D03*
X176960D02*
D03*
X181960D02*
D03*
X186960D02*
D03*
X191960D02*
D03*
Y204280D02*
D03*
D35*
X43180Y50090D02*
D03*
Y120090D02*
D03*
X41910Y357020D02*
D03*
Y287020D02*
D03*
D36*
X527265Y178685D02*
D03*
X352265Y89785D02*
D03*
Y102485D02*
D03*
Y153285D02*
D03*
Y165985D02*
D03*
Y216785D02*
D03*
Y115185D02*
D03*
X527265Y165985D02*
D03*
X352265Y191385D02*
D03*
Y127885D02*
D03*
X527265Y102485D02*
D03*
Y191385D02*
D03*
Y204085D02*
D03*
X352265Y229485D02*
D03*
X527265Y153285D02*
D03*
Y216785D02*
D03*
X352265Y140585D02*
D03*
X527265Y115185D02*
D03*
Y140585D02*
D03*
X352265Y242185D02*
D03*
X527265Y229485D02*
D03*
X352265Y204085D02*
D03*
X527265Y127885D02*
D03*
Y242185D02*
D03*
Y89785D02*
D03*
X352265Y178685D02*
D03*
Y254885D02*
D03*
X527265D02*
D03*
D37*
X471515Y77285D02*
D03*
X458815D02*
D03*
X446115D02*
D03*
X433415D02*
D03*
X420715D02*
D03*
X408015D02*
D03*
X382615D02*
D03*
X395315D02*
D03*
X496915D02*
D03*
X484215D02*
D03*
D38*
X417715Y166235D02*
D03*
X432965D02*
D03*
X417715Y181485D02*
D03*
Y196735D02*
D03*
X448215Y166235D02*
D03*
X432965Y196735D02*
D03*
Y181485D02*
D03*
X448215Y196735D02*
D03*
Y181485D02*
D03*
D39*
X698500Y657860D02*
D03*
Y677360D02*
D03*
X270510Y657000D02*
D03*
Y676500D02*
D03*
X481330Y654050D02*
D03*
Y673550D02*
D03*
D40*
X192720Y318770D02*
D03*
X152720D02*
D03*
D41*
X543560Y377190D02*
D03*
X544560Y483190D02*
D03*
D42*
X703580Y226060D02*
D03*
X718580D02*
D03*
X273006Y231222D02*
D03*
X258006D02*
D03*
X306070Y151130D02*
D03*
X291070D02*
D03*
X259124Y190418D02*
D03*
X274124D02*
D03*
X201690Y251460D02*
D03*
X186690D02*
D03*
X201886Y231222D02*
D03*
X186886D02*
D03*
X87630Y356870D02*
D03*
X102630D02*
D03*
X81280Y49530D02*
D03*
X96280D02*
D03*
X614724Y96438D02*
D03*
X629724D02*
D03*
X711244D02*
D03*
X726244D02*
D03*
X605834Y225978D02*
D03*
X620834D02*
D03*
D43*
X666832Y359454D02*
D03*
Y374454D02*
D03*
X646512Y359454D02*
D03*
Y374454D02*
D03*
X290830Y230900D02*
D03*
Y215900D02*
D03*
X309798Y231096D02*
D03*
Y216096D02*
D03*
X241218Y190456D02*
D03*
Y175456D02*
D03*
D44*
X643890Y430850D02*
D03*
Y470850D02*
D03*
D45*
X167230Y251460D02*
D03*
X147730D02*
D03*
X636680Y398780D02*
D03*
X656180D02*
D03*
D46*
X306070Y170180D02*
D03*
X291070D02*
D03*
X515740Y55880D02*
D03*
X530740D02*
D03*
X155898Y229575D02*
D03*
X170898D02*
D03*
X87750Y337820D02*
D03*
X102750D02*
D03*
X81520Y67310D02*
D03*
X96520D02*
D03*
X102750Y274320D02*
D03*
X87750D02*
D03*
X86480Y132080D02*
D03*
X101480D02*
D03*
X587890Y96520D02*
D03*
X572890D02*
D03*
X670560D02*
D03*
X685560D02*
D03*
X571740Y226060D02*
D03*
X586740D02*
D03*
X684410D02*
D03*
X669410D02*
D03*
X194430Y633730D02*
D03*
X209430D02*
D03*
X412870Y636270D02*
D03*
X427870D02*
D03*
X779660Y303530D02*
D03*
X764660D02*
D03*
X779660Y323850D02*
D03*
X764660D02*
D03*
D91*
X176960Y180580D02*
D03*
D92*
X16510Y41910D02*
X20320Y38100D01*
X16510Y116840D02*
X19760Y120090D01*
X16510Y41910D02*
Y116840D01*
X20320Y38100D02*
X93937D01*
X19760Y120090D02*
X43180D01*
X42418Y157734D02*
X43180Y156972D01*
Y120090D02*
Y156972D01*
X42418Y157734D02*
X99780D01*
X93937Y38100D02*
X96280Y40443D01*
Y49530D01*
X103378Y161332D02*
Y186944D01*
X99780Y157734D02*
X103378Y161332D01*
X42418Y157734D02*
Y247734D01*
X41910Y248242D02*
X42418Y247734D01*
X41910Y248242D02*
Y287020D01*
X99780Y247734D02*
X99822Y247692D01*
X42418Y247734D02*
X99780D01*
X186788Y231320D02*
X186886Y231222D01*
X186788Y231320D02*
Y251362D01*
X147730Y238091D02*
Y251460D01*
X147053Y262960D02*
X147730Y262283D01*
Y251460D02*
Y262283D01*
X186690Y251460D02*
X186788Y251362D01*
X182810Y262960D02*
X186690Y259080D01*
Y251460D02*
Y259080D01*
X259080Y153473D02*
Y163830D01*
X241218Y166452D02*
X243840Y163830D01*
X259080D01*
X261423Y151130D02*
X291070D01*
X259080Y163830D02*
X269240D01*
X259080Y153473D02*
X261423Y151130D01*
X241218Y166452D02*
Y175456D01*
X269240Y163830D02*
X274124Y168714D01*
X417715Y166465D02*
X417830Y166350D01*
X433080D01*
X417715Y166465D02*
Y181370D01*
X274124Y168714D02*
Y190418D01*
X417715Y181600D02*
X417830Y181485D01*
X417715Y181370D02*
X417830Y181485D01*
X417945Y196735D02*
X432965D01*
X273247Y190418D02*
Y211840D01*
X277307Y215900D01*
X290830D01*
X290928Y215998D01*
X250050Y245250D02*
X252730Y242570D01*
X250050Y258560D02*
Y332881D01*
Y245250D02*
Y258560D01*
X255467Y242570D02*
X258006Y240030D01*
Y231222D02*
Y240030D01*
X252730Y242570D02*
X255467D01*
X417715Y181600D02*
Y196735D01*
X309700Y215998D02*
X309798Y216096D01*
X417830Y196850D02*
X417945Y196735D01*
X417715D02*
X417830Y196850D01*
X290928Y215998D02*
X309700D01*
X324640Y259560D02*
Y336550D01*
Y259560D02*
X328930Y255270D01*
X352110D02*
X352380Y255000D01*
X445967D01*
X328930Y255270D02*
X352110D01*
X102630Y356870D02*
X102870Y357110D01*
Y375920D01*
X105410Y378460D01*
X129540D02*
X133350Y382270D01*
X96520Y401320D02*
X99060Y398780D01*
X31529Y447261D02*
X96520D01*
Y401320D02*
Y447261D01*
X105410Y378460D02*
X129540D01*
X99060Y398780D02*
X134620D01*
X144780Y265233D02*
X147053Y262960D01*
X144780Y286447D02*
X147123Y288790D01*
X144780Y265233D02*
Y286447D01*
X147053Y262960D02*
X182810D01*
X147123Y288790D02*
X153670D01*
X133350Y397510D02*
X134620Y398780D01*
X133350Y382270D02*
Y397510D01*
X153670Y288790D02*
X180340D01*
X134620Y398780D02*
X235147D01*
X237490Y401123D01*
X24130Y454660D02*
X31529Y447261D01*
X24130Y527050D02*
Y582930D01*
Y454660D02*
Y527050D01*
X41910D01*
X24130Y582930D02*
X24132Y582928D01*
X24130Y633730D02*
X27940Y637540D01*
X24130Y582930D02*
Y633730D01*
X24132Y582928D02*
X41910D01*
X27940Y637540D02*
X41910D01*
X237490Y401123D02*
Y454857D01*
X239833Y457200D01*
X264160Y429260D02*
Y454660D01*
X239833Y457200D02*
X261620D01*
X264160Y454660D01*
X268117Y560093D02*
Y569403D01*
X267120Y570400D02*
X268117Y569403D01*
X151130Y674370D02*
X268380D01*
X268117Y560093D02*
X270460Y557750D01*
X268380Y674370D02*
X270510Y676500D01*
Y696200D01*
X264160Y429260D02*
X274320Y419100D01*
X317920Y545000D02*
X318817Y545897D01*
X274320Y419100D02*
X323370D01*
X324640Y386370D02*
X327968Y389698D01*
X343547D01*
X324640Y336550D02*
X534808D01*
X343547Y389698D02*
X345890Y392042D01*
X328140Y416870D02*
X343547D01*
X323370Y419100D02*
X324640Y420370D01*
X328140Y416870D01*
X343547D02*
X345890Y414527D01*
Y392042D02*
Y414527D01*
X421640Y420370D02*
Y496570D01*
X485337D01*
X318817Y545897D02*
Y555407D01*
X270460Y557750D02*
X321160D01*
X318817Y555407D02*
X321160Y557750D01*
X365380D01*
X367723Y560093D01*
Y569403D01*
X368720Y570400D01*
Y583987D01*
X371063Y586330D01*
X445770D01*
X368300Y674370D02*
X478790D01*
X643890Y37903D02*
Y48260D01*
Y72587D01*
Y37903D02*
X646233Y35560D01*
X643890Y72587D02*
X646233Y74930D01*
X629724Y96438D02*
X641465D01*
X433080Y166350D02*
X448330D01*
X644417Y98173D02*
X651127D01*
X641465Y96438D02*
X643808Y98781D01*
X644417Y98173D01*
X646233Y35560D02*
X678180D01*
X679450Y36830D02*
Y49530D01*
X678180Y35560D02*
X679450Y36830D01*
Y49530D02*
X681990Y52070D01*
X646233Y74930D02*
X651510D01*
X651127Y98173D02*
X651510Y97790D01*
X726244Y96438D02*
X726325Y96520D01*
X433080Y166350D02*
Y181600D01*
X448330Y166350D02*
Y181600D01*
X433080Y196735D02*
X448215D01*
X445967Y255000D02*
X448310Y252657D01*
X448215Y196735D02*
Y211985D01*
X448310Y212080D01*
Y252657D01*
X628650Y180340D02*
X643808D01*
Y98781D02*
Y180340D01*
X530313Y254885D02*
X534808Y259380D01*
X620834Y225978D02*
X643808D01*
X643890Y226060D01*
Y307340D01*
X753704Y38776D02*
X755650Y36830D01*
X753704Y38776D02*
Y46117D01*
X736439Y48460D02*
X751360D01*
X681990Y52070D02*
X732829D01*
X736439Y48460D01*
X886460Y46990D02*
X887730Y48260D01*
X751360Y48460D02*
X753704Y46117D01*
X1181100Y30283D02*
X1183443Y27940D01*
X1181100Y30283D02*
Y52070D01*
X1183443Y27940D02*
X1267657D01*
X1270000Y30283D01*
Y52070D01*
X1104900D02*
Y64770D01*
X726325Y96520D02*
X740410D01*
X744220Y100330D01*
Y180340D01*
X882650Y157480D02*
X886460Y153670D01*
X718580Y226060D02*
X744220D01*
Y307340D01*
X726440Y180340D02*
X744220D01*
X882650Y157480D02*
Y187960D01*
X886460Y191770D01*
X887730Y48260D02*
Y67310D01*
X890270Y69850D01*
X1099820D02*
X1104900Y64770D01*
X886460Y191770D02*
X924607D01*
X886460Y88900D02*
Y153670D01*
X890270Y69850D02*
X1099820D01*
X924607Y191770D02*
X926950Y189427D01*
Y172720D02*
Y189427D01*
X485337Y496570D02*
X488278Y499511D01*
Y513979D02*
X492489Y518190D01*
X488278Y499511D02*
Y513979D01*
X527265Y254885D02*
X530313D01*
X534808Y259380D02*
Y336550D01*
X542290D01*
X510813Y545997D02*
X520123D01*
X443427Y571893D02*
X444920Y570400D01*
X508470Y548340D02*
X510813Y545997D01*
X492489Y518190D02*
X596631D01*
X520123Y545997D02*
X521120Y545000D01*
X565150Y307340D02*
X628650D01*
X542290Y336550D02*
X546100Y332740D01*
X628650Y307340D02*
X643890D01*
X546100Y332740D02*
X643890D01*
X599560Y496373D02*
Y515261D01*
X570380Y571940D02*
X571920Y570400D01*
X596631Y518190D02*
X599560Y515261D01*
X601903Y494030D02*
X641350D01*
X643890Y491490D01*
X599560Y496373D02*
X601903Y494030D01*
X443427Y583987D02*
X445770Y586330D01*
X443427Y571893D02*
Y583987D01*
X508470D02*
X510813Y586330D01*
X445770D02*
X510813D01*
X481330Y673550D02*
X481780Y673100D01*
X478790Y676090D02*
Y694810D01*
Y676090D02*
X481330Y673550D01*
X481780Y673100D02*
X505460D01*
X508470Y548340D02*
Y583987D01*
X570380Y571940D02*
Y583987D01*
X510813Y586330D02*
X568037D01*
X570380Y583987D01*
X643890Y307340D02*
Y332740D01*
X646512Y374454D02*
X648673Y376615D01*
X643890Y332740D02*
X744220D01*
X646512Y374454D02*
X666832D01*
X648673Y376615D02*
Y381973D01*
X655323Y388623D01*
Y397923D01*
X656180Y398780D02*
X670560D01*
X655323Y397923D02*
X656180Y398780D01*
X661670Y307340D02*
X725170D01*
X744220D01*
Y332740D02*
Y419100D01*
X670560Y398780D02*
X675640Y403860D01*
Y443230D01*
X721710Y428160D02*
Y442157D01*
X727710Y422160D02*
X741160D01*
X744220Y419100D01*
X721710Y428160D02*
X727710Y422160D01*
X671830Y449580D02*
Y467360D01*
X668340Y470850D02*
X671830Y467360D01*
X676910Y444500D02*
X719367D01*
X671830Y449580D02*
X676910Y444500D01*
X675640Y443230D02*
X676910Y444500D01*
X643890Y470850D02*
X668340D01*
X582930Y669290D02*
X690430D01*
X643890Y470850D02*
Y491490D01*
X690430Y669290D02*
X694000Y672860D01*
X698920Y545000D02*
X718650D01*
X719367Y444500D02*
X721710Y442157D01*
X718650Y545000D02*
X727710Y535940D01*
Y422160D02*
Y535940D01*
X694000Y672860D02*
Y673360D01*
X698000Y677360D01*
X698500D01*
X662940Y180340D02*
X726440D01*
X565150D02*
X628650D01*
X643808D02*
X644000Y180532D01*
X643808Y225978D02*
X644000Y225787D01*
Y180532D02*
Y225787D01*
X250050Y332881D02*
X254479Y337310D01*
X270510Y676500D02*
X272640Y674370D01*
X292100D01*
X744220Y180340D02*
Y226060D01*
X324640Y336550D02*
Y386370D01*
X254479Y337310D02*
X281940D01*
X744220Y307340D02*
Y332740D01*
X103378Y186944D02*
X138627D01*
X140970Y189287D01*
Y231331D01*
X147730Y238091D01*
X180340Y275590D02*
X193040D01*
X196850Y279400D01*
Y294640D01*
X166300Y270960D02*
X166370D01*
X161670Y275590D02*
X166300Y270960D01*
X153670Y275590D02*
X161670D01*
X116909Y210889D02*
X124460Y218440D01*
X103320Y210889D02*
X116909D01*
X102997Y210566D02*
X103320Y210889D01*
X103378Y202946D02*
X124206D01*
X155898Y229575D02*
Y240128D01*
X163230Y246960D02*
X167230Y250960D01*
X155898Y240128D02*
X162730Y246960D01*
X163230D01*
X167230Y250960D02*
Y251460D01*
X103124Y202692D02*
X103378Y202946D01*
X124206D02*
X124460Y203200D01*
X764540Y78740D02*
Y186810D01*
X762070Y184090D02*
X764480D01*
X754763Y174373D02*
Y176783D01*
X762070Y184090D01*
X754380Y173990D02*
X754763Y174373D01*
X763270Y334010D02*
X763653Y333627D01*
Y324857D02*
X764660Y323850D01*
X763653Y324857D02*
Y333627D01*
X102677Y218633D02*
X102870Y218440D01*
X106680Y228600D02*
X111760D01*
X102677Y218633D02*
Y224597D01*
X106680Y228600D01*
X117381Y320040D02*
X118651Y318770D01*
X116840Y320040D02*
X117381D01*
X118651Y318770D02*
X152720D01*
X527265Y229485D02*
X543757D01*
X546100Y227142D01*
Y203200D02*
Y227142D01*
X527265Y242185D02*
X529090Y240359D01*
X554778D01*
X555719Y241300D01*
X556260D01*
X565150Y232400D02*
Y256540D01*
Y232400D02*
X571490Y226060D01*
X475177Y364374D02*
X477520Y366717D01*
X355403Y364374D02*
X475177D01*
X477520Y366717D02*
Y482600D01*
X353060Y366717D02*
Y434340D01*
Y366717D02*
X355403Y364374D01*
X977750Y116690D02*
Y172720D01*
X972820Y111760D02*
X977750Y116690D01*
X966470Y111760D02*
X972820D01*
X1003300Y124460D02*
Y172720D01*
X995680Y116840D02*
X1003300Y124460D01*
X889774Y80900D02*
X889804Y80930D01*
X1153357D02*
X1155700Y78587D01*
Y52070D02*
Y78587D01*
X889804Y80930D02*
X1153357D01*
X554275Y194865D02*
X634204D01*
X634249Y194820D01*
X550795Y191385D02*
X554275Y194865D01*
X527265Y191385D02*
X550795D01*
X662940Y127292D02*
Y129540D01*
Y127292D02*
X670560Y119672D01*
Y96520D02*
Y119672D01*
X577740Y32910D02*
X593090Y48260D01*
X339003Y32910D02*
X577740D01*
X536685Y8910D02*
X753215D01*
X754465Y10160D01*
X535435D02*
X536685Y8910D01*
X330200Y41713D02*
X339003Y32910D01*
X496570Y10160D02*
X535435D01*
X754465D02*
X944880D01*
X841790Y28160D02*
X1127957D01*
X1130300Y30503D02*
Y52070D01*
X1127957Y28160D02*
X1130300Y30503D01*
X836560Y33390D02*
X841790Y28160D01*
X337666Y140396D02*
X352076D01*
X332011Y146050D02*
X337666Y140396D01*
X331470Y146050D02*
X332011D01*
X328955Y128267D02*
X351883D01*
X322580Y134620D02*
X322603D01*
X328955Y128267D01*
X326529Y112891D02*
X330200Y109220D01*
X316176Y112891D02*
X326529D01*
X337820Y224812D02*
X340163Y227155D01*
X349935D02*
X352380Y229600D01*
X340163Y227155D02*
X349935D01*
X337820Y172720D02*
Y224812D01*
X118110Y293370D02*
X129540Y304800D01*
X106575Y293370D02*
X118110D01*
X796290Y307143D02*
Y597987D01*
X322580Y593330D02*
X786327D01*
X297180Y600330D02*
X793947D01*
X292520Y595670D02*
X297180Y600330D01*
X788670Y328943D02*
Y590987D01*
X786327Y593330D02*
X788670Y590987D01*
X317920Y588670D02*
X322580Y593330D01*
X793947Y600330D02*
X796290Y597987D01*
X412870Y636270D02*
X413120D01*
X416560Y639710D01*
Y657860D01*
X427870Y636270D02*
X450850D01*
X210317Y632843D02*
X228217D01*
X209430Y633730D02*
X210317Y632843D01*
X228217D02*
X228600Y632460D01*
X194430Y633730D02*
Y645280D01*
X205740Y656590D01*
X642620Y749300D02*
Y791210D01*
X601783Y744220D02*
X637540D01*
X642620Y749300D01*
X599440Y741877D02*
X601783Y744220D01*
X599440Y726440D02*
Y741877D01*
X596900Y723900D02*
X599440Y726440D01*
X584200Y723900D02*
X596900D01*
X521970Y725170D02*
X582930D01*
X584200Y723900D01*
X519430Y722630D02*
X521970Y725170D01*
X207010Y753110D02*
X209550Y755650D01*
X204470Y750570D02*
X207010Y753110D01*
X478790Y709810D02*
Y730370D01*
X458273Y745370D02*
X478790D01*
X455930Y736600D02*
Y743027D01*
X458273Y745370D01*
X379483Y709930D02*
X478790D01*
X553633Y86250D02*
X742524D01*
X549910Y89973D02*
X553633Y86250D01*
X742524D02*
X750254Y93980D01*
X368300Y128270D02*
X381000D01*
X620290Y106188D02*
X626307D01*
X617169Y103067D02*
X620290Y106188D01*
X628650Y108532D02*
Y129540D01*
X617169Y98883D02*
Y103067D01*
X626307Y106188D02*
X628650Y108532D01*
X614724Y96438D02*
X617169Y98883D01*
X565150Y129540D02*
X628650D01*
X565150Y125468D02*
Y129540D01*
X564524Y128914D02*
X565150Y129540D01*
X561340Y98863D02*
Y121657D01*
Y98863D02*
X563683Y96520D01*
X572890D01*
X365760Y130810D02*
X368300Y128270D01*
X365760Y130810D02*
Y176342D01*
X551095Y128914D02*
X564524D01*
X352265Y178685D02*
X363417D01*
X365760Y176342D01*
X561340Y121657D02*
X565150Y125468D01*
X550451Y128270D02*
X551095Y128914D01*
X549910Y128270D02*
X550451D01*
X546114Y248360D02*
Y248393D01*
X551381Y253660D01*
X559869D01*
X492760Y129343D02*
Y256357D01*
X469900Y123190D02*
Y264357D01*
Y123190D02*
X480060Y113030D01*
X530740Y55880D02*
X543560D01*
X539947Y89900D02*
X542290Y87557D01*
Y76200D02*
Y87557D01*
X530377Y64287D02*
X542290Y76200D01*
X527380Y89900D02*
X539947D01*
X530377Y56243D02*
Y64287D01*
Y56243D02*
X530627D01*
X102750Y337820D02*
X102870Y337700D01*
Y330200D02*
Y337700D01*
X97790Y325120D02*
X102870Y330200D01*
X71120Y320040D02*
X95101D01*
X97790Y319789D02*
Y325120D01*
X96571Y318570D02*
X97790Y319789D01*
X95101Y320040D02*
X96571Y318570D01*
X495103Y127000D02*
X526380D01*
X492760Y129343D02*
X495103Y127000D01*
X526380D02*
X527265Y127885D01*
X729242Y256540D02*
X734111Y251671D01*
X734257D01*
X736600Y235330D02*
Y249328D01*
X734257Y251671D02*
X736600Y249328D01*
X725170Y256540D02*
X729242D01*
X725170Y238153D02*
Y256540D01*
X661670D02*
X725170D01*
X722827Y235810D02*
X725170Y238153D01*
X709228Y235810D02*
X722827D01*
X736220Y234950D02*
X736600Y235330D01*
X706025Y232607D02*
X709228Y235810D01*
X703580Y226060D02*
X706025Y228505D01*
Y232607D01*
X661670Y228600D02*
Y256540D01*
X664210Y226060D02*
X669410D01*
X661670Y228600D02*
X664210Y226060D01*
X352265Y204085D02*
X392274D01*
X393159Y203200D02*
X393700D01*
X392274Y204085D02*
X393159Y203200D01*
X883146Y80900D02*
X889774D01*
X855330Y81930D02*
X882116D01*
X883146Y80900D01*
X796290Y189273D02*
Y205740D01*
X793947Y186930D02*
X796290Y189273D01*
X784210Y81930D02*
X855330D01*
X781050Y85090D02*
X784210Y81930D01*
X781050Y85090D02*
Y186930D01*
X861060Y46990D02*
Y76200D01*
X855330Y81930D02*
X861060Y76200D01*
X781050Y186930D02*
X793947D01*
X484757Y57913D02*
X485140Y57530D01*
X484757Y57913D02*
Y76973D01*
X484330Y77400D02*
X484757Y76973D01*
X148590Y104140D02*
X151130Y106680D01*
Y115690D01*
X129540Y101600D02*
X132080Y104140D01*
X148590D01*
X129540Y54610D02*
Y101600D01*
X273050Y320560D02*
X273050Y320560D01*
X273028Y258538D02*
X273050Y258560D01*
X309700Y230998D02*
X309798Y231096D01*
X290669Y231061D02*
X290830Y230900D01*
X273006Y231222D02*
X273167Y231061D01*
X290830Y230900D02*
X290928Y230998D01*
X552070Y144400D02*
X582930D01*
X854710Y220980D02*
X949787D01*
X952350Y218417D01*
Y172720D02*
Y218417D01*
X548255Y140585D02*
X552070Y144400D01*
X527265Y140585D02*
X548255D01*
X754031Y303530D02*
X764660D01*
X752761Y302260D02*
X754031Y303530D01*
X752220Y302260D02*
X752761D01*
X545151Y284480D02*
X562610D01*
X542808Y282137D02*
X545151Y284480D01*
X542808Y269240D02*
Y282137D01*
X525110Y113030D02*
X527265Y115185D01*
X480060Y113030D02*
X525110D01*
X496743Y77112D02*
X496915Y77285D01*
X496743Y41702D02*
Y77112D01*
X496570Y41530D02*
X496743Y41702D01*
X630183Y617603D02*
X631190Y618610D01*
X611253Y617603D02*
X630183D01*
X610870Y617220D02*
X611253Y617603D01*
X352076Y140396D02*
X352265Y140585D01*
X508000Y217170D02*
X508135Y217035D01*
X527245D02*
X527380Y216900D01*
X508135Y217035D02*
X527245D01*
X180340Y84893D02*
Y114540D01*
Y84893D02*
X182683Y82550D01*
X217170D01*
X1047750Y231140D02*
X1054050Y224840D01*
X842010Y231140D02*
X1047750D01*
X1054050Y172720D02*
Y224840D01*
X567149Y152400D02*
X567690D01*
X527265Y153285D02*
X566264D01*
X567149Y152400D01*
X303727Y33020D02*
X306070Y35363D01*
X110293Y33020D02*
X303727D01*
X306070Y151130D02*
Y170180D01*
Y35363D02*
Y151130D01*
X107950Y35363D02*
X110293Y33020D01*
X107950Y35363D02*
Y64770D01*
X335280Y170180D02*
X337820Y172720D01*
X306070Y170180D02*
X335280D01*
X96520Y67310D02*
X105410D01*
X96495Y67336D02*
Y83994D01*
X96469Y84020D02*
X96495Y83994D01*
Y67336D02*
X96520Y67310D01*
X105410D02*
X106675Y66045D01*
X107950Y64770D01*
X237490Y73660D02*
Y91440D01*
X231020Y97910D02*
X237490Y91440D01*
X509541Y204200D02*
X527380D01*
X508541Y203200D02*
X509541Y204200D01*
X508000Y203200D02*
X508541D01*
X217170Y97910D02*
X231020D01*
X764540Y78740D02*
X768350Y74930D01*
X831850D01*
X835660Y46990D02*
Y71120D01*
X831850Y74930D02*
X835660Y71120D01*
Y46990D02*
X836560Y46090D01*
Y33390D02*
Y46090D01*
X750254Y93980D02*
X750570D01*
X548457Y102485D02*
X549910Y101032D01*
Y89973D02*
Y101032D01*
X527265Y102485D02*
X548457D01*
X351883Y128267D02*
X352265Y127885D01*
X711200Y96520D02*
X713435Y98755D01*
X715779Y106270D02*
X723900D01*
X713435Y98755D02*
Y103927D01*
X715779Y106270D01*
X651510Y114598D02*
Y127000D01*
Y114598D02*
X651808Y114300D01*
X662940Y129540D02*
X726440D01*
Y108810D02*
Y129540D01*
X723900Y106270D02*
X726440Y108810D01*
X661665Y128265D02*
X662940Y129540D01*
X651510Y127000D02*
X652775Y128265D01*
X661665D01*
X352265Y191385D02*
X388817D01*
X391160Y189042D01*
Y114300D02*
Y189042D01*
X1101090Y240030D02*
X1104900Y236220D01*
X834390Y240030D02*
X1101090D01*
X567320Y165409D02*
X567702Y165026D01*
X527959Y165291D02*
X528076Y165409D01*
X567320D01*
X1104850Y172720D02*
X1104900Y172770D01*
Y236220D01*
X394970Y64530D02*
X395143Y64703D01*
Y77112D01*
X395430Y77400D01*
X101480Y132080D02*
X116840D01*
X330956Y120077D02*
X335656Y115378D01*
X330415Y120077D02*
X330956D01*
X335656Y115378D02*
X352072D01*
X352265Y115185D01*
X559869Y253660D02*
X562749Y256540D01*
X565150D01*
X686950Y744100D02*
X698500D01*
X684530Y741680D02*
X686950Y744100D01*
X684530Y732593D02*
Y741680D01*
X682187Y730250D02*
X684530Y732593D01*
X656590Y730250D02*
X682187D01*
X631190Y633610D02*
Y654050D01*
X694690D02*
X698500Y657860D01*
X656590Y654050D02*
X694690D01*
X697290Y698560D02*
X698500Y697350D01*
X584140Y698560D02*
X697290D01*
X582930Y699770D02*
X584140Y698560D01*
X209550Y755650D02*
Y792480D01*
X396240Y768350D02*
X428187D01*
X430530Y770693D02*
Y792480D01*
X428187Y768350D02*
X430530Y770693D01*
X367030Y726440D02*
X368300Y725170D01*
X367030Y726440D02*
Y734060D01*
X369570Y736600D01*
X389890D01*
X392430Y739140D01*
Y741680D02*
Y764540D01*
X396240Y768350D01*
X308610Y725170D02*
X368300D01*
X307340Y723900D02*
X308610Y725170D01*
X87630Y723900D02*
X88900Y725170D01*
X151130D01*
X153473Y727513D01*
Y734060D01*
X166370D01*
X168910Y736600D01*
Y746760D01*
X172720Y750570D01*
X204470D01*
X369324Y699770D02*
X379483Y709930D01*
X368300Y699770D02*
X369324D01*
X453390Y734060D02*
X455930Y736600D01*
X441960Y734060D02*
X453390D01*
X477520Y657860D02*
X481330Y654050D01*
X441960Y657860D02*
X477520D01*
X571490Y226060D02*
X571740D01*
X352458Y216978D02*
X393507D01*
X393700Y217170D01*
X628650Y238268D02*
Y256540D01*
X565150D02*
X628650D01*
X626110Y235728D02*
X628650Y238268D01*
X610450Y235728D02*
X626110D01*
X608107Y233385D02*
X610450Y235728D01*
X608107Y228252D02*
Y233385D01*
X605834Y225978D02*
X608107Y228252D01*
X352265Y216785D02*
X352458Y216978D01*
X477520Y482600D02*
X480060Y485140D01*
X542610D01*
X544560Y483190D01*
X546510Y485140D01*
X615950Y433070D02*
Y482797D01*
X613607Y485140D02*
X615950Y482797D01*
X546510Y485140D02*
X613607D01*
X615950Y433070D02*
X619760Y429260D01*
X642300D01*
X643890Y430850D01*
X324640Y437370D02*
X350030D01*
X353060Y434340D01*
X779660Y323850D02*
X782410Y326600D01*
X786327D02*
X788670Y328943D01*
X782410Y326600D02*
X786327D01*
X317920Y570400D02*
Y588670D01*
X780930Y304800D02*
X793947D01*
X796290Y307143D01*
X779660Y303530D02*
X780930Y304800D01*
X292520Y570400D02*
Y595670D01*
X330200Y41713D02*
Y109220D01*
X232410Y163289D02*
Y163830D01*
X229870Y160749D02*
X232410Y163289D01*
X229870Y146050D02*
Y160749D01*
X217230Y112970D02*
X297120D01*
X297180Y113030D01*
X217170Y112910D02*
X217230Y112970D01*
X202170Y112910D02*
X217170D01*
X627380Y374530D02*
Y383737D01*
X629723Y386080D01*
X633730D01*
X636270Y388620D01*
Y398370D01*
X636680Y398780D01*
X81400Y49530D02*
X83820D01*
X43740D02*
X81280D01*
X43180Y50090D02*
X43740Y49530D01*
X81280D02*
X81400Y49650D01*
Y67190D01*
X81520Y67310D01*
X86573Y109113D02*
X86665Y109020D01*
X86573Y109113D02*
Y131987D01*
X86480Y132080D02*
X86573Y131987D01*
X106680Y109728D02*
Y120459D01*
X109411Y123190D01*
X127000D01*
X105918Y108966D02*
X106680Y109728D01*
X106375Y293570D02*
X106575Y293370D01*
X63500Y132080D02*
X86480D01*
X63500Y264160D02*
X100330D01*
X102750Y274320D02*
X102870Y274200D01*
Y266700D02*
Y274200D01*
X100330Y264160D02*
X102870Y266700D01*
X87436Y274634D02*
X87750Y274320D01*
X87436Y274634D02*
Y293310D01*
X87122Y293624D02*
X87436Y293310D01*
X87750Y337820D02*
Y337880D01*
X87690D02*
X87750Y337820D01*
X87690Y337880D02*
Y356810D01*
X87630Y356870D02*
X87690Y356810D01*
X42060Y356870D02*
X87630D01*
X41910Y357020D02*
X42060Y356870D01*
D93*
X201886Y231222D02*
Y251264D01*
X203830Y349250D02*
X292100D01*
X87630Y613410D02*
Y617220D01*
Y530565D02*
Y613410D01*
X292100Y354330D02*
Y396240D01*
Y349250D02*
X306070Y335280D01*
Y269825D02*
Y335280D01*
X292100Y349250D02*
Y354330D01*
X302555Y266310D02*
X306070Y269825D01*
X298550Y266310D02*
X302555D01*
X477520Y353060D02*
X519430D01*
X543560Y377190D01*
X196190Y318770D02*
X196720D01*
X200220Y314740D02*
Y315270D01*
X201690Y251460D02*
X208280Y258050D01*
Y306680D01*
X196720Y318770D02*
X200220Y315270D01*
Y314740D02*
X208280Y306680D01*
X307340Y613410D02*
X513572D01*
X519430Y619268D02*
Y697230D01*
X513572Y613410D02*
X519430Y619268D01*
X87630Y613410D02*
X307340D01*
Y698500D01*
X727004Y359454D02*
X727710Y360160D01*
X666832Y359454D02*
X727004D01*
X646512D02*
X666832D01*
X646435Y359530D02*
X646512Y359454D01*
X627380Y359530D02*
X646435D01*
X543560Y377190D02*
X561220Y359530D01*
X627380D01*
X290830Y489520D02*
Y521192D01*
X91145Y527050D02*
X284972D01*
X290830Y521192D01*
X76200Y617220D02*
X87630D01*
X67308Y608327D02*
X76200Y617220D01*
X41910Y608327D02*
X67308D01*
X87630Y617220D02*
Y662940D01*
X41910D02*
X87630D01*
Y698500D01*
X501650Y697230D02*
X519430D01*
X494030Y704850D02*
X501650Y697230D01*
X494030Y707390D02*
Y787400D01*
X497840Y791210D01*
X520700D01*
X63500Y787300D02*
X67015Y790815D01*
X85965D01*
X63500Y704850D02*
Y787300D01*
X85965Y790815D02*
X87630Y792480D01*
X305725Y789595D02*
X308610Y792480D01*
X284480Y784860D02*
X289215Y789595D01*
X284480Y704850D02*
Y784860D01*
X289215Y789595D02*
X305725D01*
X288290Y698500D02*
X307340D01*
X284480Y702310D02*
X288290Y698500D01*
X67310D02*
X87630D01*
X63500Y702310D02*
X67310Y698500D01*
X87630Y530565D02*
X91145Y527050D01*
X299230Y403370D02*
X324640D01*
X290830Y408940D02*
X296400Y403370D01*
X299230D01*
X292100Y396240D02*
X299230Y403370D01*
X192720Y338140D02*
X203830Y349250D01*
X296050Y263810D02*
X298550Y266310D01*
X296050Y258560D02*
Y263810D01*
X192720Y318770D02*
Y338140D01*
D94*
X241218Y208674D02*
X245905Y213360D01*
X259286D01*
X241218Y190456D02*
Y208674D01*
X499518Y96520D02*
X513200Y82837D01*
Y61059D02*
Y82837D01*
X409816Y96520D02*
X499518D01*
X405130Y101206D02*
Y228791D01*
Y101206D02*
X409816Y96520D01*
X764540Y201810D02*
Y214630D01*
X684530Y210820D02*
X724294D01*
X728980Y205740D02*
Y206134D01*
X724294Y210820D02*
X728980Y206134D01*
X684410Y210940D02*
Y211820D01*
Y226060D01*
Y211820D02*
X684530D01*
X1206500Y52070D02*
Y95250D01*
X1290714D01*
X1295400Y52070D02*
Y90564D01*
X1290714Y95250D02*
X1295400Y90564D01*
X1079450Y95250D02*
X1206500D01*
X911860D02*
X1079450D01*
X906236D02*
X911860D01*
X1079450D02*
Y172720D01*
X901550Y99936D02*
Y172720D01*
Y99936D02*
X906236Y95250D01*
X633730Y213360D02*
X635000Y214630D01*
X585470Y213360D02*
X633730D01*
X585470D02*
X586740Y214630D01*
X570230Y213360D02*
X585470D01*
X586740Y214630D02*
Y226060D01*
X567690Y17910D02*
X672220D01*
X673470Y19160D01*
X517595Y49375D02*
Y54025D01*
Y49375D02*
X525061Y41910D01*
X561340D02*
X567690Y48260D01*
X525061Y41910D02*
X561340D01*
X673470Y19160D02*
X778620D01*
X911860D01*
X778620D02*
X781050Y21590D01*
X405130Y228791D02*
X423989D01*
X405130D02*
Y237614D01*
X400444Y242300D02*
X405130Y237614D01*
X352380Y242300D02*
X400444D01*
X326390Y240915D02*
X327660Y242185D01*
X326390Y206616D02*
Y240915D01*
X321704Y201930D02*
X326390Y206616D01*
X295756Y201930D02*
X321704D01*
X327660Y242185D02*
X352265D01*
X291070Y170180D02*
Y197244D01*
X295756Y201930D01*
X309798Y231096D02*
X310103D01*
X310548Y231541D02*
Y238653D01*
X314081Y242185D02*
X327660D01*
X310103Y231096D02*
X310548Y231541D01*
Y238653D02*
X314081Y242185D01*
X259286Y213360D02*
X271061Y225135D01*
Y229277D01*
X273006Y231222D01*
X41910Y552450D02*
X59690D01*
X64770Y547370D01*
Y487680D02*
Y547370D01*
Y487680D02*
X74930Y477520D01*
X207220D01*
X314780Y454370D02*
X324640D01*
X301490Y477520D02*
X313280Y465730D01*
Y455870D02*
X314780Y454370D01*
X207220Y477520D02*
X301490D01*
X313280Y455870D02*
Y465730D01*
X685560Y96520D02*
X686310Y95770D01*
X690403D02*
X690923Y95250D01*
X698500D01*
X686310Y95770D02*
X690403D01*
X167419Y454660D02*
X206160D01*
X160020Y447261D02*
X167419Y454660D01*
X207220Y455720D02*
Y477520D01*
X764600Y201870D02*
X780990D01*
X567690Y48260D02*
Y63500D01*
X781050Y21590D02*
Y36830D01*
X273050Y258560D02*
Y320560D01*
X273167Y231061D02*
X290669D01*
X273028Y231243D02*
Y258538D01*
X290928Y230998D02*
X309700D01*
X273006Y231222D02*
X273028Y231243D01*
X513240Y58130D02*
Y61019D01*
Y58130D02*
X515490Y55880D01*
D95*
X241218Y190456D02*
X259086D01*
X423989Y228791D02*
X424180Y228600D01*
X780990Y201870D02*
X781050Y201930D01*
X764540Y201810D02*
X764600Y201870D01*
X587890Y96520D02*
X600710D01*
X513200Y61059D02*
X513240Y61019D01*
X515490Y55880D02*
X515740D01*
X527265Y165985D02*
X527959Y165291D01*
X270390Y744220D02*
X270510Y744100D01*
X249309Y744220D02*
X270390D01*
X246380Y741291D02*
X249309Y744220D01*
X246380Y734449D02*
Y741291D01*
X243451Y731520D02*
X246380Y734449D01*
X232410Y731520D02*
X243451D01*
X231140Y732790D02*
X232410Y731520D01*
X254000Y708271D02*
Y726171D01*
X256929Y729100D01*
X270510D01*
X269240Y712470D02*
X270510Y711200D01*
X259080Y712470D02*
X269240D01*
X257810Y711200D02*
X259080Y712470D01*
X256929Y711200D02*
X257810D01*
X254000Y708271D02*
X256929Y711200D01*
X254000Y702699D02*
Y708271D01*
X251071Y699770D02*
X254000Y702699D01*
X151130Y699770D02*
X251071D01*
D96*
X182880Y136673D02*
X184270Y138063D01*
X180340Y129540D02*
X182880Y132080D01*
X191403Y138063D02*
X191770Y138430D01*
X182880Y132080D02*
Y136673D01*
X184270Y138063D02*
X191403D01*
X322057Y26410D02*
X613883D01*
X618490Y31017D01*
X316230Y32237D02*
X322057Y26410D01*
X618490Y31017D02*
Y48260D01*
X316230Y32237D02*
Y99060D01*
D97*
X582930Y694690D02*
D03*
Y720090D02*
D03*
Y669290D02*
D03*
X151130Y725170D02*
D03*
Y699770D02*
D03*
Y674370D02*
D03*
X368300Y725170D02*
D03*
Y699770D02*
D03*
Y674370D02*
D03*
D98*
X1231850Y172720D02*
D03*
X1206450D02*
D03*
X1181050D02*
D03*
X1155650D02*
D03*
X1130250D02*
D03*
X1104850D02*
D03*
X977750D02*
D03*
X1054050D02*
D03*
X1003300D02*
D03*
X952350D02*
D03*
X1079450D02*
D03*
X1028550D02*
D03*
X926950D02*
D03*
X593090Y48260D02*
D03*
X618490D02*
D03*
X643890D02*
D03*
X41910Y527050D02*
D03*
Y637540D02*
D03*
Y582928D02*
D03*
D99*
X821300Y1015720D02*
D03*
X1310050Y1014970D02*
D03*
X656590Y654050D02*
D03*
Y730250D02*
D03*
X631190D02*
D03*
X526980Y1002030D02*
D03*
X576980D02*
D03*
X626980D02*
D03*
X146050D02*
D03*
X196050D02*
D03*
X96050D02*
D03*
X317500D02*
D03*
X367500D02*
D03*
X417500D02*
D03*
X231140Y656590D02*
D03*
Y732790D02*
D03*
X205740D02*
D03*
X441960Y657860D02*
D03*
Y734060D02*
D03*
X416560D02*
D03*
D100*
X901550Y172720D02*
D03*
X41910Y552450D02*
D03*
Y662940D02*
D03*
Y608327D02*
D03*
D101*
X661670Y256540D02*
D03*
X725170D02*
D03*
X661670Y307340D02*
D03*
X725170D02*
D03*
X565150Y129540D02*
D03*
X628650D02*
D03*
X565150Y180340D02*
D03*
X628650D02*
D03*
X662940Y129540D02*
D03*
X726440D02*
D03*
X662940Y180340D02*
D03*
X726440D02*
D03*
X565150Y256540D02*
D03*
X628650D02*
D03*
X565150Y307340D02*
D03*
X628650D02*
D03*
D102*
X698920Y570400D02*
D03*
X673520D02*
D03*
Y545000D02*
D03*
X648120Y570400D02*
D03*
Y545000D02*
D03*
X622720D02*
D03*
X597320Y570400D02*
D03*
Y545000D02*
D03*
X571920D02*
D03*
X546520Y570400D02*
D03*
Y545000D02*
D03*
X521120Y570400D02*
D03*
X495720D02*
D03*
Y545000D02*
D03*
X470320Y570400D02*
D03*
Y545000D02*
D03*
X444920D02*
D03*
X419520Y570400D02*
D03*
Y545000D02*
D03*
X394120Y570400D02*
D03*
Y545000D02*
D03*
X368720D02*
D03*
X343320Y570400D02*
D03*
Y545000D02*
D03*
X317920Y570400D02*
D03*
X292520D02*
D03*
Y545000D02*
D03*
X267120D02*
D03*
X241720Y570400D02*
D03*
Y545000D02*
D03*
X216320Y570400D02*
D03*
X317920Y545000D02*
D03*
X267120Y570400D02*
D03*
X368720D02*
D03*
X521120Y545000D02*
D03*
X444920Y570400D02*
D03*
X622720D02*
D03*
X571920D02*
D03*
X698920Y545000D02*
D03*
D103*
X216320D02*
D03*
D104*
X209550Y914400D02*
D03*
X148590Y767080D02*
D03*
X87630Y914400D02*
D03*
X209550Y792480D02*
D03*
X87630D02*
D03*
X430530Y914400D02*
D03*
X369570Y767080D02*
D03*
X308610Y914400D02*
D03*
X430530Y792480D02*
D03*
X308610D02*
D03*
X642620Y913130D02*
D03*
X581660Y765810D02*
D03*
X520700Y913130D02*
D03*
Y791210D02*
D03*
X642620D02*
D03*
D105*
X704850Y36830D02*
D03*
X730250D02*
D03*
X679450D02*
D03*
X755650D02*
D03*
X835660Y46990D02*
D03*
X861060D02*
D03*
X886460D02*
D03*
X1244600Y52070D02*
D03*
X1270000D02*
D03*
D106*
X781050Y36830D02*
D03*
X911860Y46990D02*
D03*
X1295400Y52070D02*
D03*
D107*
X160020Y447261D02*
D03*
X96520D02*
D03*
D108*
X134620Y396461D02*
D03*
D109*
X567690Y48260D02*
D03*
D110*
X631190Y654050D02*
D03*
X205740Y656590D02*
D03*
X416560Y657860D02*
D03*
D111*
X87630Y723900D02*
D03*
Y698500D02*
D03*
X307340Y723900D02*
D03*
Y698500D02*
D03*
X519430Y697230D02*
D03*
Y722630D02*
D03*
D112*
X1079500Y52070D02*
D03*
X1054100D02*
D03*
X1028700D02*
D03*
X1003300D02*
D03*
X977900D02*
D03*
X1130300D02*
D03*
X1155700D02*
D03*
X1104900D02*
D03*
X1181100D02*
D03*
D113*
X1206500D02*
D03*
D114*
X747620Y67700D02*
D03*
Y557700D02*
D03*
X167620D02*
D03*
Y67700D02*
D03*
D115*
X245110Y231140D02*
D03*
X252730Y203200D02*
D03*
X651510Y74930D02*
D03*
Y97790D02*
D03*
X886460Y88900D02*
D03*
X505460Y673100D02*
D03*
X324640Y336550D02*
D03*
X292100Y674370D02*
D03*
X281940Y337310D02*
D03*
X196850Y294640D02*
D03*
X223520Y176530D02*
D03*
X215900Y165100D02*
D03*
X124460Y218440D02*
D03*
Y203200D02*
D03*
X168910Y132080D02*
D03*
X191770Y138430D02*
D03*
X754380Y173990D02*
D03*
X763270Y334010D02*
D03*
X166370Y270960D02*
D03*
X111760Y228600D02*
D03*
X116840Y320040D02*
D03*
X292100Y354330D02*
D03*
X764540Y214630D02*
D03*
X728980Y205740D02*
D03*
X546100Y203200D02*
D03*
X684530Y211820D02*
D03*
X556260Y241300D02*
D03*
X477520Y353060D02*
D03*
X966470Y111760D02*
D03*
X995680Y116840D02*
D03*
X911860Y95250D02*
D03*
X634249Y194820D02*
D03*
X570230Y213360D02*
D03*
X635000Y214630D02*
D03*
X567690Y17910D02*
D03*
X496570Y10160D02*
D03*
X911860Y19160D02*
D03*
X331470Y146050D02*
D03*
X322580Y134620D02*
D03*
X316176Y112891D02*
D03*
X424180Y228600D02*
D03*
X129540Y304800D02*
D03*
X450850Y636270D02*
D03*
X228600Y632460D02*
D03*
X290830Y489520D02*
D03*
X381000Y128270D02*
D03*
X549910D02*
D03*
X546114Y248360D02*
D03*
X492760Y256357D02*
D03*
X469900Y264357D02*
D03*
X543560Y55880D02*
D03*
X71120Y320040D02*
D03*
X736220Y234950D02*
D03*
X393700Y203200D02*
D03*
X796290Y205740D02*
D03*
X485140Y57530D02*
D03*
X129540Y54610D02*
D03*
X698500Y95250D02*
D03*
X600710Y96520D02*
D03*
X567690Y63500D02*
D03*
X582930Y144400D02*
D03*
X854710Y220980D02*
D03*
X752220Y302260D02*
D03*
X562610Y284480D02*
D03*
X542808Y269240D02*
D03*
X496570Y41530D02*
D03*
X944880Y10160D02*
D03*
X610870Y617220D02*
D03*
X508000Y217170D02*
D03*
X217170Y82550D02*
D03*
X842010Y231140D02*
D03*
X567690Y152400D02*
D03*
X237490Y73660D02*
D03*
X508000Y203200D02*
D03*
X750570Y93980D02*
D03*
X651808Y114300D02*
D03*
X391160D02*
D03*
X834390Y240030D02*
D03*
X567702Y165026D02*
D03*
X394970Y64530D02*
D03*
X116840Y132080D02*
D03*
X330415Y120077D02*
D03*
X393700Y217170D02*
D03*
X290830Y408940D02*
D03*
X63500Y264160D02*
D03*
X232410Y163830D02*
D03*
X316230Y99060D02*
D03*
X297180Y113030D02*
D03*
X217170Y123910D02*
D03*
X127000Y123190D02*
D03*
X63500Y132080D02*
D03*
D116*
X74022Y224692D02*
D03*
Y180692D02*
D03*
M02*
