G04*
G04 #@! TF.GenerationSoftware,Altium Limited,Altium Designer,25.5.2 (35)*
G04*
G04 Layer_Physical_Order=2*
G04 Layer_Color=16711680*
%FSLAX44Y44*%
%MOMM*%
G71*
G04*
G04 #@! TF.SameCoordinates,15FE918A-F286-447B-A6B9-73AEC13AD3D3*
G04*
G04*
G04 #@! TF.FilePolarity,Positive*
G04*
G01*
G75*
%ADD92C,0.4000*%
%ADD93C,1.0000*%
%ADD94C,0.8000*%
%ADD95C,0.5000*%
%ADD96C,0.3000*%
%ADD97O,2.5400X1.6764*%
%ADD98C,1.5000*%
%ADD99C,1.5240*%
%ADD100R,1.5000X1.5000*%
%ADD101C,1.9050*%
%ADD102C,1.5300*%
%ADD103R,1.5300X1.5300*%
%ADD104C,3.0480*%
%ADD105C,1.5200*%
%ADD106R,1.5200X1.5200*%
%ADD107R,2.5400X4.0640*%
%ADD108R,4.0640X2.5400*%
%ADD109R,1.5000X1.5000*%
%ADD111R,1.8000X1.8000*%
%ADD112C,1.7780*%
%ADD113R,1.7780X1.7780*%
%ADD114C,2.7500*%
%ADD115C,0.6000*%
%ADD116C,1.2000*%
%ADD117C,2.0000*%
%ADD118R,1.5240X2.0320*%
%ADD119O,1.5240X2.0320*%
G36*
X1358891Y2549D02*
X839495D01*
X839323Y2965D01*
X838911Y4549D01*
X839710Y5745D01*
X840044Y7423D01*
Y38090D01*
X841739Y39068D01*
X843582Y40911D01*
X844885Y43169D01*
X845560Y45687D01*
Y48293D01*
X844885Y50811D01*
X843582Y53069D01*
X841739Y54912D01*
X840121Y55846D01*
X840657Y57846D01*
X856676D01*
Y55890D01*
X854981Y54912D01*
X853138Y53069D01*
X851835Y50811D01*
X851160Y48293D01*
Y45687D01*
X851835Y43169D01*
X853138Y40911D01*
X854981Y39068D01*
X857239Y37765D01*
X859757Y37090D01*
X862363D01*
X864881Y37765D01*
X867139Y39068D01*
X868982Y40911D01*
X870285Y43169D01*
X870960Y45687D01*
Y48293D01*
X870285Y50811D01*
X868982Y53069D01*
X867139Y54912D01*
X865444Y55890D01*
Y59887D01*
X865110Y61565D01*
X864160Y62987D01*
X861817Y65330D01*
X860395Y66280D01*
X858717Y66614D01*
X824230D01*
X822552Y66280D01*
X821130Y65330D01*
X817320Y61520D01*
X816369Y60098D01*
X816036Y58420D01*
Y16464D01*
X735226D01*
X734634Y17056D01*
Y27930D01*
X736329Y28908D01*
X738172Y30751D01*
X739475Y33009D01*
X740150Y35527D01*
Y38133D01*
X739475Y40651D01*
X738172Y42909D01*
X736329Y44752D01*
X734071Y46055D01*
X731553Y46730D01*
X728947D01*
X726429Y46055D01*
X724171Y44752D01*
X722328Y42909D01*
X721025Y40651D01*
X720350Y38133D01*
Y35527D01*
X721025Y33009D01*
X722328Y30751D01*
X724171Y28908D01*
X725866Y27930D01*
Y15240D01*
X726199Y13562D01*
X727150Y12140D01*
X727978Y11312D01*
X727212Y9464D01*
X709234D01*
Y27930D01*
X710929Y28908D01*
X712772Y30751D01*
X714075Y33009D01*
X714750Y35527D01*
Y38133D01*
X714075Y40651D01*
X712772Y42909D01*
X710929Y44752D01*
X708671Y46055D01*
X706153Y46730D01*
X703547D01*
X701029Y46055D01*
X698771Y44752D01*
X696928Y42909D01*
X695625Y40651D01*
X694950Y38133D01*
Y35527D01*
X695625Y33009D01*
X696928Y30751D01*
X698771Y28908D01*
X700466Y27930D01*
Y7423D01*
X700799Y5745D01*
X701599Y4549D01*
X701188Y2965D01*
X701015Y2549D01*
X2549D01*
X2549Y1050281D01*
X1358891Y1050281D01*
Y2549D01*
D02*
G37*
%LPC*%
G36*
X823004Y1033020D02*
X819596D01*
X816254Y1032355D01*
X813105Y1031051D01*
X810272Y1029158D01*
X807862Y1026748D01*
X805969Y1023915D01*
X804665Y1020766D01*
X804000Y1017424D01*
Y1014016D01*
X804665Y1010674D01*
X805969Y1007525D01*
X807862Y1004692D01*
X810272Y1002282D01*
X813105Y1000389D01*
X816254Y999085D01*
X819596Y998420D01*
X823004D01*
X826346Y999085D01*
X829495Y1000389D01*
X832328Y1002282D01*
X834738Y1004692D01*
X836631Y1007525D01*
X837935Y1010674D01*
X838600Y1014016D01*
Y1017424D01*
X837935Y1020766D01*
X836631Y1023915D01*
X834738Y1026748D01*
X832328Y1029158D01*
X829495Y1031051D01*
X826346Y1032355D01*
X823004Y1033020D01*
D02*
G37*
G36*
X1311754Y1032270D02*
X1308346D01*
X1305004Y1031605D01*
X1301855Y1030301D01*
X1299022Y1028408D01*
X1296612Y1025998D01*
X1294719Y1023165D01*
X1293415Y1020016D01*
X1292750Y1016674D01*
Y1013266D01*
X1293415Y1009924D01*
X1294719Y1006775D01*
X1296612Y1003942D01*
X1299022Y1001532D01*
X1301855Y999639D01*
X1305004Y998335D01*
X1308346Y997670D01*
X1311754D01*
X1315096Y998335D01*
X1318245Y999639D01*
X1321078Y1001532D01*
X1323488Y1003942D01*
X1325381Y1006775D01*
X1326685Y1009924D01*
X1327350Y1013266D01*
Y1016674D01*
X1326685Y1020016D01*
X1325381Y1023165D01*
X1323488Y1025998D01*
X1321078Y1028408D01*
X1318245Y1030301D01*
X1315096Y1031605D01*
X1311754Y1032270D01*
D02*
G37*
G36*
X417500Y1014436D02*
X414289Y1014013D01*
X411297Y1012774D01*
X408727Y1010803D01*
X406756Y1008233D01*
X405517Y1005241D01*
X405094Y1002030D01*
X405517Y998819D01*
X406756Y995827D01*
X408727Y993258D01*
X418124Y983861D01*
Y926799D01*
X416906Y925581D01*
X414986Y922708D01*
X413664Y919516D01*
X412990Y916127D01*
Y912673D01*
X413664Y909284D01*
X414986Y906092D01*
X416906Y903219D01*
X419349Y900776D01*
X422222Y898856D01*
X425414Y897534D01*
X428802Y896860D01*
X432257D01*
X435646Y897534D01*
X438838Y898856D01*
X441711Y900776D01*
X444154Y903219D01*
X446074Y906092D01*
X447396Y909284D01*
X448070Y912673D01*
Y916127D01*
X447396Y919516D01*
X446074Y922708D01*
X444154Y925581D01*
X442936Y926799D01*
Y989000D01*
X442513Y992211D01*
X441274Y995203D01*
X439302Y997773D01*
X426273Y1010803D01*
X423703Y1012774D01*
X420711Y1014013D01*
X417500Y1014436D01*
D02*
G37*
G36*
X317500D02*
X314289Y1014013D01*
X311297Y1012774D01*
X308727Y1010803D01*
X299837Y1001913D01*
X297866Y999343D01*
X296627Y996351D01*
X296204Y993140D01*
Y926799D01*
X294986Y925581D01*
X293066Y922708D01*
X291744Y919516D01*
X291070Y916127D01*
Y912673D01*
X291744Y909284D01*
X293066Y906092D01*
X294986Y903219D01*
X297429Y900776D01*
X300302Y898856D01*
X303494Y897534D01*
X306882Y896860D01*
X310338D01*
X313726Y897534D01*
X316918Y898856D01*
X319791Y900776D01*
X322234Y903219D01*
X324154Y906092D01*
X325476Y909284D01*
X326150Y912673D01*
Y916127D01*
X325476Y919516D01*
X324154Y922708D01*
X322234Y925581D01*
X321016Y926799D01*
Y988001D01*
X326273Y993258D01*
X328244Y995827D01*
X329483Y998819D01*
X329906Y1002030D01*
X329483Y1005241D01*
X328244Y1008233D01*
X326273Y1010803D01*
X323703Y1012774D01*
X320711Y1014013D01*
X317500Y1014436D01*
D02*
G37*
G36*
X196050D02*
X192839Y1014013D01*
X189847Y1012774D01*
X187278Y1010803D01*
X185306Y1008233D01*
X184067Y1005241D01*
X183644Y1002030D01*
X184067Y998819D01*
X185306Y995827D01*
X187278Y993258D01*
X197144Y983391D01*
Y926799D01*
X195926Y925581D01*
X194006Y922708D01*
X192684Y919516D01*
X192010Y916127D01*
Y912673D01*
X192684Y909284D01*
X194006Y906092D01*
X195926Y903219D01*
X198369Y900776D01*
X201242Y898856D01*
X204434Y897534D01*
X207822Y896860D01*
X211278D01*
X214666Y897534D01*
X217858Y898856D01*
X220731Y900776D01*
X223174Y903219D01*
X225094Y906092D01*
X226416Y909284D01*
X227090Y912673D01*
Y916127D01*
X226416Y919516D01*
X225094Y922708D01*
X223174Y925581D01*
X221956Y926799D01*
Y988530D01*
X221533Y991741D01*
X220294Y994733D01*
X218323Y997302D01*
X204823Y1010803D01*
X202253Y1012774D01*
X199261Y1014013D01*
X196050Y1014436D01*
D02*
G37*
G36*
X96050D02*
X92839Y1014013D01*
X89847Y1012774D01*
X87277Y1010803D01*
X78857Y1002383D01*
X76886Y999813D01*
X75647Y996821D01*
X75224Y993610D01*
Y926799D01*
X74006Y925581D01*
X72086Y922708D01*
X70764Y919516D01*
X70090Y916127D01*
Y912673D01*
X70764Y909284D01*
X72086Y906092D01*
X74006Y903219D01*
X76449Y900776D01*
X79322Y898856D01*
X82514Y897534D01*
X85903Y896860D01*
X89358D01*
X92746Y897534D01*
X95938Y898856D01*
X98811Y900776D01*
X101254Y903219D01*
X103174Y906092D01*
X104496Y909284D01*
X105170Y912673D01*
Y916127D01*
X104496Y919516D01*
X103174Y922708D01*
X101254Y925581D01*
X100036Y926799D01*
Y988471D01*
X104823Y993258D01*
X106794Y995827D01*
X108033Y998819D01*
X108456Y1002030D01*
X108033Y1005241D01*
X106794Y1008233D01*
X104823Y1010803D01*
X102253Y1012774D01*
X99261Y1014013D01*
X96050Y1014436D01*
D02*
G37*
G36*
X626980D02*
X623769Y1014013D01*
X620777Y1012774D01*
X618208Y1010803D01*
X616236Y1008233D01*
X614997Y1005241D01*
X614574Y1002030D01*
X614997Y998819D01*
X616236Y995827D01*
X618208Y993258D01*
X630214Y981251D01*
Y925529D01*
X628996Y924311D01*
X627076Y921438D01*
X625754Y918246D01*
X625080Y914857D01*
Y911403D01*
X625754Y908014D01*
X627076Y904822D01*
X628996Y901949D01*
X631439Y899506D01*
X634312Y897586D01*
X637504Y896264D01*
X640892Y895590D01*
X644348D01*
X647736Y896264D01*
X650928Y897586D01*
X653801Y899506D01*
X656244Y901949D01*
X658164Y904822D01*
X659486Y908014D01*
X660160Y911403D01*
Y914857D01*
X659486Y918246D01*
X658164Y921438D01*
X656244Y924311D01*
X655026Y925529D01*
Y986390D01*
X654603Y989601D01*
X653364Y992593D01*
X651393Y995163D01*
X635752Y1010803D01*
X633183Y1012774D01*
X630191Y1014013D01*
X626980Y1014436D01*
D02*
G37*
G36*
X526980D02*
X523769Y1014013D01*
X520777Y1012774D01*
X518208Y1010803D01*
X511927Y1004522D01*
X509956Y1001953D01*
X508717Y998961D01*
X508294Y995750D01*
Y925529D01*
X507076Y924311D01*
X505156Y921438D01*
X503834Y918246D01*
X503160Y914857D01*
Y911403D01*
X503834Y908014D01*
X505156Y904822D01*
X507076Y901949D01*
X509519Y899506D01*
X512392Y897586D01*
X515584Y896264D01*
X518973Y895590D01*
X522427D01*
X525816Y896264D01*
X529008Y897586D01*
X531881Y899506D01*
X534324Y901949D01*
X536244Y904822D01*
X537566Y908014D01*
X538240Y911403D01*
Y914857D01*
X537566Y918246D01*
X536244Y921438D01*
X534324Y924311D01*
X533106Y925529D01*
Y990611D01*
X535752Y993258D01*
X537724Y995827D01*
X538963Y998819D01*
X539386Y1002030D01*
X538963Y1005241D01*
X537724Y1008233D01*
X535752Y1010803D01*
X533183Y1012774D01*
X530191Y1014013D01*
X526980Y1014436D01*
D02*
G37*
G36*
X432257Y810020D02*
X428802D01*
X425414Y809346D01*
X422222Y808024D01*
X419349Y806104D01*
X416906Y803661D01*
X414986Y800788D01*
X413664Y797596D01*
X412990Y794208D01*
Y790752D01*
X413664Y787364D01*
X414986Y784172D01*
X416906Y781299D01*
X419349Y778856D01*
X422222Y776936D01*
X425414Y775614D01*
X428802Y774940D01*
X432257D01*
X435646Y775614D01*
X438838Y776936D01*
X441711Y778856D01*
X444154Y781299D01*
X446074Y784172D01*
X447396Y787364D01*
X448070Y790752D01*
Y794208D01*
X447396Y797596D01*
X446074Y800788D01*
X444154Y803661D01*
X441711Y806104D01*
X438838Y808024D01*
X435646Y809346D01*
X432257Y810020D01*
D02*
G37*
G36*
X310338D02*
X306882D01*
X303494Y809346D01*
X300302Y808024D01*
X297429Y806104D01*
X294986Y803661D01*
X293066Y800788D01*
X291744Y797596D01*
X291070Y794208D01*
Y790752D01*
X291744Y787364D01*
X293066Y784172D01*
X294986Y781299D01*
X297429Y778856D01*
X300302Y776936D01*
X303494Y775614D01*
X306882Y774940D01*
X310338D01*
X313726Y775614D01*
X316918Y776936D01*
X319791Y778856D01*
X322234Y781299D01*
X324154Y784172D01*
X325476Y787364D01*
X326150Y790752D01*
Y794208D01*
X325476Y797596D01*
X324154Y800788D01*
X322234Y803661D01*
X319791Y806104D01*
X316918Y808024D01*
X313726Y809346D01*
X310338Y810020D01*
D02*
G37*
G36*
X211278D02*
X207822D01*
X204434Y809346D01*
X201242Y808024D01*
X198369Y806104D01*
X195926Y803661D01*
X194006Y800788D01*
X192684Y797596D01*
X192010Y794208D01*
Y790752D01*
X192684Y787364D01*
X194006Y784172D01*
X195926Y781299D01*
X198369Y778856D01*
X201242Y776936D01*
X204434Y775614D01*
X207822Y774940D01*
X211278D01*
X214666Y775614D01*
X217858Y776936D01*
X220731Y778856D01*
X223174Y781299D01*
X225094Y784172D01*
X226416Y787364D01*
X227090Y790752D01*
Y794208D01*
X226416Y797596D01*
X225094Y800788D01*
X223174Y803661D01*
X220731Y806104D01*
X217858Y808024D01*
X214666Y809346D01*
X211278Y810020D01*
D02*
G37*
G36*
X89358D02*
X85903D01*
X82514Y809346D01*
X79322Y808024D01*
X76449Y806104D01*
X74006Y803661D01*
X72086Y800788D01*
X70764Y797596D01*
X70090Y794208D01*
Y790752D01*
X70764Y787364D01*
X72086Y784172D01*
X74006Y781299D01*
X76449Y778856D01*
X79322Y776936D01*
X82514Y775614D01*
X85903Y774940D01*
X89358D01*
X92746Y775614D01*
X95938Y776936D01*
X98811Y778856D01*
X101254Y781299D01*
X103174Y784172D01*
X104496Y787364D01*
X105170Y790752D01*
Y794208D01*
X104496Y797596D01*
X103174Y800788D01*
X101254Y803661D01*
X98811Y806104D01*
X95938Y808024D01*
X92746Y809346D01*
X89358Y810020D01*
D02*
G37*
G36*
X644348Y808750D02*
X640892D01*
X637504Y808076D01*
X634312Y806754D01*
X631439Y804834D01*
X628996Y802391D01*
X627076Y799518D01*
X625754Y796326D01*
X625080Y792937D01*
Y789482D01*
X625754Y786094D01*
X627076Y782902D01*
X628996Y780029D01*
X631439Y777586D01*
X634312Y775666D01*
X637504Y774344D01*
X640892Y773670D01*
X644348D01*
X647736Y774344D01*
X650928Y775666D01*
X653801Y777586D01*
X656244Y780029D01*
X658164Y782902D01*
X659486Y786094D01*
X660160Y789482D01*
Y792937D01*
X659486Y796326D01*
X658164Y799518D01*
X656244Y802391D01*
X653801Y804834D01*
X650928Y806754D01*
X647736Y808076D01*
X644348Y808750D01*
D02*
G37*
G36*
X522427D02*
X518973D01*
X515584Y808076D01*
X512392Y806754D01*
X509519Y804834D01*
X507076Y802391D01*
X505156Y799518D01*
X503834Y796326D01*
X503160Y792937D01*
Y789482D01*
X503834Y786094D01*
X505156Y782902D01*
X507076Y780029D01*
X509519Y777586D01*
X512392Y775666D01*
X515584Y774344D01*
X518973Y773670D01*
X522427D01*
X525816Y774344D01*
X529008Y775666D01*
X531881Y777586D01*
X534324Y780029D01*
X536244Y782902D01*
X537566Y786094D01*
X538240Y789482D01*
Y792937D01*
X537566Y796326D01*
X536244Y799518D01*
X534324Y802391D01*
X531881Y804834D01*
X529008Y806754D01*
X525816Y808076D01*
X522427Y808750D01*
D02*
G37*
G36*
X146050Y1014436D02*
X142839Y1014013D01*
X139847Y1012774D01*
X137277Y1010803D01*
X135306Y1008233D01*
X134067Y1005241D01*
X133644Y1002030D01*
X134067Y998819D01*
X135306Y995827D01*
X136184Y994683D01*
Y779479D01*
X134966Y778261D01*
X133046Y775388D01*
X131724Y772196D01*
X131050Y768808D01*
Y765352D01*
X131724Y761964D01*
X133046Y758772D01*
X134966Y755899D01*
X137409Y753456D01*
X140282Y751536D01*
X143474Y750214D01*
X146862Y749540D01*
X150317D01*
X153706Y750214D01*
X156898Y751536D01*
X159771Y753456D01*
X162214Y755899D01*
X164134Y758772D01*
X165456Y761964D01*
X166130Y765352D01*
Y768808D01*
X165456Y772196D01*
X164134Y775388D01*
X162214Y778261D01*
X160996Y779479D01*
Y999490D01*
X160573Y1002701D01*
X159334Y1005693D01*
X157362Y1008262D01*
X154823Y1010803D01*
X152253Y1012774D01*
X149261Y1014013D01*
X146050Y1014436D01*
D02*
G37*
G36*
X441960Y746606D02*
X439370Y746265D01*
X436957Y745265D01*
X434885Y743675D01*
X433295Y741603D01*
X432295Y739190D01*
X431954Y736600D01*
Y731520D01*
X432295Y728930D01*
X433295Y726517D01*
X434885Y724445D01*
X436957Y722855D01*
X439370Y721855D01*
X441960Y721514D01*
X444550Y721855D01*
X446963Y722855D01*
X449035Y724445D01*
X450625Y726517D01*
X451625Y728930D01*
X451966Y731520D01*
Y736600D01*
X451625Y739190D01*
X450625Y741603D01*
X449035Y743675D01*
X446963Y745265D01*
X444550Y746265D01*
X441960Y746606D01*
D02*
G37*
G36*
X367500Y1014436D02*
X364289Y1014013D01*
X361297Y1012774D01*
X358727Y1010803D01*
X356756Y1008233D01*
X355517Y1005241D01*
X355094Y1002030D01*
X355517Y998819D01*
X356756Y995827D01*
X357164Y995295D01*
Y779479D01*
X355946Y778261D01*
X354026Y775388D01*
X352704Y772196D01*
X352030Y768808D01*
Y765352D01*
X352704Y761964D01*
X354026Y758772D01*
X355946Y755899D01*
X358389Y753456D01*
X360099Y752313D01*
X359493Y750313D01*
X329905D01*
X327999Y750062D01*
X326223Y749326D01*
X324698Y748156D01*
X321184Y744642D01*
X320210Y743373D01*
X319914Y743076D01*
X318743Y741552D01*
X318008Y739776D01*
X317757Y737870D01*
Y735200D01*
X296040D01*
Y712600D01*
X317757D01*
Y710326D01*
X311803D01*
X309897Y710075D01*
X309234Y709800D01*
X296040D01*
Y687200D01*
X318640D01*
Y695600D01*
X321605D01*
X323511Y695851D01*
X325287Y696586D01*
X326812Y697756D01*
X330326Y701271D01*
X331497Y702796D01*
X332232Y704572D01*
X332483Y706477D01*
Y735089D01*
X332570Y735203D01*
X332955Y735587D01*
X356725D01*
X357404Y733587D01*
X356363Y732788D01*
X354651Y730557D01*
X353575Y727959D01*
X353208Y725170D01*
X353575Y722381D01*
X354651Y719783D01*
X356363Y717551D01*
X358595Y715839D01*
X361193Y714763D01*
X363982Y714396D01*
X372618D01*
X375407Y714763D01*
X378005Y715839D01*
X380237Y717551D01*
X381949Y719783D01*
X383025Y722381D01*
X383392Y725170D01*
X383025Y727959D01*
X381949Y730557D01*
X380237Y732788D01*
X379196Y733587D01*
X379875Y735587D01*
X404660D01*
X406554Y733692D01*
Y731520D01*
X406895Y728930D01*
X407895Y726517D01*
X409485Y724445D01*
X411557Y722855D01*
X413970Y721855D01*
X416560Y721514D01*
X419150Y721855D01*
X421563Y722855D01*
X423635Y724445D01*
X425225Y726517D01*
X426225Y728930D01*
X426566Y731520D01*
Y736600D01*
X426225Y739190D01*
X425225Y741603D01*
X423635Y743675D01*
X421563Y745265D01*
X419150Y746265D01*
X416560Y746606D01*
X414710Y746362D01*
X412916Y748156D01*
X411391Y749326D01*
X410351Y749757D01*
X409615Y750062D01*
X407710Y750313D01*
X379647D01*
X379041Y752313D01*
X380751Y753456D01*
X383194Y755899D01*
X385114Y758772D01*
X386436Y761964D01*
X387110Y765352D01*
Y768808D01*
X386436Y772196D01*
X385114Y775388D01*
X383194Y778261D01*
X381976Y779479D01*
Y999960D01*
X381553Y1003171D01*
X380314Y1006163D01*
X378343Y1008733D01*
X376273Y1010803D01*
X373703Y1012774D01*
X370711Y1014013D01*
X367500Y1014436D01*
D02*
G37*
G36*
X231140Y745336D02*
X228550Y744995D01*
X226137Y743995D01*
X224065Y742405D01*
X222475Y740333D01*
X221475Y737920D01*
X221134Y735330D01*
Y730250D01*
X221475Y727660D01*
X222475Y725247D01*
X224065Y723175D01*
X226137Y721585D01*
X228550Y720585D01*
X231140Y720244D01*
X233730Y720585D01*
X236143Y721585D01*
X238215Y723175D01*
X239805Y725247D01*
X240805Y727660D01*
X241146Y730250D01*
Y735330D01*
X240805Y737920D01*
X239805Y740333D01*
X238215Y742405D01*
X236143Y743995D01*
X233730Y744995D01*
X231140Y745336D01*
D02*
G37*
G36*
X205740D02*
X203150Y744995D01*
X200737Y743995D01*
X198665Y742405D01*
X197075Y740333D01*
X197000Y740153D01*
X187960D01*
X186054Y739902D01*
X184279Y739166D01*
X182754Y737996D01*
X177674Y732916D01*
X176504Y731392D01*
X175768Y729616D01*
X175517Y727710D01*
Y662683D01*
X161000D01*
X160602Y664683D01*
X160956Y664830D01*
X163238Y666580D01*
X164988Y668862D01*
X166089Y671519D01*
X166297Y673100D01*
X151130D01*
X135963D01*
X136171Y671519D01*
X137272Y668862D01*
X139022Y666580D01*
X141304Y664830D01*
X141658Y664683D01*
X141260Y662683D01*
X119123D01*
Y693420D01*
X118872Y695326D01*
X118567Y696061D01*
X118137Y697102D01*
X116966Y698626D01*
X113156Y702436D01*
X111631Y703606D01*
X110591Y704037D01*
X109856Y704342D01*
X107950Y704593D01*
X98930D01*
Y709800D01*
X76330D01*
Y687200D01*
X98930D01*
Y689867D01*
X104397D01*
Y659130D01*
X104648Y657224D01*
X104953Y656489D01*
X105384Y655449D01*
X106554Y653924D01*
X110364Y650114D01*
X111889Y648943D01*
X112929Y648513D01*
X113664Y648208D01*
X115570Y647957D01*
X179365D01*
X181271Y648208D01*
X183047Y648943D01*
X184572Y650114D01*
X188086Y653628D01*
X189256Y655153D01*
X189992Y656929D01*
X190243Y658835D01*
Y724660D01*
X191010Y725427D01*
X197000D01*
X197075Y725247D01*
X198665Y723175D01*
X200737Y721585D01*
X203150Y720585D01*
X205740Y720244D01*
X208330Y720585D01*
X210743Y721585D01*
X212815Y723175D01*
X214405Y725247D01*
X215405Y727660D01*
X215746Y730250D01*
Y735330D01*
X215405Y737920D01*
X214405Y740333D01*
X212815Y742405D01*
X210743Y743995D01*
X208330Y744995D01*
X205740Y745336D01*
D02*
G37*
G36*
X656590Y742796D02*
X654000Y742455D01*
X651587Y741455D01*
X649515Y739865D01*
X647925Y737793D01*
X646925Y735380D01*
X646584Y732790D01*
Y727710D01*
X646925Y725120D01*
X647925Y722707D01*
X649515Y720635D01*
X651587Y719045D01*
X654000Y718045D01*
X656590Y717704D01*
X659180Y718045D01*
X661593Y719045D01*
X663665Y720635D01*
X665255Y722707D01*
X666255Y725120D01*
X666596Y727710D01*
Y732790D01*
X666255Y735380D01*
X665255Y737793D01*
X663665Y739865D01*
X661593Y741455D01*
X659180Y742455D01*
X656590Y742796D01*
D02*
G37*
G36*
X576980Y1014436D02*
X573769Y1014013D01*
X570777Y1012774D01*
X568208Y1010803D01*
X566236Y1008233D01*
X564997Y1005241D01*
X564574Y1002030D01*
X564997Y998819D01*
X566236Y995827D01*
X568208Y993258D01*
X569254Y992211D01*
Y778209D01*
X568036Y776991D01*
X566116Y774118D01*
X564794Y770926D01*
X564120Y767538D01*
Y764082D01*
X564794Y760694D01*
X566116Y757502D01*
X568036Y754629D01*
X570479Y752186D01*
X573352Y750266D01*
X574543Y749773D01*
X574145Y747773D01*
X549418D01*
X547512Y747522D01*
X545736Y746786D01*
X544212Y745616D01*
X538354Y739759D01*
X537183Y738234D01*
X536753Y737193D01*
X536448Y736458D01*
X536197Y734552D01*
Y706138D01*
X534652Y704593D01*
X530730D01*
Y708530D01*
X508130D01*
Y685930D01*
X530730D01*
Y689867D01*
X537702D01*
X539608Y690118D01*
X541384Y690854D01*
X542909Y692024D01*
X548766Y697881D01*
X549936Y699406D01*
X550367Y700447D01*
X550672Y701182D01*
X550923Y703088D01*
Y731502D01*
X552468Y733047D01*
X618020D01*
X621184Y729882D01*
Y727710D01*
X621525Y725120D01*
X622525Y722707D01*
X624115Y720635D01*
X626187Y719045D01*
X628600Y718045D01*
X631190Y717704D01*
X633780Y718045D01*
X636193Y719045D01*
X638265Y720635D01*
X639855Y722707D01*
X640855Y725120D01*
X641196Y727710D01*
Y732790D01*
X640855Y735380D01*
X639855Y737793D01*
X638265Y739865D01*
X636193Y741455D01*
X633780Y742455D01*
X631190Y742796D01*
X629340Y742552D01*
X626276Y745616D01*
X624751Y746786D01*
X623711Y747217D01*
X622975Y747522D01*
X621070Y747773D01*
X589175D01*
X588777Y749773D01*
X589968Y750266D01*
X592841Y752186D01*
X595284Y754629D01*
X597204Y757502D01*
X598526Y760694D01*
X599200Y764082D01*
Y767538D01*
X598526Y770926D01*
X597204Y774118D01*
X595284Y776991D01*
X594066Y778209D01*
Y997350D01*
X593643Y1000561D01*
X592404Y1003553D01*
X590433Y1006123D01*
X585752Y1010803D01*
X583183Y1012774D01*
X580191Y1014013D01*
X576980Y1014436D01*
D02*
G37*
G36*
X155448Y735944D02*
X146812D01*
X144023Y735577D01*
X141425Y734501D01*
X139193Y732788D01*
X137481Y730557D01*
X136405Y727959D01*
X136038Y725170D01*
X136405Y722381D01*
X137481Y719783D01*
X139193Y717551D01*
X141425Y715839D01*
X144023Y714763D01*
X146812Y714396D01*
X155448D01*
X158237Y714763D01*
X160835Y715839D01*
X163067Y717551D01*
X164779Y719783D01*
X165855Y722381D01*
X166222Y725170D01*
X165855Y727959D01*
X164779Y730557D01*
X163067Y732788D01*
X160835Y734501D01*
X158237Y735577D01*
X155448Y735944D01*
D02*
G37*
G36*
X98930Y735200D02*
X76330D01*
Y712600D01*
X98930D01*
Y735200D01*
D02*
G37*
G36*
X530730Y733930D02*
X508130D01*
Y711330D01*
X530730D01*
Y733930D01*
D02*
G37*
G36*
X587248Y730864D02*
X578612D01*
X575823Y730497D01*
X573225Y729421D01*
X570993Y727709D01*
X569281Y725477D01*
X568205Y722879D01*
X567838Y720090D01*
X568205Y717301D01*
X569281Y714703D01*
X570993Y712471D01*
X573225Y710759D01*
X575823Y709683D01*
X578612Y709316D01*
X587248D01*
X590037Y709683D01*
X592635Y710759D01*
X594866Y712471D01*
X596579Y714703D01*
X597655Y717301D01*
X598022Y720090D01*
X597655Y722879D01*
X596579Y725477D01*
X594866Y727709D01*
X592635Y729421D01*
X590037Y730497D01*
X587248Y730864D01*
D02*
G37*
G36*
X372618Y710544D02*
X363982D01*
X361193Y710177D01*
X358595Y709101D01*
X356363Y707389D01*
X354651Y705157D01*
X353575Y702559D01*
X353208Y699770D01*
X353575Y696981D01*
X354651Y694383D01*
X356363Y692151D01*
X358595Y690439D01*
X361193Y689363D01*
X363982Y688996D01*
X372618D01*
X375407Y689363D01*
X378005Y690439D01*
X380237Y692151D01*
X381949Y694383D01*
X383025Y696981D01*
X383392Y699770D01*
X383025Y702559D01*
X381949Y705157D01*
X380237Y707389D01*
X378005Y709101D01*
X375407Y710177D01*
X372618Y710544D01*
D02*
G37*
G36*
X155448D02*
X146812D01*
X144023Y710177D01*
X141425Y709101D01*
X139193Y707389D01*
X137481Y705157D01*
X136405Y702559D01*
X136038Y699770D01*
X136405Y696981D01*
X137481Y694383D01*
X139193Y692151D01*
X141425Y690439D01*
X144023Y689363D01*
X146812Y688996D01*
X155448D01*
X158237Y689363D01*
X160835Y690439D01*
X163067Y692151D01*
X164779Y694383D01*
X165855Y696981D01*
X166222Y699770D01*
X165855Y702559D01*
X164779Y705157D01*
X163067Y707389D01*
X160835Y709101D01*
X158237Y710177D01*
X155448Y710544D01*
D02*
G37*
G36*
X587248Y705464D02*
X578612D01*
X575823Y705097D01*
X573225Y704021D01*
X570993Y702309D01*
X569281Y700077D01*
X568205Y697479D01*
X567838Y694690D01*
X568205Y691901D01*
X569281Y689303D01*
X570993Y687072D01*
X573225Y685359D01*
X575823Y684283D01*
X578612Y683916D01*
X587248D01*
X590037Y684283D01*
X592635Y685359D01*
X594866Y687072D01*
X596579Y689303D01*
X597655Y691901D01*
X598022Y694690D01*
X597655Y697479D01*
X596579Y700077D01*
X594866Y702309D01*
X592635Y704021D01*
X590037Y705097D01*
X587248Y705464D01*
D02*
G37*
G36*
X372618Y685386D02*
X369570D01*
Y675640D01*
X383467D01*
X383259Y677221D01*
X382158Y679878D01*
X380408Y682160D01*
X378126Y683910D01*
X375469Y685011D01*
X372618Y685386D01*
D02*
G37*
G36*
X155448D02*
X152400D01*
Y675640D01*
X166297D01*
X166089Y677221D01*
X164988Y679878D01*
X163238Y682160D01*
X160956Y683910D01*
X158299Y685011D01*
X155448Y685386D01*
D02*
G37*
G36*
X293370Y679840D02*
Y675640D01*
X297570D01*
X296797Y677508D01*
X295238Y679067D01*
X293370Y679840D01*
D02*
G37*
G36*
X290830D02*
X288962Y679067D01*
X287403Y677508D01*
X286630Y675640D01*
X290830D01*
Y679840D01*
D02*
G37*
G36*
X367030Y685386D02*
X363982D01*
X361131Y685011D01*
X358474Y683910D01*
X356192Y682160D01*
X354442Y679878D01*
X353341Y677221D01*
X353133Y675640D01*
X367030D01*
Y685386D01*
D02*
G37*
G36*
X149860D02*
X146812D01*
X143961Y685011D01*
X141304Y683910D01*
X139022Y682160D01*
X137272Y679878D01*
X136171Y677221D01*
X135963Y675640D01*
X149860D01*
Y685386D01*
D02*
G37*
G36*
X506730Y678570D02*
Y674370D01*
X510930D01*
X510157Y676238D01*
X508598Y677797D01*
X506730Y678570D01*
D02*
G37*
G36*
X504190D02*
X502322Y677797D01*
X500763Y676238D01*
X499990Y674370D01*
X504190D01*
Y678570D01*
D02*
G37*
G36*
X587248Y680306D02*
X584200D01*
Y670560D01*
X598097D01*
X597889Y672141D01*
X596788Y674798D01*
X595038Y677080D01*
X592756Y678830D01*
X590099Y679931D01*
X587248Y680306D01*
D02*
G37*
G36*
X581660D02*
X578612D01*
X575761Y679931D01*
X573104Y678830D01*
X570822Y677080D01*
X569072Y674798D01*
X567971Y672141D01*
X567763Y670560D01*
X581660D01*
Y680306D01*
D02*
G37*
G36*
X297570Y673100D02*
X293370D01*
Y668900D01*
X295238Y669673D01*
X296797Y671232D01*
X297570Y673100D01*
D02*
G37*
G36*
X290830D02*
X286630D01*
X287403Y671232D01*
X288962Y669673D01*
X290830Y668900D01*
Y673100D01*
D02*
G37*
G36*
X510930Y671830D02*
X506730D01*
Y667630D01*
X508598Y668403D01*
X510157Y669962D01*
X510930Y671830D01*
D02*
G37*
G36*
X504190D02*
X499990D01*
X500763Y669962D01*
X502322Y668403D01*
X504190Y667630D01*
Y671830D01*
D02*
G37*
G36*
X383467Y673100D02*
X369570D01*
Y663354D01*
X372618D01*
X375469Y663729D01*
X378126Y664830D01*
X380408Y666580D01*
X382158Y668862D01*
X383259Y671519D01*
X383467Y673100D01*
D02*
G37*
G36*
X367030D02*
X353133D01*
X353341Y671519D01*
X354442Y668862D01*
X356192Y666580D01*
X358474Y664830D01*
X361131Y663729D01*
X363982Y663354D01*
X367030D01*
Y673100D01*
D02*
G37*
G36*
X598097Y668020D02*
X584200D01*
Y658274D01*
X587248D01*
X590099Y658649D01*
X592756Y659750D01*
X595038Y661500D01*
X596788Y663782D01*
X597889Y666439D01*
X598097Y668020D01*
D02*
G37*
G36*
X581660D02*
X567763D01*
X567971Y666439D01*
X569072Y663782D01*
X570822Y661500D01*
X573104Y659750D01*
X575761Y658649D01*
X578612Y658274D01*
X581660D01*
Y668020D01*
D02*
G37*
G36*
X51710Y672740D02*
X32110D01*
Y653140D01*
X51710D01*
Y672740D01*
D02*
G37*
G36*
X426480Y670320D02*
X406640D01*
Y645400D01*
X426480D01*
Y670320D01*
D02*
G37*
G36*
X441960Y670406D02*
X439370Y670065D01*
X436957Y669065D01*
X434885Y667475D01*
X433295Y665403D01*
X432295Y662990D01*
X431954Y660400D01*
Y655320D01*
X432295Y652730D01*
X433295Y650317D01*
X434885Y648245D01*
X436957Y646655D01*
X439370Y645655D01*
X441960Y645314D01*
X444550Y645655D01*
X446963Y646655D01*
X449035Y648245D01*
X450625Y650317D01*
X451625Y652730D01*
X451966Y655320D01*
Y660400D01*
X451625Y662990D01*
X450625Y665403D01*
X449035Y667475D01*
X446963Y669065D01*
X444550Y670065D01*
X441960Y670406D01*
D02*
G37*
G36*
X215660Y669050D02*
X195820D01*
Y644130D01*
X215660D01*
Y669050D01*
D02*
G37*
G36*
X231140Y669136D02*
X228550Y668795D01*
X226137Y667795D01*
X224065Y666205D01*
X222475Y664133D01*
X221475Y661720D01*
X221134Y659130D01*
Y654050D01*
X221475Y651460D01*
X222475Y649047D01*
X224065Y646975D01*
X226137Y645385D01*
X228550Y644385D01*
X231140Y644044D01*
X233730Y644385D01*
X236143Y645385D01*
X238215Y646975D01*
X239805Y649047D01*
X240805Y651460D01*
X241146Y654050D01*
Y659130D01*
X240805Y661720D01*
X239805Y664133D01*
X238215Y666205D01*
X236143Y667795D01*
X233730Y668795D01*
X231140Y669136D01*
D02*
G37*
G36*
X641110Y666510D02*
X621270D01*
Y641590D01*
X641110D01*
Y666510D01*
D02*
G37*
G36*
X656590Y666596D02*
X654000Y666255D01*
X651587Y665255D01*
X649515Y663665D01*
X647925Y661593D01*
X646925Y659180D01*
X646584Y656590D01*
Y651510D01*
X646925Y648920D01*
X647925Y646507D01*
X649515Y644435D01*
X651587Y642845D01*
X654000Y641845D01*
X656590Y641504D01*
X659180Y641845D01*
X661593Y642845D01*
X663665Y644435D01*
X665255Y646507D01*
X666255Y648920D01*
X666596Y651510D01*
Y656590D01*
X666255Y659180D01*
X665255Y661593D01*
X663665Y663665D01*
X661593Y665255D01*
X659180Y666255D01*
X656590Y666596D01*
D02*
G37*
G36*
X43232Y647580D02*
X43180D01*
Y638810D01*
X51950D01*
Y638862D01*
X51266Y641415D01*
X49944Y643705D01*
X48075Y645574D01*
X45785Y646896D01*
X43232Y647580D01*
D02*
G37*
G36*
X40640D02*
X40588D01*
X38035Y646896D01*
X35745Y645574D01*
X33876Y643705D01*
X32554Y641415D01*
X31870Y638862D01*
Y638810D01*
X40640D01*
Y647580D01*
D02*
G37*
G36*
X51950Y636270D02*
X43180D01*
Y627500D01*
X43232D01*
X45785Y628184D01*
X48075Y629506D01*
X49944Y631375D01*
X51266Y633665D01*
X51950Y636218D01*
Y636270D01*
D02*
G37*
G36*
X40640D02*
X31870D01*
Y636218D01*
X32554Y633665D01*
X33876Y631375D01*
X35745Y629506D01*
X38035Y628184D01*
X40588Y627500D01*
X40640D01*
Y636270D01*
D02*
G37*
G36*
X51710Y618127D02*
X32110D01*
Y598527D01*
X51710D01*
Y618127D01*
D02*
G37*
G36*
X43232Y592967D02*
X43180D01*
Y584198D01*
X51950D01*
Y584249D01*
X51266Y586803D01*
X49944Y589092D01*
X48075Y590961D01*
X45785Y592283D01*
X43232Y592967D01*
D02*
G37*
G36*
X40640D02*
X40588D01*
X38035Y592283D01*
X35745Y590961D01*
X33876Y589092D01*
X32554Y586803D01*
X31870Y584249D01*
Y584198D01*
X40640D01*
Y592967D01*
D02*
G37*
G36*
X451904Y641570D02*
X449796D01*
X447848Y640763D01*
X446357Y639272D01*
X445550Y637324D01*
Y637170D01*
X429170Y620790D01*
X428219Y619368D01*
X427886Y617690D01*
Y578934D01*
X425886Y578106D01*
X425629Y578362D01*
X423360Y579672D01*
X420830Y580350D01*
X418210D01*
X415679Y579672D01*
X413411Y578362D01*
X411558Y576509D01*
X410248Y574241D01*
X409570Y571710D01*
Y569090D01*
X410248Y566559D01*
X411558Y564291D01*
X413411Y562438D01*
X415679Y561128D01*
X418210Y560450D01*
X420830D01*
X423360Y561128D01*
X425629Y562438D01*
X425886Y562694D01*
X427886Y561866D01*
Y553534D01*
X425886Y552706D01*
X425629Y552962D01*
X423360Y554272D01*
X420830Y554950D01*
X418210D01*
X415679Y554272D01*
X413411Y552962D01*
X411558Y551109D01*
X410248Y548841D01*
X409570Y546310D01*
Y543690D01*
X410248Y541159D01*
X411558Y538891D01*
X413411Y537038D01*
X415679Y535728D01*
X418210Y535050D01*
X420830D01*
X423360Y535728D01*
X425629Y537038D01*
X425886Y537294D01*
X427886Y536466D01*
Y371414D01*
X271160D01*
X269482Y371081D01*
X268060Y370130D01*
X261502Y363572D01*
X259654Y364338D01*
Y489147D01*
X259321Y490825D01*
X258370Y492247D01*
X256027Y494590D01*
X254605Y495541D01*
X252927Y495874D01*
X233354D01*
Y536466D01*
X235354Y537294D01*
X235611Y537038D01*
X237879Y535728D01*
X240410Y535050D01*
X243030D01*
X245560Y535728D01*
X247829Y537038D01*
X249682Y538891D01*
X250992Y541159D01*
X251670Y543690D01*
Y546310D01*
X250992Y548841D01*
X249682Y551109D01*
X247829Y552962D01*
X245560Y554272D01*
X243030Y554950D01*
X240410D01*
X237879Y554272D01*
X235611Y552962D01*
X235354Y552706D01*
X233354Y553534D01*
Y561866D01*
X235354Y562694D01*
X235611Y562438D01*
X237879Y561128D01*
X240410Y560450D01*
X243030D01*
X245560Y561128D01*
X247829Y562438D01*
X249682Y564291D01*
X250992Y566559D01*
X251670Y569090D01*
Y571710D01*
X250992Y574241D01*
X249682Y576509D01*
X247829Y578362D01*
X245560Y579672D01*
X243030Y580350D01*
X240410D01*
X237879Y579672D01*
X235611Y578362D01*
X235354Y578106D01*
X233354Y578934D01*
Y630088D01*
X233900Y631406D01*
Y633514D01*
X233093Y635462D01*
X231602Y636953D01*
X229654Y637760D01*
X227546D01*
X225598Y636953D01*
X224107Y635462D01*
X223300Y633514D01*
Y631406D01*
X224107Y629458D01*
X224586Y628979D01*
Y579034D01*
X222586Y578206D01*
X222429Y578362D01*
X220161Y579672D01*
X217630Y580350D01*
X215010D01*
X212479Y579672D01*
X210211Y578362D01*
X208358Y576509D01*
X207048Y574241D01*
X206370Y571710D01*
Y569090D01*
X207048Y566559D01*
X208358Y564291D01*
X210211Y562438D01*
X212479Y561128D01*
X215010Y560450D01*
X217630D01*
X220161Y561128D01*
X222429Y562438D01*
X222586Y562594D01*
X224586Y561766D01*
Y554950D01*
X206370D01*
Y535050D01*
X224586D01*
Y493833D01*
X224919Y492155D01*
X225870Y490733D01*
X228213Y488390D01*
X229635Y487439D01*
X231313Y487106D01*
X250886D01*
Y242373D01*
X251220Y240695D01*
X252170Y239273D01*
X254513Y236930D01*
X255935Y235979D01*
X257613Y235646D01*
X309306D01*
Y125730D01*
X309639Y124052D01*
X310590Y122630D01*
X313783Y119436D01*
X313456Y117792D01*
X313047Y117345D01*
X300361D01*
X300182Y117523D01*
X298234Y118330D01*
X296126D01*
X294178Y117523D01*
X292894Y116240D01*
X291922Y116383D01*
X290894Y116853D01*
Y136673D01*
X290599Y138155D01*
X289760Y139412D01*
X288002Y141170D01*
X286745Y142009D01*
X285263Y142304D01*
X195391D01*
X194772Y142923D01*
X192824Y143730D01*
X190716D01*
X188768Y142923D01*
X187277Y141432D01*
X186470Y139484D01*
Y137376D01*
X187277Y135428D01*
X188768Y133937D01*
X190716Y133130D01*
X192824D01*
X194772Y133937D01*
X195391Y134556D01*
X283146D01*
Y101600D01*
X283440Y100117D01*
X284280Y98860D01*
X286820Y96320D01*
X288077Y95480D01*
X289560Y95186D01*
X312609D01*
X313228Y94567D01*
X315176Y93760D01*
X317284D01*
X319232Y94567D01*
X320723Y96058D01*
X321530Y98006D01*
Y100114D01*
X320723Y102062D01*
X319232Y103553D01*
X317284Y104360D01*
X315176D01*
X313228Y103553D01*
X312609Y102934D01*
X291165D01*
X290894Y103205D01*
Y109207D01*
X291922Y109677D01*
X292894Y109820D01*
X294178Y108537D01*
X296126Y107730D01*
X298234D01*
X300182Y108537D01*
X300221Y108576D01*
X312995D01*
X313174Y108398D01*
X315122Y107591D01*
X317230D01*
X319178Y108398D01*
X320669Y109888D01*
X321476Y111837D01*
Y113945D01*
X321468Y113964D01*
X322804Y115964D01*
X327033D01*
X327413Y115584D01*
X329361Y114777D01*
X331469D01*
X333417Y115584D01*
X334908Y117075D01*
X335715Y119023D01*
Y121132D01*
X334908Y123080D01*
X333417Y124571D01*
X331469Y125378D01*
X329361D01*
X327803Y124733D01*
X320888D01*
X318594Y127027D01*
X318579Y128803D01*
X318768Y128934D01*
X320482Y129752D01*
X321526Y129320D01*
X323634D01*
X325582Y130127D01*
X327073Y131618D01*
X327880Y133566D01*
Y135674D01*
X327073Y137622D01*
X326964Y137731D01*
Y140232D01*
X327466Y140674D01*
X328964Y141351D01*
X330416Y140750D01*
X332524D01*
X334472Y141557D01*
X335963Y143048D01*
X336770Y144996D01*
Y147104D01*
X335963Y149052D01*
X335854Y149161D01*
Y330250D01*
X340310Y334706D01*
X556927D01*
X558605Y335039D01*
X560027Y335990D01*
X562370Y338333D01*
X563321Y339755D01*
X563654Y341433D01*
Y536366D01*
X565654Y537194D01*
X565811Y537038D01*
X568079Y535728D01*
X570610Y535050D01*
X573230D01*
X575760Y535728D01*
X578029Y537038D01*
X579882Y538891D01*
X581192Y541159D01*
X581870Y543690D01*
Y546310D01*
X581192Y548841D01*
X579882Y551109D01*
X578029Y552962D01*
X575760Y554272D01*
X573230Y554950D01*
X570610D01*
X568079Y554272D01*
X565811Y552962D01*
X565654Y552806D01*
X563654Y553634D01*
Y561427D01*
X565654Y562255D01*
X565663Y562246D01*
X567987Y560904D01*
X570578Y560210D01*
X570650D01*
Y570400D01*
Y580590D01*
X570578D01*
X567987Y579896D01*
X565663Y578554D01*
X565654Y578545D01*
X563654Y579374D01*
Y612836D01*
X607759D01*
X607868Y612727D01*
X609816Y611920D01*
X611924D01*
X613872Y612727D01*
X615363Y614218D01*
X616170Y616166D01*
Y618274D01*
X615363Y620222D01*
X613872Y621713D01*
X611924Y622520D01*
X609816D01*
X607868Y621713D01*
X607759Y621604D01*
X561613D01*
X559935Y621270D01*
X558513Y620320D01*
X556170Y617977D01*
X555219Y616555D01*
X554886Y614877D01*
Y578934D01*
X552886Y578106D01*
X552629Y578362D01*
X550360Y579672D01*
X547830Y580350D01*
X545210D01*
X542679Y579672D01*
X540411Y578362D01*
X538558Y576509D01*
X537248Y574241D01*
X536570Y571710D01*
Y569090D01*
X537248Y566559D01*
X538558Y564291D01*
X540411Y562438D01*
X542679Y561128D01*
X545210Y560450D01*
X547830D01*
X550360Y561128D01*
X552629Y562438D01*
X552886Y562694D01*
X554886Y561866D01*
Y553534D01*
X552886Y552706D01*
X552629Y552962D01*
X550360Y554272D01*
X547830Y554950D01*
X545210D01*
X542679Y554272D01*
X540411Y552962D01*
X538558Y551109D01*
X537248Y548841D01*
X536570Y546310D01*
Y543690D01*
X537248Y541159D01*
X538558Y538891D01*
X540411Y537038D01*
X542679Y535728D01*
X545210Y535050D01*
X547830D01*
X550360Y535728D01*
X552629Y537038D01*
X552886Y537294D01*
X554886Y536466D01*
Y343474D01*
X338494D01*
X336816Y343140D01*
X335393Y342190D01*
X331909Y338705D01*
X329549Y339174D01*
X329337Y339688D01*
X327778Y341247D01*
X325910Y342020D01*
Y336550D01*
Y330898D01*
X327086Y330112D01*
Y249210D01*
X325086Y248381D01*
X323337Y250130D01*
X321915Y251080D01*
X320237Y251414D01*
X266654D01*
Y356324D01*
X272976Y362646D01*
X287734D01*
X288357Y360846D01*
X288339Y360646D01*
X286894Y359536D01*
X285723Y358012D01*
X284988Y356236D01*
X284737Y354330D01*
X284988Y352424D01*
X285723Y350648D01*
X286894Y349124D01*
X288164Y347854D01*
X289688Y346684D01*
X291464Y345948D01*
X293370Y345697D01*
X477520D01*
X479426Y345948D01*
X481202Y346684D01*
X482726Y347854D01*
X483896Y349379D01*
X484632Y351154D01*
X484883Y353060D01*
X484632Y354966D01*
X483896Y356741D01*
X482726Y358266D01*
X481202Y359436D01*
X479426Y360172D01*
X477520Y360423D01*
X297779D01*
X297610Y360646D01*
X298604Y362646D01*
X429927D01*
X431605Y362980D01*
X433027Y363930D01*
X435370Y366273D01*
X436320Y367695D01*
X436654Y369373D01*
Y536366D01*
X438654Y537194D01*
X438811Y537038D01*
X441079Y535728D01*
X443610Y535050D01*
X446230D01*
X448760Y535728D01*
X451029Y537038D01*
X452882Y538891D01*
X454192Y541159D01*
X454870Y543690D01*
Y546310D01*
X454192Y548841D01*
X452882Y551109D01*
X451029Y552962D01*
X448760Y554272D01*
X446230Y554950D01*
X443610D01*
X441079Y554272D01*
X438811Y552962D01*
X438654Y552806D01*
X436654Y553634D01*
Y561427D01*
X438654Y562255D01*
X438663Y562246D01*
X440987Y560904D01*
X443578Y560210D01*
X443650D01*
Y570400D01*
Y580590D01*
X443578D01*
X440987Y579896D01*
X438663Y578554D01*
X438654Y578545D01*
X436654Y579374D01*
Y615874D01*
X451750Y630970D01*
X451904D01*
X453852Y631777D01*
X455343Y633268D01*
X456150Y635216D01*
Y637324D01*
X455343Y639272D01*
X453852Y640763D01*
X451904Y641570D01*
D02*
G37*
G36*
X51950Y581657D02*
X43180D01*
Y572887D01*
X43232D01*
X45785Y573572D01*
X48075Y574893D01*
X49944Y576763D01*
X51266Y579052D01*
X51950Y581606D01*
Y581657D01*
D02*
G37*
G36*
X40640D02*
X31870D01*
Y581606D01*
X32554Y579052D01*
X33876Y576763D01*
X35745Y574893D01*
X38035Y573572D01*
X40588Y572887D01*
X40640D01*
Y581657D01*
D02*
G37*
G36*
X624062Y580590D02*
X623990D01*
Y571670D01*
X632910D01*
Y571742D01*
X632216Y574333D01*
X630874Y576657D01*
X628977Y578554D01*
X626653Y579896D01*
X624062Y580590D01*
D02*
G37*
G36*
X621450D02*
X621378D01*
X618787Y579896D01*
X616463Y578554D01*
X614566Y576657D01*
X613224Y574333D01*
X612530Y571742D01*
Y571670D01*
X621450D01*
Y580590D01*
D02*
G37*
G36*
X573261D02*
X573190D01*
Y571670D01*
X582110D01*
Y571742D01*
X581416Y574333D01*
X580074Y576657D01*
X578177Y578554D01*
X575853Y579896D01*
X573261Y580590D01*
D02*
G37*
G36*
X446261D02*
X446190D01*
Y571670D01*
X455110D01*
Y571742D01*
X454416Y574333D01*
X453074Y576657D01*
X451177Y578554D01*
X448853Y579896D01*
X446261Y580590D01*
D02*
G37*
G36*
X370061D02*
X369990D01*
Y571670D01*
X378910D01*
Y571742D01*
X378216Y574333D01*
X376874Y576657D01*
X374977Y578554D01*
X372653Y579896D01*
X370061Y580590D01*
D02*
G37*
G36*
X367450D02*
X367378D01*
X364787Y579896D01*
X362463Y578554D01*
X360566Y576657D01*
X359224Y574333D01*
X358530Y571742D01*
Y571670D01*
X367450D01*
Y580590D01*
D02*
G37*
G36*
X268461D02*
X268390D01*
Y571670D01*
X277310D01*
Y571742D01*
X276616Y574333D01*
X275274Y576657D01*
X273377Y578554D01*
X271053Y579896D01*
X268461Y580590D01*
D02*
G37*
G36*
X265850D02*
X265778D01*
X263187Y579896D01*
X260863Y578554D01*
X258966Y576657D01*
X257624Y574333D01*
X256930Y571742D01*
Y571670D01*
X265850D01*
Y580590D01*
D02*
G37*
G36*
X700230Y580350D02*
X697610D01*
X695079Y579672D01*
X692811Y578362D01*
X690958Y576509D01*
X689648Y574241D01*
X688970Y571710D01*
Y569090D01*
X689648Y566559D01*
X690958Y564291D01*
X692811Y562438D01*
X695079Y561128D01*
X697610Y560450D01*
X700230D01*
X702760Y561128D01*
X705029Y562438D01*
X706882Y564291D01*
X708192Y566559D01*
X708870Y569090D01*
Y571710D01*
X708192Y574241D01*
X706882Y576509D01*
X705029Y578362D01*
X702760Y579672D01*
X700230Y580350D01*
D02*
G37*
G36*
X674830D02*
X672210D01*
X669679Y579672D01*
X667411Y578362D01*
X665558Y576509D01*
X664248Y574241D01*
X663570Y571710D01*
Y569090D01*
X664248Y566559D01*
X665558Y564291D01*
X667411Y562438D01*
X669679Y561128D01*
X672210Y560450D01*
X674830D01*
X677361Y561128D01*
X679629Y562438D01*
X681482Y564291D01*
X682792Y566559D01*
X683470Y569090D01*
Y571710D01*
X682792Y574241D01*
X681482Y576509D01*
X679629Y578362D01*
X677361Y579672D01*
X674830Y580350D01*
D02*
G37*
G36*
X649430D02*
X646810D01*
X644279Y579672D01*
X642011Y578362D01*
X640158Y576509D01*
X638848Y574241D01*
X638170Y571710D01*
Y569090D01*
X638848Y566559D01*
X640158Y564291D01*
X642011Y562438D01*
X644279Y561128D01*
X646810Y560450D01*
X649430D01*
X651961Y561128D01*
X654229Y562438D01*
X656082Y564291D01*
X657392Y566559D01*
X658070Y569090D01*
Y571710D01*
X657392Y574241D01*
X656082Y576509D01*
X654229Y578362D01*
X651961Y579672D01*
X649430Y580350D01*
D02*
G37*
G36*
X598630D02*
X596010D01*
X593479Y579672D01*
X591211Y578362D01*
X589358Y576509D01*
X588048Y574241D01*
X587370Y571710D01*
Y569090D01*
X588048Y566559D01*
X589358Y564291D01*
X591211Y562438D01*
X593479Y561128D01*
X596010Y560450D01*
X598630D01*
X601161Y561128D01*
X603429Y562438D01*
X605282Y564291D01*
X606592Y566559D01*
X607270Y569090D01*
Y571710D01*
X606592Y574241D01*
X605282Y576509D01*
X603429Y578362D01*
X601161Y579672D01*
X598630Y580350D01*
D02*
G37*
G36*
X522430D02*
X519810D01*
X517279Y579672D01*
X515011Y578362D01*
X513158Y576509D01*
X511848Y574241D01*
X511170Y571710D01*
Y569090D01*
X511848Y566559D01*
X513158Y564291D01*
X515011Y562438D01*
X517279Y561128D01*
X519810Y560450D01*
X522430D01*
X524961Y561128D01*
X527229Y562438D01*
X529082Y564291D01*
X530392Y566559D01*
X531070Y569090D01*
Y571710D01*
X530392Y574241D01*
X529082Y576509D01*
X527229Y578362D01*
X524961Y579672D01*
X522430Y580350D01*
D02*
G37*
G36*
X497030D02*
X494410D01*
X491879Y579672D01*
X489611Y578362D01*
X487758Y576509D01*
X486448Y574241D01*
X485770Y571710D01*
Y569090D01*
X486448Y566559D01*
X487758Y564291D01*
X489611Y562438D01*
X491879Y561128D01*
X494410Y560450D01*
X497030D01*
X499561Y561128D01*
X501829Y562438D01*
X503682Y564291D01*
X504992Y566559D01*
X505670Y569090D01*
Y571710D01*
X504992Y574241D01*
X503682Y576509D01*
X501829Y578362D01*
X499561Y579672D01*
X497030Y580350D01*
D02*
G37*
G36*
X471630D02*
X469010D01*
X466479Y579672D01*
X464211Y578362D01*
X462358Y576509D01*
X461048Y574241D01*
X460370Y571710D01*
Y569090D01*
X461048Y566559D01*
X462358Y564291D01*
X464211Y562438D01*
X466479Y561128D01*
X469010Y560450D01*
X471630D01*
X474160Y561128D01*
X476429Y562438D01*
X478282Y564291D01*
X479592Y566559D01*
X480270Y569090D01*
Y571710D01*
X479592Y574241D01*
X478282Y576509D01*
X476429Y578362D01*
X474160Y579672D01*
X471630Y580350D01*
D02*
G37*
G36*
X395430D02*
X392810D01*
X390279Y579672D01*
X388011Y578362D01*
X386158Y576509D01*
X384848Y574241D01*
X384170Y571710D01*
Y569090D01*
X384848Y566559D01*
X386158Y564291D01*
X388011Y562438D01*
X390279Y561128D01*
X392810Y560450D01*
X395430D01*
X397961Y561128D01*
X400229Y562438D01*
X402082Y564291D01*
X403392Y566559D01*
X404070Y569090D01*
Y571710D01*
X403392Y574241D01*
X402082Y576509D01*
X400229Y578362D01*
X397961Y579672D01*
X395430Y580350D01*
D02*
G37*
G36*
X344630D02*
X342010D01*
X339479Y579672D01*
X337211Y578362D01*
X335358Y576509D01*
X334048Y574241D01*
X333370Y571710D01*
Y569090D01*
X334048Y566559D01*
X335358Y564291D01*
X337211Y562438D01*
X339479Y561128D01*
X342010Y560450D01*
X344630D01*
X347160Y561128D01*
X349429Y562438D01*
X351282Y564291D01*
X352592Y566559D01*
X353270Y569090D01*
Y571710D01*
X352592Y574241D01*
X351282Y576509D01*
X349429Y578362D01*
X347160Y579672D01*
X344630Y580350D01*
D02*
G37*
G36*
X319230D02*
X316610D01*
X314079Y579672D01*
X311811Y578362D01*
X309958Y576509D01*
X308648Y574241D01*
X307970Y571710D01*
Y569090D01*
X308648Y566559D01*
X309958Y564291D01*
X311811Y562438D01*
X314079Y561128D01*
X316610Y560450D01*
X319230D01*
X321760Y561128D01*
X324029Y562438D01*
X325882Y564291D01*
X327192Y566559D01*
X327870Y569090D01*
Y571710D01*
X327192Y574241D01*
X325882Y576509D01*
X324029Y578362D01*
X321760Y579672D01*
X319230Y580350D01*
D02*
G37*
G36*
X293830D02*
X291210D01*
X288679Y579672D01*
X286411Y578362D01*
X284558Y576509D01*
X283248Y574241D01*
X282570Y571710D01*
Y569090D01*
X283248Y566559D01*
X284558Y564291D01*
X286411Y562438D01*
X288679Y561128D01*
X291210Y560450D01*
X293830D01*
X296360Y561128D01*
X298629Y562438D01*
X300482Y564291D01*
X301792Y566559D01*
X302470Y569090D01*
Y571710D01*
X301792Y574241D01*
X300482Y576509D01*
X298629Y578362D01*
X296360Y579672D01*
X293830Y580350D01*
D02*
G37*
G36*
X632910Y569130D02*
X623990D01*
Y560210D01*
X624062D01*
X626653Y560904D01*
X628977Y562246D01*
X630874Y564143D01*
X632216Y566467D01*
X632910Y569058D01*
Y569130D01*
D02*
G37*
G36*
X621450D02*
X612530D01*
Y569058D01*
X613224Y566467D01*
X614566Y564143D01*
X616463Y562246D01*
X618787Y560904D01*
X621378Y560210D01*
X621450D01*
Y569130D01*
D02*
G37*
G36*
X582110D02*
X573190D01*
Y560210D01*
X573261D01*
X575853Y560904D01*
X578177Y562246D01*
X580074Y564143D01*
X581416Y566467D01*
X582110Y569058D01*
Y569130D01*
D02*
G37*
G36*
X455110D02*
X446190D01*
Y560210D01*
X446261D01*
X448853Y560904D01*
X451177Y562246D01*
X453074Y564143D01*
X454416Y566467D01*
X455110Y569058D01*
Y569130D01*
D02*
G37*
G36*
X378910D02*
X369990D01*
Y560210D01*
X370061D01*
X372653Y560904D01*
X374977Y562246D01*
X376874Y564143D01*
X378216Y566467D01*
X378910Y569058D01*
Y569130D01*
D02*
G37*
G36*
X367450D02*
X358530D01*
Y569058D01*
X359224Y566467D01*
X360566Y564143D01*
X362463Y562246D01*
X364787Y560904D01*
X367378Y560210D01*
X367450D01*
Y569130D01*
D02*
G37*
G36*
X277310D02*
X268390D01*
Y560210D01*
X268461D01*
X271053Y560904D01*
X273377Y562246D01*
X275274Y564143D01*
X276616Y566467D01*
X277310Y569058D01*
Y569130D01*
D02*
G37*
G36*
X265850D02*
X256930D01*
Y569058D01*
X257624Y566467D01*
X258966Y564143D01*
X260863Y562246D01*
X263187Y560904D01*
X265778Y560210D01*
X265850D01*
Y569130D01*
D02*
G37*
G36*
X700262Y555190D02*
X700190D01*
Y546270D01*
X709110D01*
Y546342D01*
X708416Y548933D01*
X707074Y551257D01*
X705177Y553154D01*
X702853Y554496D01*
X700262Y555190D01*
D02*
G37*
G36*
X697650D02*
X697578D01*
X694987Y554496D01*
X692663Y553154D01*
X690766Y551257D01*
X689424Y548933D01*
X688730Y546342D01*
Y546270D01*
X697650D01*
Y555190D01*
D02*
G37*
G36*
X522462D02*
X522390D01*
Y546270D01*
X531310D01*
Y546342D01*
X530616Y548933D01*
X529274Y551257D01*
X527377Y553154D01*
X525053Y554496D01*
X522462Y555190D01*
D02*
G37*
G36*
X519850D02*
X519778D01*
X517187Y554496D01*
X514863Y553154D01*
X512966Y551257D01*
X511624Y548933D01*
X510930Y546342D01*
Y546270D01*
X519850D01*
Y555190D01*
D02*
G37*
G36*
X319261D02*
X319190D01*
Y546270D01*
X328110D01*
Y546342D01*
X327416Y548933D01*
X326074Y551257D01*
X324177Y553154D01*
X321853Y554496D01*
X319261Y555190D01*
D02*
G37*
G36*
X316650D02*
X316578D01*
X313987Y554496D01*
X311663Y553154D01*
X309766Y551257D01*
X308424Y548933D01*
X307730Y546342D01*
Y546270D01*
X316650D01*
Y555190D01*
D02*
G37*
G36*
X51710Y562250D02*
X32110D01*
Y542650D01*
X51710D01*
Y562250D01*
D02*
G37*
G36*
X749201Y573750D02*
X746039D01*
X742938Y573133D01*
X740017Y571923D01*
X737389Y570167D01*
X735153Y567931D01*
X733397Y565303D01*
X732187Y562382D01*
X731570Y559281D01*
Y556119D01*
X732187Y553018D01*
X733397Y550098D01*
X735153Y547469D01*
X737389Y545233D01*
X740017Y543477D01*
X742938Y542267D01*
X746039Y541650D01*
X749201D01*
X752302Y542267D01*
X755222Y543477D01*
X757851Y545233D01*
X760087Y547469D01*
X761843Y550098D01*
X763053Y553018D01*
X763670Y556119D01*
Y559281D01*
X763053Y562382D01*
X761843Y565303D01*
X760087Y567931D01*
X757851Y570167D01*
X755222Y571923D01*
X752302Y573133D01*
X749201Y573750D01*
D02*
G37*
G36*
X169201D02*
X166039D01*
X162938Y573133D01*
X160018Y571923D01*
X157389Y570167D01*
X155153Y567931D01*
X153397Y565303D01*
X152187Y562382D01*
X151570Y559281D01*
Y556119D01*
X152187Y553018D01*
X153397Y550098D01*
X155153Y547469D01*
X157389Y545233D01*
X160018Y543477D01*
X162938Y542267D01*
X166039Y541650D01*
X169201D01*
X172302Y542267D01*
X175222Y543477D01*
X177851Y545233D01*
X180087Y547469D01*
X181843Y550098D01*
X183053Y553018D01*
X183670Y556119D01*
Y559281D01*
X183053Y562382D01*
X181843Y565303D01*
X180087Y567931D01*
X177851Y570167D01*
X175222Y571923D01*
X172302Y573133D01*
X169201Y573750D01*
D02*
G37*
G36*
X674830Y554950D02*
X672210D01*
X669679Y554272D01*
X667411Y552962D01*
X665558Y551109D01*
X664248Y548841D01*
X663570Y546310D01*
Y543690D01*
X664248Y541159D01*
X665558Y538891D01*
X667411Y537038D01*
X669679Y535728D01*
X672210Y535050D01*
X674830D01*
X677361Y535728D01*
X679629Y537038D01*
X681482Y538891D01*
X682792Y541159D01*
X683470Y543690D01*
Y546310D01*
X682792Y548841D01*
X681482Y551109D01*
X679629Y552962D01*
X677361Y554272D01*
X674830Y554950D01*
D02*
G37*
G36*
X649430D02*
X646810D01*
X644279Y554272D01*
X642011Y552962D01*
X640158Y551109D01*
X638848Y548841D01*
X638170Y546310D01*
Y543690D01*
X638848Y541159D01*
X640158Y538891D01*
X642011Y537038D01*
X644279Y535728D01*
X646810Y535050D01*
X649430D01*
X651961Y535728D01*
X654229Y537038D01*
X656082Y538891D01*
X657392Y541159D01*
X658070Y543690D01*
Y546310D01*
X657392Y548841D01*
X656082Y551109D01*
X654229Y552962D01*
X651961Y554272D01*
X649430Y554950D01*
D02*
G37*
G36*
X624030D02*
X621410D01*
X618879Y554272D01*
X616611Y552962D01*
X614758Y551109D01*
X613448Y548841D01*
X612770Y546310D01*
Y543690D01*
X613448Y541159D01*
X614758Y538891D01*
X616611Y537038D01*
X618879Y535728D01*
X621410Y535050D01*
X624030D01*
X626561Y535728D01*
X628829Y537038D01*
X630682Y538891D01*
X631992Y541159D01*
X632670Y543690D01*
Y546310D01*
X631992Y548841D01*
X630682Y551109D01*
X628829Y552962D01*
X626561Y554272D01*
X624030Y554950D01*
D02*
G37*
G36*
X598630D02*
X596010D01*
X593479Y554272D01*
X591211Y552962D01*
X589358Y551109D01*
X588048Y548841D01*
X587370Y546310D01*
Y543690D01*
X588048Y541159D01*
X589358Y538891D01*
X591211Y537038D01*
X593479Y535728D01*
X596010Y535050D01*
X598630D01*
X601161Y535728D01*
X603429Y537038D01*
X605282Y538891D01*
X606592Y541159D01*
X607270Y543690D01*
Y546310D01*
X606592Y548841D01*
X605282Y551109D01*
X603429Y552962D01*
X601161Y554272D01*
X598630Y554950D01*
D02*
G37*
G36*
X497030D02*
X494410D01*
X491879Y554272D01*
X489611Y552962D01*
X487758Y551109D01*
X486448Y548841D01*
X485770Y546310D01*
Y543690D01*
X486448Y541159D01*
X487758Y538891D01*
X489611Y537038D01*
X491879Y535728D01*
X494410Y535050D01*
X497030D01*
X499561Y535728D01*
X501829Y537038D01*
X503682Y538891D01*
X504992Y541159D01*
X505670Y543690D01*
Y546310D01*
X504992Y548841D01*
X503682Y551109D01*
X501829Y552962D01*
X499561Y554272D01*
X497030Y554950D01*
D02*
G37*
G36*
X471630D02*
X469010D01*
X466479Y554272D01*
X464211Y552962D01*
X462358Y551109D01*
X461048Y548841D01*
X460370Y546310D01*
Y543690D01*
X461048Y541159D01*
X462358Y538891D01*
X464211Y537038D01*
X466479Y535728D01*
X469010Y535050D01*
X471630D01*
X474160Y535728D01*
X476429Y537038D01*
X478282Y538891D01*
X479592Y541159D01*
X480270Y543690D01*
Y546310D01*
X479592Y548841D01*
X478282Y551109D01*
X476429Y552962D01*
X474160Y554272D01*
X471630Y554950D01*
D02*
G37*
G36*
X395430D02*
X392810D01*
X390279Y554272D01*
X388011Y552962D01*
X386158Y551109D01*
X384848Y548841D01*
X384170Y546310D01*
Y543690D01*
X384848Y541159D01*
X386158Y538891D01*
X388011Y537038D01*
X390279Y535728D01*
X392810Y535050D01*
X395430D01*
X397961Y535728D01*
X400229Y537038D01*
X402082Y538891D01*
X403392Y541159D01*
X404070Y543690D01*
Y546310D01*
X403392Y548841D01*
X402082Y551109D01*
X400229Y552962D01*
X397961Y554272D01*
X395430Y554950D01*
D02*
G37*
G36*
X370030D02*
X367410D01*
X364879Y554272D01*
X362611Y552962D01*
X360758Y551109D01*
X359448Y548841D01*
X358770Y546310D01*
Y543690D01*
X359448Y541159D01*
X360758Y538891D01*
X362611Y537038D01*
X364879Y535728D01*
X367410Y535050D01*
X370030D01*
X372561Y535728D01*
X374829Y537038D01*
X376682Y538891D01*
X377992Y541159D01*
X378670Y543690D01*
Y546310D01*
X377992Y548841D01*
X376682Y551109D01*
X374829Y552962D01*
X372561Y554272D01*
X370030Y554950D01*
D02*
G37*
G36*
X344630D02*
X342010D01*
X339479Y554272D01*
X337211Y552962D01*
X335358Y551109D01*
X334048Y548841D01*
X333370Y546310D01*
Y543690D01*
X334048Y541159D01*
X335358Y538891D01*
X337211Y537038D01*
X339479Y535728D01*
X342010Y535050D01*
X344630D01*
X347160Y535728D01*
X349429Y537038D01*
X351282Y538891D01*
X352592Y541159D01*
X353270Y543690D01*
Y546310D01*
X352592Y548841D01*
X351282Y551109D01*
X349429Y552962D01*
X347160Y554272D01*
X344630Y554950D01*
D02*
G37*
G36*
X293830D02*
X291210D01*
X288679Y554272D01*
X286411Y552962D01*
X284558Y551109D01*
X283248Y548841D01*
X282570Y546310D01*
Y543690D01*
X283248Y541159D01*
X284558Y538891D01*
X286411Y537038D01*
X288679Y535728D01*
X291210Y535050D01*
X293830D01*
X296360Y535728D01*
X298629Y537038D01*
X300482Y538891D01*
X301792Y541159D01*
X302470Y543690D01*
Y546310D01*
X301792Y548841D01*
X300482Y551109D01*
X298629Y552962D01*
X296360Y554272D01*
X293830Y554950D01*
D02*
G37*
G36*
X268430D02*
X265810D01*
X263279Y554272D01*
X261011Y552962D01*
X259158Y551109D01*
X257848Y548841D01*
X257170Y546310D01*
Y543690D01*
X257848Y541159D01*
X259158Y538891D01*
X261011Y537038D01*
X263279Y535728D01*
X265810Y535050D01*
X268430D01*
X270961Y535728D01*
X273229Y537038D01*
X275082Y538891D01*
X276392Y541159D01*
X277070Y543690D01*
Y546310D01*
X276392Y548841D01*
X275082Y551109D01*
X273229Y552962D01*
X270961Y554272D01*
X268430Y554950D01*
D02*
G37*
G36*
X709110Y543730D02*
X700190D01*
Y534810D01*
X700262D01*
X702853Y535504D01*
X705177Y536846D01*
X707074Y538743D01*
X708416Y541067D01*
X709110Y543658D01*
Y543730D01*
D02*
G37*
G36*
X697650D02*
X688730D01*
Y543658D01*
X689424Y541067D01*
X690766Y538743D01*
X692663Y536846D01*
X694987Y535504D01*
X697578Y534810D01*
X697650D01*
Y543730D01*
D02*
G37*
G36*
X531310D02*
X522390D01*
Y534810D01*
X522462D01*
X525053Y535504D01*
X527377Y536846D01*
X529274Y538743D01*
X530616Y541067D01*
X531310Y543658D01*
Y543730D01*
D02*
G37*
G36*
X519850D02*
X510930D01*
Y543658D01*
X511624Y541067D01*
X512966Y538743D01*
X514863Y536846D01*
X517187Y535504D01*
X519778Y534810D01*
X519850D01*
Y543730D01*
D02*
G37*
G36*
X328110D02*
X319190D01*
Y534810D01*
X319261D01*
X321853Y535504D01*
X324177Y536846D01*
X326074Y538743D01*
X327416Y541067D01*
X328110Y543658D01*
Y543730D01*
D02*
G37*
G36*
X316650D02*
X307730D01*
Y543658D01*
X308424Y541067D01*
X309766Y538743D01*
X311663Y536846D01*
X313987Y535504D01*
X316578Y534810D01*
X316650D01*
Y543730D01*
D02*
G37*
G36*
X43232Y537090D02*
X43180D01*
Y528320D01*
X51950D01*
Y528372D01*
X51266Y530925D01*
X49944Y533215D01*
X48075Y535084D01*
X45785Y536406D01*
X43232Y537090D01*
D02*
G37*
G36*
X40640D02*
X40588D01*
X38035Y536406D01*
X35745Y535084D01*
X33876Y533215D01*
X32554Y530925D01*
X31870Y528372D01*
Y528320D01*
X40640D01*
Y537090D01*
D02*
G37*
G36*
X51950Y525780D02*
X43180D01*
Y517010D01*
X43232D01*
X45785Y517694D01*
X48075Y519016D01*
X49944Y520885D01*
X51266Y523175D01*
X51950Y525728D01*
Y525780D01*
D02*
G37*
G36*
X40640D02*
X31870D01*
Y525728D01*
X32554Y523175D01*
X33876Y520885D01*
X35745Y519016D01*
X38035Y517694D01*
X40588Y517010D01*
X40640D01*
Y525780D01*
D02*
G37*
G36*
X111760Y470121D02*
X97790D01*
Y448531D01*
X111760D01*
Y470121D01*
D02*
G37*
G36*
X95250D02*
X81280D01*
Y448531D01*
X95250D01*
Y470121D01*
D02*
G37*
G36*
X175020Y469881D02*
X145020D01*
Y424641D01*
X175020D01*
Y469881D01*
D02*
G37*
G36*
X111760Y445991D02*
X97790D01*
Y424401D01*
X111760D01*
Y445991D01*
D02*
G37*
G36*
X95250D02*
X81280D01*
Y424401D01*
X95250D01*
Y445991D01*
D02*
G37*
G36*
X290830Y496883D02*
X288924Y496632D01*
X287148Y495896D01*
X285624Y494726D01*
X284454Y493201D01*
X283718Y491426D01*
X283467Y489520D01*
Y408940D01*
X283718Y407034D01*
X284454Y405258D01*
X285624Y403734D01*
X287148Y402564D01*
X288924Y401828D01*
X290830Y401577D01*
X292736Y401828D01*
X294512Y402564D01*
X296036Y403734D01*
X297206Y405258D01*
X297942Y407034D01*
X298193Y408940D01*
Y489520D01*
X297942Y491426D01*
X297206Y493201D01*
X296036Y494726D01*
X294512Y495896D01*
X292736Y496632D01*
X290830Y496883D01*
D02*
G37*
G36*
X157480Y411701D02*
X135890D01*
Y397731D01*
X157480D01*
Y411701D01*
D02*
G37*
G36*
X133350D02*
X111760D01*
Y397731D01*
X133350D01*
Y411701D01*
D02*
G37*
G36*
X157480Y395191D02*
X135890D01*
Y381221D01*
X157480D01*
Y395191D01*
D02*
G37*
G36*
X133350D02*
X111760D01*
Y381221D01*
X133350D01*
Y395191D01*
D02*
G37*
G36*
X283210Y342780D02*
Y338580D01*
X287410D01*
X286637Y340448D01*
X285078Y342007D01*
X283210Y342780D01*
D02*
G37*
G36*
X280670D02*
X278802Y342007D01*
X277243Y340448D01*
X276470Y338580D01*
X280670D01*
Y342780D01*
D02*
G37*
G36*
X323370Y342020D02*
X321502Y341247D01*
X319943Y339688D01*
X319170Y337820D01*
X323370D01*
Y342020D01*
D02*
G37*
G36*
X287410Y336040D02*
X283210D01*
Y331840D01*
X285078Y332613D01*
X286637Y334172D01*
X287410Y336040D01*
D02*
G37*
G36*
X280670D02*
X276470D01*
X277243Y334172D01*
X278802Y332613D01*
X280670Y331840D01*
Y336040D01*
D02*
G37*
G36*
X323370Y335280D02*
X319170D01*
X319943Y333412D01*
X321502Y331853D01*
X323370Y331080D01*
Y335280D01*
D02*
G37*
G36*
X737235Y306070D02*
X726440D01*
Y295275D01*
X726758D01*
X729827Y296097D01*
X732578Y297686D01*
X734824Y299932D01*
X736413Y302683D01*
X737235Y305752D01*
Y306070D01*
D02*
G37*
G36*
X723900D02*
X713105D01*
Y305752D01*
X713927Y302683D01*
X715516Y299932D01*
X717762Y297686D01*
X720513Y296097D01*
X723582Y295275D01*
X723900D01*
Y306070D01*
D02*
G37*
G36*
X673735D02*
X662940D01*
Y295275D01*
X663258D01*
X666327Y296097D01*
X669078Y297686D01*
X671324Y299932D01*
X672913Y302683D01*
X673735Y305752D01*
Y306070D01*
D02*
G37*
G36*
X660400D02*
X649605D01*
Y305752D01*
X650427Y302683D01*
X652016Y299932D01*
X654262Y297686D01*
X657013Y296097D01*
X660082Y295275D01*
X660400D01*
Y306070D01*
D02*
G37*
G36*
X640715D02*
X629920D01*
Y295275D01*
X630238D01*
X633307Y296097D01*
X636058Y297686D01*
X638304Y299932D01*
X639893Y302683D01*
X640715Y305752D01*
Y306070D01*
D02*
G37*
G36*
X627380D02*
X616585D01*
Y305752D01*
X617407Y302683D01*
X618996Y299932D01*
X621242Y297686D01*
X623993Y296097D01*
X627062Y295275D01*
X627380D01*
Y306070D01*
D02*
G37*
G36*
X577215D02*
X566420D01*
Y295275D01*
X566738D01*
X569807Y296097D01*
X572558Y297686D01*
X574804Y299932D01*
X576393Y302683D01*
X577215Y305752D01*
Y306070D01*
D02*
G37*
G36*
X753274Y307560D02*
X751166D01*
X749218Y306753D01*
X747727Y305262D01*
X746920Y303314D01*
Y301206D01*
X747727Y299258D01*
X747836Y299149D01*
Y288864D01*
X565721D01*
X565612Y288973D01*
X563664Y289780D01*
X561556D01*
X559608Y288973D01*
X558117Y287482D01*
X557310Y285534D01*
Y283426D01*
X558117Y281478D01*
X559608Y279987D01*
X561556Y279180D01*
X563664D01*
X565612Y279987D01*
X565721Y280096D01*
X749877D01*
X751555Y280429D01*
X752977Y281380D01*
X755320Y283723D01*
X756271Y285145D01*
X756604Y286823D01*
Y299149D01*
X756713Y299258D01*
X757520Y301206D01*
Y303314D01*
X756713Y305262D01*
X755222Y306753D01*
X753274Y307560D01*
D02*
G37*
G36*
X764324Y339310D02*
X762216D01*
X760268Y338503D01*
X760159Y338394D01*
X755650D01*
X753972Y338060D01*
X752550Y337110D01*
X750010Y334570D01*
X749060Y333148D01*
X748726Y331470D01*
Y328234D01*
X553151D01*
X551473Y327901D01*
X550051Y326950D01*
X547525Y324424D01*
X546575Y323002D01*
X546241Y321324D01*
Y301324D01*
X546424Y300404D01*
Y275644D01*
X544424Y274307D01*
X543862Y274540D01*
X541754D01*
X539806Y273733D01*
X539314Y273242D01*
X535379D01*
X534153Y272998D01*
X532698Y273797D01*
X532153Y274279D01*
Y329793D01*
X531975Y330690D01*
X531466Y331451D01*
X530705Y331960D01*
X529808Y332138D01*
X349722D01*
X348825Y331960D01*
X348064Y331451D01*
X347556Y330690D01*
X347377Y329793D01*
Y270357D01*
X347556Y269460D01*
X348064Y268699D01*
X348825Y268190D01*
X349722Y268012D01*
X463512D01*
X464849Y266012D01*
X464600Y265411D01*
Y263303D01*
X465407Y261355D01*
X466898Y259864D01*
X468846Y259057D01*
X470954D01*
X472902Y259864D01*
X473011Y259973D01*
X486356D01*
X487693Y257973D01*
X487460Y257411D01*
Y255303D01*
X487693Y254741D01*
X486356Y252741D01*
X409450D01*
X407772Y252408D01*
X406350Y251457D01*
X402030Y247137D01*
X401079Y245715D01*
X400746Y244037D01*
Y221554D01*
X396811D01*
X396702Y221663D01*
X394754Y222470D01*
X392646D01*
X390698Y221663D01*
X389207Y220172D01*
X388400Y218224D01*
Y216116D01*
X389207Y214168D01*
X390698Y212677D01*
X392646Y211870D01*
X394754D01*
X396702Y212677D01*
X396811Y212786D01*
X402787D01*
X404465Y213120D01*
X405887Y214070D01*
X407636Y215819D01*
X409636Y214990D01*
Y211366D01*
X405854Y207584D01*
X396811D01*
X396702Y207693D01*
X394754Y208500D01*
X392646D01*
X390698Y207693D01*
X389207Y206202D01*
X388400Y204254D01*
Y202146D01*
X389207Y200198D01*
X390698Y198707D01*
X392646Y197900D01*
X394754D01*
X396702Y198707D01*
X396811Y198816D01*
X407670D01*
X409348Y199149D01*
X410770Y200100D01*
X417120Y206450D01*
X418070Y207872D01*
X418404Y209550D01*
Y222579D01*
X420404Y223546D01*
X421722Y222666D01*
X424180Y222177D01*
X460973D01*
X461600Y220576D01*
X461626Y220177D01*
X459180Y217730D01*
X458229Y216308D01*
X457896Y214630D01*
Y164404D01*
X370840D01*
X369162Y164070D01*
X367740Y163120D01*
X362660Y158040D01*
X361710Y156618D01*
X361376Y154940D01*
Y88176D01*
X360134Y86934D01*
X220281D01*
X220172Y87043D01*
X218224Y87850D01*
X216116D01*
X214168Y87043D01*
X212677Y85552D01*
X211870Y83604D01*
Y81496D01*
X212677Y79548D01*
X214168Y78057D01*
X216116Y77250D01*
X218224D01*
X220172Y78057D01*
X220281Y78166D01*
X231672D01*
X232114Y77664D01*
X232791Y76166D01*
X232190Y74714D01*
Y72606D01*
X232997Y70658D01*
X233741Y69914D01*
X232912Y67914D01*
X190754D01*
Y86680D01*
X190420Y88358D01*
X189470Y89780D01*
X185980Y93270D01*
X184558Y94221D01*
X182880Y94554D01*
X121224D01*
Y118642D01*
X123224Y119470D01*
X123998Y118697D01*
X125946Y117890D01*
X128054D01*
X130002Y118697D01*
X130471Y119166D01*
X214774D01*
X216116Y118610D01*
X218224D01*
X220172Y119417D01*
X221663Y120908D01*
X222470Y122856D01*
Y124964D01*
X221663Y126912D01*
X220172Y128403D01*
X218224Y129210D01*
X216116D01*
X214168Y128403D01*
X213699Y127934D01*
X174873D01*
X173758Y129934D01*
X174210Y131026D01*
Y133134D01*
X173403Y135082D01*
X171912Y136573D01*
X169964Y137380D01*
X167856D01*
X165908Y136573D01*
X165799Y136464D01*
X132990D01*
X124115Y145340D01*
X122692Y146291D01*
X121014Y146624D01*
X73660D01*
X71982Y146291D01*
X70560Y145340D01*
X69254Y144034D01*
X67406Y144800D01*
Y172995D01*
X69406Y173773D01*
X70818Y172958D01*
X72929Y172392D01*
X75115D01*
X77226Y172958D01*
X79118Y174050D01*
X80664Y175596D01*
X81756Y177488D01*
X82322Y179599D01*
Y181785D01*
X81756Y183896D01*
X80664Y185788D01*
X79118Y187334D01*
X77226Y188426D01*
X75115Y188992D01*
X72929D01*
X70818Y188426D01*
X69406Y187611D01*
X67406Y188389D01*
Y216995D01*
X69406Y217773D01*
X70818Y216958D01*
X72929Y216392D01*
X75115D01*
X77226Y216958D01*
X79118Y218050D01*
X80664Y219596D01*
X81756Y221488D01*
X82322Y223599D01*
Y225785D01*
X81756Y227896D01*
X80664Y229788D01*
X79118Y231334D01*
X77226Y232426D01*
X75115Y232992D01*
X72929D01*
X70818Y232426D01*
X69406Y231611D01*
X67406Y232389D01*
Y260571D01*
X67993Y261158D01*
X68800Y263106D01*
Y265214D01*
X67993Y267162D01*
X66502Y268653D01*
X64554Y269460D01*
X62446D01*
X60498Y268653D01*
X59007Y267162D01*
X58200Y265214D01*
Y263106D01*
X58638Y262049D01*
Y134191D01*
X58200Y133134D01*
Y131026D01*
X59007Y129078D01*
X60498Y127587D01*
X62446Y126780D01*
X64554D01*
X66502Y127587D01*
X67993Y129078D01*
X68800Y131026D01*
Y131180D01*
X75476Y137856D01*
X112292D01*
X113120Y135856D01*
X112347Y135082D01*
X111540Y133134D01*
Y131026D01*
X112347Y129078D01*
X112456Y128969D01*
Y92513D01*
X112789Y90835D01*
X113740Y89413D01*
X116083Y87070D01*
X117505Y86119D01*
X119183Y85786D01*
X181064D01*
X181986Y84864D01*
Y78689D01*
X180417Y78063D01*
X179986Y78032D01*
X177851Y80167D01*
X175222Y81923D01*
X172302Y83133D01*
X169201Y83750D01*
X166039D01*
X162938Y83133D01*
X160018Y81923D01*
X157389Y80167D01*
X155153Y77931D01*
X153397Y75303D01*
X152187Y72382D01*
X151570Y69281D01*
Y66119D01*
X152187Y63018D01*
X153178Y60626D01*
X152366Y59286D01*
X151820Y58857D01*
X151130Y58994D01*
X132651D01*
X132542Y59103D01*
X130594Y59910D01*
X128486D01*
X126538Y59103D01*
X125047Y57612D01*
X124240Y55664D01*
Y53556D01*
X124527Y52864D01*
X123190Y50864D01*
X26456D01*
X25974Y51346D01*
Y269964D01*
X29756Y273746D01*
X66040D01*
X67718Y274079D01*
X69140Y275030D01*
X74220Y280110D01*
X75170Y281532D01*
X75504Y283210D01*
Y316929D01*
X75613Y317038D01*
X76420Y318986D01*
Y321094D01*
X75613Y323042D01*
X74122Y324533D01*
X72174Y325340D01*
X70066D01*
X68118Y324533D01*
X66627Y323042D01*
X65820Y321094D01*
Y318986D01*
X66627Y317038D01*
X66736Y316929D01*
Y285026D01*
X64224Y282514D01*
X27940D01*
X26262Y282181D01*
X24840Y281230D01*
X18490Y274880D01*
X17539Y273458D01*
X17206Y271780D01*
Y49530D01*
X17539Y47852D01*
X18490Y46430D01*
X21540Y43380D01*
X22962Y42429D01*
X24640Y42096D01*
X142511D01*
X142936Y41671D01*
Y39370D01*
X143270Y37692D01*
X144220Y36270D01*
X146760Y33730D01*
X148182Y32780D01*
X149860Y32446D01*
X185420D01*
X187098Y32780D01*
X188520Y33730D01*
X191060Y36270D01*
X192010Y37692D01*
X192344Y39370D01*
Y45146D01*
X490166D01*
X491503Y43146D01*
X491270Y42584D01*
Y40476D01*
X492077Y38528D01*
X492186Y38419D01*
Y13271D01*
X492077Y13162D01*
X491270Y11214D01*
Y9106D01*
X492077Y7158D01*
X493568Y5667D01*
X495516Y4860D01*
X497624D01*
X499572Y5667D01*
X501063Y7158D01*
X501870Y9106D01*
Y11214D01*
X501063Y13162D01*
X500954Y13271D01*
Y38419D01*
X501063Y38528D01*
X501870Y40476D01*
Y42584D01*
X501637Y43146D01*
X502974Y45146D01*
X540496D01*
X542174Y45479D01*
X543596Y46430D01*
X546277Y49111D01*
X547228Y50534D01*
X547562Y52211D01*
Y52386D01*
X548053Y52878D01*
X548860Y54826D01*
Y56934D01*
X548053Y58882D01*
X546562Y60373D01*
X544614Y61180D01*
X542506D01*
X540558Y60373D01*
X539067Y58882D01*
X538260Y56934D01*
Y54826D01*
X537651Y53914D01*
X491544D01*
X490207Y55914D01*
X490440Y56476D01*
Y58584D01*
X489633Y60532D01*
X488142Y62023D01*
X486194Y62830D01*
X484086D01*
X482138Y62023D01*
X481029Y60914D01*
X401374D01*
X400037Y62914D01*
X400270Y63476D01*
Y65584D01*
X399463Y67532D01*
X397972Y69023D01*
X396024Y69830D01*
X393916D01*
X391968Y69023D01*
X390859Y67914D01*
X373043D01*
X372551Y69914D01*
X373517Y70560D01*
X375860Y72903D01*
X376810Y74325D01*
X377144Y76003D01*
Y122017D01*
X379144Y123302D01*
X379946Y122970D01*
X382054D01*
X384002Y123777D01*
X384111Y123886D01*
X546799D01*
X546908Y123777D01*
X548856Y122970D01*
X550964D01*
X552768Y123717D01*
X552912Y123777D01*
X555159Y123195D01*
X555688Y122279D01*
X557283Y120684D01*
X556454Y118684D01*
X394271D01*
X394162Y118793D01*
X392214Y119600D01*
X390106D01*
X388158Y118793D01*
X386667Y117302D01*
X385860Y115354D01*
Y113246D01*
X386667Y111298D01*
X388158Y109807D01*
X390106Y109000D01*
X392214D01*
X394162Y109807D01*
X394271Y109916D01*
X648697D01*
X648806Y109807D01*
X650754Y109000D01*
X652862D01*
X654810Y109807D01*
X656301Y111298D01*
X657108Y113246D01*
Y115354D01*
X656301Y117302D01*
X656049Y117555D01*
X657277Y119156D01*
X658376Y118521D01*
X661383Y117715D01*
X664497D01*
X667504Y118521D01*
X670201Y120078D01*
X672402Y122279D01*
X673959Y124976D01*
X674765Y127983D01*
Y131097D01*
X673959Y134104D01*
X672402Y136801D01*
X671187Y138016D01*
X672016Y140016D01*
X717364D01*
X718193Y138016D01*
X716978Y136801D01*
X715421Y134104D01*
X714615Y131097D01*
Y127983D01*
X715421Y124976D01*
X716978Y122279D01*
X719179Y120078D01*
X721876Y118521D01*
X724883Y117715D01*
X727997D01*
X731004Y118521D01*
X733701Y120078D01*
X735902Y122279D01*
X737459Y124976D01*
X738265Y127983D01*
Y131097D01*
X737459Y134104D01*
X735902Y136801D01*
X734687Y138016D01*
X735516Y140016D01*
X851987D01*
X853665Y140350D01*
X855087Y141300D01*
X857810Y144023D01*
X858761Y145445D01*
X859094Y147123D01*
Y217869D01*
X859203Y217978D01*
X860010Y219926D01*
Y222034D01*
X859203Y223982D01*
X857712Y225473D01*
X855764Y226280D01*
X853656D01*
X851708Y225473D01*
X850217Y223982D01*
X849410Y222034D01*
Y219926D01*
X850217Y217978D01*
X850326Y217869D01*
Y148939D01*
X850171Y148784D01*
X845730D01*
X844901Y150784D01*
X845760Y151643D01*
X846711Y153065D01*
X847044Y154743D01*
Y229076D01*
X846995Y229325D01*
X847310Y230086D01*
Y232194D01*
X846503Y234142D01*
X845012Y235633D01*
X843064Y236440D01*
X840956D01*
X840773Y236364D01*
X839242Y237895D01*
X839690Y238976D01*
Y241084D01*
X839457Y241646D01*
X840794Y243646D01*
X1021424D01*
X1024166Y240904D01*
Y181505D01*
X1022533Y180562D01*
X1020708Y178737D01*
X1019418Y176503D01*
X1018750Y174010D01*
Y171430D01*
X1019418Y168937D01*
X1020708Y166703D01*
X1022533Y164878D01*
X1024767Y163588D01*
X1027260Y162920D01*
X1029840D01*
X1032333Y163588D01*
X1034567Y164878D01*
X1036392Y166703D01*
X1037682Y168937D01*
X1038350Y171430D01*
Y174010D01*
X1037682Y176503D01*
X1036392Y178737D01*
X1034567Y180562D01*
X1032934Y181505D01*
Y242720D01*
X1032600Y244398D01*
X1031650Y245820D01*
X1026340Y251130D01*
X1024918Y252080D01*
X1023240Y252414D01*
X738377D01*
X736798Y254247D01*
X736995Y254983D01*
Y258097D01*
X736189Y261104D01*
X734632Y263801D01*
X732431Y266002D01*
X729734Y267559D01*
X726727Y268365D01*
X723613D01*
X720606Y267559D01*
X717909Y266002D01*
X715708Y263801D01*
X714151Y261104D01*
X713345Y258097D01*
Y254983D01*
X714151Y251976D01*
X715708Y249279D01*
X717303Y247684D01*
X716474Y245684D01*
X670366D01*
X669537Y247684D01*
X671132Y249279D01*
X672689Y251976D01*
X673495Y254983D01*
Y258097D01*
X672689Y261104D01*
X671132Y263801D01*
X668931Y266002D01*
X666234Y267559D01*
X663227Y268365D01*
X660113D01*
X657106Y267559D01*
X654409Y266002D01*
X652208Y263801D01*
X650651Y261104D01*
X649845Y258097D01*
Y254983D01*
X650651Y251976D01*
X652208Y249279D01*
X653803Y247684D01*
X652974Y245684D01*
X637346D01*
X636517Y247684D01*
X638112Y249279D01*
X639669Y251976D01*
X640475Y254983D01*
Y258097D01*
X639669Y261104D01*
X638112Y263801D01*
X635911Y266002D01*
X633214Y267559D01*
X630207Y268365D01*
X627093D01*
X624086Y267559D01*
X621389Y266002D01*
X619188Y263801D01*
X617631Y261104D01*
X616825Y258097D01*
Y254983D01*
X617631Y251976D01*
X619188Y249279D01*
X620783Y247684D01*
X619954Y245684D01*
X573846D01*
X573017Y247684D01*
X574612Y249279D01*
X576169Y251976D01*
X576975Y254983D01*
Y258097D01*
X576169Y261104D01*
X574612Y263801D01*
X572411Y266002D01*
X569714Y267559D01*
X566707Y268365D01*
X563593D01*
X560586Y267559D01*
X557889Y266002D01*
X557192Y265305D01*
X555192Y266134D01*
Y297407D01*
X557192Y298235D01*
X557742Y297686D01*
X560493Y296097D01*
X563562Y295275D01*
X563880D01*
Y307340D01*
X565150D01*
Y308610D01*
X577215D01*
Y308928D01*
X576393Y311997D01*
X574804Y314748D01*
X572558Y316994D01*
X571742Y317466D01*
X572278Y319466D01*
X621522D01*
X622058Y317466D01*
X621242Y316994D01*
X618996Y314748D01*
X617407Y311997D01*
X616585Y308928D01*
Y308610D01*
X640715D01*
Y308928D01*
X639893Y311997D01*
X638304Y314748D01*
X636058Y316994D01*
X635242Y317466D01*
X635778Y319466D01*
X654542D01*
X655078Y317466D01*
X654262Y316994D01*
X652016Y314748D01*
X650427Y311997D01*
X649605Y308928D01*
Y308610D01*
X673735D01*
Y308928D01*
X672913Y311997D01*
X671324Y314748D01*
X669078Y316994D01*
X668262Y317466D01*
X668798Y319466D01*
X718042D01*
X718578Y317466D01*
X717762Y316994D01*
X715516Y314748D01*
X713927Y311997D01*
X713105Y308928D01*
Y308610D01*
X737235D01*
Y308928D01*
X736413Y311997D01*
X734824Y314748D01*
X732578Y316994D01*
X731762Y317466D01*
X732298Y319466D01*
X750570D01*
X752248Y319799D01*
X753670Y320750D01*
X756210Y323290D01*
X757160Y324712D01*
X757494Y326390D01*
Y329626D01*
X760159D01*
X760268Y329517D01*
X762216Y328710D01*
X764324D01*
X766272Y329517D01*
X767763Y331008D01*
X768570Y332956D01*
Y335064D01*
X767763Y337012D01*
X766272Y338503D01*
X764324Y339310D01*
D02*
G37*
G36*
X246380Y236610D02*
Y232410D01*
X250580D01*
X249807Y234278D01*
X248248Y235837D01*
X246380Y236610D01*
D02*
G37*
G36*
X243840D02*
X241972Y235837D01*
X240413Y234278D01*
X239640Y232410D01*
X243840D01*
Y236610D01*
D02*
G37*
G36*
X250580Y229870D02*
X246380D01*
Y225670D01*
X248248Y226443D01*
X249807Y228002D01*
X250580Y229870D01*
D02*
G37*
G36*
X243840D02*
X239640D01*
X240413Y228002D01*
X241972Y226443D01*
X243840Y225670D01*
Y229870D01*
D02*
G37*
G36*
X254000Y208670D02*
Y204470D01*
X258200D01*
X257427Y206338D01*
X255868Y207897D01*
X254000Y208670D01*
D02*
G37*
G36*
X251460D02*
X249592Y207897D01*
X248033Y206338D01*
X247260Y204470D01*
X251460D01*
Y208670D01*
D02*
G37*
G36*
X258200Y201930D02*
X254000D01*
Y197730D01*
X255868Y198503D01*
X257427Y200062D01*
X258200Y201930D01*
D02*
G37*
G36*
X251460D02*
X247260D01*
X248033Y200062D01*
X249592Y198503D01*
X251460Y197730D01*
Y201930D01*
D02*
G37*
G36*
X928272Y182760D02*
X928220D01*
Y173990D01*
X936990D01*
Y174042D01*
X936306Y176595D01*
X934984Y178885D01*
X933115Y180754D01*
X930825Y182076D01*
X928272Y182760D01*
D02*
G37*
G36*
X925680D02*
X925628D01*
X923075Y182076D01*
X920785Y180754D01*
X918916Y178885D01*
X917594Y176595D01*
X916910Y174042D01*
Y173990D01*
X925680D01*
Y182760D01*
D02*
G37*
G36*
X1233140Y182520D02*
X1230560D01*
X1228067Y181852D01*
X1225833Y180562D01*
X1224008Y178737D01*
X1222718Y176503D01*
X1222050Y174010D01*
Y171430D01*
X1222718Y168937D01*
X1224008Y166703D01*
X1225833Y164878D01*
X1228067Y163588D01*
X1230560Y162920D01*
X1233140D01*
X1235633Y163588D01*
X1237867Y164878D01*
X1239692Y166703D01*
X1240982Y168937D01*
X1241650Y171430D01*
Y174010D01*
X1240982Y176503D01*
X1239692Y178737D01*
X1237867Y180562D01*
X1235633Y181852D01*
X1233140Y182520D01*
D02*
G37*
G36*
X1207740D02*
X1205160D01*
X1202667Y181852D01*
X1200433Y180562D01*
X1198608Y178737D01*
X1197318Y176503D01*
X1196650Y174010D01*
Y171430D01*
X1197318Y168937D01*
X1198608Y166703D01*
X1200433Y164878D01*
X1202667Y163588D01*
X1205160Y162920D01*
X1207740D01*
X1210233Y163588D01*
X1212467Y164878D01*
X1214292Y166703D01*
X1215582Y168937D01*
X1216250Y171430D01*
Y174010D01*
X1215582Y176503D01*
X1214292Y178737D01*
X1212467Y180562D01*
X1210233Y181852D01*
X1207740Y182520D01*
D02*
G37*
G36*
X1182340D02*
X1179760D01*
X1177267Y181852D01*
X1175033Y180562D01*
X1173208Y178737D01*
X1171918Y176503D01*
X1171250Y174010D01*
Y171430D01*
X1171918Y168937D01*
X1173208Y166703D01*
X1175033Y164878D01*
X1177267Y163588D01*
X1179760Y162920D01*
X1182340D01*
X1184833Y163588D01*
X1187067Y164878D01*
X1188892Y166703D01*
X1190182Y168937D01*
X1190850Y171430D01*
Y174010D01*
X1190182Y176503D01*
X1188892Y178737D01*
X1187067Y180562D01*
X1184833Y181852D01*
X1182340Y182520D01*
D02*
G37*
G36*
X1156940D02*
X1154360D01*
X1151867Y181852D01*
X1149633Y180562D01*
X1147808Y178737D01*
X1146518Y176503D01*
X1145850Y174010D01*
Y171430D01*
X1146518Y168937D01*
X1147808Y166703D01*
X1149633Y164878D01*
X1151867Y163588D01*
X1154360Y162920D01*
X1156940D01*
X1159433Y163588D01*
X1161667Y164878D01*
X1163492Y166703D01*
X1164782Y168937D01*
X1165450Y171430D01*
Y174010D01*
X1164782Y176503D01*
X1163492Y178737D01*
X1161667Y180562D01*
X1159433Y181852D01*
X1156940Y182520D01*
D02*
G37*
G36*
X1131540D02*
X1128960D01*
X1126467Y181852D01*
X1124233Y180562D01*
X1122408Y178737D01*
X1121118Y176503D01*
X1120450Y174010D01*
Y171430D01*
X1121118Y168937D01*
X1122408Y166703D01*
X1124233Y164878D01*
X1126467Y163588D01*
X1128960Y162920D01*
X1131540D01*
X1134033Y163588D01*
X1136267Y164878D01*
X1138092Y166703D01*
X1139382Y168937D01*
X1140050Y171430D01*
Y174010D01*
X1139382Y176503D01*
X1138092Y178737D01*
X1136267Y180562D01*
X1134033Y181852D01*
X1131540Y182520D01*
D02*
G37*
G36*
X1106140D02*
X1103560D01*
X1101067Y181852D01*
X1098833Y180562D01*
X1097008Y178737D01*
X1095718Y176503D01*
X1095050Y174010D01*
Y171430D01*
X1095718Y168937D01*
X1097008Y166703D01*
X1098833Y164878D01*
X1101067Y163588D01*
X1103560Y162920D01*
X1106140D01*
X1108633Y163588D01*
X1110867Y164878D01*
X1112692Y166703D01*
X1113982Y168937D01*
X1114650Y171430D01*
Y174010D01*
X1113982Y176503D01*
X1112692Y178737D01*
X1110867Y180562D01*
X1108633Y181852D01*
X1106140Y182520D01*
D02*
G37*
G36*
X1080740D02*
X1078160D01*
X1075667Y181852D01*
X1073433Y180562D01*
X1071608Y178737D01*
X1070318Y176503D01*
X1069650Y174010D01*
Y171430D01*
X1070318Y168937D01*
X1071608Y166703D01*
X1073433Y164878D01*
X1075667Y163588D01*
X1078160Y162920D01*
X1080740D01*
X1083233Y163588D01*
X1085467Y164878D01*
X1087292Y166703D01*
X1088582Y168937D01*
X1089250Y171430D01*
Y174010D01*
X1088582Y176503D01*
X1087292Y178737D01*
X1085467Y180562D01*
X1083233Y181852D01*
X1080740Y182520D01*
D02*
G37*
G36*
X1055340D02*
X1052760D01*
X1050267Y181852D01*
X1048033Y180562D01*
X1046208Y178737D01*
X1044918Y176503D01*
X1044250Y174010D01*
Y171430D01*
X1044918Y168937D01*
X1046208Y166703D01*
X1048033Y164878D01*
X1050267Y163588D01*
X1052760Y162920D01*
X1055340D01*
X1057833Y163588D01*
X1060067Y164878D01*
X1061892Y166703D01*
X1063182Y168937D01*
X1063850Y171430D01*
Y174010D01*
X1063182Y176503D01*
X1061892Y178737D01*
X1060067Y180562D01*
X1057833Y181852D01*
X1055340Y182520D01*
D02*
G37*
G36*
X1004590D02*
X1002010D01*
X999517Y181852D01*
X997283Y180562D01*
X995458Y178737D01*
X994168Y176503D01*
X993500Y174010D01*
Y171430D01*
X994168Y168937D01*
X995458Y166703D01*
X997283Y164878D01*
X999517Y163588D01*
X1002010Y162920D01*
X1004590D01*
X1007083Y163588D01*
X1009317Y164878D01*
X1011142Y166703D01*
X1012432Y168937D01*
X1013100Y171430D01*
Y174010D01*
X1012432Y176503D01*
X1011142Y178737D01*
X1009317Y180562D01*
X1007083Y181852D01*
X1004590Y182520D01*
D02*
G37*
G36*
X979040D02*
X976460D01*
X973967Y181852D01*
X971733Y180562D01*
X969908Y178737D01*
X968618Y176503D01*
X967950Y174010D01*
Y171430D01*
X968618Y168937D01*
X969908Y166703D01*
X971733Y164878D01*
X973967Y163588D01*
X976460Y162920D01*
X979040D01*
X981533Y163588D01*
X983767Y164878D01*
X985592Y166703D01*
X986882Y168937D01*
X987550Y171430D01*
Y174010D01*
X986882Y176503D01*
X985592Y178737D01*
X983767Y180562D01*
X981533Y181852D01*
X979040Y182520D01*
D02*
G37*
G36*
X953640D02*
X951060D01*
X948567Y181852D01*
X946333Y180562D01*
X944508Y178737D01*
X943218Y176503D01*
X942550Y174010D01*
Y171430D01*
X943218Y168937D01*
X944508Y166703D01*
X946333Y164878D01*
X948567Y163588D01*
X951060Y162920D01*
X953640D01*
X956133Y163588D01*
X958367Y164878D01*
X960192Y166703D01*
X961482Y168937D01*
X962150Y171430D01*
Y174010D01*
X961482Y176503D01*
X960192Y178737D01*
X958367Y180562D01*
X956133Y181852D01*
X953640Y182520D01*
D02*
G37*
G36*
X911350D02*
X891750D01*
Y162920D01*
X911350D01*
Y182520D01*
D02*
G37*
G36*
X936990Y171450D02*
X928220D01*
Y162680D01*
X928272D01*
X930825Y163364D01*
X933115Y164686D01*
X934984Y166555D01*
X936306Y168845D01*
X936990Y171398D01*
Y171450D01*
D02*
G37*
G36*
X925680D02*
X916910D01*
Y171398D01*
X917594Y168845D01*
X918916Y166555D01*
X920785Y164686D01*
X923075Y163364D01*
X925628Y162680D01*
X925680D01*
Y171450D01*
D02*
G37*
G36*
X117894Y325340D02*
X115786D01*
X113838Y324533D01*
X112347Y323042D01*
X111540Y321094D01*
Y318986D01*
X112347Y317038D01*
X112456Y316929D01*
Y240576D01*
X108660Y236780D01*
X107710Y235358D01*
X107376Y233680D01*
Y231711D01*
X107267Y231602D01*
X106460Y229654D01*
Y227546D01*
X107267Y225598D01*
X108758Y224107D01*
X110706Y223300D01*
X112814D01*
X114762Y224107D01*
X116253Y225598D01*
X117060Y227546D01*
Y229654D01*
X116253Y231602D01*
X116144Y231711D01*
Y231864D01*
X118076Y233796D01*
X120076Y232967D01*
Y221551D01*
X119967Y221442D01*
X119160Y219494D01*
Y217386D01*
X119967Y215438D01*
X121458Y213947D01*
X123406Y213140D01*
X125514D01*
X126194Y213422D01*
X127327Y211726D01*
X124101Y208500D01*
X123406D01*
X121458Y207693D01*
X119967Y206202D01*
X119160Y204254D01*
Y202146D01*
X119967Y200198D01*
X121458Y198707D01*
X123406Y197900D01*
X125514D01*
X127462Y198707D01*
X128953Y200198D01*
X129486Y201485D01*
X135909Y207908D01*
X136859Y209330D01*
X137193Y211008D01*
Y266576D01*
X163259D01*
X163368Y266467D01*
X165316Y265660D01*
X167424D01*
X169372Y266467D01*
X169481Y266576D01*
X173066D01*
Y243357D01*
X173400Y241679D01*
X174350Y240257D01*
X175772Y239306D01*
X177450Y238972D01*
X186530D01*
X188208Y239306D01*
X189630Y240257D01*
X190581Y241679D01*
X190914Y243357D01*
Y266576D01*
X207284D01*
X211516Y262344D01*
Y168211D01*
X211407Y168102D01*
X210600Y166154D01*
Y164046D01*
X211407Y162098D01*
X212898Y160607D01*
X214846Y159800D01*
X216954D01*
X218902Y160607D01*
X220393Y162098D01*
X221200Y164046D01*
Y166154D01*
X220393Y168102D01*
X220389Y168106D01*
X220508Y170118D01*
X222284Y171305D01*
X222466Y171230D01*
X224574D01*
X226026Y171831D01*
X227524Y171154D01*
X228026Y170712D01*
Y166941D01*
X227917Y166832D01*
X227110Y164884D01*
Y162776D01*
X227917Y160828D01*
X229408Y159337D01*
X231356Y158530D01*
X233464D01*
X235412Y159337D01*
X236903Y160828D01*
X237710Y162776D01*
Y164884D01*
X236903Y166832D01*
X236794Y166941D01*
Y292100D01*
X236460Y293778D01*
X235510Y295200D01*
X222810Y307900D01*
X221388Y308850D01*
X219710Y309184D01*
X132651D01*
X132542Y309293D01*
X130594Y310100D01*
X128486D01*
X126538Y309293D01*
X125047Y307802D01*
X124240Y305854D01*
Y303746D01*
X125047Y301798D01*
X126084Y300761D01*
X125758Y298903D01*
X125605Y298627D01*
X125172Y298540D01*
X123750Y297590D01*
X123224Y297064D01*
X121224Y297893D01*
Y316929D01*
X121333Y317038D01*
X122140Y318986D01*
Y321094D01*
X121333Y323042D01*
X119842Y324533D01*
X117894Y325340D01*
D02*
G37*
G36*
X967524Y117060D02*
X965416D01*
X963468Y116253D01*
X963359Y116144D01*
X768350D01*
X766672Y115810D01*
X765250Y114860D01*
X749670Y99280D01*
X749516D01*
X747568Y98473D01*
X746077Y96982D01*
X745270Y95034D01*
Y92926D01*
X746077Y90978D01*
X747568Y89487D01*
X749516Y88680D01*
X751624D01*
X753572Y89487D01*
X755063Y90978D01*
X755870Y92926D01*
Y93080D01*
X770166Y107376D01*
X963359D01*
X963468Y107267D01*
X965416Y106460D01*
X967524D01*
X969472Y107267D01*
X970963Y108758D01*
X971770Y110706D01*
Y112814D01*
X970963Y114762D01*
X969472Y116253D01*
X967524Y117060D01*
D02*
G37*
G36*
X652780Y103260D02*
Y99060D01*
X656980D01*
X656207Y100928D01*
X654648Y102487D01*
X652780Y103260D01*
D02*
G37*
G36*
X650240D02*
X648372Y102487D01*
X646813Y100928D01*
X646040Y99060D01*
X650240D01*
Y103260D01*
D02*
G37*
G36*
X656980Y96520D02*
X652780D01*
Y92320D01*
X654648Y93093D01*
X656207Y94652D01*
X656980Y96520D01*
D02*
G37*
G36*
X650240D02*
X646040D01*
X646813Y94652D01*
X648372Y93093D01*
X650240Y92320D01*
Y96520D01*
D02*
G37*
G36*
X887730Y94370D02*
Y90170D01*
X891930D01*
X891157Y92038D01*
X889598Y93597D01*
X887730Y94370D01*
D02*
G37*
G36*
X885190D02*
X883322Y93597D01*
X881763Y92038D01*
X880990Y90170D01*
X885190D01*
Y94370D01*
D02*
G37*
G36*
X891930Y87630D02*
X887730D01*
Y83430D01*
X889598Y84203D01*
X891157Y85762D01*
X891930Y87630D01*
D02*
G37*
G36*
X885190D02*
X880990D01*
X881763Y85762D01*
X883322Y84203D01*
X885190Y83430D01*
Y87630D01*
D02*
G37*
G36*
X652780Y80400D02*
Y76200D01*
X656980D01*
X656207Y78068D01*
X654648Y79627D01*
X652780Y80400D01*
D02*
G37*
G36*
X650240D02*
X648372Y79627D01*
X646813Y78068D01*
X646040Y76200D01*
X650240D01*
Y80400D01*
D02*
G37*
G36*
X1271335Y62210D02*
X1271270D01*
Y53340D01*
X1280140D01*
Y53405D01*
X1279449Y55984D01*
X1278114Y58296D01*
X1276226Y60184D01*
X1273914Y61519D01*
X1271335Y62210D01*
D02*
G37*
G36*
X1182605Y63500D02*
X1182370D01*
Y53340D01*
X1192530D01*
Y53575D01*
X1191751Y56482D01*
X1190246Y59088D01*
X1188118Y61216D01*
X1185512Y62721D01*
X1182605Y63500D01*
D02*
G37*
G36*
X1106405D02*
X1106170D01*
Y53340D01*
X1116330D01*
Y53575D01*
X1115551Y56482D01*
X1114046Y59088D01*
X1111918Y61216D01*
X1109312Y62721D01*
X1106405Y63500D01*
D02*
G37*
G36*
X1179830D02*
X1179595D01*
X1176688Y62721D01*
X1174082Y61216D01*
X1171954Y59088D01*
X1170449Y56482D01*
X1169670Y53575D01*
Y53340D01*
X1179830D01*
Y63500D01*
D02*
G37*
G36*
X1103630D02*
X1103395D01*
X1100488Y62721D01*
X1097882Y61216D01*
X1095754Y59088D01*
X1094249Y56482D01*
X1093470Y53575D01*
Y53340D01*
X1103630D01*
Y63500D01*
D02*
G37*
G36*
X1268730Y62210D02*
X1268665D01*
X1266086Y61519D01*
X1263774Y60184D01*
X1261886Y58296D01*
X1260551Y55984D01*
X1259860Y53405D01*
Y53340D01*
X1268730D01*
Y62210D01*
D02*
G37*
G36*
X749201Y83750D02*
X746039D01*
X742938Y83133D01*
X740017Y81923D01*
X737389Y80167D01*
X735153Y77931D01*
X733397Y75303D01*
X732187Y72382D01*
X731570Y69281D01*
Y66119D01*
X732187Y63018D01*
X733397Y60097D01*
X735153Y57469D01*
X737389Y55233D01*
X740017Y53477D01*
X742938Y52267D01*
X746039Y51650D01*
X749201D01*
X752302Y52267D01*
X755222Y53477D01*
X757851Y55233D01*
X760087Y57469D01*
X761843Y60097D01*
X763053Y63018D01*
X763670Y66119D01*
Y69281D01*
X763053Y72382D01*
X761843Y75303D01*
X760087Y77931D01*
X757851Y80167D01*
X755222Y81923D01*
X752302Y83133D01*
X749201Y83750D01*
D02*
G37*
G36*
X600710Y102943D02*
X598252Y102455D01*
X596168Y101062D01*
X594776Y98978D01*
X594287Y96520D01*
Y69923D01*
X567690D01*
X565232Y69434D01*
X563148Y68042D01*
X561755Y65958D01*
X561267Y63500D01*
X561755Y61042D01*
X562412Y60060D01*
X561343Y58060D01*
X557890D01*
Y38460D01*
X561267D01*
Y17910D01*
X561755Y15452D01*
X563148Y13368D01*
X565232Y11976D01*
X567690Y11487D01*
X570148Y11976D01*
X572232Y13368D01*
X573624Y15452D01*
X574113Y17910D01*
Y38460D01*
X577490D01*
Y57077D01*
X585219D01*
X586047Y55077D01*
X585248Y54277D01*
X583958Y52043D01*
X583290Y49550D01*
Y46970D01*
X583958Y44477D01*
X585248Y42243D01*
X587073Y40418D01*
X589307Y39128D01*
X591800Y38460D01*
X594380D01*
X596873Y39128D01*
X599107Y40418D01*
X600932Y42243D01*
X602222Y44477D01*
X602890Y46970D01*
Y49550D01*
X602222Y52043D01*
X600932Y54277D01*
X599775Y55434D01*
X599902Y56015D01*
X601181Y57565D01*
X603639Y57077D01*
X610619D01*
X611447Y55077D01*
X610648Y54277D01*
X609358Y52043D01*
X608690Y49550D01*
Y46970D01*
X609358Y44477D01*
X610648Y42243D01*
X612473Y40418D01*
X614707Y39128D01*
X617200Y38460D01*
X619780D01*
X622273Y39128D01*
X624507Y40418D01*
X626332Y42243D01*
X627622Y44477D01*
X628290Y46970D01*
Y49550D01*
X627622Y52043D01*
X626332Y54277D01*
X625533Y55077D01*
X626361Y57077D01*
X635679D01*
X636508Y55077D01*
X635856Y54425D01*
X634534Y52135D01*
X633850Y49582D01*
Y49530D01*
X653930D01*
Y49582D01*
X653246Y52135D01*
X651924Y54425D01*
X651272Y55077D01*
X652101Y57077D01*
X695571D01*
X698029Y57565D01*
X700113Y58958D01*
X703042Y61887D01*
X704435Y63971D01*
X704923Y66429D01*
Y95250D01*
X704435Y97708D01*
X703042Y99792D01*
X700958Y101185D01*
X698500Y101673D01*
X696042Y101185D01*
X693958Y99792D01*
X692566Y97708D01*
X692077Y95250D01*
Y69923D01*
X657167D01*
X656207Y71792D01*
X656980Y73660D01*
X646040D01*
X646813Y71792D01*
X645853Y69923D01*
X607133D01*
Y96520D01*
X606645Y98978D01*
X605252Y101062D01*
X603168Y102455D01*
X600710Y102943D01*
D02*
G37*
G36*
X887795Y57130D02*
X887730D01*
Y48260D01*
X896600D01*
Y48325D01*
X895909Y50904D01*
X894574Y53216D01*
X892686Y55104D01*
X890374Y56439D01*
X887795Y57130D01*
D02*
G37*
G36*
X885190D02*
X885125D01*
X882546Y56439D01*
X880234Y55104D01*
X878346Y53216D01*
X877011Y50904D01*
X876320Y48325D01*
Y48260D01*
X885190D01*
Y57130D01*
D02*
G37*
G36*
X1305300Y61970D02*
X1285500D01*
Y42170D01*
X1305300D01*
Y61970D01*
D02*
G37*
G36*
X1239520Y78554D02*
X1057910D01*
X1056037Y78182D01*
X1054449Y77121D01*
X1050639Y73311D01*
X1049578Y71723D01*
X1049206Y69850D01*
Y62165D01*
X1047229Y61024D01*
X1045146Y58941D01*
X1043673Y56389D01*
X1042910Y53543D01*
Y50597D01*
X1043673Y47751D01*
X1045146Y45199D01*
X1047229Y43116D01*
X1049781Y41643D01*
X1052627Y40880D01*
X1055573D01*
X1058419Y41643D01*
X1060971Y43116D01*
X1063054Y45199D01*
X1064527Y47751D01*
X1065290Y50597D01*
Y53543D01*
X1064527Y56389D01*
X1063054Y58941D01*
X1060971Y61024D01*
X1058994Y62165D01*
Y67823D01*
X1059937Y68766D01*
X1237493D01*
X1239706Y66553D01*
Y60676D01*
X1238521Y59992D01*
X1236678Y58149D01*
X1235375Y55891D01*
X1234700Y53373D01*
Y50767D01*
X1235375Y48249D01*
X1236678Y45991D01*
X1238521Y44148D01*
X1240779Y42845D01*
X1243297Y42170D01*
X1245903D01*
X1248421Y42845D01*
X1250679Y44148D01*
X1252522Y45991D01*
X1253825Y48249D01*
X1254500Y50767D01*
Y53373D01*
X1253825Y55891D01*
X1252522Y58149D01*
X1250679Y59992D01*
X1249494Y60676D01*
Y68580D01*
X1249121Y70453D01*
X1248061Y72041D01*
X1242981Y77121D01*
X1241393Y78182D01*
X1239520Y78554D01*
D02*
G37*
G36*
X1280140Y50800D02*
X1271270D01*
Y41930D01*
X1271335D01*
X1273914Y42621D01*
X1276226Y43956D01*
X1278114Y45844D01*
X1279449Y48156D01*
X1280140Y50735D01*
Y50800D01*
D02*
G37*
G36*
X1268730D02*
X1259860D01*
Y50735D01*
X1260551Y48156D01*
X1261886Y45844D01*
X1263774Y43956D01*
X1266086Y42621D01*
X1268665Y41930D01*
X1268730D01*
Y50800D01*
D02*
G37*
G36*
X1217690Y63260D02*
X1195310D01*
Y40880D01*
X1217690D01*
Y63260D01*
D02*
G37*
G36*
X1157173D02*
X1154227D01*
X1151381Y62497D01*
X1148829Y61024D01*
X1146746Y58941D01*
X1145273Y56389D01*
X1144510Y53543D01*
Y50597D01*
X1145273Y47751D01*
X1146746Y45199D01*
X1148829Y43116D01*
X1151381Y41643D01*
X1154227Y40880D01*
X1157173D01*
X1160019Y41643D01*
X1162571Y43116D01*
X1164654Y45199D01*
X1166127Y47751D01*
X1166890Y50597D01*
Y53543D01*
X1166127Y56389D01*
X1164654Y58941D01*
X1162571Y61024D01*
X1160019Y62497D01*
X1157173Y63260D01*
D02*
G37*
G36*
X1131773D02*
X1128827D01*
X1125981Y62497D01*
X1123429Y61024D01*
X1121346Y58941D01*
X1119873Y56389D01*
X1119110Y53543D01*
Y50597D01*
X1119873Y47751D01*
X1121346Y45199D01*
X1123429Y43116D01*
X1125981Y41643D01*
X1128827Y40880D01*
X1131773D01*
X1134619Y41643D01*
X1137171Y43116D01*
X1139254Y45199D01*
X1140727Y47751D01*
X1141490Y50597D01*
Y53543D01*
X1140727Y56389D01*
X1139254Y58941D01*
X1137171Y61024D01*
X1134619Y62497D01*
X1131773Y63260D01*
D02*
G37*
G36*
X1080973D02*
X1078027D01*
X1075181Y62497D01*
X1072629Y61024D01*
X1070546Y58941D01*
X1069073Y56389D01*
X1068310Y53543D01*
Y50597D01*
X1069073Y47751D01*
X1070546Y45199D01*
X1072629Y43116D01*
X1075181Y41643D01*
X1078027Y40880D01*
X1080973D01*
X1083819Y41643D01*
X1086371Y43116D01*
X1088454Y45199D01*
X1089927Y47751D01*
X1090690Y50597D01*
Y53543D01*
X1089927Y56389D01*
X1088454Y58941D01*
X1086371Y61024D01*
X1083819Y62497D01*
X1080973Y63260D01*
D02*
G37*
G36*
X1030173D02*
X1027227D01*
X1024381Y62497D01*
X1021829Y61024D01*
X1019746Y58941D01*
X1018273Y56389D01*
X1017510Y53543D01*
Y50597D01*
X1018273Y47751D01*
X1019746Y45199D01*
X1021829Y43116D01*
X1024381Y41643D01*
X1027227Y40880D01*
X1030173D01*
X1033019Y41643D01*
X1035571Y43116D01*
X1037654Y45199D01*
X1039127Y47751D01*
X1039890Y50597D01*
Y53543D01*
X1039127Y56389D01*
X1037654Y58941D01*
X1035571Y61024D01*
X1033019Y62497D01*
X1030173Y63260D01*
D02*
G37*
G36*
X1004773D02*
X1001827D01*
X998981Y62497D01*
X996429Y61024D01*
X994346Y58941D01*
X992873Y56389D01*
X992110Y53543D01*
Y50597D01*
X992873Y47751D01*
X994346Y45199D01*
X996429Y43116D01*
X998981Y41643D01*
X1001827Y40880D01*
X1004773D01*
X1007619Y41643D01*
X1010171Y43116D01*
X1012254Y45199D01*
X1013727Y47751D01*
X1014490Y50597D01*
Y53543D01*
X1013727Y56389D01*
X1012254Y58941D01*
X1010171Y61024D01*
X1007619Y62497D01*
X1004773Y63260D01*
D02*
G37*
G36*
X979373D02*
X976427D01*
X973581Y62497D01*
X971029Y61024D01*
X968946Y58941D01*
X967473Y56389D01*
X966710Y53543D01*
Y50597D01*
X967473Y47751D01*
X968946Y45199D01*
X971029Y43116D01*
X973581Y41643D01*
X976427Y40880D01*
X979373D01*
X982219Y41643D01*
X984771Y43116D01*
X986854Y45199D01*
X988327Y47751D01*
X989090Y50597D01*
Y53543D01*
X988327Y56389D01*
X986854Y58941D01*
X984771Y61024D01*
X982219Y62497D01*
X979373Y63260D01*
D02*
G37*
G36*
X1192530Y50800D02*
X1182370D01*
Y40640D01*
X1182605D01*
X1185512Y41419D01*
X1188118Y42924D01*
X1190246Y45052D01*
X1191751Y47658D01*
X1192530Y50565D01*
Y50800D01*
D02*
G37*
G36*
X1179830D02*
X1169670D01*
Y50565D01*
X1170449Y47658D01*
X1171954Y45052D01*
X1174082Y42924D01*
X1176688Y41419D01*
X1179595Y40640D01*
X1179830D01*
Y50800D01*
D02*
G37*
G36*
X1116330D02*
X1106170D01*
Y40640D01*
X1106405D01*
X1109312Y41419D01*
X1111918Y42924D01*
X1114046Y45052D01*
X1115551Y47658D01*
X1116330Y50565D01*
Y50800D01*
D02*
G37*
G36*
X1103630D02*
X1093470D01*
Y50565D01*
X1094249Y47658D01*
X1095754Y45052D01*
X1097882Y42924D01*
X1100488Y41419D01*
X1103395Y40640D01*
X1103630D01*
Y50800D01*
D02*
G37*
G36*
X653930Y46990D02*
X645160D01*
Y38220D01*
X645212D01*
X647765Y38904D01*
X650055Y40226D01*
X651924Y42095D01*
X653246Y44385D01*
X653930Y46938D01*
Y46990D01*
D02*
G37*
G36*
X642620D02*
X633850D01*
Y46938D01*
X634534Y44385D01*
X635856Y42095D01*
X637725Y40226D01*
X640015Y38904D01*
X642568Y38220D01*
X642620D01*
Y46990D01*
D02*
G37*
G36*
X756985Y46970D02*
X756920D01*
Y38100D01*
X765790D01*
Y38165D01*
X765099Y40744D01*
X763764Y43056D01*
X761876Y44944D01*
X759564Y46279D01*
X756985Y46970D01*
D02*
G37*
G36*
X680785D02*
X680720D01*
Y38100D01*
X689590D01*
Y38165D01*
X688899Y40744D01*
X687564Y43056D01*
X685676Y44944D01*
X683364Y46279D01*
X680785Y46970D01*
D02*
G37*
G36*
X754380D02*
X754315D01*
X751736Y46279D01*
X749424Y44944D01*
X747536Y43056D01*
X746201Y40744D01*
X745510Y38165D01*
Y38100D01*
X754380D01*
Y46970D01*
D02*
G37*
G36*
X678180D02*
X678115D01*
X675536Y46279D01*
X673224Y44944D01*
X671336Y43056D01*
X670001Y40744D01*
X669310Y38165D01*
Y38100D01*
X678180D01*
Y46970D01*
D02*
G37*
G36*
X896600Y45720D02*
X887730D01*
Y36850D01*
X887795D01*
X890374Y37541D01*
X892686Y38876D01*
X894574Y40764D01*
X895909Y43076D01*
X896600Y45655D01*
Y45720D01*
D02*
G37*
G36*
X885190D02*
X876320D01*
Y45655D01*
X877011Y43076D01*
X878346Y40764D01*
X880234Y38876D01*
X882546Y37541D01*
X885125Y36850D01*
X885190D01*
Y45720D01*
D02*
G37*
G36*
X790950Y46730D02*
X771150D01*
Y26930D01*
X790950D01*
Y46730D01*
D02*
G37*
G36*
X765790Y35560D02*
X756920D01*
Y26690D01*
X756985D01*
X759564Y27381D01*
X761876Y28716D01*
X763764Y30604D01*
X765099Y32916D01*
X765790Y35495D01*
Y35560D01*
D02*
G37*
G36*
X754380D02*
X745510D01*
Y35495D01*
X746201Y32916D01*
X747536Y30604D01*
X749424Y28716D01*
X751736Y27381D01*
X754315Y26690D01*
X754380D01*
Y35560D01*
D02*
G37*
G36*
X689590D02*
X680720D01*
Y26690D01*
X680785D01*
X683364Y27381D01*
X685676Y28716D01*
X687564Y30604D01*
X688899Y32916D01*
X689590Y35495D01*
Y35560D01*
D02*
G37*
G36*
X678180D02*
X669310D01*
Y35495D01*
X670001Y32916D01*
X671336Y30604D01*
X673224Y28716D01*
X675536Y27381D01*
X678115Y26690D01*
X678180D01*
Y35560D01*
D02*
G37*
G36*
X911860Y101673D02*
X909402Y101185D01*
X907318Y99792D01*
X905926Y97708D01*
X905437Y95250D01*
Y56890D01*
X901960D01*
Y37090D01*
X905437D01*
Y19160D01*
X905926Y16702D01*
X907318Y14618D01*
X909402Y13226D01*
X911860Y12737D01*
X914318Y13226D01*
X916402Y14618D01*
X917794Y16702D01*
X918283Y19160D01*
Y37090D01*
X921760D01*
Y56890D01*
X918283D01*
Y95250D01*
X917794Y97708D01*
X916402Y99792D01*
X914318Y101185D01*
X911860Y101673D01*
D02*
G37*
G36*
X996734Y122140D02*
X994626D01*
X992678Y121333D01*
X991187Y119842D01*
X990380Y117894D01*
Y115786D01*
X991187Y113838D01*
X991296Y113729D01*
Y84366D01*
X990054Y83124D01*
X947223D01*
X945545Y82790D01*
X944123Y81840D01*
X941780Y79497D01*
X940829Y78075D01*
X940496Y76397D01*
Y13271D01*
X940387Y13162D01*
X939580Y11214D01*
Y9106D01*
X940387Y7158D01*
X941878Y5667D01*
X943826Y4860D01*
X945934D01*
X947882Y5667D01*
X949373Y7158D01*
X950180Y9106D01*
Y11214D01*
X949373Y13162D01*
X949264Y13271D01*
Y74356D01*
X991870D01*
X993548Y74689D01*
X994970Y75640D01*
X998780Y79450D01*
X999731Y80872D01*
X1000064Y82550D01*
Y113729D01*
X1000173Y113838D01*
X1000980Y115786D01*
Y117894D01*
X1000173Y119842D01*
X998682Y121333D01*
X996734Y122140D01*
D02*
G37*
%LPD*%
G36*
X537137Y217559D02*
X537626Y215101D01*
X539018Y213017D01*
X542447Y209588D01*
X542929Y208185D01*
X542378Y206973D01*
X541607Y206202D01*
X540800Y204254D01*
Y202146D01*
X541607Y200198D01*
X543098Y198707D01*
X545046Y197900D01*
X547154D01*
X549102Y198707D01*
X549211Y198816D01*
X628137D01*
X629339Y196816D01*
X628950Y195874D01*
Y193766D01*
X628040Y192405D01*
X627062D01*
X623993Y191583D01*
X621242Y189994D01*
X618996Y187748D01*
X617407Y184997D01*
X616585Y181928D01*
Y181610D01*
X640715D01*
Y181928D01*
X639893Y184997D01*
X638304Y187748D01*
X637572Y188481D01*
X638400Y190481D01*
X653190D01*
X654018Y188481D01*
X653286Y187748D01*
X651697Y184997D01*
X650875Y181928D01*
Y181610D01*
X675005D01*
Y181928D01*
X674183Y184997D01*
X672594Y187748D01*
X671862Y188481D01*
X672690Y190481D01*
X716690D01*
X717518Y188481D01*
X716786Y187748D01*
X715197Y184997D01*
X714375Y181928D01*
Y181610D01*
X738505D01*
Y181928D01*
X737683Y184997D01*
X736094Y187748D01*
X735362Y188481D01*
X736190Y190481D01*
X749469D01*
X749996Y189954D01*
Y177101D01*
X749887Y176992D01*
X749080Y175044D01*
Y172936D01*
X749887Y170988D01*
X751378Y169497D01*
X752712Y168944D01*
X752314Y166944D01*
X730789D01*
X730526Y168944D01*
X731097Y169097D01*
X733848Y170686D01*
X736094Y172932D01*
X737683Y175683D01*
X738505Y178752D01*
Y179070D01*
X714375D01*
Y178752D01*
X715197Y175683D01*
X716786Y172932D01*
X719032Y170686D01*
X721783Y169097D01*
X722354Y168944D01*
X722091Y166944D01*
X667289D01*
X667026Y168944D01*
X667597Y169097D01*
X670348Y170686D01*
X672594Y172932D01*
X674183Y175683D01*
X675005Y178752D01*
Y179070D01*
X650875D01*
Y178752D01*
X651697Y175683D01*
X653286Y172932D01*
X655532Y170686D01*
X658283Y169097D01*
X658854Y168944D01*
X658591Y166944D01*
X632999D01*
X632736Y168944D01*
X633307Y169097D01*
X636058Y170686D01*
X638304Y172932D01*
X639893Y175683D01*
X640715Y178752D01*
Y179070D01*
X616585D01*
Y178752D01*
X617407Y175683D01*
X618996Y172932D01*
X621242Y170686D01*
X623993Y169097D01*
X624564Y168944D01*
X624301Y166944D01*
X573565D01*
X572218Y168723D01*
X572557Y170685D01*
X572558Y170686D01*
X574804Y172932D01*
X576393Y175683D01*
X577215Y178752D01*
Y179070D01*
X553085D01*
Y178752D01*
X553907Y175683D01*
X555496Y172932D01*
X557742Y170686D01*
X560493Y169097D01*
X561417Y168850D01*
X562564Y166472D01*
X562402Y166080D01*
Y163972D01*
X563209Y162024D01*
X564700Y160533D01*
X565895Y160038D01*
X566112Y159483D01*
X566636Y157700D01*
X564688Y156893D01*
X563197Y155402D01*
X562390Y153454D01*
Y151346D01*
X563197Y149398D01*
X564688Y147907D01*
X566636Y147100D01*
X568744D01*
X570692Y147907D01*
X570801Y148016D01*
X576526D01*
X577863Y146016D01*
X577630Y145454D01*
Y143346D01*
X578437Y141398D01*
X579928Y139907D01*
X581876Y139100D01*
X583984D01*
X585932Y139907D01*
X586041Y140016D01*
X619574D01*
X620403Y138016D01*
X619188Y136801D01*
X617631Y134104D01*
X616825Y131097D01*
Y127983D01*
X617631Y124976D01*
X619188Y122279D01*
X620783Y120684D01*
X619954Y118684D01*
X573846D01*
X573017Y120684D01*
X574612Y122279D01*
X576169Y124976D01*
X576975Y127983D01*
Y131097D01*
X576169Y134104D01*
X574612Y136801D01*
X572411Y139002D01*
X569714Y140559D01*
X566707Y141365D01*
X563593D01*
X560586Y140559D01*
X557889Y139002D01*
X555688Y136801D01*
X554203Y134229D01*
X554074Y134082D01*
X551822Y133215D01*
X550964Y133570D01*
X548856D01*
X546908Y132763D01*
X546799Y132654D01*
X384111D01*
X384002Y132763D01*
X382054Y133570D01*
X379946D01*
X379144Y133238D01*
X377144Y134523D01*
Y148636D01*
X464170D01*
X465848Y148969D01*
X467270Y149920D01*
X471730Y154380D01*
X472681Y155802D01*
X472967Y157242D01*
X473330Y157786D01*
X473664Y159464D01*
Y199041D01*
X473819Y199196D01*
X504509D01*
X504998Y198707D01*
X506946Y197900D01*
X509054D01*
X511002Y198707D01*
X512493Y200198D01*
X513300Y202146D01*
Y204254D01*
X512493Y206202D01*
X511002Y207693D01*
X509054Y208500D01*
X506946D01*
X505652Y207964D01*
X472003D01*
X470325Y207631D01*
X468903Y206680D01*
X468512Y206289D01*
X466664Y207055D01*
Y212786D01*
X504889D01*
X504998Y212677D01*
X506946Y211870D01*
X509054D01*
X511002Y212677D01*
X512493Y214168D01*
X513300Y216116D01*
Y218224D01*
X512493Y220172D01*
X512489Y220177D01*
X513317Y222177D01*
X537137D01*
Y217559D01*
D02*
G37*
%LPC*%
G36*
X566738Y192405D02*
X566420D01*
Y181610D01*
X577215D01*
Y181928D01*
X576393Y184997D01*
X574804Y187748D01*
X572558Y189994D01*
X569807Y191583D01*
X566738Y192405D01*
D02*
G37*
G36*
X563880D02*
X563562D01*
X560493Y191583D01*
X557742Y189994D01*
X555496Y187748D01*
X553907Y184997D01*
X553085Y181928D01*
Y181610D01*
X563880D01*
Y192405D01*
D02*
G37*
%LPD*%
D92*
X232410Y163830D02*
Y292100D01*
X214630Y294640D02*
X223520Y285750D01*
Y176530D02*
Y285750D01*
X219710Y304800D02*
X232410Y292100D01*
X215900Y165100D02*
Y264160D01*
X209100Y270960D02*
X215900Y264160D01*
X368510Y570610D02*
X368720Y570400D01*
X368300Y674370D02*
X368510Y674160D01*
Y570610D02*
Y674160D01*
X651510Y74930D02*
Y97790D01*
X755650Y36830D02*
X768350Y49530D01*
Y62230D01*
X1104900Y52070D02*
Y63817D01*
X1107243Y66160D01*
X1181100Y52070D02*
Y63817D01*
X1107243Y66160D02*
X1178757D01*
X1181100Y63817D01*
X775970Y69850D02*
X884117D01*
X768350Y62230D02*
X775970Y69850D01*
X886460Y46990D02*
Y67507D01*
X884117Y69850D02*
X886460Y67507D01*
Y88900D01*
X622720Y570400D02*
X624690Y572370D01*
X505460Y673100D02*
X509270Y669290D01*
X571920Y570400D02*
Y583127D01*
X624690Y572370D02*
Y583127D01*
X571920D02*
X574263Y585470D01*
X627033D01*
X624690Y583127D02*
X627033Y585470D01*
X509270Y669290D02*
X582930D01*
X627033Y585470D02*
X709930D01*
X698920Y545000D02*
X701082Y547162D01*
X712459D02*
X712470Y547173D01*
X701082Y547162D02*
X712459D01*
X712470Y547173D02*
Y582930D01*
X709930Y585470D02*
X712470Y582930D01*
X324260Y336930D02*
X324640Y336550D01*
X292100Y674370D02*
X368300D01*
X281940Y337310D02*
X282320Y336930D01*
X324260D01*
X186530Y270960D02*
X192581D01*
X186530Y243357D02*
Y270960D01*
X177450Y243357D02*
X186530D01*
X177450D02*
Y270960D01*
X166370D02*
X177450D01*
X196850Y294640D02*
X214630D01*
X192581Y270960D02*
X209100D01*
X129540Y304800D02*
X219710D01*
X135070Y270960D02*
X166370D01*
X132809Y268699D02*
X135070Y270960D01*
X126850Y294490D02*
X196700D01*
X196850Y294640D01*
X124460Y292100D02*
X126850Y294490D01*
X132809Y211008D02*
Y268699D01*
X124460Y218440D02*
Y292100D01*
X125001Y203200D02*
X132809Y211008D01*
X124460Y203200D02*
X125001D01*
X111760Y233680D02*
X116840Y238760D01*
Y320040D01*
X121014Y142240D02*
X131174Y132080D01*
X168910D01*
X73660Y142240D02*
X121014D01*
X63500Y132080D02*
X73660Y142240D01*
X754380Y173990D02*
Y191770D01*
X751285Y194865D02*
X754380Y191770D01*
X755650Y334010D02*
X763270D01*
X753110Y331470D02*
X755650Y334010D01*
X753110Y326390D02*
Y331470D01*
X750570Y323850D02*
X753110Y326390D01*
X553151Y323850D02*
X750570D01*
X111760Y228600D02*
Y233680D01*
X429927Y367030D02*
X432270Y369373D01*
X262270Y358140D02*
X271160Y367030D01*
X432270Y369373D02*
Y617690D01*
X271160Y367030D02*
X429927D01*
X730250Y224790D02*
X793564D01*
X795907Y222447D01*
X708660Y203200D02*
X730250Y224790D01*
X795907Y206123D02*
Y222447D01*
Y206123D02*
X796290Y205740D01*
X546100Y203200D02*
X679152D01*
X679531Y202820D01*
X688258D01*
X688638Y203200D01*
X708660D01*
X548646Y237600D02*
X552946Y233300D01*
X734029D02*
X735679Y234950D01*
X736220D01*
X414020Y209550D02*
Y231957D01*
X419663Y237600D02*
X548646D01*
X730471Y241300D02*
X737201Y248030D01*
X556260Y241300D02*
X730471D01*
X414020Y231957D02*
X419663Y237600D01*
X552946Y233300D02*
X734029D01*
X331470Y146050D02*
Y332066D01*
X338494Y339090D01*
X556927D01*
X750570Y93980D02*
X768350Y111760D01*
X966470D01*
X995680Y82550D02*
Y116840D01*
X991870Y78740D02*
X995680Y82550D01*
X634249Y194820D02*
X634294Y194865D01*
X751285D01*
X496570Y10160D02*
Y41530D01*
X322580Y134620D02*
Y244687D01*
X264613Y247030D02*
X320237D01*
X322580Y244687D01*
X297180Y113030D02*
X297250Y112960D01*
X316106D01*
X319072Y120348D02*
X330144D01*
X313690Y125730D02*
X319072Y120348D01*
X313690Y125730D02*
Y237687D01*
X316106Y112960D02*
X316176Y112891D01*
X257613Y240030D02*
X311347D01*
X313690Y237687D01*
X432270Y617690D02*
X450850Y636270D01*
X228600Y632460D02*
X228970Y632090D01*
Y493833D02*
Y632090D01*
X381000Y128270D02*
X549910D01*
X407670Y203200D02*
X414020Y209550D01*
X409450Y248357D02*
X546111D01*
X492760Y256357D02*
X545917D01*
X546111Y248357D02*
X546114Y248360D01*
X545917Y256357D02*
X550808Y261248D01*
X488886Y264357D02*
X530879D01*
X535379Y268857D01*
X488886Y264357D02*
X488886Y264357D01*
X405130Y244037D02*
X409450Y248357D01*
X469900Y264357D02*
X488886D01*
X542425Y268857D02*
X542808Y269240D01*
X535379Y268857D02*
X542425D01*
X543177Y52211D02*
Y55497D01*
X543560Y55880D01*
X540496Y49530D02*
X543177Y52211D01*
X190303Y49530D02*
X540496D01*
X187960Y47187D02*
X190303Y49530D01*
X187960Y39370D02*
Y47187D01*
X147320Y39370D02*
X149860Y36830D01*
X185420D01*
X187960Y39370D01*
X147320D02*
Y43487D01*
X66040Y278130D02*
X71120Y283210D01*
X144327Y46480D02*
X147320Y43487D01*
X24640Y46480D02*
X144327D01*
X71120Y283210D02*
Y320040D01*
X27940Y278130D02*
X66040D01*
X21590Y271780D02*
X27940Y278130D01*
X21590Y49530D02*
X24640Y46480D01*
X21590Y49530D02*
Y271780D01*
X737201Y248030D02*
X1023240D01*
X1028550Y242720D01*
Y172720D02*
Y242720D01*
X550808Y261248D02*
Y301141D01*
X550625Y301324D02*
X550808Y301141D01*
X550625Y321324D02*
X553151Y323850D01*
X550625Y301324D02*
Y321324D01*
X393700Y203200D02*
X407670D01*
X858717Y62230D02*
X861060Y59887D01*
X824230Y62230D02*
X858717D01*
X861060Y46990D02*
Y59887D01*
X820420Y58420D02*
X824230Y62230D01*
X820420Y14423D02*
Y58420D01*
X818077Y12080D02*
X820420Y14423D01*
X733410Y12080D02*
X818077D01*
X730250Y15240D02*
X733410Y12080D01*
X730250Y15240D02*
Y36830D01*
X483599Y56530D02*
X484599Y57530D01*
X187404Y56530D02*
X483599D01*
X484599Y57530D02*
X485140D01*
X156790Y48950D02*
X179824D01*
X151130Y54610D02*
X156790Y48950D01*
X179824D02*
X187404Y56530D01*
X129540Y54610D02*
X151130D01*
X851987Y144400D02*
X854710Y147123D01*
X582930Y144400D02*
X851987D01*
X854710Y147123D02*
Y220980D01*
X752220Y286823D02*
Y302260D01*
X749877Y284480D02*
X752220Y286823D01*
X562610Y284480D02*
X749877D01*
X947223Y78740D02*
X991870D01*
X944880Y10160D02*
Y76397D01*
X947223Y78740D01*
X559270Y341433D02*
Y614877D01*
X556927Y339090D02*
X559270Y341433D01*
Y614877D02*
X561613Y617220D01*
X610870D01*
X464820Y217170D02*
X508000D01*
X462280Y162363D02*
Y214630D01*
X464820Y217170D01*
X365760Y86360D02*
Y154940D01*
X370840Y160020D01*
X459937D01*
X217170Y82550D02*
X361950D01*
X365760Y86360D01*
X459937Y160020D02*
X462280Y162363D01*
X840317Y152400D02*
X842660Y154743D01*
X567690Y152400D02*
X840317D01*
X842393Y229343D02*
Y230757D01*
Y229343D02*
X842660Y229076D01*
X842010Y231140D02*
X842393Y230757D01*
X842660Y154743D02*
Y229076D01*
X472003Y203580D02*
X507620D01*
X508000Y203200D01*
X469280Y200857D02*
X472003Y203580D01*
X469280Y159464D02*
Y200857D01*
X372760Y76003D02*
Y150677D01*
X375103Y153020D01*
X464170D01*
X237490Y73660D02*
X370417D01*
X372760Y76003D01*
X468630Y158814D02*
X469280Y159464D01*
X468630Y157480D02*
Y158814D01*
X464170Y153020D02*
X468630Y157480D01*
X833317Y5080D02*
X835660Y7423D01*
X707193Y5080D02*
X833317D01*
X835660Y7423D02*
Y46990D01*
X704850Y7423D02*
Y36830D01*
Y7423D02*
X707193Y5080D01*
X262270Y249373D02*
Y358140D01*
Y249373D02*
X264613Y247030D01*
X391160Y114300D02*
X651808D01*
X568243Y165026D02*
X570710Y162560D01*
X831667D01*
X834010Y164903D01*
X567702Y165026D02*
X568243D01*
X834010Y164903D02*
Y239650D01*
X834390Y240030D01*
X394429Y64530D02*
X394970D01*
X188713Y63530D02*
X393429D01*
X394429Y64530D01*
X186370Y65873D02*
Y86680D01*
Y65873D02*
X188713Y63530D01*
X116840Y92513D02*
Y132080D01*
X182880Y90170D02*
X186370Y86680D01*
X116840Y92513D02*
X119183Y90170D01*
X182880D01*
X231313Y491490D02*
X252927D01*
X255270Y242373D02*
X257613Y240030D01*
X255270Y242373D02*
Y489147D01*
X252927Y491490D02*
X255270Y489147D01*
X330144Y120348D02*
X330415Y120077D01*
X228970Y493833D02*
X231313Y491490D01*
X405130Y219513D02*
Y244037D01*
X402787Y217170D02*
X405130Y219513D01*
X393700Y217170D02*
X402787D01*
X63022Y133972D02*
Y262268D01*
X63117Y132463D02*
X63500Y132080D01*
X63117Y132463D02*
Y133877D01*
X63022Y133972D02*
X63117Y133877D01*
X127360Y123550D02*
X216810D01*
X217170Y123910D01*
X127000Y123190D02*
X127360Y123550D01*
X63117Y263777D02*
X63500Y264160D01*
X63022Y262268D02*
X63117Y262363D01*
Y263777D01*
D93*
X293370Y353060D02*
X477520D01*
X292100Y354330D02*
X293370Y353060D01*
X549418Y740410D02*
X621070D01*
X537702Y697230D02*
X543560Y703088D01*
Y734552D02*
X549418Y740410D01*
X519430Y697230D02*
X537702D01*
X543560Y703088D02*
Y734552D01*
X290830Y408940D02*
Y489520D01*
X621070Y740410D02*
X631190Y730290D01*
Y730250D02*
Y730290D01*
X321605Y702963D02*
X325120Y706477D01*
Y737870D01*
X307340Y698500D02*
X311803Y702963D01*
X321605D01*
X325120Y737870D02*
X326390Y739140D01*
Y739435D01*
X329905Y742950D01*
X407710D01*
X416560Y734100D01*
Y734060D02*
Y734100D01*
X87630Y698500D02*
X88900Y697230D01*
X107950D01*
X111760Y693420D01*
Y659130D02*
Y693420D01*
Y659130D02*
X115570Y655320D01*
X179365D01*
X182880Y658835D01*
Y727710D01*
X187960Y732790D01*
X205740D01*
D94*
X728980Y205740D02*
X734060Y210820D01*
X760730D01*
X764540Y214630D01*
X683259Y211820D02*
X684530D01*
X680449Y214630D02*
X683259Y211820D01*
X543560Y217559D02*
Y227000D01*
X424180Y228600D02*
X541960D01*
X547759Y213360D02*
X570230D01*
X543560Y217559D02*
X547759Y213360D01*
X911860Y46990D02*
Y95250D01*
Y19160D02*
Y46990D01*
X635000Y214630D02*
X680449D01*
X567690Y17910D02*
Y48260D01*
X698500Y66429D02*
Y95250D01*
X600710Y66429D02*
X603639Y63500D01*
X600710Y66429D02*
Y96520D01*
X695571Y63500D02*
X698500Y66429D01*
X603639Y63500D02*
X695571D01*
X597781D02*
X600710Y66429D01*
X567690Y63500D02*
X597781D01*
D95*
X541960Y228600D02*
X543560Y227000D01*
X1244600Y52070D02*
Y68580D01*
X1239520Y73660D02*
X1244600Y68580D01*
X1057910Y73660D02*
X1239520D01*
X1054100Y69850D02*
X1057910Y73660D01*
X1054100Y52070D02*
Y69850D01*
D96*
X191770Y138430D02*
X285263D01*
X287020Y136673D01*
Y101600D02*
Y136673D01*
Y101600D02*
X289560Y99060D01*
X316230D01*
D97*
X582930Y694690D02*
D03*
Y720090D02*
D03*
Y669290D02*
D03*
X151130Y725170D02*
D03*
Y699770D02*
D03*
Y674370D02*
D03*
X368300Y725170D02*
D03*
Y699770D02*
D03*
Y674370D02*
D03*
D98*
X1231850Y172720D02*
D03*
X1206450D02*
D03*
X1181050D02*
D03*
X1155650D02*
D03*
X1130250D02*
D03*
X1104850D02*
D03*
X977750D02*
D03*
X1054050D02*
D03*
X1003300D02*
D03*
X952350D02*
D03*
X1079450D02*
D03*
X1028550D02*
D03*
X926950D02*
D03*
X593090Y48260D02*
D03*
X618490D02*
D03*
X643890D02*
D03*
X41910Y527050D02*
D03*
Y637540D02*
D03*
Y582928D02*
D03*
D99*
X821300Y1015720D02*
D03*
X1310050Y1014970D02*
D03*
X526980Y1002030D02*
D03*
X576980D02*
D03*
X626980D02*
D03*
X146050D02*
D03*
X196050D02*
D03*
X96050D02*
D03*
X317500D02*
D03*
X367500D02*
D03*
X417500D02*
D03*
D100*
X901550Y172720D02*
D03*
X41910Y552450D02*
D03*
Y662940D02*
D03*
Y608327D02*
D03*
D101*
X661670Y256540D02*
D03*
X725170D02*
D03*
X661670Y307340D02*
D03*
X725170D02*
D03*
X565150Y129540D02*
D03*
X628650D02*
D03*
X565150Y180340D02*
D03*
X628650D02*
D03*
X662940Y129540D02*
D03*
X726440D02*
D03*
X662940Y180340D02*
D03*
X726440D02*
D03*
X565150Y256540D02*
D03*
X628650D02*
D03*
X565150Y307340D02*
D03*
X628650D02*
D03*
D102*
X698920Y570400D02*
D03*
X673520D02*
D03*
Y545000D02*
D03*
X648120Y570400D02*
D03*
Y545000D02*
D03*
X622720D02*
D03*
X597320Y570400D02*
D03*
Y545000D02*
D03*
X571920D02*
D03*
X546520Y570400D02*
D03*
Y545000D02*
D03*
X521120Y570400D02*
D03*
X495720D02*
D03*
Y545000D02*
D03*
X470320Y570400D02*
D03*
Y545000D02*
D03*
X444920D02*
D03*
X419520Y570400D02*
D03*
Y545000D02*
D03*
X394120Y570400D02*
D03*
Y545000D02*
D03*
X368720D02*
D03*
X343320Y570400D02*
D03*
Y545000D02*
D03*
X317920Y570400D02*
D03*
X292520D02*
D03*
Y545000D02*
D03*
X267120D02*
D03*
X241720Y570400D02*
D03*
Y545000D02*
D03*
X216320Y570400D02*
D03*
X317920Y545000D02*
D03*
X267120Y570400D02*
D03*
X368720D02*
D03*
X521120Y545000D02*
D03*
X444920Y570400D02*
D03*
X622720D02*
D03*
X571920D02*
D03*
X698920Y545000D02*
D03*
D103*
X216320D02*
D03*
D104*
X209550Y914400D02*
D03*
X148590Y767080D02*
D03*
X87630Y914400D02*
D03*
X209550Y792480D02*
D03*
X87630D02*
D03*
X430530Y914400D02*
D03*
X369570Y767080D02*
D03*
X308610Y914400D02*
D03*
X430530Y792480D02*
D03*
X308610D02*
D03*
X642620Y913130D02*
D03*
X581660Y765810D02*
D03*
X520700Y913130D02*
D03*
Y791210D02*
D03*
X642620D02*
D03*
D105*
X704850Y36830D02*
D03*
X730250D02*
D03*
X679450D02*
D03*
X755650D02*
D03*
X835660Y46990D02*
D03*
X861060D02*
D03*
X886460D02*
D03*
X1244600Y52070D02*
D03*
X1270000D02*
D03*
D106*
X781050Y36830D02*
D03*
X911860Y46990D02*
D03*
X1295400Y52070D02*
D03*
D107*
X160020Y447261D02*
D03*
X96520D02*
D03*
D108*
X134620Y396461D02*
D03*
D109*
X567690Y48260D02*
D03*
D111*
X87630Y723900D02*
D03*
Y698500D02*
D03*
X307340Y723900D02*
D03*
Y698500D02*
D03*
X519430Y697230D02*
D03*
Y722630D02*
D03*
D112*
X1079500Y52070D02*
D03*
X1054100D02*
D03*
X1028700D02*
D03*
X1003300D02*
D03*
X977900D02*
D03*
X1130300D02*
D03*
X1155700D02*
D03*
X1104900D02*
D03*
X1181100D02*
D03*
D113*
X1206500D02*
D03*
D114*
X747620Y67700D02*
D03*
Y557700D02*
D03*
X167620D02*
D03*
Y67700D02*
D03*
D115*
X245110Y231140D02*
D03*
X252730Y203200D02*
D03*
X651510Y74930D02*
D03*
Y97790D02*
D03*
X886460Y88900D02*
D03*
X505460Y673100D02*
D03*
X324640Y336550D02*
D03*
X292100Y674370D02*
D03*
X281940Y337310D02*
D03*
X196850Y294640D02*
D03*
X223520Y176530D02*
D03*
X215900Y165100D02*
D03*
X124460Y218440D02*
D03*
Y203200D02*
D03*
X168910Y132080D02*
D03*
X191770Y138430D02*
D03*
X754380Y173990D02*
D03*
X763270Y334010D02*
D03*
X166370Y270960D02*
D03*
X111760Y228600D02*
D03*
X116840Y320040D02*
D03*
X292100Y354330D02*
D03*
X764540Y214630D02*
D03*
X728980Y205740D02*
D03*
X546100Y203200D02*
D03*
X684530Y211820D02*
D03*
X556260Y241300D02*
D03*
X477520Y353060D02*
D03*
X966470Y111760D02*
D03*
X995680Y116840D02*
D03*
X911860Y95250D02*
D03*
X634249Y194820D02*
D03*
X570230Y213360D02*
D03*
X635000Y214630D02*
D03*
X567690Y17910D02*
D03*
X496570Y10160D02*
D03*
X911860Y19160D02*
D03*
X331470Y146050D02*
D03*
X322580Y134620D02*
D03*
X316176Y112891D02*
D03*
X424180Y228600D02*
D03*
X129540Y304800D02*
D03*
X450850Y636270D02*
D03*
X228600Y632460D02*
D03*
X290830Y489520D02*
D03*
X381000Y128270D02*
D03*
X549910D02*
D03*
X546114Y248360D02*
D03*
X492760Y256357D02*
D03*
X469900Y264357D02*
D03*
X543560Y55880D02*
D03*
X71120Y320040D02*
D03*
X736220Y234950D02*
D03*
X393700Y203200D02*
D03*
X796290Y205740D02*
D03*
X485140Y57530D02*
D03*
X129540Y54610D02*
D03*
X698500Y95250D02*
D03*
X600710Y96520D02*
D03*
X567690Y63500D02*
D03*
X582930Y144400D02*
D03*
X854710Y220980D02*
D03*
X752220Y302260D02*
D03*
X562610Y284480D02*
D03*
X542808Y269240D02*
D03*
X496570Y41530D02*
D03*
X944880Y10160D02*
D03*
X610870Y617220D02*
D03*
X508000Y217170D02*
D03*
X217170Y82550D02*
D03*
X842010Y231140D02*
D03*
X567690Y152400D02*
D03*
X237490Y73660D02*
D03*
X508000Y203200D02*
D03*
X750570Y93980D02*
D03*
X651808Y114300D02*
D03*
X391160D02*
D03*
X834390Y240030D02*
D03*
X567702Y165026D02*
D03*
X394970Y64530D02*
D03*
X116840Y132080D02*
D03*
X330415Y120077D02*
D03*
X393700Y217170D02*
D03*
X290830Y408940D02*
D03*
X63500Y264160D02*
D03*
X232410Y163830D02*
D03*
X316230Y99060D02*
D03*
X297180Y113030D02*
D03*
X217170Y123910D02*
D03*
X127000Y123190D02*
D03*
X63500Y132080D02*
D03*
D116*
X74022Y224692D02*
D03*
Y180692D02*
D03*
D117*
X209550Y914400D02*
Y988530D01*
X87630Y914400D02*
Y993610D01*
X148590Y767080D02*
Y999490D01*
X417500Y1002030D02*
X430530Y989000D01*
Y914400D02*
Y989000D01*
X308610Y993140D02*
X317500Y1002030D01*
X308610Y914400D02*
Y993140D01*
X369570Y767080D02*
Y999960D01*
X367500Y1002030D02*
X369570Y999960D01*
X581660Y765810D02*
Y997350D01*
X576980Y1002030D02*
X581660Y997350D01*
X642620Y913130D02*
Y986390D01*
X520700Y913130D02*
Y995750D01*
X626980Y1002030D02*
X642620Y986390D01*
X520700Y995750D02*
X526980Y1002030D01*
X196050D02*
X209550Y988530D01*
X146050Y1002030D02*
X148590Y999490D01*
X87630Y993610D02*
X96050Y1002030D01*
D118*
X631190Y654050D02*
D03*
X205740Y656590D02*
D03*
X416560Y657860D02*
D03*
D119*
X656590Y654050D02*
D03*
Y730250D02*
D03*
X631190D02*
D03*
X231140Y656590D02*
D03*
Y732790D02*
D03*
X205740D02*
D03*
X441960Y657860D02*
D03*
Y734060D02*
D03*
X416560D02*
D03*
M02*
