G04*
G04 #@! TF.GenerationSoftware,Altium Limited,Altium Designer,25.5.2 (35)*
G04*
G04 Layer_Color=8388736*
%FSLAX44Y44*%
%MOMM*%
G71*
G04*
G04 #@! TF.SameCoordinates,15FE918A-F286-447B-A6B9-73AEC13AD3D3*
G04*
G04*
G04 #@! TF.FilePolarity,Negative*
G04*
G01*
G75*
%ADD36R,1.4986X0.8890*%
%ADD37R,0.8890X1.4986*%
%ADD38R,1.0414X1.0414*%
%ADD47R,2.7032X2.2032*%
%ADD48R,2.4532X0.7032*%
%ADD49R,0.6032X0.6832*%
%ADD50R,1.8032X4.2032*%
%ADD51R,4.2032X2.2032*%
%ADD52R,3.4532X1.3032*%
%ADD53R,9.3032X10.3032*%
%ADD54R,1.0532X1.4032*%
%ADD55R,1.3032X2.3532*%
%ADD56R,1.3032X2.3532*%
%ADD57R,3.7032X2.3532*%
%ADD58R,1.1024X1.1524*%
G04:AMPARAMS|DCode=59|XSize=0.4632mm|YSize=1.1732mm|CornerRadius=0.1666mm|HoleSize=0mm|Usage=FLASHONLY|Rotation=90.000|XOffset=0mm|YOffset=0mm|HoleType=Round|Shape=RoundedRectangle|*
%AMROUNDEDRECTD59*
21,1,0.4632,0.8400,0,0,90.0*
21,1,0.1300,1.1732,0,0,90.0*
1,1,0.3332,0.4200,0.0650*
1,1,0.3332,0.4200,-0.0650*
1,1,0.3332,-0.4200,-0.0650*
1,1,0.3332,-0.4200,0.0650*
%
%ADD59ROUNDEDRECTD59*%
G04:AMPARAMS|DCode=60|XSize=0.4632mm|YSize=1.1732mm|CornerRadius=0.1666mm|HoleSize=0mm|Usage=FLASHONLY|Rotation=180.000|XOffset=0mm|YOffset=0mm|HoleType=Round|Shape=RoundedRectangle|*
%AMROUNDEDRECTD60*
21,1,0.4632,0.8400,0,0,180.0*
21,1,0.1300,1.1732,0,0,180.0*
1,1,0.3332,-0.0650,0.4200*
1,1,0.3332,0.0650,0.4200*
1,1,0.3332,0.0650,-0.4200*
1,1,0.3332,-0.0650,-0.4200*
%
%ADD60ROUNDEDRECTD60*%
%ADD61R,3.3532X3.3532*%
%ADD62R,1.0032X1.4032*%
%ADD63R,1.5032X1.4032*%
%ADD64R,2.7032X1.9032*%
%ADD65R,10.2032X6.2032*%
%ADD66R,1.0414X1.1024*%
%ADD67R,1.1024X1.0414*%
%ADD68R,1.9032X2.7032*%
%ADD69R,1.4032X1.5032*%
%ADD70R,1.1524X1.1024*%
%ADD71O,2.7432X1.8796*%
%ADD72C,1.7032*%
%ADD73C,1.7272*%
%ADD74R,1.7032X1.7032*%
%ADD75C,2.1082*%
%ADD76C,1.7340*%
%ADD77R,1.7340X1.7340*%
%ADD78C,3.2512*%
%ADD79C,1.7232*%
%ADD80R,1.7232X1.7232*%
%ADD81R,2.7432X4.2672*%
%ADD82R,4.2672X2.7432*%
%ADD83R,1.7032X1.7032*%
%ADD84R,1.7272X1.7272*%
%ADD85R,2.0032X2.0032*%
%ADD86C,1.9812*%
%ADD87R,1.9812X1.9812*%
%ADD88C,2.9532*%
%ADD89C,0.8032*%
%ADD90C,1.4032*%
D36*
X527265Y178685D02*
D03*
X352265Y89785D02*
D03*
Y102485D02*
D03*
Y153285D02*
D03*
Y165985D02*
D03*
Y216785D02*
D03*
Y115185D02*
D03*
X527265Y165985D02*
D03*
X352265Y191385D02*
D03*
Y127885D02*
D03*
X527265Y102485D02*
D03*
Y191385D02*
D03*
Y204085D02*
D03*
X352265Y229485D02*
D03*
X527265Y153285D02*
D03*
Y216785D02*
D03*
X352265Y140585D02*
D03*
X527265Y115185D02*
D03*
Y140585D02*
D03*
X352265Y242185D02*
D03*
X527265Y229485D02*
D03*
X352265Y204085D02*
D03*
X527265Y127885D02*
D03*
Y242185D02*
D03*
Y89785D02*
D03*
X352265Y178685D02*
D03*
Y254885D02*
D03*
X527265D02*
D03*
D37*
X471515Y77285D02*
D03*
X458815D02*
D03*
X446115D02*
D03*
X433415D02*
D03*
X420715D02*
D03*
X408015D02*
D03*
X382615D02*
D03*
X395315D02*
D03*
X496915D02*
D03*
X484215D02*
D03*
D38*
X417715Y166235D02*
D03*
X432965D02*
D03*
X417715Y181485D02*
D03*
Y196735D02*
D03*
X448215Y166235D02*
D03*
X432965Y196735D02*
D03*
Y181485D02*
D03*
X448215Y196735D02*
D03*
Y181485D02*
D03*
D47*
X42418Y157734D02*
D03*
X99822Y157692D02*
D03*
X42418Y247734D02*
D03*
X99822Y247692D02*
D03*
D48*
X103378Y186944D02*
D03*
X103251Y194818D02*
D03*
X103124Y202692D02*
D03*
X102997Y210566D02*
D03*
X102870Y218440D02*
D03*
D49*
X153670Y288790D02*
D03*
Y275590D02*
D03*
X180340D02*
D03*
Y288790D02*
D03*
D50*
X727710Y360160D02*
D03*
Y422160D02*
D03*
D51*
X206160Y454660D02*
D03*
X264160D02*
D03*
D52*
X324640Y403370D02*
D03*
Y437370D02*
D03*
Y454370D02*
D03*
Y386370D02*
D03*
Y420370D02*
D03*
D53*
X421640D02*
D03*
D54*
X87122Y293624D02*
D03*
X106375Y293570D02*
D03*
X96571Y318570D02*
D03*
X105918Y108966D02*
D03*
X86665Y109020D02*
D03*
X96469Y84020D02*
D03*
D55*
X296050Y258560D02*
D03*
X250050D02*
D03*
D56*
X273050D02*
D03*
D57*
X273050Y320560D02*
D03*
D58*
X764540Y186810D02*
D03*
Y201810D02*
D03*
X627380Y374530D02*
D03*
Y359530D02*
D03*
X229870Y131050D02*
D03*
Y146050D02*
D03*
X180340Y129540D02*
D03*
Y114540D02*
D03*
X217170Y112910D02*
D03*
Y97910D02*
D03*
X151130Y130690D02*
D03*
Y115690D02*
D03*
X270510Y744100D02*
D03*
Y729100D02*
D03*
Y711200D02*
D03*
Y696200D02*
D03*
X478790Y747910D02*
D03*
Y732910D02*
D03*
Y709810D02*
D03*
Y694810D02*
D03*
X631190Y633610D02*
D03*
Y618610D02*
D03*
X698500Y744100D02*
D03*
Y729100D02*
D03*
Y697350D02*
D03*
Y712350D02*
D03*
X201930Y113150D02*
D03*
Y128150D02*
D03*
X781050Y201930D02*
D03*
Y186930D02*
D03*
D59*
X200660Y165580D02*
D03*
Y170580D02*
D03*
X153260Y195580D02*
D03*
Y190580D02*
D03*
Y185580D02*
D03*
Y180580D02*
D03*
Y175580D02*
D03*
Y170580D02*
D03*
Y165580D02*
D03*
X200660Y190580D02*
D03*
Y195580D02*
D03*
Y185580D02*
D03*
Y175580D02*
D03*
Y180580D02*
D03*
D60*
X186960Y204280D02*
D03*
X181960D02*
D03*
X176960D02*
D03*
X171960D02*
D03*
X166960D02*
D03*
X161960D02*
D03*
Y156880D02*
D03*
X166960D02*
D03*
X171960D02*
D03*
X176960D02*
D03*
X181960D02*
D03*
X186960D02*
D03*
X191960D02*
D03*
Y204280D02*
D03*
D61*
X176960Y180580D02*
D03*
D62*
X43180Y50090D02*
D03*
Y120090D02*
D03*
X41910Y357020D02*
D03*
Y287020D02*
D03*
D63*
X698500Y657860D02*
D03*
Y677360D02*
D03*
X270510Y657000D02*
D03*
Y676500D02*
D03*
X481330Y654050D02*
D03*
Y673550D02*
D03*
D64*
X192720Y318770D02*
D03*
X152720D02*
D03*
D65*
X543560Y377190D02*
D03*
X544560Y483190D02*
D03*
D66*
X703580Y226060D02*
D03*
X718580D02*
D03*
X273006Y231222D02*
D03*
X258006D02*
D03*
X306070Y151130D02*
D03*
X291070D02*
D03*
X259124Y190418D02*
D03*
X274124D02*
D03*
X201690Y251460D02*
D03*
X186690D02*
D03*
X201886Y231222D02*
D03*
X186886D02*
D03*
X87630Y356870D02*
D03*
X102630D02*
D03*
X81280Y49530D02*
D03*
X96280D02*
D03*
X614724Y96438D02*
D03*
X629724D02*
D03*
X711244D02*
D03*
X726244D02*
D03*
X605834Y225978D02*
D03*
X620834D02*
D03*
D67*
X666832Y359454D02*
D03*
Y374454D02*
D03*
X646512Y359454D02*
D03*
Y374454D02*
D03*
X290830Y230900D02*
D03*
Y215900D02*
D03*
X309798Y231096D02*
D03*
Y216096D02*
D03*
X241218Y190456D02*
D03*
Y175456D02*
D03*
D68*
X643890Y430850D02*
D03*
Y470850D02*
D03*
D69*
X167230Y251460D02*
D03*
X147730D02*
D03*
X636680Y398780D02*
D03*
X656180D02*
D03*
D70*
X306070Y170180D02*
D03*
X291070D02*
D03*
X515740Y55880D02*
D03*
X530740D02*
D03*
X155898Y229575D02*
D03*
X170898D02*
D03*
X87750Y337820D02*
D03*
X102750D02*
D03*
X81520Y67310D02*
D03*
X96520D02*
D03*
X102750Y274320D02*
D03*
X87750D02*
D03*
X86480Y132080D02*
D03*
X101480D02*
D03*
X587890Y96520D02*
D03*
X572890D02*
D03*
X670560D02*
D03*
X685560D02*
D03*
X571740Y226060D02*
D03*
X586740D02*
D03*
X684410D02*
D03*
X669410D02*
D03*
X194430Y633730D02*
D03*
X209430D02*
D03*
X412870Y636270D02*
D03*
X427870D02*
D03*
X779660Y303530D02*
D03*
X764660D02*
D03*
X779660Y323850D02*
D03*
X764660D02*
D03*
D71*
X582930Y694690D02*
D03*
Y720090D02*
D03*
Y669290D02*
D03*
X151130Y725170D02*
D03*
Y699770D02*
D03*
Y674370D02*
D03*
X368300Y725170D02*
D03*
Y699770D02*
D03*
Y674370D02*
D03*
D72*
X1231850Y172720D02*
D03*
X1206450D02*
D03*
X1181050D02*
D03*
X1155650D02*
D03*
X1130250D02*
D03*
X1104850D02*
D03*
X977750D02*
D03*
X1054050D02*
D03*
X1003300D02*
D03*
X952350D02*
D03*
X1079450D02*
D03*
X1028550D02*
D03*
X926950D02*
D03*
X593090Y48260D02*
D03*
X618490D02*
D03*
X643890D02*
D03*
X41910Y527050D02*
D03*
Y637540D02*
D03*
Y582928D02*
D03*
D73*
X821300Y1015720D02*
D03*
X1310050Y1014970D02*
D03*
X656590Y654050D02*
D03*
Y730250D02*
D03*
X631190D02*
D03*
X526980Y1002030D02*
D03*
X576980D02*
D03*
X626980D02*
D03*
X146050D02*
D03*
X196050D02*
D03*
X96050D02*
D03*
X317500D02*
D03*
X367500D02*
D03*
X417500D02*
D03*
X231140Y656590D02*
D03*
Y732790D02*
D03*
X205740D02*
D03*
X441960Y657860D02*
D03*
Y734060D02*
D03*
X416560D02*
D03*
D74*
X901550Y172720D02*
D03*
X41910Y552450D02*
D03*
Y662940D02*
D03*
Y608327D02*
D03*
D75*
X661670Y256540D02*
D03*
X725170D02*
D03*
X661670Y307340D02*
D03*
X725170D02*
D03*
X565150Y129540D02*
D03*
X628650D02*
D03*
X565150Y180340D02*
D03*
X628650D02*
D03*
X662940Y129540D02*
D03*
X726440D02*
D03*
X662940Y180340D02*
D03*
X726440D02*
D03*
X565150Y256540D02*
D03*
X628650D02*
D03*
X565150Y307340D02*
D03*
X628650D02*
D03*
D76*
X698920Y570400D02*
D03*
X673520D02*
D03*
Y545000D02*
D03*
X648120Y570400D02*
D03*
Y545000D02*
D03*
X622720D02*
D03*
X597320Y570400D02*
D03*
Y545000D02*
D03*
X571920D02*
D03*
X546520Y570400D02*
D03*
Y545000D02*
D03*
X521120Y570400D02*
D03*
X495720D02*
D03*
Y545000D02*
D03*
X470320Y570400D02*
D03*
Y545000D02*
D03*
X444920D02*
D03*
X419520Y570400D02*
D03*
Y545000D02*
D03*
X394120Y570400D02*
D03*
Y545000D02*
D03*
X368720D02*
D03*
X343320Y570400D02*
D03*
Y545000D02*
D03*
X317920Y570400D02*
D03*
X292520D02*
D03*
Y545000D02*
D03*
X267120D02*
D03*
X241720Y570400D02*
D03*
Y545000D02*
D03*
X216320Y570400D02*
D03*
X317920Y545000D02*
D03*
X267120Y570400D02*
D03*
X368720D02*
D03*
X521120Y545000D02*
D03*
X444920Y570400D02*
D03*
X622720D02*
D03*
X571920D02*
D03*
X698920Y545000D02*
D03*
D77*
X216320D02*
D03*
D78*
X209550Y914400D02*
D03*
X148590Y767080D02*
D03*
X87630Y914400D02*
D03*
X209550Y792480D02*
D03*
X87630D02*
D03*
X430530Y914400D02*
D03*
X369570Y767080D02*
D03*
X308610Y914400D02*
D03*
X430530Y792480D02*
D03*
X308610D02*
D03*
X642620Y913130D02*
D03*
X581660Y765810D02*
D03*
X520700Y913130D02*
D03*
Y791210D02*
D03*
X642620D02*
D03*
D79*
X704850Y36830D02*
D03*
X730250D02*
D03*
X679450D02*
D03*
X755650D02*
D03*
X835660Y46990D02*
D03*
X861060D02*
D03*
X886460D02*
D03*
X1244600Y52070D02*
D03*
X1270000D02*
D03*
D80*
X781050Y36830D02*
D03*
X911860Y46990D02*
D03*
X1295400Y52070D02*
D03*
D81*
X160020Y447261D02*
D03*
X96520D02*
D03*
D82*
X134620Y396461D02*
D03*
D83*
X567690Y48260D02*
D03*
D84*
X631190Y654050D02*
D03*
X205740Y656590D02*
D03*
X416560Y657860D02*
D03*
D85*
X87630Y723900D02*
D03*
Y698500D02*
D03*
X307340Y723900D02*
D03*
Y698500D02*
D03*
X519430Y697230D02*
D03*
Y722630D02*
D03*
D86*
X1079500Y52070D02*
D03*
X1054100D02*
D03*
X1028700D02*
D03*
X1003300D02*
D03*
X977900D02*
D03*
X1130300D02*
D03*
X1155700D02*
D03*
X1104900D02*
D03*
X1181100D02*
D03*
D87*
X1206500D02*
D03*
D88*
X747620Y67700D02*
D03*
Y557700D02*
D03*
X167620D02*
D03*
Y67700D02*
D03*
D89*
X245110Y231140D02*
D03*
X252730Y203200D02*
D03*
X651510Y74930D02*
D03*
Y97790D02*
D03*
X886460Y88900D02*
D03*
X505460Y673100D02*
D03*
X324640Y336550D02*
D03*
X292100Y674370D02*
D03*
X281940Y337310D02*
D03*
X196850Y294640D02*
D03*
X223520Y176530D02*
D03*
X215900Y165100D02*
D03*
X124460Y218440D02*
D03*
Y203200D02*
D03*
X168910Y132080D02*
D03*
X191770Y138430D02*
D03*
X754380Y173990D02*
D03*
X763270Y334010D02*
D03*
X166370Y270960D02*
D03*
X111760Y228600D02*
D03*
X116840Y320040D02*
D03*
X292100Y354330D02*
D03*
X764540Y214630D02*
D03*
X728980Y205740D02*
D03*
X546100Y203200D02*
D03*
X684530Y211820D02*
D03*
X556260Y241300D02*
D03*
X477520Y353060D02*
D03*
X966470Y111760D02*
D03*
X995680Y116840D02*
D03*
X911860Y95250D02*
D03*
X634249Y194820D02*
D03*
X570230Y213360D02*
D03*
X635000Y214630D02*
D03*
X567690Y17910D02*
D03*
X496570Y10160D02*
D03*
X911860Y19160D02*
D03*
X331470Y146050D02*
D03*
X322580Y134620D02*
D03*
X316176Y112891D02*
D03*
X424180Y228600D02*
D03*
X129540Y304800D02*
D03*
X450850Y636270D02*
D03*
X228600Y632460D02*
D03*
X290830Y489520D02*
D03*
X381000Y128270D02*
D03*
X549910D02*
D03*
X546114Y248360D02*
D03*
X492760Y256357D02*
D03*
X469900Y264357D02*
D03*
X543560Y55880D02*
D03*
X71120Y320040D02*
D03*
X736220Y234950D02*
D03*
X393700Y203200D02*
D03*
X796290Y205740D02*
D03*
X485140Y57530D02*
D03*
X129540Y54610D02*
D03*
X698500Y95250D02*
D03*
X600710Y96520D02*
D03*
X567690Y63500D02*
D03*
X582930Y144400D02*
D03*
X854710Y220980D02*
D03*
X752220Y302260D02*
D03*
X562610Y284480D02*
D03*
X542808Y269240D02*
D03*
X496570Y41530D02*
D03*
X944880Y10160D02*
D03*
X610870Y617220D02*
D03*
X508000Y217170D02*
D03*
X217170Y82550D02*
D03*
X842010Y231140D02*
D03*
X567690Y152400D02*
D03*
X237490Y73660D02*
D03*
X508000Y203200D02*
D03*
X750570Y93980D02*
D03*
X651808Y114300D02*
D03*
X391160D02*
D03*
X834390Y240030D02*
D03*
X567702Y165026D02*
D03*
X394970Y64530D02*
D03*
X116840Y132080D02*
D03*
X330415Y120077D02*
D03*
X393700Y217170D02*
D03*
X290830Y408940D02*
D03*
X63500Y264160D02*
D03*
X232410Y163830D02*
D03*
X316230Y99060D02*
D03*
X297180Y113030D02*
D03*
X217170Y123910D02*
D03*
X127000Y123190D02*
D03*
X63500Y132080D02*
D03*
D90*
X74022Y224692D02*
D03*
Y180692D02*
D03*
M02*
