G04*
G04 #@! TF.GenerationSoftware,Altium Limited,Altium Designer,25.5.2 (35)*
G04*
G04 Layer_Color=128*
%FSLAX44Y44*%
%MOMM*%
G71*
G04*
G04 #@! TF.SameCoordinates,15FE918A-F286-447B-A6B9-73AEC13AD3D3*
G04*
G04*
G04 #@! TF.FilePolarity,Positive*
G04*
G01*
G75*
%ADD15C,0.1270*%
D15*
X578866Y694690D02*
X586994D01*
X582930Y690626D02*
Y698754D01*
X578866Y720090D02*
X586994D01*
X582930Y716026D02*
Y724154D01*
X578866Y669290D02*
X586994D01*
X582930Y665226D02*
Y673354D01*
X1227350Y172720D02*
X1236350D01*
X1231850Y168220D02*
Y177220D01*
X1201950Y172720D02*
X1210950D01*
X1206450Y168220D02*
Y177220D01*
X1176550Y172720D02*
X1185550D01*
X1181050Y168220D02*
Y177220D01*
X1151150Y172720D02*
X1160150D01*
X1155650Y168220D02*
Y177220D01*
X1125750Y172720D02*
X1134750D01*
X1130250Y168220D02*
Y177220D01*
X806300Y1015720D02*
X836300D01*
X821300Y1000720D02*
Y1030720D01*
X1295050Y1014970D02*
X1325050D01*
X1310050Y999970D02*
Y1029970D01*
X1100350Y172720D02*
X1109350D01*
X1104850Y168220D02*
Y177220D01*
X973250Y172720D02*
X982250D01*
X977750Y168220D02*
Y177220D01*
X1049550Y172720D02*
X1058550D01*
X1054050Y168220D02*
Y177220D01*
X998800Y172720D02*
X1007800D01*
X1003300Y168220D02*
Y177220D01*
X947850Y172720D02*
X956850D01*
X952350Y168220D02*
Y177220D01*
X897050Y172720D02*
X906050D01*
X901550Y168220D02*
Y177220D01*
X1074950Y172720D02*
X1083950D01*
X1079450Y168220D02*
Y177220D01*
X1024050Y172720D02*
X1033050D01*
X1028550Y168220D02*
Y177220D01*
X922450Y172720D02*
X931450D01*
X926950Y168220D02*
Y177220D01*
X657733Y256540D02*
X665607D01*
X661670Y252603D02*
Y260477D01*
X721233Y256540D02*
X729107D01*
X725170Y252603D02*
Y260477D01*
X657733Y307340D02*
X665607D01*
X661670Y303403D02*
Y311277D01*
X721233Y307340D02*
X729107D01*
X725170Y303403D02*
Y311277D01*
X693820Y570400D02*
X704020D01*
X698920Y565300D02*
Y575500D01*
X668420Y570400D02*
X678620D01*
X673520Y565300D02*
Y575500D01*
X668420Y545000D02*
X678620D01*
X673520Y539900D02*
Y550100D01*
X643020Y570400D02*
X653220D01*
X648120Y565300D02*
Y575500D01*
X643020Y545000D02*
X653220D01*
X648120Y539900D02*
Y550100D01*
X617620Y545000D02*
X627820D01*
X622720Y539900D02*
Y550100D01*
X592220Y570400D02*
X602420D01*
X597320Y565300D02*
Y575500D01*
X592220Y545000D02*
X602420D01*
X597320Y539900D02*
Y550100D01*
X566820Y545000D02*
X577020D01*
X571920Y539900D02*
Y550100D01*
X541420Y570400D02*
X551620D01*
X546520Y565300D02*
Y575500D01*
X541420Y545000D02*
X551620D01*
X546520Y539900D02*
Y550100D01*
X516020Y570400D02*
X526220D01*
X521120Y565300D02*
Y575500D01*
X490620Y570400D02*
X500820D01*
X495720Y565300D02*
Y575500D01*
X490620Y545000D02*
X500820D01*
X495720Y539900D02*
Y550100D01*
X465220Y570400D02*
X475420D01*
X470320Y565300D02*
Y575500D01*
X465220Y545000D02*
X475420D01*
X470320Y539900D02*
Y550100D01*
X439820Y545000D02*
X450020D01*
X444920Y539900D02*
Y550100D01*
X414420Y570400D02*
X424620D01*
X419520Y565300D02*
Y575500D01*
X414420Y545000D02*
X424620D01*
X419520Y539900D02*
Y550100D01*
X389020Y570400D02*
X399220D01*
X394120Y565300D02*
Y575500D01*
X389020Y545000D02*
X399220D01*
X394120Y539900D02*
Y550100D01*
X363620Y545000D02*
X373820D01*
X368720Y539900D02*
Y550100D01*
X338220Y570400D02*
X348420D01*
X343320Y565300D02*
Y575500D01*
X338220Y545000D02*
X348420D01*
X343320Y539900D02*
Y550100D01*
X312820Y570400D02*
X323020D01*
X317920Y565300D02*
Y575500D01*
X287420Y570400D02*
X297620D01*
X292520Y565300D02*
Y575500D01*
X287420Y545000D02*
X297620D01*
X292520Y539900D02*
Y550100D01*
X262020Y545000D02*
X272220D01*
X267120Y539900D02*
Y550100D01*
X236620Y570400D02*
X246820D01*
X241720Y565300D02*
Y575500D01*
X236620Y545000D02*
X246820D01*
X241720Y539900D02*
Y550100D01*
X211220Y570400D02*
X221420D01*
X216320Y565300D02*
Y575500D01*
X211220Y545000D02*
X221420D01*
X216320Y539900D02*
Y550100D01*
X312820Y545000D02*
X323020D01*
X317920Y539900D02*
Y550100D01*
X262020Y570400D02*
X272220D01*
X267120Y565300D02*
Y575500D01*
X363620Y570400D02*
X373820D01*
X368720Y565300D02*
Y575500D01*
X516020Y545000D02*
X526220D01*
X521120Y539900D02*
Y550100D01*
X439820Y570400D02*
X450020D01*
X444920Y565300D02*
Y575500D01*
X617620Y570400D02*
X627820D01*
X622720Y565300D02*
Y575500D01*
X566820Y570400D02*
X577020D01*
X571920Y565300D02*
Y575500D01*
X693820Y545000D02*
X704020D01*
X698920Y539900D02*
Y550100D01*
X203835Y914400D02*
X215265D01*
X209550Y908685D02*
Y920115D01*
X142875Y767080D02*
X154305D01*
X148590Y761365D02*
Y772795D01*
X81915Y914400D02*
X93345D01*
X87630Y908685D02*
Y920115D01*
X203835Y792480D02*
X215265D01*
X209550Y786765D02*
Y798195D01*
X81915Y792480D02*
X93345D01*
X87630Y786765D02*
Y798195D01*
X699750Y36830D02*
X709950D01*
X704850Y31730D02*
Y41930D01*
X775950Y36830D02*
X786150D01*
X781050Y31730D02*
Y41930D01*
X725150Y36830D02*
X735350D01*
X730250Y31730D02*
Y41930D01*
X674350Y36830D02*
X684550D01*
X679450Y31730D02*
Y41930D01*
X750550Y36830D02*
X760750D01*
X755650Y31730D02*
Y41930D01*
X830560Y46990D02*
X840760D01*
X835660Y41890D02*
Y52090D01*
X906760Y46990D02*
X916960D01*
X911860Y41890D02*
Y52090D01*
X855960Y46990D02*
X866160D01*
X861060Y41890D02*
Y52090D01*
X881360Y46990D02*
X891560D01*
X886460Y41890D02*
Y52090D01*
X1239500Y52070D02*
X1249700D01*
X1244600Y46970D02*
Y57170D01*
X1290300Y52070D02*
X1300500D01*
X1295400Y46970D02*
Y57170D01*
X1264900Y52070D02*
X1275100D01*
X1270000Y46970D02*
Y57170D01*
X152520Y447261D02*
X167520D01*
X160020Y439761D02*
Y454761D01*
X127120Y396461D02*
X142120D01*
X134620Y388961D02*
Y403961D01*
X89020Y447261D02*
X104020D01*
X96520Y439761D02*
Y454761D01*
X588590Y48260D02*
X597590D01*
X593090Y43760D02*
Y52760D01*
X613990Y48260D02*
X622990D01*
X618490Y43760D02*
Y52760D01*
X563190Y48260D02*
X572190D01*
X567690Y43760D02*
Y52760D01*
X639390Y48260D02*
X648390D01*
X643890Y43760D02*
Y52760D01*
X37410Y552450D02*
X46410D01*
X41910Y547950D02*
Y556950D01*
X37410Y527050D02*
X46410D01*
X41910Y522550D02*
Y531550D01*
X627253Y654050D02*
X635127D01*
X631190Y650113D02*
Y657987D01*
X652653Y654050D02*
X660527D01*
X656590Y650113D02*
Y657987D01*
X652653Y730250D02*
X660527D01*
X656590Y726313D02*
Y734187D01*
X627253Y730250D02*
X635127D01*
X631190Y726313D02*
Y734187D01*
X82630Y723900D02*
X92630D01*
X87630Y718900D02*
Y728900D01*
X82630Y698500D02*
X92630D01*
X87630Y693500D02*
Y703500D01*
X1074500Y52070D02*
X1084500D01*
X1079500Y47070D02*
Y57070D01*
X1049100Y52070D02*
X1059100D01*
X1054100Y47070D02*
Y57070D01*
X1023700Y52070D02*
X1033700D01*
X1028700Y47070D02*
Y57070D01*
X998300Y52070D02*
X1008300D01*
X1003300Y47070D02*
Y57070D01*
X972900Y52070D02*
X982900D01*
X977900Y47070D02*
Y57070D01*
X1125300Y52070D02*
X1135300D01*
X1130300Y47070D02*
Y57070D01*
X1201500Y52070D02*
X1211500D01*
X1206500Y47070D02*
Y57070D01*
X1150700Y52070D02*
X1160700D01*
X1155700Y47070D02*
Y57070D01*
X1099900Y52070D02*
X1109900D01*
X1104900Y47070D02*
Y57070D01*
X1176100Y52070D02*
X1186100D01*
X1181100Y47070D02*
Y57070D01*
X521480Y1002030D02*
X532480D01*
X526980Y996530D02*
Y1007530D01*
X571480Y1002030D02*
X582480D01*
X576980Y996530D02*
Y1007530D01*
X621480Y1002030D02*
X632480D01*
X626980Y996530D02*
Y1007530D01*
X302340Y723900D02*
X312340D01*
X307340Y718900D02*
Y728900D01*
X302340Y698500D02*
X312340D01*
X307340Y693500D02*
Y703500D01*
X514430Y697230D02*
X524430D01*
X519430Y692230D02*
Y702230D01*
X514430Y722630D02*
X524430D01*
X519430Y717630D02*
Y727630D01*
X140550Y1002030D02*
X151550D01*
X146050Y996530D02*
Y1007530D01*
X190550Y1002030D02*
X201550D01*
X196050Y996530D02*
Y1007530D01*
X90550Y1002030D02*
X101550D01*
X96050Y996530D02*
Y1007530D01*
X312000Y1002030D02*
X323000D01*
X317500Y996530D02*
Y1007530D01*
X362000Y1002030D02*
X373000D01*
X367500Y996530D02*
Y1007530D01*
X412000Y1002030D02*
X423000D01*
X417500Y996530D02*
Y1007530D01*
X147066Y725170D02*
X155194D01*
X151130Y721106D02*
Y729234D01*
X147066Y699770D02*
X155194D01*
X151130Y695706D02*
Y703834D01*
X147066Y674370D02*
X155194D01*
X151130Y670306D02*
Y678434D01*
X364236Y725170D02*
X372364D01*
X368300Y721106D02*
Y729234D01*
X364236Y699770D02*
X372364D01*
X368300Y695706D02*
Y703834D01*
X364236Y674370D02*
X372364D01*
X368300Y670306D02*
Y678434D01*
X424815Y914400D02*
X436245D01*
X430530Y908685D02*
Y920115D01*
X363855Y767080D02*
X375285D01*
X369570Y761365D02*
Y772795D01*
X302895Y914400D02*
X314325D01*
X308610Y908685D02*
Y920115D01*
X424815Y792480D02*
X436245D01*
X430530Y786765D02*
Y798195D01*
X302895Y792480D02*
X314325D01*
X308610Y786765D02*
Y798195D01*
X636905Y913130D02*
X648335D01*
X642620Y907415D02*
Y918845D01*
X575945Y765810D02*
X587375D01*
X581660Y760095D02*
Y771525D01*
X514985Y913130D02*
X526415D01*
X520700Y907415D02*
Y918845D01*
X514985Y791210D02*
X526415D01*
X520700Y785495D02*
Y796925D01*
X636905Y791210D02*
X648335D01*
X642620Y785495D02*
Y796925D01*
X561213Y129540D02*
X569087D01*
X565150Y125603D02*
Y133477D01*
X624713Y129540D02*
X632587D01*
X628650Y125603D02*
Y133477D01*
X561213Y180340D02*
X569087D01*
X565150Y176403D02*
Y184277D01*
X624713Y180340D02*
X632587D01*
X628650Y176403D02*
Y184277D01*
X659003Y129540D02*
X666877D01*
X662940Y125603D02*
Y133477D01*
X722503Y129540D02*
X730377D01*
X726440Y125603D02*
Y133477D01*
X659003Y180340D02*
X666877D01*
X662940Y176403D02*
Y184277D01*
X722503Y180340D02*
X730377D01*
X726440Y176403D02*
Y184277D01*
X561213Y256540D02*
X569087D01*
X565150Y252603D02*
Y260477D01*
X624713Y256540D02*
X632587D01*
X628650Y252603D02*
Y260477D01*
X561213Y307340D02*
X569087D01*
X565150Y303403D02*
Y311277D01*
X624713Y307340D02*
X632587D01*
X628650Y303403D02*
Y311277D01*
X227203Y656590D02*
X235077D01*
X231140Y652653D02*
Y660527D01*
X227203Y732790D02*
X235077D01*
X231140Y728853D02*
Y736727D01*
X201803Y656590D02*
X209677D01*
X205740Y652653D02*
Y660527D01*
X201803Y732790D02*
X209677D01*
X205740Y728853D02*
Y736727D01*
X412623Y657860D02*
X420497D01*
X416560Y653923D02*
Y661797D01*
X438023Y657860D02*
X445897D01*
X441960Y653923D02*
Y661797D01*
X438023Y734060D02*
X445897D01*
X441960Y730123D02*
Y737997D01*
X412623Y734060D02*
X420497D01*
X416560Y730123D02*
Y737997D01*
X37410Y662940D02*
X46410D01*
X41910Y658440D02*
Y667440D01*
X37410Y637540D02*
X46410D01*
X41910Y633040D02*
Y642040D01*
X37410Y608327D02*
X46410D01*
X41910Y603828D02*
Y612827D01*
X37410Y582928D02*
X46410D01*
X41910Y578428D02*
Y587427D01*
X733870Y67700D02*
X761370D01*
X747620Y53950D02*
Y81450D01*
X733870Y557700D02*
X761370D01*
X747620Y543950D02*
Y571450D01*
X153870Y557700D02*
X181370D01*
X167620Y543950D02*
Y571450D01*
X153870Y67700D02*
X181370D01*
X167620Y53950D02*
Y81450D01*
X243610Y231140D02*
X246610D01*
X245110Y229640D02*
Y232640D01*
X251230Y203200D02*
X254230D01*
X252730Y201700D02*
Y204700D01*
X69022Y224692D02*
X79022D01*
X74022Y219692D02*
Y229692D01*
X69022Y180692D02*
X79022D01*
X74022Y175692D02*
Y185692D01*
X650010Y74930D02*
X653010D01*
X651510Y73430D02*
Y76430D01*
X650010Y97790D02*
X653010D01*
X651510Y96290D02*
Y99290D01*
X884960Y88900D02*
X887960D01*
X886460Y87400D02*
Y90400D01*
X503960Y673100D02*
X506960D01*
X505460Y671600D02*
Y674600D01*
X323140Y336550D02*
X326140D01*
X324640Y335050D02*
Y338050D01*
X290600Y674370D02*
X293600D01*
X292100Y672870D02*
Y675870D01*
X280440Y337310D02*
X283440D01*
X281940Y335810D02*
Y338810D01*
X195350Y294640D02*
X198350D01*
X196850Y293140D02*
Y296140D01*
X222020Y176530D02*
X225020D01*
X223520Y175030D02*
Y178030D01*
X214400Y165100D02*
X217400D01*
X215900Y163600D02*
Y166600D01*
X122960Y218440D02*
X125960D01*
X124460Y216940D02*
Y219940D01*
X122960Y203200D02*
X125960D01*
X124460Y201700D02*
Y204700D01*
X167410Y132080D02*
X170410D01*
X168910Y130580D02*
Y133580D01*
X190270Y138430D02*
X193270D01*
X191770Y136930D02*
Y139930D01*
X752880Y173990D02*
X755880D01*
X754380Y172490D02*
Y175490D01*
X761770Y334010D02*
X764770D01*
X763270Y332510D02*
Y335510D01*
X164870Y270960D02*
X167870D01*
X166370Y269460D02*
Y272460D01*
X110260Y228600D02*
X113260D01*
X111760Y227100D02*
Y230100D01*
X115340Y320040D02*
X118340D01*
X116840Y318540D02*
Y321540D01*
X290600Y354330D02*
X293600D01*
X292100Y352830D02*
Y355830D01*
X763040Y214630D02*
X766040D01*
X764540Y213130D02*
Y216130D01*
X727480Y205740D02*
X730480D01*
X728980Y204240D02*
Y207240D01*
X544600Y203200D02*
X547600D01*
X546100Y201700D02*
Y204700D01*
X683030Y211820D02*
X686030D01*
X684530Y210320D02*
Y213320D01*
X554760Y241300D02*
X557760D01*
X556260Y239800D02*
Y242800D01*
X475520Y353060D02*
X479520D01*
X477520Y351060D02*
Y355060D01*
X964970Y111760D02*
X967970D01*
X966470Y110260D02*
Y113260D01*
X994180Y116840D02*
X997180D01*
X995680Y115340D02*
Y118340D01*
X910360Y95250D02*
X913360D01*
X911860Y93750D02*
Y96750D01*
X632749Y194820D02*
X635750D01*
X634249Y193320D02*
Y196320D01*
X568730Y213360D02*
X571730D01*
X570230Y211860D02*
Y214860D01*
X633500Y214630D02*
X636500D01*
X635000Y213130D02*
Y216130D01*
X566190Y17910D02*
X569190D01*
X567690Y16410D02*
Y19410D01*
X495070Y10160D02*
X498070D01*
X496570Y8660D02*
Y11660D01*
X910360Y19160D02*
X913360D01*
X911860Y17660D02*
Y20660D01*
X329970Y146050D02*
X332970D01*
X331470Y144550D02*
Y147550D01*
X321080Y134620D02*
X324080D01*
X322580Y133120D02*
Y136120D01*
X314676Y112891D02*
X317676D01*
X316176Y111391D02*
Y114391D01*
X422680Y228600D02*
X425680D01*
X424180Y227100D02*
Y230100D01*
X128040Y304800D02*
X131040D01*
X129540Y303300D02*
Y306300D01*
X449350Y636270D02*
X452350D01*
X450850Y634770D02*
Y637770D01*
X227100Y632460D02*
X230100D01*
X228600Y630960D02*
Y633960D01*
X289330Y489520D02*
X292330D01*
X290830Y488020D02*
Y491020D01*
X379500Y128270D02*
X382500D01*
X381000Y126770D02*
Y129770D01*
X548410Y128270D02*
X551410D01*
X549910Y126770D02*
Y129770D01*
X544614Y248360D02*
X547614D01*
X546114Y246859D02*
Y249860D01*
X491260Y256357D02*
X494260D01*
X492760Y254857D02*
Y257857D01*
X468400Y264357D02*
X471400D01*
X469900Y262857D02*
Y265857D01*
X542060Y55880D02*
X545060D01*
X543560Y54380D02*
Y57380D01*
X69620Y320040D02*
X72620D01*
X71120Y318540D02*
Y321540D01*
X734720Y234950D02*
X737720D01*
X736220Y233450D02*
Y236450D01*
X392200Y203200D02*
X395200D01*
X393700Y201700D02*
Y204700D01*
X794790Y205740D02*
X797790D01*
X796290Y204240D02*
Y207240D01*
X483640Y57530D02*
X486640D01*
X485140Y56030D02*
Y59030D01*
X128040Y54610D02*
X131040D01*
X129540Y53110D02*
Y56110D01*
X697000Y95250D02*
X700000D01*
X698500Y93750D02*
Y96750D01*
X599210Y96520D02*
X602210D01*
X600710Y95020D02*
Y98020D01*
X566190Y63500D02*
X569190D01*
X567690Y62000D02*
Y65000D01*
X581430Y144400D02*
X584430D01*
X582930Y142900D02*
Y145900D01*
X853210Y220980D02*
X856210D01*
X854710Y219480D02*
Y222480D01*
X750720Y302260D02*
X753720D01*
X752220Y300760D02*
Y303760D01*
X561110Y284480D02*
X564110D01*
X562610Y282980D02*
Y285980D01*
X541308Y269240D02*
X544308D01*
X542808Y267740D02*
Y270740D01*
X495070Y41530D02*
X498070D01*
X496570Y40030D02*
Y43030D01*
X943380Y10160D02*
X946380D01*
X944880Y8660D02*
Y11660D01*
X609370Y617220D02*
X612370D01*
X610870Y615720D02*
Y618720D01*
X506000Y217170D02*
X510000D01*
X508000Y215170D02*
Y219170D01*
X215670Y82550D02*
X218670D01*
X217170Y81050D02*
Y84050D01*
X840510Y231140D02*
X843510D01*
X842010Y229640D02*
Y232640D01*
X566190Y152400D02*
X569190D01*
X567690Y150900D02*
Y153900D01*
X235990Y73660D02*
X238990D01*
X237490Y72160D02*
Y75160D01*
X506000Y203200D02*
X510000D01*
X508000Y201200D02*
Y205200D01*
X749070Y93980D02*
X752070D01*
X750570Y92480D02*
Y95480D01*
X650308Y114300D02*
X653308D01*
X651808Y112800D02*
Y115800D01*
X389660Y114300D02*
X392660D01*
X391160Y112800D02*
Y115800D01*
X832890Y240030D02*
X835890D01*
X834390Y238530D02*
Y241530D01*
X566202Y165026D02*
X569202D01*
X567702Y163526D02*
Y166526D01*
X393470Y64530D02*
X396470D01*
X394970Y63030D02*
Y66030D01*
X115340Y132080D02*
X118340D01*
X116840Y130580D02*
Y133580D01*
X328915Y120077D02*
X331915D01*
X330415Y118577D02*
Y121578D01*
X392200Y217170D02*
X395200D01*
X393700Y215670D02*
Y218670D01*
X289330Y408940D02*
X292330D01*
X290830Y407440D02*
Y410440D01*
X62000Y264160D02*
X65000D01*
X63500Y262660D02*
Y265660D01*
X230910Y163830D02*
X233910D01*
X232410Y162330D02*
Y165330D01*
X314730Y99060D02*
X317730D01*
X316230Y97560D02*
Y100560D01*
X295680Y113030D02*
X298680D01*
X297180Y111530D02*
Y114530D01*
X215670Y123910D02*
X218670D01*
X217170Y122410D02*
Y125410D01*
X125500Y123190D02*
X128500D01*
X127000Y121690D02*
Y124690D01*
X62000Y132080D02*
X65000D01*
X63500Y130580D02*
Y133580D01*
M02*
