G04*
G04 #@! TF.GenerationSoftware,Altium Limited,Altium Designer,25.5.2 (35)*
G04*
G04 Layer_Color=65535*
%FSLAX44Y44*%
%MOMM*%
G71*
G04*
G04 #@! TF.SameCoordinates,15FE918A-F286-447B-A6B9-73AEC13AD3D3*
G04*
G04*
G04 #@! TF.FilePolarity,Positive*
G04*
G01*
G75*
%ADD10C,0.2000*%
%ADD11C,0.1778*%
%ADD12C,0.2500*%
%ADD13C,0.1524*%
%ADD14C,0.2540*%
%ADD15C,0.1270*%
%ADD16C,0.2032*%
%ADD17C,0.1016*%
%ADD18C,0.0762*%
%ADD19R,1.2700X2.5400*%
G36*
X100330Y713740D02*
Y706120D01*
Y713740D01*
Y706120D01*
Y699770D01*
Y713740D01*
X100330Y699770D01*
X74930Y699770D01*
X74930Y706120D01*
X74931Y713740D01*
X76729Y713739D01*
X100330Y713740D01*
D02*
G37*
G36*
X320040D02*
Y706120D01*
Y713740D01*
Y706120D01*
Y699770D01*
Y713740D01*
X320040Y699770D01*
X294640Y699770D01*
X294640Y706120D01*
X294641Y713740D01*
X296439Y713739D01*
X320040Y713740D01*
D02*
G37*
G36*
X532130Y712470D02*
Y704850D01*
Y712470D01*
Y704850D01*
Y698500D01*
Y712470D01*
X532130Y698500D01*
X506730Y698500D01*
X506730Y704850D01*
X506731Y712470D01*
X508529Y712469D01*
X532130Y712470D01*
D02*
G37*
D10*
X154670Y297190D02*
G03*
X154670Y297190I-1000J0D01*
G01*
X210960Y165580D02*
G03*
X210960Y165580I-1000J0D01*
G01*
X1219200Y58420D02*
G03*
X1219200Y45720I0J-6350D01*
G01*
X181340Y297190D02*
G03*
X181340Y297190I-1000J0D01*
G01*
X360140Y368370D02*
X372140D01*
X360140D02*
Y472370D01*
X372140D01*
X1249050Y156720D02*
Y187970D01*
X1248800Y188220D02*
X1249050Y187970D01*
X921124Y156720D02*
X1249050Y156720D01*
X915124Y188220D02*
X1248800D01*
X887050Y156720D02*
X921124D01*
X887050Y188220D02*
X915124D01*
X887050Y156720D02*
Y188220D01*
X306550Y273310D02*
Y305810D01*
X239550Y273310D02*
Y305810D01*
Y273310D02*
X306550D01*
X239550Y305810D02*
X306550D01*
X768350Y24130D02*
Y49530D01*
X664248Y24130D02*
Y49530D01*
X796248D01*
X664248Y24130D02*
X796248D01*
Y49530D01*
X899160Y34290D02*
Y59690D01*
X927058Y34290D02*
Y59690D01*
X820458Y34290D02*
X927058D01*
X820458Y59690D02*
X927058D01*
X820458Y34290D02*
Y59690D01*
X1282700Y39370D02*
Y64770D01*
X1310599Y39370D02*
Y64770D01*
X1229399Y39370D02*
X1310599D01*
X1229399D02*
Y64770D01*
X1310599D01*
X655320Y20320D02*
Y75692D01*
X556260Y20320D02*
X655320D01*
X556260Y75692D02*
X655320D01*
X556260Y20320D02*
Y75692D01*
X13970Y515620D02*
X69596D01*
X13970D02*
Y563880D01*
X69596D01*
Y515620D02*
Y563880D01*
X135890Y335280D02*
X210220D01*
X135890Y330520D02*
Y335280D01*
X210220Y321310D02*
Y335280D01*
X135890Y302260D02*
Y307020D01*
X208280Y321310D02*
X210220D01*
X208280D02*
Y335280D01*
Y302260D02*
Y316230D01*
X210220D01*
X135890Y302260D02*
X210220D01*
Y316230D01*
X176720Y313770D02*
Y323770D01*
X169720Y322770D02*
X176720Y318770D01*
X169720Y313770D02*
X176720Y318770D01*
X169720Y313770D02*
Y322770D01*
X176720Y318770D02*
X177720D01*
X167720D02*
X169720D01*
X1219200Y33720D02*
Y58420D01*
Y45720D02*
Y70420D01*
X962660Y36830D02*
Y72390D01*
X660400Y413350D02*
Y487680D01*
X655640D02*
X660400D01*
X646430Y413350D02*
X660400D01*
X627380Y487680D02*
X632140D01*
X646430Y413350D02*
Y415290D01*
X660400D01*
X627380D02*
X641350D01*
Y413350D02*
Y415290D01*
X627380Y413350D02*
Y487680D01*
Y413350D02*
X641350D01*
X638890Y446850D02*
X648890D01*
X643890D02*
X647890Y453850D01*
X638890D02*
X643890Y446850D01*
X638890Y453850D02*
X647890D01*
X643890Y445850D02*
Y446850D01*
Y453850D02*
Y455850D01*
X13970Y626110D02*
X69596D01*
X13970D02*
Y674370D01*
X69596D01*
Y626110D02*
Y674370D01*
X13970Y571497D02*
X69596D01*
X13970D02*
Y619757D01*
X69596D01*
Y571497D02*
Y619757D01*
D11*
X572777Y725155D02*
G03*
X571954Y665093I13309J-30219D01*
G01*
X174702Y902766D02*
G03*
X174702Y902766I-4522J0D01*
G01*
X136348Y903020D02*
G03*
X136348Y903020I-4522J0D01*
G01*
X153112Y849426D02*
G03*
X153112Y849426I-4522J0D01*
G01*
X163576Y799846D02*
G03*
X134112Y800100I-14859J-14605D01*
G01*
X140977Y730235D02*
G03*
X140154Y670173I13309J-30219D01*
G01*
X358147Y730235D02*
G03*
X357324Y670173I13309J-30219D01*
G01*
X395682Y902766D02*
G03*
X395682Y902766I-4522J0D01*
G01*
X357328Y903020D02*
G03*
X357328Y903020I-4522J0D01*
G01*
X374092Y849426D02*
G03*
X374092Y849426I-4522J0D01*
G01*
X384556Y799846D02*
G03*
X355092Y800100I-14859J-14605D01*
G01*
X607772Y901496D02*
G03*
X607772Y901496I-4522J0D01*
G01*
X569418Y901750D02*
G03*
X569418Y901750I-4522J0D01*
G01*
X586182Y848156D02*
G03*
X586182Y848156I-4522J0D01*
G01*
X596646Y798576D02*
G03*
X567182Y798830I-14859J-14605D01*
G01*
X599440Y669799D02*
Y721360D01*
X592836Y724662D02*
X599440Y721360D01*
X593150Y665394D02*
X599440Y669799D01*
X722376Y252730D02*
X722630Y252984D01*
X148844Y785114D02*
Y844296D01*
X68580Y944880D02*
X228600D01*
X68580Y756920D02*
X228600D01*
Y944880D01*
X68580Y756920D02*
Y944880D01*
X104394Y914146D02*
X123698D01*
X130302Y907542D01*
X177038Y914146D02*
X193802D01*
X170180Y907288D02*
X177038Y914146D01*
X148590Y854456D02*
Y890778D01*
X138684Y900684D02*
X148590Y890778D01*
X163830Y799592D02*
X192532D01*
X104902Y799846D02*
X133858D01*
X38100Y401541D02*
Y485361D01*
X20320Y401541D02*
X158750D01*
X20320Y485361D02*
X158750D01*
Y401541D02*
Y485361D01*
X20320Y401541D02*
Y485361D01*
X167640Y674878D02*
Y726440D01*
X161036Y729742D02*
X167640Y726440D01*
X161350Y670474D02*
X167640Y674878D01*
X384810D02*
Y726440D01*
X378206Y729742D02*
X384810Y726440D01*
X378520Y670474D02*
X384810Y674878D01*
X369824Y785114D02*
Y844296D01*
X289560Y944880D02*
X449580D01*
X289560Y756920D02*
X449580D01*
Y944880D01*
X289560Y756920D02*
Y944880D01*
X325374Y914146D02*
X344678D01*
X351282Y907542D01*
X398018Y914146D02*
X414782D01*
X391160Y907288D02*
X398018Y914146D01*
X369570Y854456D02*
Y890778D01*
X359664Y900684D02*
X369570Y890778D01*
X384810Y799592D02*
X413512D01*
X325882Y799846D02*
X354838D01*
X581914Y783844D02*
Y843026D01*
X501650Y943610D02*
X661670D01*
X501650Y755650D02*
X661670D01*
Y943610D01*
X501650Y755650D02*
Y943610D01*
X537464Y912876D02*
X556768D01*
X563372Y906272D01*
X610108Y912876D02*
X626872D01*
X603250Y906018D02*
X610108Y912876D01*
X581660Y853186D02*
Y889508D01*
X571754Y899414D02*
X581660Y889508D01*
X596900Y798322D02*
X625602D01*
X537972Y798576D02*
X566928D01*
X625856Y125730D02*
X626110Y125984D01*
X723646Y125730D02*
X723900Y125984D01*
X625856Y252730D02*
X626110Y252984D01*
D12*
X325890Y465370D02*
G03*
X325890Y465370I-1250J0D01*
G01*
X90170Y304800D02*
G03*
X90170Y304800I-1250J0D01*
G01*
X247650Y276860D02*
G03*
X247650Y276860I-1250J0D01*
G01*
X105370Y97790D02*
G03*
X105370Y97790I-1250J0D01*
G01*
D13*
X706120Y283210D02*
G03*
X706120Y283210I-12700J0D01*
G01*
X609600Y156210D02*
G03*
X609600Y156210I-12700J0D01*
G01*
X707390D02*
G03*
X707390Y156210I-12700J0D01*
G01*
X609600Y283210D02*
G03*
X609600Y283210I-12700J0D01*
G01*
X673100Y307340D02*
X712470D01*
X722630Y269240D02*
Y293370D01*
X673354Y256540D02*
X712470D01*
X665480Y269240D02*
Y293370D01*
X531078Y73507D02*
Y82013D01*
X348452Y73507D02*
X374843D01*
X348452Y262657D02*
Y331063D01*
Y73507D02*
Y82013D01*
X504687Y73507D02*
X531078D01*
Y262657D02*
Y331063D01*
X348452D02*
X531078D01*
X576580Y180340D02*
X615950D01*
X626110Y142240D02*
Y166370D01*
X576834Y129540D02*
X615950D01*
X568960Y142240D02*
Y166370D01*
X674370Y180340D02*
X713740D01*
X723900Y142240D02*
Y166370D01*
X674624Y129540D02*
X713740D01*
X666750Y142240D02*
Y166370D01*
X576580Y307340D02*
X615950D01*
X626110Y269240D02*
Y293370D01*
X576834Y256540D02*
X615950D01*
X568960Y269240D02*
Y293370D01*
D14*
X602974Y427190D02*
G03*
X602974Y427190I-59414J0D01*
G01*
X1219200Y70420D02*
G03*
X1217230Y72390I-1970J0D01*
G01*
X962660Y33410D02*
G03*
X964000Y32070I1340J0D01*
G01*
X1217550D02*
G03*
X1219200Y33720I0J1650D01*
G01*
X769210Y362810D02*
Y432660D01*
X756060Y349660D02*
X769210Y362810D01*
X699360Y349660D02*
X756060D01*
X686210Y362810D02*
Y432660D01*
Y362810D02*
X699360Y349660D01*
X686210Y432660D02*
X769210D01*
X268160Y421660D02*
Y487660D01*
X202160Y476660D02*
X213160Y487660D01*
X268160D01*
X202160Y432660D02*
Y476660D01*
Y432660D02*
X213160Y421660D01*
X268160D01*
X50292Y113284D02*
X61722D01*
X24638D02*
X36068D01*
X24638Y56896D02*
Y113284D01*
X61722Y56896D02*
Y113284D01*
X49530Y72390D02*
Y97790D01*
X36830Y72390D02*
X49530D01*
X36830D02*
Y97790D01*
X49530D01*
X50292Y56896D02*
X61722D01*
X24638D02*
X36068D01*
X74930Y718820D02*
X100330D01*
Y699770D02*
Y718820D01*
X74930Y699770D02*
X100330D01*
X74930D02*
Y718820D01*
X87630D02*
Y723900D01*
Y694690D02*
Y698500D01*
X483560Y367190D02*
X604560D01*
Y459190D01*
Y488190D01*
X483560D02*
X604560D01*
X483560Y367190D02*
Y488190D01*
X962660Y72390D02*
X1217230D01*
X962660Y33410D02*
Y72390D01*
X964000Y32070D02*
X1217550D01*
X657180Y956130D02*
Y1030630D01*
X502380D02*
X657180D01*
X502380Y956130D02*
Y1030630D01*
Y956130D02*
X657180D01*
X307340Y694690D02*
Y698500D01*
Y718820D02*
Y723900D01*
X294640Y699770D02*
Y718820D01*
Y699770D02*
X320040D01*
Y718820D01*
X294640D02*
X320040D01*
X506730Y717550D02*
X532130D01*
Y698500D02*
Y717550D01*
X506730Y698500D02*
X532130D01*
X506730D02*
Y717550D01*
X519430D02*
Y722630D01*
Y693420D02*
Y697230D01*
X226250Y956130D02*
Y1030630D01*
X71450D02*
X226250D01*
X71450Y956130D02*
Y1030630D01*
Y956130D02*
X226250D01*
X447700D02*
Y1030630D01*
X292900D02*
X447700D01*
X292900Y956130D02*
Y1030630D01*
Y956130D02*
X447700D01*
X23368Y293826D02*
X34798D01*
X49022D02*
X60452D01*
Y350214D01*
X23368Y293826D02*
Y350214D01*
X35560Y309320D02*
Y334720D01*
X48260D01*
Y309320D02*
Y334720D01*
X35560Y309320D02*
X48260D01*
X23368Y350214D02*
X34798D01*
X49022D02*
X60452D01*
X92710Y523617D02*
Y517619D01*
X95709D01*
X96709Y518619D01*
Y522618D01*
X95709Y523617D01*
X92710D01*
X101707Y517619D02*
X99708D01*
X98708Y518619D01*
Y520618D01*
X99708Y521618D01*
X101707D01*
X102707Y520618D01*
Y519619D01*
X98708D01*
X104706Y515620D02*
Y521618D01*
X107705D01*
X108705Y520618D01*
Y518619D01*
X107705Y517619D01*
X104706D01*
X113703D02*
X111704D01*
X110704Y518619D01*
Y520618D01*
X111704Y521618D01*
X113703D01*
X114703Y520618D01*
Y519619D01*
X110704D01*
X116702Y517619D02*
Y521618D01*
X119701D01*
X120701Y520618D01*
Y517619D01*
X126699Y523617D02*
Y517619D01*
X123700D01*
X122700Y518619D01*
Y520618D01*
X123700Y521618D01*
X126699D01*
X135696Y517619D02*
X137695D01*
X138695Y518619D01*
Y520618D01*
X137695Y521618D01*
X135696D01*
X134696Y520618D01*
Y518619D01*
X135696Y517619D01*
X140695D02*
Y521618D01*
X143694D01*
X144693Y520618D01*
Y517619D01*
X153690Y522618D02*
Y521618D01*
X152691D01*
X154690D01*
X153690D01*
Y518619D01*
X154690Y517619D01*
X157689Y523617D02*
Y517619D01*
Y520618D01*
X158689Y521618D01*
X160688D01*
X161688Y520618D01*
Y517619D01*
X166686D02*
X164687D01*
X163687Y518619D01*
Y520618D01*
X164687Y521618D01*
X166686D01*
X167686Y520618D01*
Y519619D01*
X163687D01*
X175683Y515620D02*
Y521618D01*
X178682D01*
X179682Y520618D01*
Y518619D01*
X178682Y517619D01*
X175683D01*
X182681D02*
X184680D01*
X185680Y518619D01*
Y520618D01*
X184680Y521618D01*
X182681D01*
X181681Y520618D01*
Y518619D01*
X182681Y517619D01*
X187679Y521618D02*
Y518619D01*
X188679Y517619D01*
X189679Y518619D01*
X190678Y517619D01*
X191678Y518619D01*
Y521618D01*
X196676Y517619D02*
X194677D01*
X193677Y518619D01*
Y520618D01*
X194677Y521618D01*
X196676D01*
X197676Y520618D01*
Y519619D01*
X193677D01*
X199675Y521618D02*
Y517619D01*
Y519619D01*
X200675Y520618D01*
X201675Y521618D01*
X202674D01*
X211672Y517619D02*
X214671D01*
X215670Y518619D01*
X214671Y519619D01*
X212671D01*
X211672Y520618D01*
X212671Y521618D01*
X215670D01*
X217670D02*
Y518619D01*
X218669Y517619D01*
X221668D01*
Y521618D01*
X223668Y515620D02*
Y521618D01*
X226667D01*
X227666Y520618D01*
Y518619D01*
X226667Y517619D01*
X223668D01*
X229666Y515620D02*
Y521618D01*
X232665D01*
X233664Y520618D01*
Y518619D01*
X232665Y517619D01*
X229666D01*
X235664D02*
X237663D01*
X236663D01*
Y523617D01*
X235664D01*
X240662Y521618D02*
Y518619D01*
X241662Y517619D01*
X244661D01*
Y516620D01*
X243661Y515620D01*
X242661D01*
X244661Y517619D02*
Y521618D01*
X98042Y541397D02*
X92710D01*
Y537399D01*
X95376Y538732D01*
X96709D01*
X98042Y537399D01*
Y534733D01*
X96709Y533400D01*
X94043D01*
X92710Y534733D01*
X100707Y541397D02*
Y536066D01*
X103373Y533400D01*
X106039Y536066D01*
Y541397D01*
X108705Y533400D02*
X114036Y538732D01*
X116702Y533400D02*
X119368D01*
X118035D01*
Y541397D01*
X116702Y540065D01*
X128698Y533400D02*
X123367D01*
X128698Y538732D01*
Y540065D01*
X127366Y541397D01*
X124700D01*
X123367Y540065D01*
X131364Y541397D02*
Y536066D01*
X134030Y533400D01*
X136696Y536066D01*
Y541397D01*
X96772Y598547D02*
X91440D01*
Y594549D01*
X94106Y595882D01*
X95439D01*
X96772Y594549D01*
Y591883D01*
X95439Y590550D01*
X92773D01*
X91440Y591883D01*
X99437Y598547D02*
Y593216D01*
X102103Y590550D01*
X104769Y593216D01*
Y598547D01*
X95502Y653157D02*
X90170D01*
Y649159D01*
X92836Y650492D01*
X94169D01*
X95502Y649159D01*
Y646493D01*
X94169Y645160D01*
X91503D01*
X90170Y646493D01*
X98167Y653157D02*
Y647826D01*
X100833Y645160D01*
X103499Y647826D01*
Y653157D01*
X76702Y636520D02*
X82033D01*
X77972Y581910D02*
X83303D01*
X77470Y524510D02*
X82802D01*
X76200Y661796D02*
X81532D01*
X78866Y664462D02*
Y659130D01*
X77470Y607186D02*
X82802D01*
X80136Y609852D02*
Y604520D01*
X77470Y551306D02*
X82802D01*
X80136Y553972D02*
Y548640D01*
X586483Y971894D02*
X589022Y969355D01*
X594101D01*
X596640Y971894D01*
Y982051D01*
X594101Y984590D01*
X589022D01*
X586483Y982051D01*
X573787Y969355D02*
X578866D01*
X581405Y971894D01*
Y982051D01*
X578866Y984590D01*
X573787D01*
X571248Y982051D01*
Y971894D01*
X573787Y969355D01*
X566170Y984590D02*
Y969355D01*
X556013Y984590D01*
Y969355D01*
X155553Y971894D02*
X158092Y969355D01*
X163171D01*
X165710Y971894D01*
Y982051D01*
X163171Y984590D01*
X158092D01*
X155553Y982051D01*
X142857Y969355D02*
X147936D01*
X150475Y971894D01*
Y982051D01*
X147936Y984590D01*
X142857D01*
X140318Y982051D01*
Y971894D01*
X142857Y969355D01*
X135240Y984590D02*
Y969355D01*
X125083Y984590D01*
Y969355D01*
X377003Y971894D02*
X379543Y969355D01*
X384621D01*
X387160Y971894D01*
Y982051D01*
X384621Y984590D01*
X379543D01*
X377003Y982051D01*
X364307Y969355D02*
X369386D01*
X371925Y971894D01*
Y982051D01*
X369386Y984590D01*
X364307D01*
X361768Y982051D01*
Y971894D01*
X364307Y969355D01*
X356690Y984590D02*
Y969355D01*
X346533Y984590D01*
Y969355D01*
X77552Y514809D02*
Y508811D01*
Y511810D01*
X81550D01*
Y514809D01*
Y508811D01*
X86549D02*
Y514809D01*
X83550Y511810D01*
X87548D01*
X77552Y570689D02*
Y564691D01*
Y567690D01*
X81550D01*
Y570689D01*
Y564691D01*
X83550Y569689D02*
X84549Y570689D01*
X86549D01*
X87548Y569689D01*
Y568690D01*
X86549Y567690D01*
X85549D01*
X86549D01*
X87548Y566690D01*
Y565691D01*
X86549Y564691D01*
X84549D01*
X83550Y565691D01*
X76282Y626569D02*
Y620571D01*
Y623570D01*
X80280D01*
Y626569D01*
Y620571D01*
X86278D02*
X82280D01*
X86278Y624570D01*
Y625569D01*
X85279Y626569D01*
X83279D01*
X82280Y625569D01*
X754003Y212901D02*
Y218899D01*
X757002D01*
X758001Y217899D01*
Y215900D01*
X757002Y214900D01*
X754003D01*
X756002D02*
X758001Y212901D01*
X760001Y217899D02*
X761000Y218899D01*
X763000D01*
X763999Y217899D01*
Y216900D01*
X763000Y215900D01*
X762000D01*
X763000D01*
X763999Y214900D01*
Y213901D01*
X763000Y212901D01*
X761000D01*
X760001Y213901D01*
X765999Y217899D02*
X766998Y218899D01*
X768998D01*
X769997Y217899D01*
Y213901D01*
X768998Y212901D01*
X766998D01*
X765999Y213901D01*
Y217899D01*
X774323Y212901D02*
Y218899D01*
X777322D01*
X778321Y217899D01*
Y215900D01*
X777322Y214900D01*
X774323D01*
X776322D02*
X778321Y212901D01*
X784319D02*
X780321D01*
X784319Y216900D01*
Y217899D01*
X783320Y218899D01*
X781320D01*
X780321Y217899D01*
X786319Y213901D02*
X787318Y212901D01*
X789318D01*
X790317Y213901D01*
Y217899D01*
X789318Y218899D01*
X787318D01*
X786319Y217899D01*
Y216900D01*
X787318Y215900D01*
X790317D01*
X201471Y104517D02*
X207469D01*
Y101518D01*
X206469Y100519D01*
X204470D01*
X203470Y101518D01*
Y104517D01*
Y102518D02*
X201471Y100519D01*
Y94521D02*
Y98519D01*
X205470Y94521D01*
X206469D01*
X207469Y95520D01*
Y97520D01*
X206469Y98519D01*
Y92521D02*
X207469Y91522D01*
Y89522D01*
X206469Y88523D01*
X205470D01*
X204470Y89522D01*
X203470Y88523D01*
X202471D01*
X201471Y89522D01*
Y91522D01*
X202471Y92521D01*
X203470D01*
X204470Y91522D01*
X205470Y92521D01*
X206469D01*
X204470Y91522D02*
Y89522D01*
X242733Y337361D02*
Y341360D01*
X244733Y343359D01*
X246732Y341360D01*
Y337361D01*
Y340360D01*
X242733D01*
X248731Y337361D02*
Y343359D01*
X250731Y341360D01*
X252730Y343359D01*
Y337361D01*
X258728Y342359D02*
X257728Y343359D01*
X255729D01*
X254729Y342359D01*
Y341360D01*
X255729Y340360D01*
X257728D01*
X258728Y339360D01*
Y338361D01*
X257728Y337361D01*
X255729D01*
X254729Y338361D01*
X260727Y337361D02*
X262727D01*
X261727D01*
Y343359D01*
X260727Y342359D01*
X763540Y449039D02*
X762541Y450039D01*
X760541D01*
X759542Y449039D01*
Y445041D01*
X760541Y444041D01*
X762541D01*
X763540Y445041D01*
X769538Y444041D02*
X765540D01*
X769538Y448040D01*
Y449039D01*
X768539Y450039D01*
X766539D01*
X765540Y449039D01*
X110949Y694608D02*
X104951D01*
Y691609D01*
X105951Y690610D01*
X109949D01*
X110949Y691609D01*
Y694608D01*
Y684612D02*
Y688610D01*
X107950D01*
X108950Y686611D01*
Y685611D01*
X107950Y684612D01*
X105951D01*
X104951Y685611D01*
Y687611D01*
X105951Y688610D01*
X50152Y941881D02*
Y947879D01*
X53151D01*
X54151Y946879D01*
Y944880D01*
X53151Y943880D01*
X50152D01*
X52152D02*
X54151Y941881D01*
X56150Y947879D02*
Y941881D01*
X60149D01*
X62148D02*
X64148D01*
X63148D01*
Y947879D01*
X62148Y946879D01*
X599251Y354789D02*
Y348791D01*
X603250D01*
X605249D02*
X607249D01*
X606249D01*
Y354789D01*
X605249Y353789D01*
X23319Y140807D02*
X18321D01*
X17321Y139807D01*
Y137808D01*
X18321Y136808D01*
X23319D01*
X22319Y130810D02*
X23319Y131810D01*
Y133809D01*
X22319Y134809D01*
X21320D01*
X20320Y133809D01*
Y131810D01*
X19320Y130810D01*
X18321D01*
X17321Y131810D01*
Y133809D01*
X18321Y134809D01*
X23319Y128811D02*
X17321D01*
Y125812D01*
X18321Y124812D01*
X19320D01*
X20320Y125812D01*
Y128811D01*
Y125812D01*
X21320Y124812D01*
X22319D01*
X23319Y125812D01*
Y128811D01*
X17321Y122813D02*
Y120813D01*
Y121813D01*
X23319D01*
X22319Y122813D01*
X606601Y718902D02*
X611599D01*
X612599Y719901D01*
Y721901D01*
X611599Y722900D01*
X606601D01*
Y724900D02*
Y728898D01*
X607601D01*
X611599Y724900D01*
X612599D01*
X393241Y726522D02*
X398239D01*
X399239Y727521D01*
Y729521D01*
X398239Y730520D01*
X393241D01*
Y736518D02*
X394241Y734519D01*
X396240Y732520D01*
X398239D01*
X399239Y733519D01*
Y735519D01*
X398239Y736518D01*
X397240D01*
X396240Y735519D01*
Y732520D01*
X178611Y718902D02*
X183609D01*
X184609Y719901D01*
Y721901D01*
X183609Y722900D01*
X178611D01*
Y728898D02*
Y724900D01*
X181610D01*
X180610Y726899D01*
Y727899D01*
X181610Y728898D01*
X183609D01*
X184609Y727899D01*
Y725899D01*
X183609Y724900D01*
X1339039Y138348D02*
X1334041D01*
X1333041Y137349D01*
Y135349D01*
X1334041Y134350D01*
X1339039D01*
X1333041Y128352D02*
Y132350D01*
X1337040Y128352D01*
X1338039D01*
X1339039Y129351D01*
Y131351D01*
X1338039Y132350D01*
X306152Y486869D02*
Y481871D01*
X307151Y480871D01*
X309151D01*
X310150Y481871D01*
Y486869D01*
X315149Y480871D02*
Y486869D01*
X312150Y483870D01*
X316148D01*
X218059Y212248D02*
X213061D01*
X212061Y211249D01*
Y209249D01*
X213061Y208250D01*
X218059D01*
X217059Y206250D02*
X218059Y205251D01*
Y203251D01*
X217059Y202252D01*
X216060D01*
X215060Y203251D01*
Y204251D01*
Y203251D01*
X214060Y202252D01*
X213061D01*
X212061Y203251D01*
Y205251D01*
X213061Y206250D01*
X337246Y322276D02*
X342244D01*
X343244Y323276D01*
Y325275D01*
X342244Y326275D01*
X337246D01*
X343244Y328274D02*
Y330274D01*
Y329274D01*
X337246D01*
X338246Y328274D01*
X689421Y245839D02*
X688422Y246839D01*
X686422D01*
X685423Y245839D01*
Y244840D01*
X686422Y243840D01*
X688422D01*
X689421Y242840D01*
Y241841D01*
X688422Y240841D01*
X686422D01*
X685423Y241841D01*
X691421Y246839D02*
Y240841D01*
X693420Y242840D01*
X695419Y240841D01*
Y246839D01*
X701417D02*
X699418Y245839D01*
X697419Y243840D01*
Y241841D01*
X698418Y240841D01*
X700418D01*
X701417Y241841D01*
Y242840D01*
X700418Y243840D01*
X697419D01*
X589091Y244569D02*
X588092Y245569D01*
X586092D01*
X585093Y244569D01*
Y243570D01*
X586092Y242570D01*
X588092D01*
X589091Y241570D01*
Y240571D01*
X588092Y239571D01*
X586092D01*
X585093Y240571D01*
X591091Y245569D02*
Y239571D01*
X593090Y241570D01*
X595089Y239571D01*
Y245569D01*
X601087D02*
X597089D01*
Y242570D01*
X599088Y243570D01*
X600088D01*
X601087Y242570D01*
Y240571D01*
X600088Y239571D01*
X598088D01*
X597089Y240571D01*
X690691Y116299D02*
X689692Y117299D01*
X687692D01*
X686693Y116299D01*
Y115300D01*
X687692Y114300D01*
X689692D01*
X690691Y113300D01*
Y112301D01*
X689692Y111301D01*
X687692D01*
X686693Y112301D01*
X692691Y117299D02*
Y111301D01*
X694690Y113300D01*
X696689Y111301D01*
Y117299D01*
X701688Y111301D02*
Y117299D01*
X698689Y114300D01*
X702687D01*
X590361Y117569D02*
X589362Y118569D01*
X587362D01*
X586363Y117569D01*
Y116570D01*
X587362Y115570D01*
X589362D01*
X590361Y114570D01*
Y113571D01*
X589362Y112571D01*
X587362D01*
X586363Y113571D01*
X592361Y118569D02*
Y112571D01*
X594360Y114570D01*
X596359Y112571D01*
Y118569D01*
X598359Y117569D02*
X599358Y118569D01*
X601358D01*
X602357Y117569D01*
Y116570D01*
X601358Y115570D01*
X600358D01*
X601358D01*
X602357Y114570D01*
Y113571D01*
X601358Y112571D01*
X599358D01*
X598359Y113571D01*
X18509Y89089D02*
X19509Y90088D01*
Y92088D01*
X18509Y93087D01*
X17510D01*
X16510Y92088D01*
Y90088D01*
X15510Y89089D01*
X14511D01*
X13511Y90088D01*
Y92088D01*
X14511Y93087D01*
X19509Y87089D02*
X13511D01*
X15510Y85090D01*
X13511Y83091D01*
X19509D01*
X13511Y77093D02*
Y81091D01*
X17510Y77093D01*
X18509D01*
X19509Y78092D01*
Y80092D01*
X18509Y81091D01*
X17239Y324309D02*
X18239Y325309D01*
Y327308D01*
X17239Y328308D01*
X16240D01*
X15240Y327308D01*
Y325309D01*
X14240Y324309D01*
X13241D01*
X12241Y325309D01*
Y327308D01*
X13241Y328308D01*
X18239Y322310D02*
X12241D01*
X14240Y320310D01*
X12241Y318311D01*
X18239D01*
X12241Y316312D02*
Y314312D01*
Y315312D01*
X18239D01*
X17239Y316312D01*
X477143Y940611D02*
Y946609D01*
X480142D01*
X481141Y945609D01*
Y943610D01*
X480142Y942610D01*
X477143D01*
X479142D02*
X481141Y940611D01*
X483141Y946609D02*
Y940611D01*
X487139D01*
X489139Y945609D02*
X490138Y946609D01*
X492138D01*
X493137Y945609D01*
Y944610D01*
X492138Y943610D01*
X491138D01*
X492138D01*
X493137Y942610D01*
Y941611D01*
X492138Y940611D01*
X490138D01*
X489139Y941611D01*
X266323Y941881D02*
Y947879D01*
X269322D01*
X270321Y946879D01*
Y944880D01*
X269322Y943880D01*
X266323D01*
X268322D02*
X270321Y941881D01*
X272321Y947879D02*
Y941881D01*
X276319D01*
X282317D02*
X278319D01*
X282317Y945880D01*
Y946879D01*
X281318Y947879D01*
X279318D01*
X278319Y946879D01*
X757933Y334821D02*
Y340819D01*
X760932D01*
X761931Y339819D01*
Y337820D01*
X760932Y336820D01*
X757933D01*
X759932D02*
X761931Y334821D01*
X767929D02*
X763931D01*
X767929Y338820D01*
Y339819D01*
X766930Y340819D01*
X764930D01*
X763931Y339819D01*
X769929Y340819D02*
X773927D01*
Y339819D01*
X769929Y335821D01*
Y334821D01*
X760353Y285291D02*
Y291289D01*
X763352D01*
X764351Y290289D01*
Y288290D01*
X763352Y287290D01*
X760353D01*
X762352D02*
X764351Y285291D01*
X770349D02*
X766351D01*
X770349Y289290D01*
Y290289D01*
X769350Y291289D01*
X767350D01*
X766351Y290289D01*
X776347Y291289D02*
X774348Y290289D01*
X772349Y288290D01*
Y286291D01*
X773348Y285291D01*
X775348D01*
X776347Y286291D01*
Y287290D01*
X775348Y288290D01*
X772349D01*
X686259Y696973D02*
X680261D01*
Y699972D01*
X681261Y700971D01*
X683260D01*
X684260Y699972D01*
Y696973D01*
Y698972D02*
X686259Y700971D01*
Y706969D02*
Y702971D01*
X682260Y706969D01*
X681261D01*
X680261Y705970D01*
Y703970D01*
X681261Y702971D01*
X680261Y712967D02*
Y708969D01*
X683260D01*
X682260Y710968D01*
Y711968D01*
X683260Y712967D01*
X685259D01*
X686259Y711968D01*
Y709968D01*
X685259Y708969D01*
X687529Y726063D02*
X681531D01*
Y729062D01*
X682531Y730061D01*
X684530D01*
X685530Y729062D01*
Y726063D01*
Y728062D02*
X687529Y730061D01*
Y736059D02*
Y732061D01*
X683530Y736059D01*
X682531D01*
X681531Y735060D01*
Y733060D01*
X682531Y732061D01*
X687529Y741058D02*
X681531D01*
X684530Y738059D01*
Y742057D01*
X640973Y633271D02*
Y639269D01*
X643972D01*
X644971Y638269D01*
Y636270D01*
X643972Y635270D01*
X640973D01*
X642972D02*
X644971Y633271D01*
X650969D02*
X646971D01*
X650969Y637270D01*
Y638269D01*
X649970Y639269D01*
X647970D01*
X646971Y638269D01*
X652969D02*
X653968Y639269D01*
X655968D01*
X656967Y638269D01*
Y637270D01*
X655968Y636270D01*
X654968D01*
X655968D01*
X656967Y635270D01*
Y634271D01*
X655968Y633271D01*
X653968D01*
X652969Y634271D01*
X466549Y703083D02*
X460551D01*
Y706082D01*
X461551Y707081D01*
X463550D01*
X464550Y706082D01*
Y703083D01*
Y705082D02*
X466549Y707081D01*
Y713079D02*
Y709081D01*
X462550Y713079D01*
X461551D01*
X460551Y712080D01*
Y710080D01*
X461551Y709081D01*
X466549Y719077D02*
Y715079D01*
X462550Y719077D01*
X461551D01*
X460551Y718078D01*
Y716078D01*
X461551Y715079D01*
X467819Y741032D02*
X461821D01*
Y744031D01*
X462821Y745031D01*
X464820D01*
X465820Y744031D01*
Y741032D01*
Y743032D02*
X467819Y745031D01*
Y751029D02*
Y747030D01*
X463820Y751029D01*
X462821D01*
X461821Y750029D01*
Y748030D01*
X462821Y747030D01*
X467819Y753028D02*
Y755028D01*
Y754028D01*
X461821D01*
X462821Y753028D01*
X384433Y634541D02*
Y640539D01*
X387432D01*
X388431Y639539D01*
Y637540D01*
X387432Y636540D01*
X384433D01*
X386432D02*
X388431Y634541D01*
X394429D02*
X390431D01*
X394429Y638540D01*
Y639539D01*
X393430Y640539D01*
X391430D01*
X390431Y639539D01*
X396429D02*
X397428Y640539D01*
X399428D01*
X400427Y639539D01*
Y635541D01*
X399428Y634541D01*
X397428D01*
X396429Y635541D01*
Y639539D01*
X258269Y699893D02*
X252271D01*
Y702891D01*
X253271Y703891D01*
X255270D01*
X256270Y702891D01*
Y699893D01*
Y701892D02*
X258269Y703891D01*
Y705891D02*
Y707890D01*
Y706890D01*
X252271D01*
X253271Y705891D01*
X257269Y710889D02*
X258269Y711889D01*
Y713888D01*
X257269Y714888D01*
X253271D01*
X252271Y713888D01*
Y711889D01*
X253271Y710889D01*
X254270D01*
X255270Y711889D01*
Y714888D01*
X258269Y734183D02*
X252271D01*
Y737181D01*
X253271Y738181D01*
X255270D01*
X256270Y737181D01*
Y734183D01*
Y736182D02*
X258269Y738181D01*
Y740181D02*
Y742180D01*
Y741180D01*
X252271D01*
X253271Y740181D01*
Y745179D02*
X252271Y746179D01*
Y748178D01*
X253271Y749178D01*
X254270D01*
X255270Y748178D01*
X256270Y749178D01*
X257269D01*
X258269Y748178D01*
Y746179D01*
X257269Y745179D01*
X256270D01*
X255270Y746179D01*
X254270Y745179D01*
X253271D01*
X255270Y746179D02*
Y748178D01*
X166493Y630731D02*
Y636729D01*
X169492D01*
X170491Y635729D01*
Y633730D01*
X169492Y632730D01*
X166493D01*
X168492D02*
X170491Y630731D01*
X172491D02*
X174490D01*
X173490D01*
Y636729D01*
X172491Y635729D01*
X177489Y636729D02*
X181488D01*
Y635729D01*
X177489Y631731D01*
Y630731D01*
X664333Y209091D02*
Y215089D01*
X667331D01*
X668331Y214089D01*
Y212090D01*
X667331Y211090D01*
X664333D01*
X666332D02*
X668331Y209091D01*
X670331D02*
X672330D01*
X671330D01*
Y215089D01*
X670331Y214089D01*
X679328Y215089D02*
X677328Y214089D01*
X675329Y212090D01*
Y210091D01*
X676329Y209091D01*
X678328D01*
X679328Y210091D01*
Y211090D01*
X678328Y212090D01*
X675329D01*
X566782Y207821D02*
Y213819D01*
X569781D01*
X570781Y212819D01*
Y210820D01*
X569781Y209820D01*
X566782D01*
X568782D02*
X570781Y207821D01*
X572780D02*
X574780D01*
X573780D01*
Y213819D01*
X572780Y212819D01*
X581778Y213819D02*
X577779D01*
Y210820D01*
X579778Y211820D01*
X580778D01*
X581778Y210820D01*
Y208821D01*
X580778Y207821D01*
X578778D01*
X577779Y208821D01*
X665362Y79551D02*
Y85549D01*
X668362D01*
X669361Y84549D01*
Y82550D01*
X668362Y81550D01*
X665362D01*
X667362D02*
X669361Y79551D01*
X671360D02*
X673360D01*
X672360D01*
Y85549D01*
X671360Y84549D01*
X679358Y79551D02*
Y85549D01*
X676359Y82550D01*
X680358D01*
X575312Y79551D02*
Y85549D01*
X578312D01*
X579311Y84549D01*
Y82550D01*
X578312Y81550D01*
X575312D01*
X577312D02*
X579311Y79551D01*
X581311D02*
X583310D01*
X582310D01*
Y85549D01*
X581311Y84549D01*
X586309D02*
X587309Y85549D01*
X589308D01*
X590308Y84549D01*
Y83550D01*
X589308Y82550D01*
X588308D01*
X589308D01*
X590308Y81550D01*
Y80551D01*
X589308Y79551D01*
X587309D01*
X586309Y80551D01*
X146861Y105288D02*
X152859D01*
Y102289D01*
X151859Y101289D01*
X149860D01*
X148860Y102289D01*
Y105288D01*
Y103288D02*
X146861Y101289D01*
Y99290D02*
Y97290D01*
Y98290D01*
X152859D01*
X151859Y99290D01*
X146861Y90292D02*
Y94291D01*
X150860Y90292D01*
X151859D01*
X152859Y91292D01*
Y93291D01*
X151859Y94291D01*
X111421Y134768D02*
X117419D01*
Y131769D01*
X116419Y130769D01*
X114420D01*
X113420Y131769D01*
Y134768D01*
Y132768D02*
X111421Y130769D01*
Y128770D02*
Y126770D01*
Y127770D01*
X117419D01*
X116419Y128770D01*
X111421Y123771D02*
Y121772D01*
Y122772D01*
X117419D01*
X116419Y123771D01*
X228141Y117867D02*
X234139D01*
Y114868D01*
X233139Y113869D01*
X231140D01*
X230140Y114868D01*
Y117867D01*
Y115868D02*
X228141Y113869D01*
Y111869D02*
Y109870D01*
Y110870D01*
X234139D01*
X233139Y111869D01*
Y106871D02*
X234139Y105871D01*
Y103872D01*
X233139Y102872D01*
X229141D01*
X228141Y103872D01*
Y105871D01*
X229141Y106871D01*
X233139D01*
X177341Y102908D02*
X183339D01*
Y99909D01*
X182339Y98910D01*
X180340D01*
X179340Y99909D01*
Y102908D01*
Y100909D02*
X177341Y98910D01*
X178341Y96910D02*
X177341Y95911D01*
Y93911D01*
X178341Y92912D01*
X182339D01*
X183339Y93911D01*
Y95911D01*
X182339Y96910D01*
X181340D01*
X180340Y95911D01*
Y92912D01*
X111301Y280588D02*
X117299D01*
Y277589D01*
X116299Y276590D01*
X114300D01*
X113300Y277589D01*
Y280588D01*
Y278589D02*
X111301Y276590D01*
X116299Y274590D02*
X117299Y273591D01*
Y271591D01*
X116299Y270592D01*
X115300D01*
X114300Y271591D01*
X113300Y270592D01*
X112301D01*
X111301Y271591D01*
Y273591D01*
X112301Y274590D01*
X113300D01*
X114300Y273591D01*
X115300Y274590D01*
X116299D01*
X114300Y273591D02*
Y271591D01*
X239571Y137198D02*
X245569D01*
Y134199D01*
X244569Y133200D01*
X242570D01*
X241570Y134199D01*
Y137198D01*
Y135199D02*
X239571Y133200D01*
X245569Y131200D02*
Y127202D01*
X244569D01*
X240571Y131200D01*
X239571D01*
X110151Y71038D02*
X116149D01*
Y68039D01*
X115149Y67040D01*
X113150D01*
X112150Y68039D01*
Y71038D01*
Y69039D02*
X110151Y67040D01*
X116149Y61042D02*
X115149Y63041D01*
X113150Y65040D01*
X111151D01*
X110151Y64041D01*
Y62041D01*
X111151Y61042D01*
X112150D01*
X113150Y62041D01*
Y65040D01*
X113841Y345358D02*
X119839D01*
Y342359D01*
X118839Y341360D01*
X116840D01*
X115840Y342359D01*
Y345358D01*
Y343359D02*
X113841Y341360D01*
X119839Y335362D02*
Y339360D01*
X116840D01*
X117840Y337361D01*
Y336361D01*
X116840Y335362D01*
X114841D01*
X113841Y336361D01*
Y338361D01*
X114841Y339360D01*
X137539Y234573D02*
X143537D01*
Y231574D01*
X142538Y230574D01*
X140538D01*
X139539Y231574D01*
Y234573D01*
Y232574D02*
X137539Y230574D01*
Y225576D02*
X143537D01*
X140538Y228575D01*
Y224576D01*
X542372Y52881D02*
Y58879D01*
X545371D01*
X546370Y57879D01*
Y55880D01*
X545371Y54880D01*
X542372D01*
X544371D02*
X546370Y52881D01*
X548370Y57879D02*
X549369Y58879D01*
X551369D01*
X552368Y57879D01*
Y56880D01*
X551369Y55880D01*
X550369D01*
X551369D01*
X552368Y54880D01*
Y53881D01*
X551369Y52881D01*
X549369D01*
X548370Y53881D01*
X316312Y167181D02*
Y173179D01*
X319311D01*
X320310Y172179D01*
Y170180D01*
X319311Y169180D01*
X316312D01*
X318311D02*
X320310Y167181D01*
X326308D02*
X322310D01*
X326308Y171180D01*
Y172179D01*
X325309Y173179D01*
X323309D01*
X322310Y172179D01*
X623381Y341171D02*
Y347169D01*
X626380D01*
X627380Y346169D01*
Y344170D01*
X626380Y343170D01*
X623381D01*
X625381D02*
X627380Y341171D01*
X629379D02*
X631379D01*
X630379D01*
Y347169D01*
X629379Y346169D01*
X550639Y716550D02*
X546641D01*
X545641Y715551D01*
Y713551D01*
X546641Y712552D01*
X550639D01*
X551639Y713551D01*
Y715551D01*
X549640Y714551D02*
X551639Y716550D01*
Y715551D02*
X550639Y716550D01*
X545641Y722548D02*
Y718550D01*
X548640D01*
X547640Y720549D01*
Y721549D01*
X548640Y722548D01*
X550639D01*
X551639Y721549D01*
Y719549D01*
X550639Y718550D01*
X337279Y722900D02*
X333281D01*
X332281Y721901D01*
Y719901D01*
X333281Y718902D01*
X337279D01*
X338279Y719901D01*
Y721901D01*
X336280Y720901D02*
X338279Y722900D01*
Y721901D02*
X337279Y722900D01*
X338279Y727899D02*
X332281D01*
X335280Y724900D01*
Y728898D01*
X117569Y722900D02*
X113571D01*
X112571Y721901D01*
Y719901D01*
X113571Y718902D01*
X117569D01*
X118569Y719901D01*
Y721901D01*
X116570Y720901D02*
X118569Y722900D01*
Y721901D02*
X117569Y722900D01*
X113571Y724900D02*
X112571Y725899D01*
Y727899D01*
X113571Y728898D01*
X114570D01*
X115570Y727899D01*
Y726899D01*
Y727899D01*
X116570Y728898D01*
X117569D01*
X118569Y727899D01*
Y725899D01*
X117569Y724900D01*
X115840Y324391D02*
Y328389D01*
X114841Y329389D01*
X112841D01*
X111842Y328389D01*
Y324391D01*
X112841Y323391D01*
X114841D01*
X113841Y325390D02*
X115840Y323391D01*
X114841D02*
X115840Y324391D01*
X121838Y323391D02*
X117840D01*
X121838Y327390D01*
Y328389D01*
X120839Y329389D01*
X118839D01*
X117840Y328389D01*
X121191Y88900D02*
X125189D01*
X126189Y89900D01*
Y91899D01*
X125189Y92899D01*
X121191D01*
X120191Y91899D01*
Y89900D01*
X122190Y90899D02*
X120191Y88900D01*
Y89900D02*
X121191Y88900D01*
X120191Y86901D02*
Y84901D01*
Y85901D01*
X126189D01*
X125189Y86901D01*
X677721Y666373D02*
X683719D01*
Y670371D01*
X677721Y672371D02*
X683719D01*
Y675370D01*
X682719Y676369D01*
X678721D01*
X677721Y675370D01*
Y672371D01*
Y682367D02*
Y678369D01*
X680720D01*
X679720Y680368D01*
Y681368D01*
X680720Y682367D01*
X682719D01*
X683719Y681368D01*
Y679368D01*
X682719Y678369D01*
X460551Y665963D02*
X466549D01*
Y669961D01*
X460551Y671961D02*
X466549D01*
Y674960D01*
X465549Y675959D01*
X461551D01*
X460551Y674960D01*
Y671961D01*
X466549Y680958D02*
X460551D01*
X463550Y677959D01*
Y681957D01*
X249731Y668913D02*
X255729D01*
Y672911D01*
X249731Y674911D02*
X255729D01*
Y677910D01*
X254729Y678909D01*
X250731D01*
X249731Y677910D01*
Y674911D01*
X250731Y680909D02*
X249731Y681908D01*
Y683908D01*
X250731Y684907D01*
X251730D01*
X252730Y683908D01*
Y682908D01*
Y683908D01*
X253730Y684907D01*
X254729D01*
X255729Y683908D01*
Y681908D01*
X254729Y680909D01*
X677369Y406777D02*
X671371D01*
Y402779D01*
X677369Y400779D02*
X671371D01*
Y397780D01*
X672371Y396781D01*
X676369D01*
X677369Y397780D01*
Y400779D01*
X671371Y390783D02*
Y394781D01*
X675370Y390783D01*
X676369D01*
X677369Y391782D01*
Y393782D01*
X676369Y394781D01*
X135079Y257188D02*
X129081D01*
Y253189D01*
X135079Y251190D02*
X129081D01*
Y248191D01*
X130081Y247191D01*
X134079D01*
X135079Y248191D01*
Y251190D01*
X129081Y245192D02*
Y243192D01*
Y244192D01*
X135079D01*
X134079Y245192D01*
X485821Y1032969D02*
X483822D01*
X484822D01*
Y1027971D01*
X483822Y1026971D01*
X482822D01*
X481823Y1027971D01*
X487821Y1026971D02*
Y1032969D01*
X490820D01*
X491819Y1031969D01*
Y1029970D01*
X490820Y1028970D01*
X487821D01*
X493819Y1031969D02*
X494818Y1032969D01*
X496818D01*
X497817Y1031969D01*
Y1030970D01*
X496818Y1029970D01*
X495818D01*
X496818D01*
X497817Y1028970D01*
Y1027971D01*
X496818Y1026971D01*
X494818D01*
X493819Y1027971D01*
X274131Y1031699D02*
X272132D01*
X273132D01*
Y1026701D01*
X272132Y1025701D01*
X271132D01*
X270133Y1026701D01*
X276131Y1025701D02*
Y1031699D01*
X279130D01*
X280129Y1030699D01*
Y1028700D01*
X279130Y1027700D01*
X276131D01*
X286127Y1025701D02*
X282129D01*
X286127Y1029700D01*
Y1030699D01*
X285128Y1031699D01*
X283128D01*
X282129Y1030699D01*
X56691Y1032969D02*
X54692D01*
X55691D01*
Y1027971D01*
X54692Y1026971D01*
X53692D01*
X52692Y1027971D01*
X58690Y1026971D02*
Y1032969D01*
X61689D01*
X62689Y1031969D01*
Y1029970D01*
X61689Y1028970D01*
X58690D01*
X64688Y1026971D02*
X66688D01*
X65688D01*
Y1032969D01*
X64688Y1031969D01*
X23916Y501060D02*
X21916D01*
X22916D01*
Y496062D01*
X21916Y495062D01*
X20917D01*
X19917Y496062D01*
X25915Y495062D02*
Y499061D01*
X27915Y501060D01*
X29914Y499061D01*
Y495062D01*
Y498061D01*
X25915D01*
X35912Y500060D02*
X34912Y501060D01*
X32913D01*
X31913Y500060D01*
Y496062D01*
X32913Y495062D01*
X34912D01*
X35912Y496062D01*
X37911Y501060D02*
Y495062D01*
Y497061D01*
X41910Y501060D01*
X38911Y498061D01*
X41910Y495062D01*
X49907Y501060D02*
Y495062D01*
X52906D01*
X53906Y496062D01*
Y500060D01*
X52906Y501060D01*
X49907D01*
X59904Y500060D02*
X58905Y501060D01*
X56905D01*
X55905Y500060D01*
Y496062D01*
X56905Y495062D01*
X58905D01*
X59904Y496062D01*
X61904Y495062D02*
X63903D01*
X62903D01*
Y501060D01*
X61904Y500060D01*
X1205500Y86819D02*
X1203501D01*
X1204501D01*
Y81821D01*
X1203501Y80821D01*
X1202501D01*
X1201502Y81821D01*
X1211498Y86819D02*
X1207500D01*
Y83820D01*
X1209499Y84820D01*
X1210499D01*
X1211498Y83820D01*
Y81821D01*
X1210499Y80821D01*
X1208499D01*
X1207500Y81821D01*
X825770Y71579D02*
X823771D01*
X824771D01*
Y66581D01*
X823771Y65581D01*
X822771D01*
X821772Y66581D01*
X830769Y65581D02*
Y71579D01*
X827770Y68580D01*
X831768D01*
X669560Y60149D02*
X667561D01*
X668561D01*
Y55151D01*
X667561Y54151D01*
X666561D01*
X665562Y55151D01*
X671560Y59149D02*
X672559Y60149D01*
X674559D01*
X675558Y59149D01*
Y58150D01*
X674559Y57150D01*
X673559D01*
X674559D01*
X675558Y56150D01*
Y55151D01*
X674559Y54151D01*
X672559D01*
X671560Y55151D01*
X1304560Y75389D02*
X1302561D01*
X1303561D01*
Y70391D01*
X1302561Y69391D01*
X1301561D01*
X1300562Y70391D01*
X1310558Y69391D02*
X1306560D01*
X1310558Y73390D01*
Y74389D01*
X1309559Y75389D01*
X1307559D01*
X1306560Y74389D01*
X550991Y89359D02*
Y83361D01*
Y86360D01*
X554990D01*
Y89359D01*
Y83361D01*
X556989D02*
X558989D01*
X557989D01*
Y89359D01*
X556989Y88359D01*
X544019Y693338D02*
X538021D01*
Y690339D01*
X539021Y689340D01*
X543019D01*
X544019Y690339D01*
Y693338D01*
Y687340D02*
Y683342D01*
X543019D01*
X539021Y687340D01*
X538021D01*
X330659Y694608D02*
X324661D01*
Y691609D01*
X325661Y690610D01*
X329659D01*
X330659Y691609D01*
Y694608D01*
Y684612D02*
X329659Y686611D01*
X327660Y688610D01*
X325661D01*
X324661Y687611D01*
Y685611D01*
X325661Y684612D01*
X326660D01*
X327660Y685611D01*
Y688610D01*
X168099Y293288D02*
X162101D01*
Y290289D01*
X163101Y289290D01*
X167099D01*
X168099Y290289D01*
Y293288D01*
X162101Y284291D02*
X168099D01*
X165100Y287290D01*
Y283292D01*
X196039Y290998D02*
X190041D01*
Y287999D01*
X191041Y287000D01*
X195039D01*
X196039Y287999D01*
Y290998D01*
X195039Y285000D02*
X196039Y284001D01*
Y282001D01*
X195039Y281002D01*
X194040D01*
X193040Y282001D01*
Y283001D01*
Y282001D01*
X192040Y281002D01*
X191041D01*
X190041Y282001D01*
Y284001D01*
X191041Y285000D01*
X222709Y336468D02*
X216711D01*
Y333469D01*
X217711Y332470D01*
X221709D01*
X222709Y333469D01*
Y336468D01*
X216711Y326472D02*
Y330470D01*
X220710Y326472D01*
X221709D01*
X222709Y327471D01*
Y329471D01*
X221709Y330470D01*
X665291Y419559D02*
Y413561D01*
X668290D01*
X669290Y414561D01*
Y418559D01*
X668290Y419559D01*
X665291D01*
X671289Y413561D02*
X673289D01*
X672289D01*
Y419559D01*
X671289Y418559D01*
X702578Y214171D02*
X701578Y215171D01*
X699578D01*
X698579Y214171D01*
Y210172D01*
X699578Y209173D01*
X701578D01*
X702578Y210172D01*
X704577Y209173D02*
X706576D01*
X705577D01*
Y215171D01*
X704577Y214171D01*
X709575D02*
X710575Y215171D01*
X712574D01*
X713574Y214171D01*
Y213171D01*
X712574Y212172D01*
X713574Y211172D01*
Y210172D01*
X712574Y209173D01*
X710575D01*
X709575Y210172D01*
Y211172D01*
X710575Y212172D01*
X709575Y213171D01*
Y214171D01*
X710575Y212172D02*
X712574D01*
X606101Y212819D02*
X605102Y213819D01*
X603102D01*
X602103Y212819D01*
Y208821D01*
X603102Y207821D01*
X605102D01*
X606101Y208821D01*
X608101Y207821D02*
X610100D01*
X609100D01*
Y213819D01*
X608101Y212819D01*
X613099Y213819D02*
X617098D01*
Y212819D01*
X613099Y208821D01*
Y207821D01*
X710241Y84549D02*
X709241Y85549D01*
X707242D01*
X706243Y84549D01*
Y80551D01*
X707242Y79551D01*
X709241D01*
X710241Y80551D01*
X712241Y79551D02*
X714240D01*
X713240D01*
Y85549D01*
X712241Y84549D01*
X721238Y85549D02*
X719238Y84549D01*
X717239Y82550D01*
Y80551D01*
X718239Y79551D01*
X720238D01*
X721238Y80551D01*
Y81550D01*
X720238Y82550D01*
X717239D01*
X622611Y83279D02*
X621612Y84279D01*
X619612D01*
X618613Y83279D01*
Y79281D01*
X619612Y78281D01*
X621612D01*
X622611Y79281D01*
X624610Y78281D02*
X626610D01*
X625610D01*
Y84279D01*
X624610Y83279D01*
X633608Y84279D02*
X629609D01*
Y81280D01*
X631608Y82280D01*
X632608D01*
X633608Y81280D01*
Y79281D01*
X632608Y78281D01*
X630608D01*
X629609Y79281D01*
X115029Y50489D02*
X116029Y51488D01*
Y53488D01*
X115029Y54488D01*
X111031D01*
X110031Y53488D01*
Y51488D01*
X111031Y50489D01*
X110031Y48489D02*
Y46490D01*
Y47490D01*
X116029D01*
X115029Y48489D01*
X110031Y40492D02*
X116029D01*
X113030Y43491D01*
Y39492D01*
X118599Y359099D02*
X119599Y360098D01*
Y362098D01*
X118599Y363097D01*
X114601D01*
X113601Y362098D01*
Y360098D01*
X114601Y359099D01*
X113601Y357099D02*
Y355100D01*
Y356100D01*
X119599D01*
X118599Y357099D01*
Y352101D02*
X119599Y351101D01*
Y349102D01*
X118599Y348102D01*
X117600D01*
X116600Y349102D01*
Y350102D01*
Y349102D01*
X115600Y348102D01*
X114601D01*
X113601Y349102D01*
Y351101D01*
X114601Y352101D01*
X216826Y234720D02*
X217825Y235720D01*
Y237720D01*
X216826Y238719D01*
X212827D01*
X211827Y237720D01*
Y235720D01*
X212827Y234720D01*
X211827Y232721D02*
Y230722D01*
Y231721D01*
X217825D01*
X216826Y232721D01*
X211827Y223724D02*
Y227723D01*
X215826Y223724D01*
X216826D01*
X217825Y224724D01*
Y226723D01*
X216826Y227723D01*
X216629Y255229D02*
X217629Y256229D01*
Y258228D01*
X216629Y259228D01*
X212631D01*
X211631Y258228D01*
Y256229D01*
X212631Y255229D01*
X211631Y253230D02*
Y251231D01*
Y252230D01*
X217629D01*
X216629Y253230D01*
X211631Y248232D02*
Y246232D01*
Y247232D01*
X217629D01*
X216629Y248232D01*
X240759Y213049D02*
X241759Y214049D01*
Y216048D01*
X240759Y217048D01*
X236761D01*
X235761Y216048D01*
Y214049D01*
X236761Y213049D01*
X235761Y211049D02*
Y209050D01*
Y210050D01*
X241759D01*
X240759Y211049D01*
Y206051D02*
X241759Y205051D01*
Y203052D01*
X240759Y202052D01*
X236761D01*
X235761Y203052D01*
Y205051D01*
X236761Y206051D01*
X240759D01*
X258080Y177259D02*
X257081Y178259D01*
X255081D01*
X254082Y177259D01*
Y173261D01*
X255081Y172261D01*
X257081D01*
X258080Y173261D01*
X260080D02*
X261079Y172261D01*
X263079D01*
X264078Y173261D01*
Y177259D01*
X263079Y178259D01*
X261079D01*
X260080Y177259D01*
Y176260D01*
X261079Y175260D01*
X264078D01*
X321580Y154399D02*
X320581Y155399D01*
X318581D01*
X317582Y154399D01*
Y150401D01*
X318581Y149401D01*
X320581D01*
X321580Y150401D01*
X323580Y154399D02*
X324579Y155399D01*
X326579D01*
X327578Y154399D01*
Y153400D01*
X326579Y152400D01*
X327578Y151400D01*
Y150401D01*
X326579Y149401D01*
X324579D01*
X323580Y150401D01*
Y151400D01*
X324579Y152400D01*
X323580Y153400D01*
Y154399D01*
X324579Y152400D02*
X326579D01*
X324120Y210279D02*
X323121Y211279D01*
X321121D01*
X320122Y210279D01*
Y206281D01*
X321121Y205281D01*
X323121D01*
X324120Y206281D01*
X326120Y211279D02*
X330118D01*
Y210279D01*
X326120Y206281D01*
Y205281D01*
X275860Y211549D02*
X274861Y212549D01*
X272861D01*
X271862Y211549D01*
Y207551D01*
X272861Y206551D01*
X274861D01*
X275860Y207551D01*
X281858Y212549D02*
X279859Y211549D01*
X277860Y209550D01*
Y207551D01*
X278859Y206551D01*
X280859D01*
X281858Y207551D01*
Y208550D01*
X280859Y209550D01*
X277860D01*
X266970Y221709D02*
X265971Y222709D01*
X263971D01*
X262972Y221709D01*
Y217711D01*
X263971Y216711D01*
X265971D01*
X266970Y217711D01*
X272968Y222709D02*
X268970D01*
Y219710D01*
X270969Y220710D01*
X271969D01*
X272968Y219710D01*
Y217711D01*
X271969Y216711D01*
X269969D01*
X268970Y217711D01*
X645430Y346169D02*
X644431Y347169D01*
X642431D01*
X641432Y346169D01*
Y342171D01*
X642431Y341171D01*
X644431D01*
X645430Y342171D01*
X650429Y341171D02*
Y347169D01*
X647430Y344170D01*
X651428D01*
X667020Y346169D02*
X666021Y347169D01*
X664021D01*
X663022Y346169D01*
Y342171D01*
X664021Y341171D01*
X666021D01*
X667020Y342171D01*
X669020Y346169D02*
X670019Y347169D01*
X672019D01*
X673018Y346169D01*
Y345170D01*
X672019Y344170D01*
X671019D01*
X672019D01*
X673018Y343170D01*
Y342171D01*
X672019Y341171D01*
X670019D01*
X669020Y342171D01*
X279820Y423451D02*
X280820Y422451D01*
X282819D01*
X283819Y423451D01*
Y427449D01*
X282819Y428449D01*
X280820D01*
X279820Y427449D01*
X277821Y428449D02*
X275821D01*
X276821D01*
Y422451D01*
X277821Y423451D01*
D15*
X158870Y276190D02*
Y288190D01*
X148470Y276190D02*
Y288190D01*
X201960Y155580D02*
Y161580D01*
X195960Y155580D02*
X201960D01*
X151960D02*
X157960D01*
X151960D02*
Y161580D01*
Y199580D02*
Y205580D01*
X157960D01*
X195960D02*
X201960D01*
Y199580D02*
Y205580D01*
X689610Y652370D02*
Y685390D01*
X707390D01*
Y652370D02*
Y685390D01*
X693420Y649830D02*
X703580D01*
X185540Y276190D02*
Y288190D01*
X175140Y276190D02*
Y288190D01*
X139700Y242570D02*
X172720D01*
X139700D02*
Y260350D01*
X172720D01*
X175260Y246380D02*
Y256540D01*
X631190Y407670D02*
X664210D01*
Y389890D02*
Y407670D01*
X631190Y389890D02*
X664210D01*
X628650Y393700D02*
Y403860D01*
X261620Y651510D02*
Y684530D01*
X279400D01*
Y651510D02*
Y684530D01*
X265430Y648970D02*
X275590D01*
X472440Y648560D02*
Y681580D01*
X490220D01*
Y648560D02*
Y681580D01*
X476250Y646020D02*
X486410D01*
D16*
X113030Y293370D02*
Y318770D01*
X102870D02*
X113030D01*
X80010Y293370D02*
Y318770D01*
X90170D01*
X618490Y679450D02*
X624840D01*
Y704850D01*
X618490D02*
X624840D01*
X618490Y666750D02*
Y717550D01*
Y666750D02*
X669290D01*
Y717550D01*
X618490D02*
X669290D01*
X80010Y83820D02*
Y109220D01*
Y83820D02*
X90170D01*
X113030D02*
Y109220D01*
X102870Y83820D02*
X113030D01*
X193040Y681990D02*
X199390D01*
Y707390D01*
X193040D02*
X199390D01*
X193040Y669290D02*
Y720090D01*
Y669290D02*
X243840D01*
Y720090D01*
X193040D02*
X243840D01*
X403860Y683260D02*
X410210D01*
Y708660D01*
X403860D02*
X410210D01*
X403860Y670560D02*
Y721360D01*
Y670560D02*
X454660D01*
Y721360D01*
X403860D02*
X454660D01*
D17*
X758698Y180848D02*
X770382D01*
Y208026D01*
X758698D02*
X770382D01*
X758698Y180848D02*
Y208026D01*
X760476Y193294D02*
Y195326D01*
X768604Y193294D02*
Y195326D01*
X697618Y220218D02*
Y231902D01*
Y220218D02*
X724796D01*
Y231902D01*
X697618D02*
X724796D01*
X710064Y230124D02*
X712096D01*
X710064Y221996D02*
X712096D01*
X660990Y353492D02*
X672674D01*
Y380670D01*
X660990D02*
X672674D01*
X660990Y353492D02*
Y380670D01*
X662768Y365938D02*
Y367970D01*
X670896Y365938D02*
Y367970D01*
X640670Y353492D02*
X652354D01*
Y380670D01*
X640670D02*
X652354D01*
X640670Y353492D02*
Y380670D01*
X642448Y365938D02*
Y367970D01*
X650576Y365938D02*
Y367970D01*
X278968Y225380D02*
Y237064D01*
X251790D02*
X278968D01*
X251790Y225380D02*
Y237064D01*
Y225380D02*
X278968D01*
X264490Y227158D02*
X266522D01*
X264490Y235286D02*
X266522D01*
X284988Y236862D02*
X296672D01*
X284988Y209684D02*
Y236862D01*
Y209684D02*
X296672D01*
Y236862D01*
X294894Y222384D02*
Y224416D01*
X286766Y222384D02*
Y224416D01*
X303956Y237058D02*
X315640D01*
X303956Y209880D02*
Y237058D01*
Y209880D02*
X315640D01*
Y237058D01*
X313862Y222580D02*
Y224612D01*
X305734Y222580D02*
Y224612D01*
X312032Y145288D02*
Y156972D01*
X284854D02*
X312032D01*
X284854Y145288D02*
Y156972D01*
Y145288D02*
X312032D01*
X297554Y147066D02*
X299586D01*
X297554Y155194D02*
X299586D01*
X253162Y184576D02*
Y196260D01*
Y184576D02*
X280340D01*
Y196260D01*
X253162D02*
X280340D01*
X265608Y194482D02*
X267640D01*
X265608Y186354D02*
X267640D01*
X235376Y196418D02*
X247060D01*
X235376Y169240D02*
Y196418D01*
Y169240D02*
X247060D01*
Y196418D01*
X245282Y181940D02*
Y183972D01*
X237154Y181940D02*
Y183972D01*
X207652Y245618D02*
Y257302D01*
X180474D02*
X207652D01*
X180474Y245618D02*
Y257302D01*
Y245618D02*
X207652D01*
X193174Y247396D02*
X195206D01*
X193174Y255524D02*
X195206D01*
X207848Y225380D02*
Y237064D01*
X180670D02*
X207848D01*
X180670Y225380D02*
Y237064D01*
Y225380D02*
X207848D01*
X193370Y227158D02*
X195402D01*
X193370Y235286D02*
X195402D01*
X108592Y351028D02*
Y362712D01*
X81414D02*
X108592D01*
X81414Y351028D02*
Y362712D01*
Y351028D02*
X108592D01*
X94114Y352806D02*
X96146D01*
X94114Y360934D02*
X96146D01*
X102242Y43688D02*
Y55372D01*
X75064D02*
X102242D01*
X75064Y43688D02*
Y55372D01*
Y43688D02*
X102242D01*
X87764Y45466D02*
X89796D01*
X87764Y53594D02*
X89796D01*
X608762Y90596D02*
Y102280D01*
Y90596D02*
X635940D01*
Y102280D01*
X608762D02*
X635940D01*
X621208Y100502D02*
X623240D01*
X621208Y92374D02*
X623240D01*
X705282Y90596D02*
Y102280D01*
Y90596D02*
X732460D01*
Y102280D01*
X705282D02*
X732460D01*
X717728Y100502D02*
X719760D01*
X717728Y92374D02*
X719760D01*
X599872Y220136D02*
Y231820D01*
Y220136D02*
X627050D01*
Y231820D01*
X599872D02*
X627050D01*
X612318Y230042D02*
X614350D01*
X612318Y221914D02*
X614350D01*
X623316Y366014D02*
Y368046D01*
X631444Y366014D02*
Y368046D01*
X633222Y353314D02*
Y380492D01*
X621538Y353314D02*
X633222D01*
X621538D02*
Y380492D01*
X633222D01*
X297554Y174244D02*
X299586D01*
X297554Y166116D02*
X299586D01*
X284854Y164338D02*
X312032D01*
X284854D02*
Y176022D01*
X312032D01*
Y164338D02*
Y176022D01*
X522224Y59944D02*
X524256D01*
X522224Y51816D02*
X524256D01*
X509524Y50038D02*
X536702D01*
X509524D02*
Y61722D01*
X536702D01*
Y50038D02*
Y61722D01*
X162382Y225511D02*
X164414D01*
X162382Y233639D02*
X164414D01*
X149936Y235417D02*
X177114D01*
Y223733D02*
Y235417D01*
X149936Y223733D02*
X177114D01*
X149936D02*
Y235417D01*
X94234Y341884D02*
X96266D01*
X94234Y333756D02*
X96266D01*
X81534Y331978D02*
X108712D01*
X81534D02*
Y343662D01*
X108712D01*
Y331978D02*
Y343662D01*
X88004Y71374D02*
X90036D01*
X88004Y63246D02*
X90036D01*
X75304Y61468D02*
X102482D01*
X75304D02*
Y73152D01*
X102482D01*
Y61468D02*
Y73152D01*
X233934Y137534D02*
Y139566D01*
X225806Y137534D02*
Y139566D01*
X224028Y125088D02*
Y152266D01*
X235712D01*
Y125088D02*
Y152266D01*
X224028Y125088D02*
X235712D01*
X94234Y270256D02*
X96266D01*
X94234Y278384D02*
X96266D01*
X81788Y280162D02*
X108966D01*
Y268478D02*
Y280162D01*
X81788Y268478D02*
X108966D01*
X81788D02*
Y280162D01*
X176276Y121024D02*
Y123056D01*
X184404Y121024D02*
Y123056D01*
X186182Y108324D02*
Y135502D01*
X174498Y108324D02*
X186182D01*
X174498D02*
Y135502D01*
X186182D01*
X213106Y104394D02*
Y106426D01*
X221234Y104394D02*
Y106426D01*
X223012Y91694D02*
Y118872D01*
X211328Y91694D02*
X223012D01*
X211328D02*
Y118872D01*
X223012D01*
X92964Y128016D02*
X94996D01*
X92964Y136144D02*
X94996D01*
X80518Y137922D02*
X107696D01*
Y126238D02*
Y137922D01*
X80518Y126238D02*
X107696D01*
X80518D02*
Y137922D01*
X147066Y122174D02*
Y124206D01*
X155194Y122174D02*
Y124206D01*
X156972Y109474D02*
Y136652D01*
X145288Y109474D02*
X156972D01*
X145288D02*
Y136652D01*
X156972D01*
X579374Y92456D02*
X581406D01*
X579374Y100584D02*
X581406D01*
X566928Y102362D02*
X594106D01*
Y90678D02*
Y102362D01*
X566928Y90678D02*
X594106D01*
X566928D02*
Y102362D01*
X677044Y92456D02*
X679076D01*
X677044Y100584D02*
X679076D01*
X664598Y102362D02*
X691776D01*
Y90678D02*
Y102362D01*
X664598Y90678D02*
X691776D01*
X664598D02*
Y102362D01*
X578224Y221996D02*
X580256D01*
X578224Y230124D02*
X580256D01*
X565778Y231902D02*
X592956D01*
Y220218D02*
Y231902D01*
X565778Y220218D02*
X592956D01*
X565778D02*
Y231902D01*
X675894Y221996D02*
X677926D01*
X675894Y230124D02*
X677926D01*
X663448Y231902D02*
X690626D01*
Y220218D02*
Y231902D01*
X663448Y220218D02*
X690626D01*
X663448D02*
Y231902D01*
X200914Y629666D02*
X202946D01*
X200914Y637794D02*
X202946D01*
X188468Y639572D02*
X215646D01*
Y627888D02*
Y639572D01*
X188468Y627888D02*
X215646D01*
X188468D02*
Y639572D01*
X274574Y735584D02*
Y737616D01*
X266446Y735584D02*
Y737616D01*
X264668Y723138D02*
Y750316D01*
X276352D01*
Y723138D02*
Y750316D01*
X264668Y723138D02*
X276352D01*
X266446Y702684D02*
Y704716D01*
X274574Y702684D02*
Y704716D01*
X276352Y689984D02*
Y717162D01*
X264668Y689984D02*
X276352D01*
X264668D02*
Y717162D01*
X276352D01*
X419354Y632206D02*
X421386D01*
X419354Y640334D02*
X421386D01*
X406908Y642112D02*
X434086D01*
Y630428D02*
Y642112D01*
X406908Y630428D02*
X434086D01*
X406908D02*
Y642112D01*
X482854Y739394D02*
Y741426D01*
X474726Y739394D02*
Y741426D01*
X472948Y726948D02*
Y754126D01*
X484632D01*
Y726948D02*
Y754126D01*
X472948Y726948D02*
X484632D01*
X474726Y701294D02*
Y703326D01*
X482854Y701294D02*
Y703326D01*
X484632Y688594D02*
Y715772D01*
X472948Y688594D02*
X484632D01*
X472948D02*
Y715772D01*
X484632D01*
X627126Y625094D02*
Y627126D01*
X635254Y625094D02*
Y627126D01*
X637032Y612394D02*
Y639572D01*
X625348Y612394D02*
X637032D01*
X625348D02*
Y639572D01*
X637032D01*
X702564Y735584D02*
Y737616D01*
X694436Y735584D02*
Y737616D01*
X692658Y723138D02*
Y750316D01*
X704342D01*
Y723138D02*
Y750316D01*
X692658Y723138D02*
X704342D01*
X702564Y703834D02*
Y705866D01*
X694436Y703834D02*
Y705866D01*
X692658Y691388D02*
Y718566D01*
X704342D01*
Y691388D02*
Y718566D01*
X692658Y691388D02*
X704342D01*
X771144Y307594D02*
X773176D01*
X771144Y299466D02*
X773176D01*
X758444Y297688D02*
X785622D01*
X758444D02*
Y309372D01*
X785622D01*
Y297688D02*
Y309372D01*
X771144Y327914D02*
X773176D01*
X771144Y319786D02*
X773176D01*
X758444Y318008D02*
X785622D01*
X758444D02*
Y329692D01*
X785622D01*
Y318008D02*
Y329692D01*
X196088Y107188D02*
X207772D01*
Y134366D01*
X196088D02*
X207772D01*
X196088Y107188D02*
Y134366D01*
X197866Y119634D02*
Y121666D01*
X205994Y119634D02*
Y121666D01*
X775208Y180968D02*
X786892D01*
Y208146D01*
X775208D02*
X786892D01*
X775208Y180968D02*
Y208146D01*
X776986Y193414D02*
Y195446D01*
X785114Y193414D02*
Y195446D01*
D18*
X335247Y259115D02*
X343711Y250651D01*
X335247D02*
X343711Y259115D01*
X335247Y254883D02*
X343711D01*
X339479Y250651D02*
Y259115D01*
D19*
X43180Y85108D02*
D03*
X41910Y322014D02*
D03*
M02*
